STARTFONT 2.1
COMMENT
COMMENT Converted from OpenType font "nanum.ttf" by "otf2bdf 3.0".
COMMENT
FONT -FreeType-NanumGothic-Medium-R-Normal--8-60-100-100-P-66-ISO10646-1
SIZE 6 100 100
FONTBOUNDINGBOX 8 9 0 -2
STARTPROPERTIES 19
FOUNDRY "FreeType"
FAMILY_NAME "NanumGothic"
WEIGHT_NAME "Medium"
SLANT "R"
SETWIDTH_NAME "Normal"
ADD_STYLE_NAME ""
PIXEL_SIZE 8
POINT_SIZE 60
RESOLUTION_X 100
RESOLUTION_Y 100
SPACING "P"
AVERAGE_WIDTH 66
CHARSET_REGISTRY "ISO10646"
CHARSET_ENCODING "1"
FONT_ASCENT 7
FONT_DESCENT 1
COPYRIGHT "Copyright © 2011 NHN Corporation. All rights reserved. Font designed by Sandoll Communications Inc."
_OTF_FONTFILE "nanum.ttf"
_OTF_PSNAME "NanumGothic"
ENDPROPERTIES
CHARS 17666
STARTCHAR 0000
ENCODING 0
SWIDTH 240 0
DWIDTH 2 0
BBX 0 0 0 0
BITMAP
ENDCHAR
STARTCHAR 0001
ENCODING 1
SWIDTH 240 0
DWIDTH 2 0
BBX 0 0 0 0
BITMAP
ENDCHAR
STARTCHAR 0002
ENCODING 2
SWIDTH 240 0
DWIDTH 2 0
BBX 0 0 0 0
BITMAP
ENDCHAR
STARTCHAR 0003
ENCODING 3
SWIDTH 240 0
DWIDTH 2 0
BBX 0 0 0 0
BITMAP
ENDCHAR
STARTCHAR 0004
ENCODING 4
SWIDTH 240 0
DWIDTH 2 0
BBX 0 0 0 0
BITMAP
ENDCHAR
STARTCHAR 0005
ENCODING 5
SWIDTH 240 0
DWIDTH 2 0
BBX 0 0 0 0
BITMAP
ENDCHAR
STARTCHAR 0006
ENCODING 6
SWIDTH 240 0
DWIDTH 2 0
BBX 0 0 0 0
BITMAP
ENDCHAR
STARTCHAR 0007
ENCODING 7
SWIDTH 240 0
DWIDTH 2 0
BBX 0 0 0 0
BITMAP
ENDCHAR
STARTCHAR 0008
ENCODING 8
SWIDTH 240 0
DWIDTH 2 0
BBX 0 0 0 0
BITMAP
ENDCHAR
STARTCHAR 0009
ENCODING 9
SWIDTH 240 0
DWIDTH 2 0
BBX 0 0 0 0
BITMAP
ENDCHAR
STARTCHAR 000A
ENCODING 10
SWIDTH 240 0
DWIDTH 2 0
BBX 0 0 0 0
BITMAP
ENDCHAR
STARTCHAR 000B
ENCODING 11
SWIDTH 240 0
DWIDTH 2 0
BBX 0 0 0 0
BITMAP
ENDCHAR
STARTCHAR 000C
ENCODING 12
SWIDTH 240 0
DWIDTH 2 0
BBX 0 0 0 0
BITMAP
ENDCHAR
STARTCHAR 000D
ENCODING 13
SWIDTH 240 0
DWIDTH 2 0
BBX 0 0 0 0
BITMAP
ENDCHAR
STARTCHAR 000E
ENCODING 14
SWIDTH 240 0
DWIDTH 2 0
BBX 0 0 0 0
BITMAP
ENDCHAR
STARTCHAR 000F
ENCODING 15
SWIDTH 240 0
DWIDTH 2 0
BBX 0 0 0 0
BITMAP
ENDCHAR
STARTCHAR 0010
ENCODING 16
SWIDTH 240 0
DWIDTH 2 0
BBX 0 0 0 0
BITMAP
ENDCHAR
STARTCHAR 0011
ENCODING 17
SWIDTH 240 0
DWIDTH 2 0
BBX 0 0 0 0
BITMAP
ENDCHAR
STARTCHAR 0012
ENCODING 18
SWIDTH 240 0
DWIDTH 2 0
BBX 0 0 0 0
BITMAP
ENDCHAR
STARTCHAR 0013
ENCODING 19
SWIDTH 240 0
DWIDTH 2 0
BBX 0 0 0 0
BITMAP
ENDCHAR
STARTCHAR 0014
ENCODING 20
SWIDTH 240 0
DWIDTH 2 0
BBX 0 0 0 0
BITMAP
ENDCHAR
STARTCHAR 0015
ENCODING 21
SWIDTH 240 0
DWIDTH 2 0
BBX 0 0 0 0
BITMAP
ENDCHAR
STARTCHAR 0016
ENCODING 22
SWIDTH 240 0
DWIDTH 2 0
BBX 0 0 0 0
BITMAP
ENDCHAR
STARTCHAR 0017
ENCODING 23
SWIDTH 240 0
DWIDTH 2 0
BBX 0 0 0 0
BITMAP
ENDCHAR
STARTCHAR 0018
ENCODING 24
SWIDTH 240 0
DWIDTH 2 0
BBX 0 0 0 0
BITMAP
ENDCHAR
STARTCHAR 0019
ENCODING 25
SWIDTH 240 0
DWIDTH 2 0
BBX 0 0 0 0
BITMAP
ENDCHAR
STARTCHAR 001A
ENCODING 26
SWIDTH 240 0
DWIDTH 2 0
BBX 0 0 0 0
BITMAP
ENDCHAR
STARTCHAR 001B
ENCODING 27
SWIDTH 240 0
DWIDTH 2 0
BBX 0 0 0 0
BITMAP
ENDCHAR
STARTCHAR 001C
ENCODING 28
SWIDTH 240 0
DWIDTH 2 0
BBX 0 0 0 0
BITMAP
ENDCHAR
STARTCHAR 001D
ENCODING 29
SWIDTH 240 0
DWIDTH 2 0
BBX 0 0 0 0
BITMAP
ENDCHAR
STARTCHAR 001E
ENCODING 30
SWIDTH 240 0
DWIDTH 2 0
BBX 0 0 0 0
BITMAP
ENDCHAR
STARTCHAR 001F
ENCODING 31
SWIDTH 240 0
DWIDTH 2 0
BBX 0 0 0 0
BITMAP
ENDCHAR
STARTCHAR 0020
ENCODING 32
SWIDTH 240 0
DWIDTH 2 0
BBX 0 0 0 0
BITMAP
ENDCHAR
STARTCHAR 0021
ENCODING 33
SWIDTH 360 0
DWIDTH 3 0
BBX 1 6 1 0
BITMAP
80
80
80
80
80
80
ENDCHAR
STARTCHAR 0022
ENCODING 34
SWIDTH 360 0
DWIDTH 3 0
BBX 2 2 1 4
BITMAP
C0
C0
ENDCHAR
STARTCHAR 0023
ENCODING 35
SWIDTH 600 0
DWIDTH 5 0
BBX 5 6 0 0
BITMAP
50
78
50
F0
50
60
ENDCHAR
STARTCHAR 0024
ENCODING 36
SWIDTH 600 0
DWIDTH 5 0
BBX 3 8 1 -1
BITMAP
40
E0
C0
C0
60
60
E0
40
ENDCHAR
STARTCHAR 0025
ENCODING 37
SWIDTH 1080 0
DWIDTH 9 0
BBX 7 6 1 0
BITMAP
C8
A8
D0
1C
2A
4C
ENDCHAR
STARTCHAR 0026
ENCODING 38
SWIDTH 720 0
DWIDTH 6 0
BBX 4 6 1 0
BITMAP
60
A0
A0
C0
B0
F0
ENDCHAR
STARTCHAR 0027
ENCODING 39
SWIDTH 240 0
DWIDTH 2 0
BBX 1 2 1 4
BITMAP
80
80
ENDCHAR
STARTCHAR 0028
ENCODING 40
SWIDTH 360 0
DWIDTH 3 0
BBX 1 5 1 0
BITMAP
80
80
80
80
80
ENDCHAR
STARTCHAR 0029
ENCODING 41
SWIDTH 360 0
DWIDTH 3 0
BBX 1 5 1 0
BITMAP
80
80
80
80
80
ENDCHAR
STARTCHAR 002A
ENCODING 42
SWIDTH 600 0
DWIDTH 5 0
BBX 3 3 1 1
BITMAP
40
E0
A0
ENDCHAR
STARTCHAR 002B
ENCODING 43
SWIDTH 600 0
DWIDTH 5 0
BBX 5 5 0 0
BITMAP
20
20
F8
20
20
ENDCHAR
STARTCHAR 002C
ENCODING 44
SWIDTH 240 0
DWIDTH 2 0
BBX 1 2 1 -2
BITMAP
80
80
ENDCHAR
STARTCHAR 002D
ENCODING 45
SWIDTH 360 0
DWIDTH 3 0
BBX 3 1 0 2
BITMAP
E0
ENDCHAR
STARTCHAR 002E
ENCODING 46
SWIDTH 240 0
DWIDTH 2 0
BBX 1 1 1 0
BITMAP
80
ENDCHAR
STARTCHAR 002F
ENCODING 47
SWIDTH 360 0
DWIDTH 3 0
BBX 3 6 0 0
BITMAP
20
20
40
40
80
80
ENDCHAR
STARTCHAR 0030
ENCODING 48
SWIDTH 600 0
DWIDTH 5 0
BBX 4 6 0 0
BITMAP
70
50
90
90
50
70
ENDCHAR
STARTCHAR 0031
ENCODING 49
SWIDTH 600 0
DWIDTH 5 0
BBX 2 6 1 0
BITMAP
C0
40
40
40
40
40
ENDCHAR
STARTCHAR 0032
ENCODING 50
SWIDTH 600 0
DWIDTH 5 0
BBX 3 6 1 0
BITMAP
E0
20
20
40
80
E0
ENDCHAR
STARTCHAR 0033
ENCODING 51
SWIDTH 600 0
DWIDTH 5 0
BBX 3 6 1 0
BITMAP
E0
20
C0
20
20
E0
ENDCHAR
STARTCHAR 0034
ENCODING 52
SWIDTH 600 0
DWIDTH 5 0
BBX 5 6 0 0
BITMAP
10
30
50
90
F8
10
ENDCHAR
STARTCHAR 0035
ENCODING 53
SWIDTH 600 0
DWIDTH 5 0
BBX 3 6 1 0
BITMAP
E0
80
E0
20
20
E0
ENDCHAR
STARTCHAR 0036
ENCODING 54
SWIDTH 600 0
DWIDTH 5 0
BBX 3 6 1 0
BITMAP
60
80
E0
A0
A0
E0
ENDCHAR
STARTCHAR 0037
ENCODING 55
SWIDTH 600 0
DWIDTH 5 0
BBX 3 6 1 0
BITMAP
E0
20
20
40
40
80
ENDCHAR
STARTCHAR 0038
ENCODING 56
SWIDTH 600 0
DWIDTH 5 0
BBX 4 6 0 0
BITMAP
70
90
70
50
90
70
ENDCHAR
STARTCHAR 0039
ENCODING 57
SWIDTH 600 0
DWIDTH 5 0
BBX 4 6 0 0
BITMAP
70
90
90
70
10
60
ENDCHAR
STARTCHAR 003A
ENCODING 58
SWIDTH 240 0
DWIDTH 2 0
BBX 1 5 1 0
BITMAP
80
00
00
00
80
ENDCHAR
STARTCHAR 003B
ENCODING 59
SWIDTH 240 0
DWIDTH 2 0
BBX 1 6 1 -1
BITMAP
80
00
00
00
80
80
ENDCHAR
STARTCHAR 003C
ENCODING 60
SWIDTH 480 0
DWIDTH 4 0
BBX 3 7 1 -1
BITMAP
20
40
80
80
80
40
20
ENDCHAR
STARTCHAR 003D
ENCODING 61
SWIDTH 600 0
DWIDTH 5 0
BBX 5 2 0 2
BITMAP
F8
F8
ENDCHAR
STARTCHAR 003E
ENCODING 62
SWIDTH 480 0
DWIDTH 4 0
BBX 4 7 0 -1
BITMAP
80
40
20
10
20
40
80
ENDCHAR
STARTCHAR 003F
ENCODING 63
SWIDTH 480 0
DWIDTH 4 0
BBX 3 6 1 0
BITMAP
C0
20
20
40
40
80
ENDCHAR
STARTCHAR 0040
ENCODING 64
SWIDTH 840 0
DWIDTH 7 0
BBX 7 6 0 0
BITMAP
38
6C
AA
AC
7C
3C
ENDCHAR
STARTCHAR 0041
ENCODING 65
SWIDTH 720 0
DWIDTH 6 0
BBX 6 6 0 0
BITMAP
30
30
48
78
48
84
ENDCHAR
STARTCHAR 0042
ENCODING 66
SWIDTH 600 0
DWIDTH 5 0
BBX 3 6 1 0
BITMAP
E0
A0
C0
A0
A0
E0
ENDCHAR
STARTCHAR 0043
ENCODING 67
SWIDTH 600 0
DWIDTH 5 0
BBX 4 6 1 0
BITMAP
70
80
80
80
80
70
ENDCHAR
STARTCHAR 0044
ENCODING 68
SWIDTH 720 0
DWIDTH 6 0
BBX 4 6 1 0
BITMAP
E0
90
90
90
90
E0
ENDCHAR
STARTCHAR 0045
ENCODING 69
SWIDTH 600 0
DWIDTH 5 0
BBX 3 6 1 0
BITMAP
E0
80
E0
80
80
E0
ENDCHAR
STARTCHAR 0046
ENCODING 70
SWIDTH 480 0
DWIDTH 4 0
BBX 3 6 1 0
BITMAP
E0
80
E0
80
80
80
ENDCHAR
STARTCHAR 0047
ENCODING 71
SWIDTH 720 0
DWIDTH 6 0
BBX 5 6 1 0
BITMAP
70
80
80
B8
88
78
ENDCHAR
STARTCHAR 0048
ENCODING 72
SWIDTH 720 0
DWIDTH 6 0
BBX 4 6 1 0
BITMAP
90
90
F0
90
90
90
ENDCHAR
STARTCHAR 0049
ENCODING 73
SWIDTH 240 0
DWIDTH 2 0
BBX 1 6 1 0
BITMAP
80
80
80
80
80
80
ENDCHAR
STARTCHAR 004A
ENCODING 74
SWIDTH 360 0
DWIDTH 3 0
BBX 2 6 0 0
BITMAP
40
40
40
40
40
C0
ENDCHAR
STARTCHAR 004B
ENCODING 75
SWIDTH 600 0
DWIDTH 5 0
BBX 4 6 1 0
BITMAP
A0
A0
C0
A0
A0
90
ENDCHAR
STARTCHAR 004C
ENCODING 76
SWIDTH 480 0
DWIDTH 4 0
BBX 3 6 1 0
BITMAP
80
80
80
80
80
E0
ENDCHAR
STARTCHAR 004D
ENCODING 77
SWIDTH 960 0
DWIDTH 8 0
BBX 6 6 1 0
BITMAP
84
8C
CC
D4
B4
A4
ENDCHAR
STARTCHAR 004E
ENCODING 78
SWIDTH 720 0
DWIDTH 6 0
BBX 4 6 1 0
BITMAP
90
90
D0
B0
B0
90
ENDCHAR
STARTCHAR 004F
ENCODING 79
SWIDTH 720 0
DWIDTH 6 0
BBX 5 6 1 0
BITMAP
70
88
88
88
88
70
ENDCHAR
STARTCHAR 0050
ENCODING 80
SWIDTH 600 0
DWIDTH 5 0
BBX 3 6 1 0
BITMAP
E0
A0
E0
80
80
80
ENDCHAR
STARTCHAR 0051
ENCODING 81
SWIDTH 720 0
DWIDTH 6 0
BBX 5 7 1 -1
BITMAP
70
88
88
88
88
70
10
ENDCHAR
STARTCHAR 0052
ENCODING 82
SWIDTH 600 0
DWIDTH 5 0
BBX 4 6 1 0
BITMAP
E0
90
E0
A0
A0
90
ENDCHAR
STARTCHAR 0053
ENCODING 83
SWIDTH 480 0
DWIDTH 4 0
BBX 3 6 1 0
BITMAP
E0
80
80
60
20
C0
ENDCHAR
STARTCHAR 0054
ENCODING 84
SWIDTH 480 0
DWIDTH 4 0
BBX 4 6 0 0
BITMAP
F0
20
20
20
20
20
ENDCHAR
STARTCHAR 0055
ENCODING 85
SWIDTH 720 0
DWIDTH 6 0
BBX 4 6 1 0
BITMAP
90
90
90
90
90
E0
ENDCHAR
STARTCHAR 0056
ENCODING 86
SWIDTH 600 0
DWIDTH 5 0
BBX 5 6 0 0
BITMAP
88
88
48
50
30
20
ENDCHAR
STARTCHAR 0057
ENCODING 87
SWIDTH 960 0
DWIDTH 8 0
BBX 8 6 0 0
BITMAP
89
99
59
56
66
24
ENDCHAR
STARTCHAR 0058
ENCODING 88
SWIDTH 600 0
DWIDTH 5 0
BBX 5 6 0 0
BITMAP
48
50
20
30
50
88
ENDCHAR
STARTCHAR 0059
ENCODING 89
SWIDTH 600 0
DWIDTH 5 0
BBX 5 6 0 0
BITMAP
88
50
30
20
20
20
ENDCHAR
STARTCHAR 005A
ENCODING 90
SWIDTH 480 0
DWIDTH 4 0
BBX 4 6 0 0
BITMAP
F0
10
20
40
80
F0
ENDCHAR
STARTCHAR 005B
ENCODING 91
SWIDTH 360 0
DWIDTH 3 0
BBX 1 7 1 -1
BITMAP
80
80
80
80
80
80
80
ENDCHAR
STARTCHAR 005C
ENCODING 92
SWIDTH 960 0
DWIDTH 8 0
BBX 7 6 0 0
BITMAP
52
5A
FE
5C
24
24
ENDCHAR
STARTCHAR 005D
ENCODING 93
SWIDTH 360 0
DWIDTH 3 0
BBX 1 7 1 -1
BITMAP
80
80
80
80
80
80
80
ENDCHAR
STARTCHAR 005E
ENCODING 94
SWIDTH 600 0
DWIDTH 5 0
BBX 4 4 1 2
BITMAP
40
A0
A0
90
ENDCHAR
STARTCHAR 005F
ENCODING 95
SWIDTH 480 0
DWIDTH 4 0
BBX 0 0 0 -1
BITMAP
ENDCHAR
STARTCHAR 0060
ENCODING 96
SWIDTH 240 0
DWIDTH 2 0
BBX 1 1 0 5
BITMAP
80
ENDCHAR
STARTCHAR 0061
ENCODING 97
SWIDTH 480 0
DWIDTH 4 0
BBX 3 4 1 0
BITMAP
E0
20
E0
E0
ENDCHAR
STARTCHAR 0062
ENCODING 98
SWIDTH 600 0
DWIDTH 5 0
BBX 3 5 1 1
BITMAP
80
E0
A0
A0
E0
ENDCHAR
STARTCHAR 0063
ENCODING 99
SWIDTH 480 0
DWIDTH 4 0
BBX 4 4 0 0
BITMAP
70
80
80
70
ENDCHAR
STARTCHAR 0064
ENCODING 100
SWIDTH 600 0
DWIDTH 5 0
BBX 3 6 1 0
BITMAP
20
20
E0
A0
A0
E0
ENDCHAR
STARTCHAR 0065
ENCODING 101
SWIDTH 480 0
DWIDTH 4 0
BBX 4 4 0 0
BITMAP
70
F0
80
70
ENDCHAR
STARTCHAR 0066
ENCODING 102
SWIDTH 360 0
DWIDTH 3 0
BBX 3 6 0 0
BITMAP
60
E0
40
40
40
40
ENDCHAR
STARTCHAR 0067
ENCODING 103
SWIDTH 600 0
DWIDTH 5 0
BBX 4 6 0 -2
BITMAP
70
90
90
90
70
70
ENDCHAR
STARTCHAR 0068
ENCODING 104
SWIDTH 600 0
DWIDTH 5 0
BBX 3 6 1 0
BITMAP
80
80
E0
A0
A0
A0
ENDCHAR
STARTCHAR 0069
ENCODING 105
SWIDTH 240 0
DWIDTH 2 0
BBX 1 6 1 0
BITMAP
80
00
80
80
80
80
ENDCHAR
STARTCHAR 006A
ENCODING 106
SWIDTH 240 0
DWIDTH 2 0
BBX 2 8 0 -2
BITMAP
40
00
40
40
40
40
40
80
ENDCHAR
STARTCHAR 006B
ENCODING 107
SWIDTH 480 0
DWIDTH 4 0
BBX 3 6 1 0
BITMAP
80
80
A0
C0
C0
A0
ENDCHAR
STARTCHAR 006C
ENCODING 108
SWIDTH 240 0
DWIDTH 2 0
BBX 1 6 1 0
BITMAP
80
80
80
80
80
80
ENDCHAR
STARTCHAR 006D
ENCODING 109
SWIDTH 840 0
DWIDTH 7 0
BBX 6 4 1 0
BITMAP
F8
A4
A4
A4
ENDCHAR
STARTCHAR 006E
ENCODING 110
SWIDTH 600 0
DWIDTH 5 0
BBX 3 4 1 0
BITMAP
E0
A0
A0
A0
ENDCHAR
STARTCHAR 006F
ENCODING 111
SWIDTH 600 0
DWIDTH 5 0
BBX 5 4 0 0
BITMAP
70
88
88
70
ENDCHAR
STARTCHAR 0070
ENCODING 112
SWIDTH 600 0
DWIDTH 5 0
BBX 3 6 1 -2
BITMAP
E0
A0
A0
A0
E0
80
ENDCHAR
STARTCHAR 0071
ENCODING 113
SWIDTH 600 0
DWIDTH 5 0
BBX 3 6 1 -2
BITMAP
E0
A0
A0
A0
E0
20
ENDCHAR
STARTCHAR 0072
ENCODING 114
SWIDTH 360 0
DWIDTH 3 0
BBX 2 4 1 0
BITMAP
C0
80
80
80
ENDCHAR
STARTCHAR 0073
ENCODING 115
SWIDTH 360 0
DWIDTH 3 0
BBX 3 4 0 0
BITMAP
60
C0
20
E0
ENDCHAR
STARTCHAR 0074
ENCODING 116
SWIDTH 360 0
DWIDTH 3 0
BBX 3 5 0 0
BITMAP
40
E0
40
40
60
ENDCHAR
STARTCHAR 0075
ENCODING 117
SWIDTH 600 0
DWIDTH 5 0
BBX 3 4 1 0
BITMAP
A0
A0
A0
E0
ENDCHAR
STARTCHAR 0076
ENCODING 118
SWIDTH 480 0
DWIDTH 4 0
BBX 4 4 0 0
BITMAP
90
A0
60
40
ENDCHAR
STARTCHAR 0077
ENCODING 119
SWIDTH 840 0
DWIDTH 7 0
BBX 7 4 0 0
BITMAP
92
B4
6C
48
ENDCHAR
STARTCHAR 0078
ENCODING 120
SWIDTH 480 0
DWIDTH 4 0
BBX 4 4 0 0
BITMAP
50
60
60
90
ENDCHAR
STARTCHAR 0079
ENCODING 121
SWIDTH 480 0
DWIDTH 4 0
BBX 4 6 0 -2
BITMAP
90
A0
60
40
40
C0
ENDCHAR
STARTCHAR 007A
ENCODING 122
SWIDTH 480 0
DWIDTH 4 0
BBX 4 4 0 0
BITMAP
F0
20
40
F0
ENDCHAR
STARTCHAR 007B
ENCODING 123
SWIDTH 240 0
DWIDTH 2 0
BBX 2 7 0 -1
BITMAP
40
40
40
80
40
40
40
ENDCHAR
STARTCHAR 007C
ENCODING 124
SWIDTH 240 0
DWIDTH 2 0
BBX 1 7 1 -1
BITMAP
80
80
80
80
80
80
80
ENDCHAR
STARTCHAR 007D
ENCODING 125
SWIDTH 240 0
DWIDTH 2 0
BBX 1 5 1 0
BITMAP
80
80
80
80
80
ENDCHAR
STARTCHAR 007E
ENCODING 126
SWIDTH 600 0
DWIDTH 5 0
BBX 3 1 1 2
BITMAP
E0
ENDCHAR
STARTCHAR 00A0
ENCODING 160
SWIDTH 240 0
DWIDTH 2 0
BBX 0 0 0 0
BITMAP
ENDCHAR
STARTCHAR 00A1
ENCODING 161
SWIDTH 240 0
DWIDTH 2 0
BBX 1 4 1 2
BITMAP
80
80
80
80
ENDCHAR
STARTCHAR 00A2
ENCODING 162
SWIDTH 960 0
DWIDTH 8 0
BBX 4 6 2 0
BITMAP
E0
A0
C0
D0
E0
80
ENDCHAR
STARTCHAR 00A3
ENCODING 163
SWIDTH 960 0
DWIDTH 8 0
BBX 4 5 2 0
BITMAP
60
80
F0
40
F0
ENDCHAR
STARTCHAR 00A4
ENCODING 164
SWIDTH 840 0
DWIDTH 7 0
BBX 6 5 0 0
BITMAP
BC
44
84
44
7C
ENDCHAR
STARTCHAR 00A5
ENCODING 165
SWIDTH 960 0
DWIDTH 8 0
BBX 4 5 2 0
BITMAP
90
A0
F0
F0
40
ENDCHAR
STARTCHAR 00A7
ENCODING 167
SWIDTH 360 0
DWIDTH 3 0
BBX 2 7 0 -1
BITMAP
80
80
C0
C0
40
40
C0
ENDCHAR
STARTCHAR 00A8
ENCODING 168
SWIDTH 480 0
DWIDTH 4 0
BBX 3 1 1 5
BITMAP
A0
ENDCHAR
STARTCHAR 00A9
ENCODING 169
SWIDTH 840 0
DWIDTH 7 0
BBX 7 6 0 0
BITMAP
7C
BA
C2
C2
AA
7C
ENDCHAR
STARTCHAR 00AA
ENCODING 170
SWIDTH 480 0
DWIDTH 4 0
BBX 3 4 1 2
BITMAP
C0
40
C0
E0
ENDCHAR
STARTCHAR 00AB
ENCODING 171
SWIDTH 960 0
DWIDTH 8 0
BBX 5 5 1 0
BITMAP
38
50
E0
70
38
ENDCHAR
STARTCHAR 00AC
ENCODING 172
SWIDTH 960 0
DWIDTH 8 0
BBX 5 1 1 -1
BITMAP
F8
ENDCHAR
STARTCHAR 00AD
ENCODING 173
SWIDTH 360 0
DWIDTH 3 0
BBX 3 1 0 2
BITMAP
E0
ENDCHAR
STARTCHAR 00AE
ENCODING 174
SWIDTH 960 0
DWIDTH 8 0
BBX 6 7 1 -1
BITMAP
78
F4
D4
E4
D4
88
70
ENDCHAR
STARTCHAR 00B0
ENCODING 176
SWIDTH 480 0
DWIDTH 4 0
BBX 2 2 1 4
BITMAP
C0
C0
ENDCHAR
STARTCHAR 00B1
ENCODING 177
SWIDTH 600 0
DWIDTH 5 0
BBX 4 4 0 1
BITMAP
F0
20
00
F0
ENDCHAR
STARTCHAR 00B2
ENCODING 178
SWIDTH 360 0
DWIDTH 3 0
BBX 1 2 1 4
BITMAP
80
80
ENDCHAR
STARTCHAR 00B3
ENCODING 179
SWIDTH 360 0
DWIDTH 3 0
BBX 1 2 1 4
BITMAP
80
80
ENDCHAR
STARTCHAR 00B4
ENCODING 180
SWIDTH 360 0
DWIDTH 3 0
BBX 1 1 1 4
BITMAP
80
ENDCHAR
STARTCHAR 00B6
ENCODING 182
SWIDTH 600 0
DWIDTH 5 0
BBX 3 7 1 -1
BITMAP
E0
E0
E0
60
60
60
40
ENDCHAR
STARTCHAR 00B7
ENCODING 183
SWIDTH 240 0
DWIDTH 2 0
BBX 1 1 1 2
BITMAP
80
ENDCHAR
STARTCHAR 00B8
ENCODING 184
SWIDTH 360 0
DWIDTH 3 0
BBX 1 2 1 -2
BITMAP
80
80
ENDCHAR
STARTCHAR 00B9
ENCODING 185
SWIDTH 360 0
DWIDTH 3 0
BBX 1 1 1 4
BITMAP
80
ENDCHAR
STARTCHAR 00BA
ENCODING 186
SWIDTH 480 0
DWIDTH 4 0
BBX 3 4 1 2
BITMAP
C0
A0
C0
E0
ENDCHAR
STARTCHAR 00BB
ENCODING 187
SWIDTH 960 0
DWIDTH 8 0
BBX 6 5 1 0
BITMAP
A0
78
14
78
A0
ENDCHAR
STARTCHAR 00BC
ENCODING 188
SWIDTH 720 0
DWIDTH 6 0
BBX 4 7 1 -1
BITMAP
80
90
A0
20
50
30
10
ENDCHAR
STARTCHAR 00BD
ENCODING 189
SWIDTH 720 0
DWIDTH 6 0
BBX 4 7 1 -1
BITMAP
80
90
A0
40
B0
10
20
ENDCHAR
STARTCHAR 00BE
ENCODING 190
SWIDTH 720 0
DWIDTH 6 0
BBX 4 7 1 -1
BITMAP
80
50
50
20
50
30
10
ENDCHAR
STARTCHAR 00BF
ENCODING 191
SWIDTH 480 0
DWIDTH 4 0
BBX 2 6 1 0
BITMAP
40
00
40
80
80
C0
ENDCHAR
STARTCHAR 00C0
ENCODING 192
SWIDTH 600 0
DWIDTH 5 0
BBX 5 6 0 0
BITMAP
20
20
50
50
70
88
ENDCHAR
STARTCHAR 00C1
ENCODING 193
SWIDTH 600 0
DWIDTH 5 0
BBX 5 6 0 0
BITMAP
20
20
50
50
70
88
ENDCHAR
STARTCHAR 00C2
ENCODING 194
SWIDTH 600 0
DWIDTH 5 0
BBX 5 6 0 0
BITMAP
10
20
50
50
70
88
ENDCHAR
STARTCHAR 00C6
ENCODING 198
SWIDTH 840 0
DWIDTH 7 0
BBX 6 5 0 0
BITMAP
7C
50
5C
70
9C
ENDCHAR
STARTCHAR 00C7
ENCODING 199
SWIDTH 600 0
DWIDTH 5 0
BBX 4 7 0 -2
BITMAP
70
80
80
80
50
20
20
ENDCHAR
STARTCHAR 00C8
ENCODING 200
SWIDTH 480 0
DWIDTH 4 0
BBX 4 6 0 0
BITMAP
40
F0
80
E0
80
F0
ENDCHAR
STARTCHAR 00C9
ENCODING 201
SWIDTH 480 0
DWIDTH 4 0
BBX 3 6 0 0
BITMAP
20
C0
80
E0
80
E0
ENDCHAR
STARTCHAR 00CA
ENCODING 202
SWIDTH 480 0
DWIDTH 4 0
BBX 4 6 0 0
BITMAP
60
F0
80
E0
80
F0
ENDCHAR
STARTCHAR 00CB
ENCODING 203
SWIDTH 480 0
DWIDTH 4 0
BBX 4 6 0 0
BITMAP
60
F0
80
E0
80
F0
ENDCHAR
STARTCHAR 00CD
ENCODING 205
SWIDTH 360 0
DWIDTH 3 0
BBX 1 6 1 0
BITMAP
80
80
80
80
80
80
ENDCHAR
STARTCHAR 00CE
ENCODING 206
SWIDTH 360 0
DWIDTH 3 0
BBX 3 6 0 0
BITMAP
E0
40
40
40
40
40
ENDCHAR
STARTCHAR 00CF
ENCODING 207
SWIDTH 360 0
DWIDTH 3 0
BBX 1 5 1 1
BITMAP
80
80
80
80
80
ENDCHAR
STARTCHAR 00D0
ENCODING 208
SWIDTH 720 0
DWIDTH 6 0
BBX 5 5 1 0
BITMAP
F0
88
88
88
F0
ENDCHAR
STARTCHAR 00D1
ENCODING 209
SWIDTH 720 0
DWIDTH 6 0
BBX 4 6 1 0
BITMAP
20
90
90
D0
B0
90
ENDCHAR
STARTCHAR 00D3
ENCODING 211
SWIDTH 720 0
DWIDTH 6 0
BBX 5 6 0 0
BITMAP
20
50
88
88
88
78
ENDCHAR
STARTCHAR 00D4
ENCODING 212
SWIDTH 720 0
DWIDTH 6 0
BBX 5 6 0 0
BITMAP
30
70
88
88
88
78
ENDCHAR
STARTCHAR 00D7
ENCODING 215
SWIDTH 600 0
DWIDTH 5 0
BBX 4 3 0 1
BITMAP
90
60
50
ENDCHAR
STARTCHAR 00D8
ENCODING 216
SWIDTH 720 0
DWIDTH 6 0
BBX 5 7 1 -1
BITMAP
60
90
A8
A8
C8
90
E0
ENDCHAR
STARTCHAR 00D9
ENCODING 217
SWIDTH 600 0
DWIDTH 5 0
BBX 5 6 0 0
BITMAP
20
88
88
88
88
78
ENDCHAR
STARTCHAR 00DA
ENCODING 218
SWIDTH 600 0
DWIDTH 5 0
BBX 5 6 0 0
BITMAP
20
88
88
88
88
78
ENDCHAR
STARTCHAR 00DB
ENCODING 219
SWIDTH 600 0
DWIDTH 5 0
BBX 5 6 0 0
BITMAP
30
88
88
88
88
78
ENDCHAR
STARTCHAR 00DC
ENCODING 220
SWIDTH 600 0
DWIDTH 5 0
BBX 5 5 0 1
BITMAP
88
88
88
88
78
ENDCHAR
STARTCHAR 00DE
ENCODING 222
SWIDTH 480 0
DWIDTH 4 0
BBX 3 5 1 0
BITMAP
80
E0
A0
C0
80
ENDCHAR
STARTCHAR 00DF
ENCODING 223
SWIDTH 600 0
DWIDTH 5 0
BBX 4 7 1 -1
BITMAP
60
90
A0
E0
90
90
60
ENDCHAR
STARTCHAR 00E0
ENCODING 224
SWIDTH 480 0
DWIDTH 4 0
BBX 4 6 0 0
BITMAP
40
00
30
30
D0
F0
ENDCHAR
STARTCHAR 00E1
ENCODING 225
SWIDTH 480 0
DWIDTH 4 0
BBX 4 6 0 0
BITMAP
20
00
30
30
D0
F0
ENDCHAR
STARTCHAR 00E2
ENCODING 226
SWIDTH 480 0
DWIDTH 4 0
BBX 4 6 0 0
BITMAP
20
00
30
30
D0
F0
ENDCHAR
STARTCHAR 00E4
ENCODING 228
SWIDTH 480 0
DWIDTH 4 0
BBX 4 4 0 1
BITMAP
30
30
D0
F0
ENDCHAR
STARTCHAR 00E6
ENCODING 230
SWIDTH 840 0
DWIDTH 7 0
BBX 7 4 0 0
BITMAP
3E
32
DC
FC
ENDCHAR
STARTCHAR 00E7
ENCODING 231
SWIDTH 480 0
DWIDTH 4 0
BBX 3 6 0 -2
BITMAP
60
80
80
40
20
20
ENDCHAR
STARTCHAR 00E8
ENCODING 232
SWIDTH 480 0
DWIDTH 4 0
BBX 4 6 0 0
BITMAP
40
00
70
90
E0
E0
ENDCHAR
STARTCHAR 00E9
ENCODING 233
SWIDTH 480 0
DWIDTH 4 0
BBX 4 6 0 0
BITMAP
20
00
70
90
E0
E0
ENDCHAR
STARTCHAR 00EA
ENCODING 234
SWIDTH 480 0
DWIDTH 4 0
BBX 4 6 0 0
BITMAP
20
00
70
90
E0
E0
ENDCHAR
STARTCHAR 00EB
ENCODING 235
SWIDTH 480 0
DWIDTH 4 0
BBX 4 4 0 1
BITMAP
70
90
E0
E0
ENDCHAR
STARTCHAR 00ED
ENCODING 237
SWIDTH 360 0
DWIDTH 3 0
BBX 2 6 1 0
BITMAP
40
00
80
80
80
80
ENDCHAR
STARTCHAR 00EE
ENCODING 238
SWIDTH 360 0
DWIDTH 3 0
BBX 1 6 1 0
BITMAP
80
00
80
80
80
80
ENDCHAR
STARTCHAR 00EF
ENCODING 239
SWIDTH 360 0
DWIDTH 3 0
BBX 1 4 1 1
BITMAP
80
80
80
80
ENDCHAR
STARTCHAR 00F0
ENCODING 240
SWIDTH 600 0
DWIDTH 5 0
BBX 4 5 0 1
BITMAP
20
70
90
90
70
ENDCHAR
STARTCHAR 00F1
ENCODING 241
SWIDTH 600 0
DWIDTH 5 0
BBX 3 6 1 0
BITMAP
60
00
E0
A0
A0
A0
ENDCHAR
STARTCHAR 00F3
ENCODING 243
SWIDTH 600 0
DWIDTH 5 0
BBX 5 4 0 2
BITMAP
70
88
88
70
ENDCHAR
STARTCHAR 00F4
ENCODING 244
SWIDTH 600 0
DWIDTH 5 0
BBX 5 6 0 0
BITMAP
20
00
70
88
88
70
ENDCHAR
STARTCHAR 00F6
ENCODING 246
SWIDTH 600 0
DWIDTH 5 0
BBX 5 4 0 1
BITMAP
70
88
88
70
ENDCHAR
STARTCHAR 00F7
ENCODING 247
SWIDTH 600 0
DWIDTH 5 0
BBX 5 5 0 0
BITMAP
20
00
F8
00
20
ENDCHAR
STARTCHAR 00F8
ENCODING 248
SWIDTH 600 0
DWIDTH 5 0
BBX 3 5 1 -1
BITMAP
E0
E0
E0
A0
C0
ENDCHAR
STARTCHAR 00F9
ENCODING 249
SWIDTH 480 0
DWIDTH 4 0
BBX 4 6 0 0
BITMAP
40
00
90
90
90
F0
ENDCHAR
STARTCHAR 00FA
ENCODING 250
SWIDTH 480 0
DWIDTH 4 0
BBX 4 6 0 0
BITMAP
20
00
90
90
90
F0
ENDCHAR
STARTCHAR 00FB
ENCODING 251
SWIDTH 480 0
DWIDTH 4 0
BBX 4 6 0 0
BITMAP
20
00
90
90
90
F0
ENDCHAR
STARTCHAR 00FC
ENCODING 252
SWIDTH 480 0
DWIDTH 4 0
BBX 4 4 0 1
BITMAP
90
90
90
F0
ENDCHAR
STARTCHAR 00FE
ENCODING 254
SWIDTH 600 0
DWIDTH 5 0
BBX 3 5 1 0
BITMAP
C0
A0
A0
A0
40
ENDCHAR
STARTCHAR 0111
ENCODING 273
SWIDTH 600 0
DWIDTH 5 0
BBX 5 5 0 0
BITMAP
18
70
90
90
F0
ENDCHAR
STARTCHAR 0126
ENCODING 294
SWIDTH 720 0
DWIDTH 6 0
BBX 5 5 1 0
BITMAP
F8
88
F0
88
88
ENDCHAR
STARTCHAR 0127
ENCODING 295
SWIDTH 600 0
DWIDTH 5 0
BBX 4 5 0 0
BITMAP
E0
70
50
50
50
ENDCHAR
STARTCHAR 0131
ENCODING 305
SWIDTH 240 0
DWIDTH 2 0
BBX 1 3 1 1
BITMAP
80
80
80
ENDCHAR
STARTCHAR 0132
ENCODING 306
SWIDTH 600 0
DWIDTH 5 0
BBX 4 5 1 0
BITMAP
90
90
90
90
B0
ENDCHAR
STARTCHAR 0133
ENCODING 307
SWIDTH 480 0
DWIDTH 4 0
BBX 2 6 1 -1
BITMAP
40
C0
C0
C0
40
40
ENDCHAR
STARTCHAR 0138
ENCODING 312
SWIDTH 600 0
DWIDTH 5 0
BBX 3 4 1 0
BITMAP
20
C0
C0
20
ENDCHAR
STARTCHAR 013F
ENCODING 319
SWIDTH 600 0
DWIDTH 5 0
BBX 2 5 1 0
BITMAP
80
80
C0
80
C0
ENDCHAR
STARTCHAR 0140
ENCODING 320
SWIDTH 360 0
DWIDTH 3 0
BBX 2 3 1 1
BITMAP
80
C0
80
ENDCHAR
STARTCHAR 0141
ENCODING 321
SWIDTH 720 0
DWIDTH 6 0
BBX 4 5 1 0
BITMAP
40
40
40
C0
70
ENDCHAR
STARTCHAR 0142
ENCODING 322
SWIDTH 480 0
DWIDTH 4 0
BBX 2 4 1 0
BITMAP
80
40
80
80
ENDCHAR
STARTCHAR 0149
ENCODING 329
SWIDTH 720 0
DWIDTH 6 0
BBX 4 5 1 0
BITMAP
80
30
50
50
40
ENDCHAR
STARTCHAR 014A
ENCODING 330
SWIDTH 720 0
DWIDTH 6 0
BBX 4 7 1 -2
BITMAP
90
90
D0
B0
90
50
20
ENDCHAR
STARTCHAR 014B
ENCODING 331
SWIDTH 600 0
DWIDTH 5 0
BBX 3 5 1 -2
BITMAP
60
A0
A0
A0
20
ENDCHAR
STARTCHAR 0152
ENCODING 338
SWIDTH 840 0
DWIDTH 7 0
BBX 7 5 0 0
BITMAP
7C
90
9C
90
7E
ENDCHAR
STARTCHAR 0153
ENCODING 339
SWIDTH 960 0
DWIDTH 8 0
BBX 7 4 0 0
BITMAP
7E
8A
8E
7C
ENDCHAR
STARTCHAR 0166
ENCODING 358
SWIDTH 600 0
DWIDTH 5 0
BBX 3 5 1 0
BITMAP
E0
40
E0
40
40
ENDCHAR
STARTCHAR 0167
ENCODING 359
SWIDTH 480 0
DWIDTH 4 0
BBX 2 5 1 0
BITMAP
80
C0
C0
80
80
ENDCHAR
STARTCHAR 02BC
ENCODING 700
SWIDTH 240 0
DWIDTH 2 0
BBX 1 1 0 4
BITMAP
80
ENDCHAR
STARTCHAR 02C7
ENCODING 711
SWIDTH 480 0
DWIDTH 4 0
BBX 3 1 1 5
BITMAP
E0
ENDCHAR
STARTCHAR 02D0
ENCODING 720
SWIDTH 960 0
DWIDTH 8 0
BBX 1 1 3 1
BITMAP
80
ENDCHAR
STARTCHAR 02D8
ENCODING 728
SWIDTH 480 0
DWIDTH 4 0
BBX 4 1 0 5
BITMAP
F0
ENDCHAR
STARTCHAR 02D9
ENCODING 729
SWIDTH 240 0
DWIDTH 2 0
BBX 0 0 0 4
BITMAP
ENDCHAR
STARTCHAR 02DA
ENCODING 730
SWIDTH 360 0
DWIDTH 3 0
BBX 2 2 0 4
BITMAP
C0
C0
ENDCHAR
STARTCHAR 02DB
ENCODING 731
SWIDTH 240 0
DWIDTH 2 0
BBX 0 0 1 -2
BITMAP
ENDCHAR
STARTCHAR 02DC
ENCODING 732
SWIDTH 840 0
DWIDTH 7 0
BBX 3 1 2 4
BITMAP
E0
ENDCHAR
STARTCHAR 02DD
ENCODING 733
SWIDTH 480 0
DWIDTH 4 0
BBX 2 1 1 4
BITMAP
C0
ENDCHAR
STARTCHAR 0391
ENCODING 913
SWIDTH 720 0
DWIDTH 6 0
BBX 5 5 0 0
BITMAP
20
30
50
78
88
ENDCHAR
STARTCHAR 0392
ENCODING 914
SWIDTH 600 0
DWIDTH 5 0
BBX 4 5 1 0
BITMAP
F0
90
E0
90
F0
ENDCHAR
STARTCHAR 0393
ENCODING 915
SWIDTH 600 0
DWIDTH 5 0
BBX 2 5 1 0
BITMAP
C0
80
80
80
80
ENDCHAR
STARTCHAR 0394
ENCODING 916
SWIDTH 720 0
DWIDTH 6 0
BBX 4 5 1 0
BITMAP
60
60
90
90
F0
ENDCHAR
STARTCHAR 0395
ENCODING 917
SWIDTH 600 0
DWIDTH 5 0
BBX 4 5 0 0
BITMAP
E0
80
F0
80
E0
ENDCHAR
STARTCHAR 0396
ENCODING 918
SWIDTH 600 0
DWIDTH 5 0
BBX 4 5 1 0
BITMAP
70
20
40
80
E0
ENDCHAR
STARTCHAR 0397
ENCODING 919
SWIDTH 600 0
DWIDTH 5 0
BBX 5 5 0 0
BITMAP
88
88
F8
88
88
ENDCHAR
STARTCHAR 0398
ENCODING 920
SWIDTH 720 0
DWIDTH 6 0
BBX 6 6 0 0
BITMAP
30
48
84
BC
84
78
ENDCHAR
STARTCHAR 0399
ENCODING 921
SWIDTH 240 0
DWIDTH 2 0
BBX 1 5 0 0
BITMAP
80
80
80
80
80
ENDCHAR
STARTCHAR 039A
ENCODING 922
SWIDTH 600 0
DWIDTH 5 0
BBX 4 5 0 0
BITMAP
90
A0
E0
90
90
ENDCHAR
STARTCHAR 039B
ENCODING 923
SWIDTH 720 0
DWIDTH 6 0
BBX 5 5 0 0
BITMAP
20
30
50
48
88
ENDCHAR
STARTCHAR 039C
ENCODING 924
SWIDTH 840 0
DWIDTH 7 0
BBX 5 5 1 0
BITMAP
88
98
98
E8
A8
ENDCHAR
STARTCHAR 039D
ENCODING 925
SWIDTH 600 0
DWIDTH 5 0
BBX 4 5 1 0
BITMAP
90
90
D0
B0
90
ENDCHAR
STARTCHAR 039E
ENCODING 926
SWIDTH 600 0
DWIDTH 5 0
BBX 3 5 1 0
BITMAP
E0
00
E0
00
E0
ENDCHAR
STARTCHAR 039F
ENCODING 927
SWIDTH 720 0
DWIDTH 6 0
BBX 6 6 0 0
BITMAP
30
48
84
84
84
78
ENDCHAR
STARTCHAR 03A0
ENCODING 928
SWIDTH 600 0
DWIDTH 5 0
BBX 4 5 1 0
BITMAP
F0
90
90
90
90
ENDCHAR
STARTCHAR 03A1
ENCODING 929
SWIDTH 600 0
DWIDTH 5 0
BBX 5 5 0 0
BITMAP
F8
88
F0
80
80
ENDCHAR
STARTCHAR 03A3
ENCODING 931
SWIDTH 600 0
DWIDTH 5 0
BBX 4 5 0 0
BITMAP
60
40
20
40
F0
ENDCHAR
STARTCHAR 03A4
ENCODING 932
SWIDTH 600 0
DWIDTH 5 0
BBX 3 5 1 0
BITMAP
E0
40
40
40
40
ENDCHAR
STARTCHAR 03A5
ENCODING 933
SWIDTH 720 0
DWIDTH 6 0
BBX 4 5 1 0
BITMAP
90
A0
40
40
40
ENDCHAR
STARTCHAR 03A6
ENCODING 934
SWIDTH 720 0
DWIDTH 6 0
BBX 6 5 0 0
BITMAP
30
EC
A4
68
30
ENDCHAR
STARTCHAR 03A7
ENCODING 935
SWIDTH 600 0
DWIDTH 5 0
BBX 4 5 1 0
BITMAP
A0
60
40
A0
90
ENDCHAR
STARTCHAR 03A8
ENCODING 936
SWIDTH 720 0
DWIDTH 6 0
BBX 5 5 1 0
BITMAP
A8
A8
A8
70
20
ENDCHAR
STARTCHAR 03A9
ENCODING 937
SWIDTH 720 0
DWIDTH 6 0
BBX 5 5 0 0
BITMAP
78
88
88
50
B8
ENDCHAR
STARTCHAR 03B1
ENCODING 945
SWIDTH 480 0
DWIDTH 4 0
BBX 3 4 0 0
BITMAP
40
A0
A0
E0
ENDCHAR
STARTCHAR 03B2
ENCODING 946
SWIDTH 480 0
DWIDTH 4 0
BBX 3 6 0 -1
BITMAP
E0
A0
E0
A0
A0
C0
ENDCHAR
STARTCHAR 03B3
ENCODING 947
SWIDTH 480 0
DWIDTH 4 0
BBX 3 5 0 -1
BITMAP
80
60
40
60
E0
ENDCHAR
STARTCHAR 03B4
ENCODING 948
SWIDTH 480 0
DWIDTH 4 0
BBX 3 5 0 0
BITMAP
E0
40
A0
A0
E0
ENDCHAR
STARTCHAR 03B5
ENCODING 949
SWIDTH 480 0
DWIDTH 4 0
BBX 3 4 0 0
BITMAP
60
80
C0
E0
ENDCHAR
STARTCHAR 03B6
ENCODING 950
SWIDTH 480 0
DWIDTH 4 0
BBX 3 7 0 -2
BITMAP
20
40
80
80
40
20
20
ENDCHAR
STARTCHAR 03B7
ENCODING 951
SWIDTH 480 0
DWIDTH 4 0
BBX 3 5 0 -1
BITMAP
E0
A0
A0
A0
20
ENDCHAR
STARTCHAR 03B8
ENCODING 952
SWIDTH 480 0
DWIDTH 4 0
BBX 3 6 0 0
BITMAP
40
A0
A0
E0
A0
E0
ENDCHAR
STARTCHAR 03B9
ENCODING 953
SWIDTH 360 0
DWIDTH 3 0
BBX 2 3 1 1
BITMAP
80
80
C0
ENDCHAR
STARTCHAR 03BA
ENCODING 954
SWIDTH 480 0
DWIDTH 4 0
BBX 3 4 0 0
BITMAP
A0
C0
A0
A0
ENDCHAR
STARTCHAR 03BB
ENCODING 955
SWIDTH 480 0
DWIDTH 4 0
BBX 3 7 0 -1
BITMAP
80
40
40
40
C0
A0
20
ENDCHAR
STARTCHAR 03BC
ENCODING 956
SWIDTH 480 0
DWIDTH 4 0
BBX 3 6 0 -2
BITMAP
80
A0
A0
A0
C0
80
ENDCHAR
STARTCHAR 03BD
ENCODING 957
SWIDTH 480 0
DWIDTH 4 0
BBX 3 4 0 0
BITMAP
80
60
60
40
ENDCHAR
STARTCHAR 03BE
ENCODING 958
SWIDTH 480 0
DWIDTH 4 0
BBX 3 6 0 -2
BITMAP
40
40
40
80
40
20
ENDCHAR
STARTCHAR 03BF
ENCODING 959
SWIDTH 480 0
DWIDTH 4 0
BBX 3 4 0 0
BITMAP
60
A0
A0
E0
ENDCHAR
STARTCHAR 03C0
ENCODING 960
SWIDTH 480 0
DWIDTH 4 0
BBX 3 4 0 0
BITMAP
E0
60
60
60
ENDCHAR
STARTCHAR 03C1
ENCODING 961
SWIDTH 480 0
DWIDTH 4 0
BBX 3 6 0 -2
BITMAP
60
A0
A0
A0
C0
80
ENDCHAR
STARTCHAR 03C3
ENCODING 963
SWIDTH 480 0
DWIDTH 4 0
BBX 4 4 0 0
BITMAP
60
90
90
E0
ENDCHAR
STARTCHAR 03C4
ENCODING 964
SWIDTH 480 0
DWIDTH 4 0
BBX 3 4 0 0
BITMAP
E0
40
40
40
ENDCHAR
STARTCHAR 03C5
ENCODING 965
SWIDTH 480 0
DWIDTH 4 0
BBX 3 4 0 0
BITMAP
A0
A0
A0
E0
ENDCHAR
STARTCHAR 03C6
ENCODING 966
SWIDTH 480 0
DWIDTH 4 0
BBX 3 5 0 -1
BITMAP
60
E0
E0
E0
40
ENDCHAR
STARTCHAR 03C7
ENCODING 967
SWIDTH 480 0
DWIDTH 4 0
BBX 3 5 0 -1
BITMAP
80
60
40
40
A0
ENDCHAR
STARTCHAR 03C8
ENCODING 968
SWIDTH 480 0
DWIDTH 4 0
BBX 4 5 0 -2
BITMAP
90
D0
D0
D0
60
ENDCHAR
STARTCHAR 03C9
ENCODING 969
SWIDTH 480 0
DWIDTH 4 0
BBX 4 4 0 0
BITMAP
20
90
D0
F0
ENDCHAR
STARTCHAR 0401
ENCODING 1025
SWIDTH 600 0
DWIDTH 5 0
BBX 3 6 1 0
BITMAP
40
80
80
E0
80
C0
ENDCHAR
STARTCHAR 0410
ENCODING 1040
SWIDTH 720 0
DWIDTH 6 0
BBX 4 5 1 0
BITMAP
60
60
90
F0
90
ENDCHAR
STARTCHAR 0411
ENCODING 1041
SWIDTH 720 0
DWIDTH 6 0
BBX 4 5 1 0
BITMAP
C0
80
F0
90
F0
ENDCHAR
STARTCHAR 0412
ENCODING 1042
SWIDTH 720 0
DWIDTH 6 0
BBX 4 5 1 0
BITMAP
F0
90
E0
90
F0
ENDCHAR
STARTCHAR 0413
ENCODING 1043
SWIDTH 600 0
DWIDTH 5 0
BBX 2 5 1 0
BITMAP
C0
80
80
80
80
ENDCHAR
STARTCHAR 0414
ENCODING 1044
SWIDTH 720 0
DWIDTH 6 0
BBX 6 6 0 -1
BITMAP
3C
24
24
24
44
BC
ENDCHAR
STARTCHAR 0415
ENCODING 1045
SWIDTH 600 0
DWIDTH 5 0
BBX 3 5 1 0
BITMAP
C0
80
E0
80
C0
ENDCHAR
STARTCHAR 0416
ENCODING 1046
SWIDTH 840 0
DWIDTH 7 0
BBX 7 6 0 0
BITMAP
82
54
38
38
38
54
ENDCHAR
STARTCHAR 0417
ENCODING 1047
SWIDTH 600 0
DWIDTH 5 0
BBX 3 5 1 0
BITMAP
E0
20
60
20
E0
ENDCHAR
STARTCHAR 0418
ENCODING 1048
SWIDTH 720 0
DWIDTH 6 0
BBX 4 5 1 0
BITMAP
90
B0
D0
90
90
ENDCHAR
STARTCHAR 0419
ENCODING 1049
SWIDTH 720 0
DWIDTH 6 0
BBX 4 5 1 1
BITMAP
90
B0
D0
90
90
ENDCHAR
STARTCHAR 041A
ENCODING 1050
SWIDTH 600 0
DWIDTH 5 0
BBX 3 5 1 0
BITMAP
A0
C0
C0
A0
A0
ENDCHAR
STARTCHAR 041B
ENCODING 1051
SWIDTH 720 0
DWIDTH 6 0
BBX 4 5 1 0
BITMAP
70
50
50
90
90
ENDCHAR
STARTCHAR 041C
ENCODING 1052
SWIDTH 840 0
DWIDTH 7 0
BBX 5 5 1 0
BITMAP
88
98
98
E8
A8
ENDCHAR
STARTCHAR 041D
ENCODING 1053
SWIDTH 600 0
DWIDTH 5 0
BBX 4 5 1 0
BITMAP
90
90
F0
90
90
ENDCHAR
STARTCHAR 041E
ENCODING 1054
SWIDTH 720 0
DWIDTH 6 0
BBX 5 6 1 0
BITMAP
60
90
88
88
88
F0
ENDCHAR
STARTCHAR 041F
ENCODING 1055
SWIDTH 600 0
DWIDTH 5 0
BBX 5 5 0 0
BITMAP
F8
88
88
88
88
ENDCHAR
STARTCHAR 0420
ENCODING 1056
SWIDTH 600 0
DWIDTH 5 0
BBX 3 5 1 0
BITMAP
E0
A0
E0
80
80
ENDCHAR
STARTCHAR 0421
ENCODING 1057
SWIDTH 720 0
DWIDTH 6 0
BBX 4 6 1 0
BITMAP
60
90
80
80
80
F0
ENDCHAR
STARTCHAR 0422
ENCODING 1058
SWIDTH 600 0
DWIDTH 5 0
BBX 2 5 2 0
BITMAP
C0
80
80
80
80
ENDCHAR
STARTCHAR 0423
ENCODING 1059
SWIDTH 600 0
DWIDTH 5 0
BBX 3 4 1 0
BITMAP
20
A0
C0
40
ENDCHAR
STARTCHAR 0424
ENCODING 1060
SWIDTH 720 0
DWIDTH 6 0
BBX 5 5 0 0
BITMAP
30
68
A8
68
30
ENDCHAR
STARTCHAR 0425
ENCODING 1061
SWIDTH 720 0
DWIDTH 6 0
BBX 4 5 1 0
BITMAP
90
60
40
60
90
ENDCHAR
STARTCHAR 0426
ENCODING 1062
SWIDTH 720 0
DWIDTH 6 0
BBX 5 6 1 -1
BITMAP
90
90
90
90
90
68
ENDCHAR
STARTCHAR 0427
ENCODING 1063
SWIDTH 600 0
DWIDTH 5 0
BBX 3 5 1 0
BITMAP
20
A0
A0
E0
20
ENDCHAR
STARTCHAR 0428
ENCODING 1064
SWIDTH 720 0
DWIDTH 6 0
BBX 5 5 1 0
BITMAP
A8
A8
A8
A8
F8
ENDCHAR
STARTCHAR 0429
ENCODING 1065
SWIDTH 840 0
DWIDTH 7 0
BBX 4 6 2 -1
BITMAP
90
90
90
90
90
70
ENDCHAR
STARTCHAR 042A
ENCODING 1066
SWIDTH 720 0
DWIDTH 6 0
BBX 5 5 1 0
BITMAP
80
80
70
88
F8
ENDCHAR
STARTCHAR 042B
ENCODING 1067
SWIDTH 720 0
DWIDTH 6 0
BBX 5 5 1 0
BITMAP
88
88
E8
98
E8
ENDCHAR
STARTCHAR 042C
ENCODING 1068
SWIDTH 720 0
DWIDTH 6 0
BBX 4 5 1 0
BITMAP
80
80
E0
90
F0
ENDCHAR
STARTCHAR 042D
ENCODING 1069
SWIDTH 720 0
DWIDTH 6 0
BBX 4 6 1 0
BITMAP
60
90
10
70
10
F0
ENDCHAR
STARTCHAR 042E
ENCODING 1070
SWIDTH 840 0
DWIDTH 7 0
BBX 5 6 1 0
BITMAP
30
C8
C8
C8
C8
F8
ENDCHAR
STARTCHAR 042F
ENCODING 1071
SWIDTH 600 0
DWIDTH 5 0
BBX 5 5 0 0
BITMAP
78
88
78
48
88
ENDCHAR
STARTCHAR 0430
ENCODING 1072
SWIDTH 600 0
DWIDTH 5 0
BBX 3 4 1 0
BITMAP
E0
20
E0
E0
ENDCHAR
STARTCHAR 0431
ENCODING 1073
SWIDTH 600 0
DWIDTH 5 0
BBX 3 5 1 1
BITMAP
40
E0
A0
A0
E0
ENDCHAR
STARTCHAR 0432
ENCODING 1074
SWIDTH 600 0
DWIDTH 5 0
BBX 3 4 1 0
BITMAP
E0
A0
E0
E0
ENDCHAR
STARTCHAR 0433
ENCODING 1075
SWIDTH 480 0
DWIDTH 4 0
BBX 3 3 1 0
BITMAP
E0
80
80
ENDCHAR
STARTCHAR 0434
ENCODING 1076
SWIDTH 720 0
DWIDTH 6 0
BBX 6 5 0 -1
BITMAP
38
48
48
48
B4
ENDCHAR
STARTCHAR 0435
ENCODING 1077
SWIDTH 600 0
DWIDTH 5 0
BBX 3 4 1 0
BITMAP
C0
A0
C0
E0
ENDCHAR
STARTCHAR 0436
ENCODING 1078
SWIDTH 720 0
DWIDTH 6 0
BBX 6 4 0 0
BITMAP
C4
28
38
48
ENDCHAR
STARTCHAR 0437
ENCODING 1079
SWIDTH 600 0
DWIDTH 5 0
BBX 3 4 1 0
BITMAP
E0
20
20
E0
ENDCHAR
STARTCHAR 0438
ENCODING 1080
SWIDTH 600 0
DWIDTH 5 0
BBX 3 3 1 1
BITMAP
A0
E0
A0
ENDCHAR
STARTCHAR 0439
ENCODING 1081
SWIDTH 600 0
DWIDTH 5 0
BBX 3 5 1 0
BITMAP
C0
00
A0
E0
A0
ENDCHAR
STARTCHAR 043A
ENCODING 1082
SWIDTH 600 0
DWIDTH 5 0
BBX 3 4 1 0
BITMAP
20
C0
C0
20
ENDCHAR
STARTCHAR 043B
ENCODING 1083
SWIDTH 600 0
DWIDTH 5 0
BBX 4 4 1 0
BITMAP
70
90
90
90
ENDCHAR
STARTCHAR 043C
ENCODING 1084
SWIDTH 720 0
DWIDTH 6 0
BBX 5 4 1 0
BITMAP
08
98
98
68
ENDCHAR
STARTCHAR 043D
ENCODING 1085
SWIDTH 600 0
DWIDTH 5 0
BBX 3 2 1 1
BITMAP
A0
E0
ENDCHAR
STARTCHAR 043E
ENCODING 1086
SWIDTH 600 0
DWIDTH 5 0
BBX 4 4 0 0
BITMAP
70
90
90
70
ENDCHAR
STARTCHAR 043F
ENCODING 1087
SWIDTH 600 0
DWIDTH 5 0
BBX 3 3 1 0
BITMAP
E0
A0
A0
ENDCHAR
STARTCHAR 0440
ENCODING 1088
SWIDTH 600 0
DWIDTH 5 0
BBX 3 5 1 -2
BITMAP
E0
A0
A0
A0
C0
ENDCHAR
STARTCHAR 0441
ENCODING 1089
SWIDTH 600 0
DWIDTH 5 0
BBX 4 4 0 0
BITMAP
70
80
80
70
ENDCHAR
STARTCHAR 0442
ENCODING 1090
SWIDTH 600 0
DWIDTH 5 0
BBX 4 4 0 0
BITMAP
F0
20
20
20
ENDCHAR
STARTCHAR 0443
ENCODING 1091
SWIDTH 600 0
DWIDTH 5 0
BBX 3 6 1 -2
BITMAP
20
A0
C0
40
40
80
ENDCHAR
STARTCHAR 0444
ENCODING 1092
SWIDTH 720 0
DWIDTH 6 0
BBX 5 6 1 -2
BITMAP
20
F0
A8
A8
A8
70
ENDCHAR
STARTCHAR 0445
ENCODING 1093
SWIDTH 600 0
DWIDTH 5 0
BBX 3 4 1 0
BITMAP
20
C0
40
A0
ENDCHAR
STARTCHAR 0446
ENCODING 1094
SWIDTH 600 0
DWIDTH 5 0
BBX 4 4 1 0
BITMAP
A0
A0
A0
50
ENDCHAR
STARTCHAR 0447
ENCODING 1095
SWIDTH 480 0
DWIDTH 4 0
BBX 3 4 1 0
BITMAP
20
A0
A0
60
ENDCHAR
STARTCHAR 0448
ENCODING 1096
SWIDTH 720 0
DWIDTH 6 0
BBX 4 3 1 1
BITMAP
B0
B0
F0
ENDCHAR
STARTCHAR 0449
ENCODING 1097
SWIDTH 720 0
DWIDTH 6 0
BBX 6 5 0 -1
BITMAP
80
A8
A8
A8
54
ENDCHAR
STARTCHAR 044A
ENCODING 1098
SWIDTH 600 0
DWIDTH 5 0
BBX 5 4 0 0
BITMAP
C0
40
78
78
ENDCHAR
STARTCHAR 044B
ENCODING 1099
SWIDTH 720 0
DWIDTH 6 0
BBX 4 4 1 0
BITMAP
10
90
F0
F0
ENDCHAR
STARTCHAR 044C
ENCODING 1100
SWIDTH 480 0
DWIDTH 4 0
BBX 3 3 1 1
BITMAP
80
E0
E0
ENDCHAR
STARTCHAR 044D
ENCODING 1101
SWIDTH 600 0
DWIDTH 5 0
BBX 3 4 1 0
BITMAP
C0
20
60
E0
ENDCHAR
STARTCHAR 044E
ENCODING 1102
SWIDTH 720 0
DWIDTH 6 0
BBX 5 4 1 0
BITMAP
30
C8
C8
F8
ENDCHAR
STARTCHAR 044F
ENCODING 1103
SWIDTH 600 0
DWIDTH 5 0
BBX 4 4 0 0
BITMAP
70
90
70
80
ENDCHAR
STARTCHAR 0451
ENCODING 1105
SWIDTH 600 0
DWIDTH 5 0
BBX 3 4 1 1
BITMAP
C0
A0
C0
E0
ENDCHAR
STARTCHAR 1100
ENCODING 4352
SWIDTH 960 0
DWIDTH 8 0
BBX 4 3 2 1
BITMAP
F0
10
10
ENDCHAR
STARTCHAR 1101
ENCODING 4353
SWIDTH 960 0
DWIDTH 8 0
BBX 5 3 1 1
BITMAP
F8
28
28
ENDCHAR
STARTCHAR 1102
ENCODING 4354
SWIDTH 960 0
DWIDTH 8 0
BBX 4 3 2 1
BITMAP
80
80
F0
ENDCHAR
STARTCHAR 1103
ENCODING 4355
SWIDTH 960 0
DWIDTH 8 0
BBX 3 3 2 1
BITMAP
E0
80
E0
ENDCHAR
STARTCHAR 1104
ENCODING 4356
SWIDTH 960 0
DWIDTH 8 0
BBX 4 3 1 1
BITMAP
90
90
D0
ENDCHAR
STARTCHAR 1105
ENCODING 4357
SWIDTH 960 0
DWIDTH 8 0
BBX 4 3 2 1
BITMAP
70
F0
E0
ENDCHAR
STARTCHAR 1106
ENCODING 4358
SWIDTH 960 0
DWIDTH 8 0
BBX 4 3 2 1
BITMAP
F0
90
F0
ENDCHAR
STARTCHAR 1107
ENCODING 4359
SWIDTH 960 0
DWIDTH 8 0
BBX 4 3 2 1
BITMAP
90
F0
F0
ENDCHAR
STARTCHAR 1108
ENCODING 4360
SWIDTH 960 0
DWIDTH 8 0
BBX 5 3 1 1
BITMAP
B8
F8
F8
ENDCHAR
STARTCHAR 1109
ENCODING 4361
SWIDTH 960 0
DWIDTH 8 0
BBX 3 3 2 0
BITMAP
40
40
A0
ENDCHAR
STARTCHAR 110A
ENCODING 4362
SWIDTH 960 0
DWIDTH 8 0
BBX 6 3 1 0
BITMAP
50
78
A4
ENDCHAR
STARTCHAR 110B
ENCODING 4363
SWIDTH 960 0
DWIDTH 8 0
BBX 4 3 2 1
BITMAP
F0
90
F0
ENDCHAR
STARTCHAR 110C
ENCODING 4364
SWIDTH 960 0
DWIDTH 8 0
BBX 4 3 2 0
BITMAP
60
40
B0
ENDCHAR
STARTCHAR 110D
ENCODING 4365
SWIDTH 960 0
DWIDTH 8 0
BBX 5 3 1 1
BITMAP
68
50
B8
ENDCHAR
STARTCHAR 110E
ENCODING 4366
SWIDTH 960 0
DWIDTH 8 0
BBX 4 4 2 1
BITMAP
60
F0
20
F0
ENDCHAR
STARTCHAR 110F
ENCODING 4367
SWIDTH 960 0
DWIDTH 8 0
BBX 4 3 2 1
BITMAP
70
F0
10
ENDCHAR
STARTCHAR 1110
ENCODING 4368
SWIDTH 960 0
DWIDTH 8 0
BBX 4 3 2 1
BITMAP
E0
F0
E0
ENDCHAR
STARTCHAR 1111
ENCODING 4369
SWIDTH 960 0
DWIDTH 8 0
BBX 3 3 2 1
BITMAP
E0
A0
E0
ENDCHAR
STARTCHAR 1112
ENCODING 4370
SWIDTH 960 0
DWIDTH 8 0
BBX 4 5 2 0
BITMAP
60
F0
E0
90
60
ENDCHAR
STARTCHAR 115F
ENCODING 4447
SWIDTH 0 0
DWIDTH 0 0
BBX 0 0 0 0
BITMAP
ENDCHAR
STARTCHAR 1160
ENCODING 4448
SWIDTH 0 0
DWIDTH 0 0
BBX 0 0 0 0
BITMAP
ENDCHAR
STARTCHAR 1161
ENCODING 4449
SWIDTH 960 0
DWIDTH 8 0
BBX 2 7 3 -1
BITMAP
80
80
80
C0
80
80
80
ENDCHAR
STARTCHAR 1162
ENCODING 4450
SWIDTH 960 0
DWIDTH 8 0
BBX 3 7 2 -1
BITMAP
A0
A0
A0
E0
A0
A0
A0
ENDCHAR
STARTCHAR 1163
ENCODING 4451
SWIDTH 960 0
DWIDTH 8 0
BBX 2 7 3 -1
BITMAP
80
80
80
80
C0
80
80
ENDCHAR
STARTCHAR 1164
ENCODING 4452
SWIDTH 960 0
DWIDTH 8 0
BBX 3 7 2 -1
BITMAP
A0
A0
E0
A0
E0
A0
A0
ENDCHAR
STARTCHAR 1165
ENCODING 4453
SWIDTH 960 0
DWIDTH 8 0
BBX 1 7 4 -1
BITMAP
80
80
80
80
80
80
80
ENDCHAR
STARTCHAR 1166
ENCODING 4454
SWIDTH 960 0
DWIDTH 8 0
BBX 2 7 3 -1
BITMAP
C0
C0
C0
C0
C0
C0
C0
ENDCHAR
STARTCHAR 1167
ENCODING 4455
SWIDTH 960 0
DWIDTH 8 0
BBX 2 7 3 -1
BITMAP
40
40
40
40
C0
40
40
ENDCHAR
STARTCHAR 1168
ENCODING 4456
SWIDTH 960 0
DWIDTH 8 0
BBX 3 7 2 -1
BITMAP
60
60
E0
60
E0
60
60
ENDCHAR
STARTCHAR 1169
ENCODING 4457
SWIDTH 960 0
DWIDTH 8 0
BBX 1 3 3 1
BITMAP
80
80
80
ENDCHAR
STARTCHAR 116A
ENCODING 4458
SWIDTH 960 0
DWIDTH 8 0
BBX 6 7 0 -1
BITMAP
04
04
04
24
24
F4
04
ENDCHAR
STARTCHAR 116B
ENCODING 4459
SWIDTH 960 0
DWIDTH 8 0
BBX 5 7 2 -1
BITMAP
18
18
18
98
98
58
08
ENDCHAR
STARTCHAR 116C
ENCODING 4460
SWIDTH 960 0
DWIDTH 8 0
BBX 6 7 1 -1
BITMAP
04
04
04
24
24
D4
04
ENDCHAR
STARTCHAR 116D
ENCODING 4461
SWIDTH 960 0
DWIDTH 8 0
BBX 3 3 2 1
BITMAP
80
A0
A0
ENDCHAR
STARTCHAR 116E
ENCODING 4462
SWIDTH 960 0
DWIDTH 8 0
BBX 5 3 1 0
BITMAP
F8
20
20
ENDCHAR
STARTCHAR 116F
ENCODING 4463
SWIDTH 960 0
DWIDTH 8 0
BBX 6 7 1 -1
BITMAP
04
04
04
FC
24
24
04
ENDCHAR
STARTCHAR 1170
ENCODING 4464
SWIDTH 960 0
DWIDTH 8 0
BBX 6 7 1 -1
BITMAP
0C
0C
0C
EC
4C
4C
4C
ENDCHAR
STARTCHAR 1171
ENCODING 4465
SWIDTH 960 0
DWIDTH 8 0
BBX 6 7 1 -1
BITMAP
04
04
04
FC
24
24
04
ENDCHAR
STARTCHAR 1172
ENCODING 4466
SWIDTH 960 0
DWIDTH 8 0
BBX 5 3 1 0
BITMAP
F8
48
48
ENDCHAR
STARTCHAR 1173
ENCODING 4467
SWIDTH 960 0
DWIDTH 8 0
BBX 5 1 1 1
BITMAP
F8
ENDCHAR
STARTCHAR 1174
ENCODING 4468
SWIDTH 960 0
DWIDTH 8 0
BBX 5 7 2 -1
BITMAP
08
08
08
08
F8
08
08
ENDCHAR
STARTCHAR 1175
ENCODING 4469
SWIDTH 960 0
DWIDTH 8 0
BBX 1 7 3 -1
BITMAP
80
80
80
80
80
80
80
ENDCHAR
STARTCHAR 11A8
ENCODING 4520
SWIDTH 960 0
DWIDTH 8 0
BBX 4 3 2 1
BITMAP
F0
10
10
ENDCHAR
STARTCHAR 11A9
ENCODING 4521
SWIDTH 960 0
DWIDTH 8 0
BBX 5 3 1 1
BITMAP
F8
28
28
ENDCHAR
STARTCHAR 11AA
ENCODING 4522
SWIDTH 960 0
DWIDTH 8 0
BBX 4 3 2 1
BITMAP
A0
A0
B0
ENDCHAR
STARTCHAR 11AB
ENCODING 4523
SWIDTH 960 0
DWIDTH 8 0
BBX 4 3 2 1
BITMAP
80
80
F0
ENDCHAR
STARTCHAR 11AC
ENCODING 4524
SWIDTH 960 0
DWIDTH 8 0
BBX 5 3 1 1
BITMAP
98
88
D8
ENDCHAR
STARTCHAR 11AD
ENCODING 4525
SWIDTH 960 0
DWIDTH 8 0
BBX 5 3 1 1
BITMAP
B8
98
F8
ENDCHAR
STARTCHAR 11AE
ENCODING 4526
SWIDTH 960 0
DWIDTH 8 0
BBX 3 3 2 1
BITMAP
E0
80
E0
ENDCHAR
STARTCHAR 11AF
ENCODING 4527
SWIDTH 960 0
DWIDTH 8 0
BBX 4 3 2 1
BITMAP
70
F0
E0
ENDCHAR
STARTCHAR 11B0
ENCODING 4528
SWIDTH 960 0
DWIDTH 8 0
BBX 5 3 1 1
BITMAP
78
68
C8
ENDCHAR
STARTCHAR 11B1
ENCODING 4529
SWIDTH 960 0
DWIDTH 8 0
BBX 5 3 1 1
BITMAP
78
F8
D8
ENDCHAR
STARTCHAR 11B2
ENCODING 4530
SWIDTH 960 0
DWIDTH 8 0
BBX 5 3 1 1
BITMAP
68
F8
D8
ENDCHAR
STARTCHAR 11B3
ENCODING 4531
SWIDTH 960 0
DWIDTH 8 0
BBX 5 3 1 1
BITMAP
40
D0
98
ENDCHAR
STARTCHAR 11B4
ENCODING 4532
SWIDTH 960 0
DWIDTH 8 0
BBX 5 3 1 1
BITMAP
70
D8
D0
ENDCHAR
STARTCHAR 11B5
ENCODING 4533
SWIDTH 960 0
DWIDTH 8 0
BBX 5 3 1 1
BITMAP
78
D8
D8
ENDCHAR
STARTCHAR 11B6
ENCODING 4534
SWIDTH 960 0
DWIDTH 8 0
BBX 5 3 1 1
BITMAP
78
D8
D8
ENDCHAR
STARTCHAR 11B7
ENCODING 4535
SWIDTH 960 0
DWIDTH 8 0
BBX 4 3 2 1
BITMAP
F0
90
F0
ENDCHAR
STARTCHAR 11B8
ENCODING 4536
SWIDTH 960 0
DWIDTH 8 0
BBX 4 3 2 1
BITMAP
90
F0
F0
ENDCHAR
STARTCHAR 11B9
ENCODING 4537
SWIDTH 960 0
DWIDTH 8 0
BBX 5 3 1 1
BITMAP
90
D0
D8
ENDCHAR
STARTCHAR 11BA
ENCODING 4538
SWIDTH 960 0
DWIDTH 8 0
BBX 3 3 2 0
BITMAP
40
40
A0
ENDCHAR
STARTCHAR 11BB
ENCODING 4539
SWIDTH 960 0
DWIDTH 8 0
BBX 6 3 1 0
BITMAP
50
78
A4
ENDCHAR
STARTCHAR 11BC
ENCODING 4540
SWIDTH 960 0
DWIDTH 8 0
BBX 4 3 2 1
BITMAP
F0
90
F0
ENDCHAR
STARTCHAR 11BD
ENCODING 4541
SWIDTH 960 0
DWIDTH 8 0
BBX 4 3 2 0
BITMAP
60
40
B0
ENDCHAR
STARTCHAR 11BE
ENCODING 4542
SWIDTH 960 0
DWIDTH 8 0
BBX 4 4 2 1
BITMAP
60
F0
20
F0
ENDCHAR
STARTCHAR 11BF
ENCODING 4543
SWIDTH 960 0
DWIDTH 8 0
BBX 4 3 2 1
BITMAP
70
F0
10
ENDCHAR
STARTCHAR 11C0
ENCODING 4544
SWIDTH 960 0
DWIDTH 8 0
BBX 4 3 2 1
BITMAP
E0
F0
E0
ENDCHAR
STARTCHAR 11C1
ENCODING 4545
SWIDTH 960 0
DWIDTH 8 0
BBX 3 3 2 1
BITMAP
E0
A0
E0
ENDCHAR
STARTCHAR 11C2
ENCODING 4546
SWIDTH 960 0
DWIDTH 8 0
BBX 4 5 2 0
BITMAP
60
F0
E0
90
60
ENDCHAR
STARTCHAR 2010
ENCODING 8208
SWIDTH 480 0
DWIDTH 4 0
BBX 0 0 0 3
BITMAP
ENDCHAR
STARTCHAR 2013
ENCODING 8211
SWIDTH 360 0
DWIDTH 3 0
BBX 3 1 0 2
BITMAP
E0
ENDCHAR
STARTCHAR 2014
ENCODING 8212
SWIDTH 840 0
DWIDTH 7 0
BBX 0 0 0 3
BITMAP
ENDCHAR
STARTCHAR 2015
ENCODING 8213
SWIDTH 840 0
DWIDTH 7 0
BBX 0 0 0 3
BITMAP
ENDCHAR
STARTCHAR 2016
ENCODING 8214
SWIDTH 960 0
DWIDTH 8 0
BBX 2 7 3 -1
BITMAP
40
C0
C0
C0
C0
C0
40
ENDCHAR
STARTCHAR 2018
ENCODING 8216
SWIDTH 120 0
DWIDTH 1 0
BBX 1 1 0 5
BITMAP
80
ENDCHAR
STARTCHAR 2019
ENCODING 8217
SWIDTH 120 0
DWIDTH 1 0
BBX 1 1 0 4
BITMAP
80
ENDCHAR
STARTCHAR 201B
ENCODING 8219
SWIDTH 120 0
DWIDTH 1 0
BBX 1 2 0 4
BITMAP
80
80
ENDCHAR
STARTCHAR 201C
ENCODING 8220
SWIDTH 360 0
DWIDTH 3 0
BBX 2 1 1 5
BITMAP
C0
ENDCHAR
STARTCHAR 201D
ENCODING 8221
SWIDTH 360 0
DWIDTH 3 0
BBX 2 1 0 4
BITMAP
C0
ENDCHAR
STARTCHAR 201F
ENCODING 8223
SWIDTH 360 0
DWIDTH 3 0
BBX 2 2 0 4
BITMAP
C0
80
ENDCHAR
STARTCHAR 2020
ENCODING 8224
SWIDTH 480 0
DWIDTH 4 0
BBX 2 3 1 1
BITMAP
C0
40
40
ENDCHAR
STARTCHAR 2021
ENCODING 8225
SWIDTH 480 0
DWIDTH 4 0
BBX 2 3 1 1
BITMAP
C0
C0
40
ENDCHAR
STARTCHAR 2022
ENCODING 8226
SWIDTH 960 0
DWIDTH 8 0
BBX 2 1 3 2
BITMAP
C0
ENDCHAR
STARTCHAR 2025
ENCODING 8229
SWIDTH 960 0
DWIDTH 8 0
BBX 1 1 5 2
BITMAP
80
ENDCHAR
STARTCHAR 2026
ENCODING 8230
SWIDTH 960 0
DWIDTH 8 0
BBX 6 1 1 2
BITMAP
A4
ENDCHAR
STARTCHAR 2030
ENCODING 8240
SWIDTH 960 0
DWIDTH 8 0
BBX 7 7 0 -1
BITMAP
40
B0
A0
5E
2E
5E
1E
ENDCHAR
STARTCHAR 2032
ENCODING 8242
SWIDTH 480 0
DWIDTH 4 0
BBX 1 2 1 4
BITMAP
80
80
ENDCHAR
STARTCHAR 2033
ENCODING 8243
SWIDTH 480 0
DWIDTH 4 0
BBX 2 1 1 4
BITMAP
C0
ENDCHAR
STARTCHAR 2034
ENCODING 8244
SWIDTH 960 0
DWIDTH 8 0
BBX 3 1 2 5
BITMAP
E0
ENDCHAR
STARTCHAR 2035
ENCODING 8245
SWIDTH 240 0
DWIDTH 2 0
BBX 1 1 0 4
BITMAP
80
ENDCHAR
STARTCHAR 2036
ENCODING 8246
SWIDTH 240 0
DWIDTH 2 0
BBX 2 3 0 3
BITMAP
80
00
40
ENDCHAR
STARTCHAR 2039
ENCODING 8249
SWIDTH 960 0
DWIDTH 8 0
BBX 5 7 1 -1
BITMAP
08
10
60
80
40
30
08
ENDCHAR
STARTCHAR 203A
ENCODING 8250
SWIDTH 960 0
DWIDTH 8 0
BBX 6 7 1 -1
BITMAP
80
60
10
0C
18
60
80
ENDCHAR
STARTCHAR 203B
ENCODING 8251
SWIDTH 960 0
DWIDTH 8 0
BBX 5 5 1 0
BITMAP
28
50
A8
50
28
ENDCHAR
STARTCHAR 203C
ENCODING 8252
SWIDTH 960 0
DWIDTH 8 0
BBX 3 6 2 -1
BITMAP
A0
A0
A0
00
00
A0
ENDCHAR
STARTCHAR 203E
ENCODING 8254
SWIDTH 960 0
DWIDTH 8 0
BBX 0 0 0 6
BITMAP
ENDCHAR
STARTCHAR 2042
ENCODING 8258
SWIDTH 960 0
DWIDTH 8 0
BBX 3 6 4 -1
BITMAP
80
00
00
40
20
40
ENDCHAR
STARTCHAR 2074
ENCODING 8308
SWIDTH 360 0
DWIDTH 3 0
BBX 1 2 1 4
BITMAP
80
80
ENDCHAR
STARTCHAR 207A
ENCODING 8314
SWIDTH 480 0
DWIDTH 4 0
BBX 1 1 1 3
BITMAP
80
ENDCHAR
STARTCHAR 207B
ENCODING 8315
SWIDTH 480 0
DWIDTH 4 0
BBX 1 1 1 4
BITMAP
80
ENDCHAR
STARTCHAR 207C
ENCODING 8316
SWIDTH 480 0
DWIDTH 4 0
BBX 3 1 0 4
BITMAP
E0
ENDCHAR
STARTCHAR 207D
ENCODING 8317
SWIDTH 240 0
DWIDTH 2 0
BBX 1 2 0 3
BITMAP
80
80
ENDCHAR
STARTCHAR 207E
ENCODING 8318
SWIDTH 240 0
DWIDTH 2 0
BBX 1 2 1 3
BITMAP
80
80
ENDCHAR
STARTCHAR 207F
ENCODING 8319
SWIDTH 360 0
DWIDTH 3 0
BBX 1 1 1 4
BITMAP
80
ENDCHAR
STARTCHAR 2081
ENCODING 8321
SWIDTH 360 0
DWIDTH 3 0
BBX 1 1 1 -1
BITMAP
80
ENDCHAR
STARTCHAR 2082
ENCODING 8322
SWIDTH 360 0
DWIDTH 3 0
BBX 1 1 1 -1
BITMAP
80
ENDCHAR
STARTCHAR 2083
ENCODING 8323
SWIDTH 360 0
DWIDTH 3 0
BBX 1 2 1 -1
BITMAP
80
80
ENDCHAR
STARTCHAR 2084
ENCODING 8324
SWIDTH 360 0
DWIDTH 3 0
BBX 1 1 1 -1
BITMAP
80
ENDCHAR
STARTCHAR 20A9
ENCODING 8361
SWIDTH 960 0
DWIDTH 8 0
BBX 7 6 0 0
BITMAP
52
5A
FE
5C
24
24
ENDCHAR
STARTCHAR 20AC
ENCODING 8364
SWIDTH 960 0
DWIDTH 8 0
BBX 3 6 2 -1
BITMAP
60
80
C0
80
80
60
ENDCHAR
STARTCHAR 2103
ENCODING 8451
SWIDTH 720 0
DWIDTH 6 0
BBX 5 6 1 0
BITMAP
80
70
40
80
48
70
ENDCHAR
STARTCHAR 2109
ENCODING 8457
SWIDTH 960 0
DWIDTH 8 0
BBX 5 6 1 0
BITMAP
F8
20
38
20
20
20
ENDCHAR
STARTCHAR 2113
ENCODING 8467
SWIDTH 480 0
DWIDTH 4 0
BBX 3 5 1 0
BITMAP
60
A0
C0
40
80
ENDCHAR
STARTCHAR 2116
ENCODING 8470
SWIDTH 960 0
DWIDTH 8 0
BBX 6 5 1 0
BITMAP
80
B8
A4
64
3C
ENDCHAR
STARTCHAR 2121
ENCODING 8481
SWIDTH 960 0
DWIDTH 8 0
BBX 5 5 2 0
BITMAP
80
A8
D8
A8
70
ENDCHAR
STARTCHAR 2122
ENCODING 8482
SWIDTH 960 0
DWIDTH 8 0
BBX 7 3 0 3
BITMAP
F2
5A
14
ENDCHAR
STARTCHAR 2126
ENCODING 8486
SWIDTH 600 0
DWIDTH 5 0
BBX 5 6 0 0
BITMAP
30
48
88
88
50
38
ENDCHAR
STARTCHAR 212B
ENCODING 8491
SWIDTH 600 0
DWIDTH 5 0
BBX 4 7 1 -1
BITMAP
40
40
40
A0
E0
90
90
ENDCHAR
STARTCHAR 2153
ENCODING 8531
SWIDTH 720 0
DWIDTH 6 0
BBX 4 7 1 -1
BITMAP
80
90
A0
40
B0
10
30
ENDCHAR
STARTCHAR 2154
ENCODING 8532
SWIDTH 720 0
DWIDTH 6 0
BBX 5 7 1 -1
BITMAP
80
48
90
A0
48
90
08
ENDCHAR
STARTCHAR 215B
ENCODING 8539
SWIDTH 720 0
DWIDTH 6 0
BBX 4 7 1 -1
BITMAP
80
90
A0
40
B0
30
30
ENDCHAR
STARTCHAR 215C
ENCODING 8540
SWIDTH 720 0
DWIDTH 6 0
BBX 4 7 1 -1
BITMAP
80
50
50
20
70
30
30
ENDCHAR
STARTCHAR 215D
ENCODING 8541
SWIDTH 720 0
DWIDTH 6 0
BBX 4 7 1 -1
BITMAP
C0
90
50
20
70
30
30
ENDCHAR
STARTCHAR 215E
ENCODING 8542
SWIDTH 720 0
DWIDTH 6 0
BBX 4 7 1 -1
BITMAP
C0
90
A0
40
B0
30
30
ENDCHAR
STARTCHAR 2160
ENCODING 8544
SWIDTH 960 0
DWIDTH 8 0
BBX 1 5 3 0
BITMAP
80
80
80
80
80
ENDCHAR
STARTCHAR 2161
ENCODING 8545
SWIDTH 960 0
DWIDTH 8 0
BBX 3 5 2 0
BITMAP
A0
A0
A0
A0
A0
ENDCHAR
STARTCHAR 2162
ENCODING 8546
SWIDTH 960 0
DWIDTH 8 0
BBX 4 5 2 0
BITMAP
D0
D0
D0
D0
D0
ENDCHAR
STARTCHAR 2163
ENCODING 8547
SWIDTH 960 0
DWIDTH 8 0
BBX 5 5 1 0
BITMAP
C8
A8
A8
B0
90
ENDCHAR
STARTCHAR 2164
ENCODING 8548
SWIDTH 960 0
DWIDTH 8 0
BBX 4 5 2 0
BITMAP
90
90
A0
60
40
ENDCHAR
STARTCHAR 2165
ENCODING 8549
SWIDTH 960 0
DWIDTH 8 0
BBX 5 5 1 0
BITMAP
98
98
58
68
28
ENDCHAR
STARTCHAR 2166
ENCODING 8550
SWIDTH 960 0
DWIDTH 8 0
BBX 6 5 1 0
BITMAP
AC
AC
AC
4C
4C
ENDCHAR
STARTCHAR 2167
ENCODING 8551
SWIDTH 960 0
DWIDTH 8 0
BBX 6 5 1 0
BITMAP
BC
DC
DC
DC
5C
ENDCHAR
STARTCHAR 2168
ENCODING 8552
SWIDTH 960 0
DWIDTH 8 0
BBX 5 5 1 0
BITMAP
A8
B0
90
A8
A8
ENDCHAR
STARTCHAR 2169
ENCODING 8553
SWIDTH 960 0
DWIDTH 8 0
BBX 4 5 2 0
BITMAP
90
60
40
60
90
ENDCHAR
STARTCHAR 2170
ENCODING 8560
SWIDTH 960 0
DWIDTH 8 0
BBX 1 2 3 2
BITMAP
80
80
ENDCHAR
STARTCHAR 2171
ENCODING 8561
SWIDTH 960 0
DWIDTH 8 0
BBX 3 4 2 1
BITMAP
80
A0
A0
A0
ENDCHAR
STARTCHAR 2172
ENCODING 8562
SWIDTH 960 0
DWIDTH 8 0
BBX 4 4 2 1
BITMAP
10
D0
D0
10
ENDCHAR
STARTCHAR 2173
ENCODING 8563
SWIDTH 960 0
DWIDTH 8 0
BBX 4 4 2 1
BITMAP
10
D0
E0
20
ENDCHAR
STARTCHAR 2174
ENCODING 8564
SWIDTH 960 0
DWIDTH 8 0
BBX 3 4 2 0
BITMAP
80
A0
60
40
ENDCHAR
STARTCHAR 2175
ENCODING 8565
SWIDTH 960 0
DWIDTH 8 0
BBX 4 4 2 1
BITMAP
30
B0
D0
50
ENDCHAR
STARTCHAR 2176
ENCODING 8566
SWIDTH 960 0
DWIDTH 8 0
BBX 5 4 1 1
BITMAP
A0
B8
58
40
ENDCHAR
STARTCHAR 2177
ENCODING 8567
SWIDTH 960 0
DWIDTH 8 0
BBX 6 4 1 1
BITMAP
3C
BC
DC
5C
ENDCHAR
STARTCHAR 2178
ENCODING 8568
SWIDTH 960 0
DWIDTH 8 0
BBX 5 4 1 1
BITMAP
A8
B0
90
A8
ENDCHAR
STARTCHAR 2179
ENCODING 8569
SWIDTH 960 0
DWIDTH 8 0
BBX 3 4 2 0
BITMAP
80
60
40
A0
ENDCHAR
STARTCHAR 2190
ENCODING 8592
SWIDTH 960 0
DWIDTH 8 0
BBX 6 1 0 2
BITMAP
FC
ENDCHAR
STARTCHAR 2191
ENCODING 8593
SWIDTH 480 0
DWIDTH 4 0
BBX 2 7 1 -2
BITMAP
C0
80
80
80
80
80
80
ENDCHAR
STARTCHAR 2192
ENCODING 8594
SWIDTH 960 0
DWIDTH 8 0
BBX 6 2 1 1
BITMAP
04
FC
ENDCHAR
STARTCHAR 2193
ENCODING 8595
SWIDTH 480 0
DWIDTH 4 0
BBX 2 7 1 -1
BITMAP
80
80
80
80
80
80
C0
ENDCHAR
STARTCHAR 2194
ENCODING 8596
SWIDTH 960 0
DWIDTH 8 0
BBX 7 2 0 1
BITMAP
02
FE
ENDCHAR
STARTCHAR 2195
ENCODING 8597
SWIDTH 480 0
DWIDTH 4 0
BBX 2 7 1 -2
BITMAP
C0
80
80
80
80
80
C0
ENDCHAR
STARTCHAR 2196
ENCODING 8598
SWIDTH 960 0
DWIDTH 8 0
BBX 6 6 0 -1
BITMAP
80
40
20
10
08
04
ENDCHAR
STARTCHAR 2197
ENCODING 8599
SWIDTH 960 0
DWIDTH 8 0
BBX 6 7 1 -1
BITMAP
04
08
10
20
40
40
80
ENDCHAR
STARTCHAR 2198
ENCODING 8600
SWIDTH 960 0
DWIDTH 8 0
BBX 6 6 1 0
BITMAP
80
40
20
10
08
04
ENDCHAR
STARTCHAR 2199
ENCODING 8601
SWIDTH 960 0
DWIDTH 8 0
BBX 7 7 0 -1
BITMAP
02
04
08
10
20
20
C0
ENDCHAR
STARTCHAR 21B0
ENCODING 8624
SWIDTH 960 0
DWIDTH 8 0
BBX 6 7 1 -2
BITMAP
80
FC
04
04
04
04
04
ENDCHAR
STARTCHAR 21B1
ENCODING 8625
SWIDTH 960 0
DWIDTH 8 0
BBX 6 6 1 -1
BITMAP
FC
80
80
80
80
80
ENDCHAR
STARTCHAR 21B2
ENCODING 8626
SWIDTH 960 0
DWIDTH 8 0
BBX 6 6 1 0
BITMAP
04
04
04
04
FC
80
ENDCHAR
STARTCHAR 21B3
ENCODING 8627
SWIDTH 960 0
DWIDTH 8 0
BBX 6 6 1 0
BITMAP
80
80
80
80
FC
04
ENDCHAR
STARTCHAR 21B4
ENCODING 8628
SWIDTH 960 0
DWIDTH 8 0
BBX 7 7 0 -2
BITMAP
FC
04
04
04
04
04
06
ENDCHAR
STARTCHAR 21BC
ENCODING 8636
SWIDTH 960 0
DWIDTH 8 0
BBX 7 1 0 3
BITMAP
FE
ENDCHAR
STARTCHAR 21C0
ENCODING 8640
SWIDTH 960 0
DWIDTH 8 0
BBX 7 2 0 2
BITMAP
04
FE
ENDCHAR
STARTCHAR 21C4
ENCODING 8644
SWIDTH 960 0
DWIDTH 8 0
BBX 7 3 0 1
BITMAP
7E
00
FC
ENDCHAR
STARTCHAR 21C5
ENCODING 8645
SWIDTH 960 0
DWIDTH 8 0
BBX 4 8 2 -2
BITMAP
80
90
90
90
90
90
90
80
ENDCHAR
STARTCHAR 21CD
ENCODING 8653
SWIDTH 960 0
DWIDTH 8 0
BBX 6 5 0 0
BITMAP
08
7C
88
74
10
ENDCHAR
STARTCHAR 21CF
ENCODING 8655
SWIDTH 960 0
DWIDTH 8 0
BBX 6 3 1 1
BITMAP
F8
24
FC
ENDCHAR
STARTCHAR 21D0
ENCODING 8656
SWIDTH 960 0
DWIDTH 8 0
BBX 6 3 0 0
BITMAP
7C
80
7C
ENDCHAR
STARTCHAR 21D1
ENCODING 8657
SWIDTH 960 0
DWIDTH 8 0
BBX 5 8 1 -2
BITMAP
50
D8
50
50
50
50
50
10
ENDCHAR
STARTCHAR 21D2
ENCODING 8658
SWIDTH 960 0
DWIDTH 8 0
BBX 6 3 1 0
BITMAP
F8
04
FC
ENDCHAR
STARTCHAR 21D3
ENCODING 8659
SWIDTH 960 0
DWIDTH 8 0
BBX 7 7 0 -2
BITMAP
08
28
28
28
AA
6A
2C
ENDCHAR
STARTCHAR 21D4
ENCODING 8660
SWIDTH 960 0
DWIDTH 8 0
BBX 7 3 0 0
BITMAP
7C
82
7E
ENDCHAR
STARTCHAR 21E0
ENCODING 8672
SWIDTH 960 0
DWIDTH 8 0
BBX 7 3 0 1
BITMAP
40
DA
40
ENDCHAR
STARTCHAR 21E1
ENCODING 8673
SWIDTH 960 0
DWIDTH 8 0
BBX 3 7 2 -1
BITMAP
40
E0
40
00
40
00
40
ENDCHAR
STARTCHAR 21E2
ENCODING 8674
SWIDTH 960 0
DWIDTH 8 0
BBX 7 2 0 2
BITMAP
AA
02
ENDCHAR
STARTCHAR 21E3
ENCODING 8675
SWIDTH 960 0
DWIDTH 8 0
BBX 2 7 3 -1
BITMAP
80
00
80
00
80
00
C0
ENDCHAR
STARTCHAR 21E6
ENCODING 8678
SWIDTH 960 0
DWIDTH 8 0
BBX 7 5 0 0
BITMAP
20
5E
82
5E
20
ENDCHAR
STARTCHAR 21E7
ENCODING 8679
SWIDTH 960 0
DWIDTH 8 0
BBX 5 7 1 -1
BITMAP
30
48
C8
50
50
50
70
ENDCHAR
STARTCHAR 21E8
ENCODING 8680
SWIDTH 960 0
DWIDTH 8 0
BBX 7 5 0 0
BITMAP
08
F4
82
F2
0C
ENDCHAR
STARTCHAR 21E9
ENCODING 8681
SWIDTH 960 0
DWIDTH 8 0
BBX 6 7 1 -1
BITMAP
70
50
50
50
CC
48
30
ENDCHAR
STARTCHAR 2200
ENCODING 8704
SWIDTH 960 0
DWIDTH 8 0
BBX 5 5 1 0
BITMAP
88
78
50
30
20
ENDCHAR
STARTCHAR 2202
ENCODING 8706
SWIDTH 480 0
DWIDTH 4 0
BBX 2 3 1 1
BITMAP
40
C0
C0
ENDCHAR
STARTCHAR 2203
ENCODING 8707
SWIDTH 960 0
DWIDTH 8 0
BBX 4 5 2 0
BITMAP
70
10
F0
10
70
ENDCHAR
STARTCHAR 2206
ENCODING 8710
SWIDTH 960 0
DWIDTH 8 0
BBX 5 5 1 0
BITMAP
20
30
50
48
F8
ENDCHAR
STARTCHAR 2207
ENCODING 8711
SWIDTH 960 0
DWIDTH 8 0
BBX 6 5 1 0
BITMAP
FC
88
48
30
20
ENDCHAR
STARTCHAR 2208
ENCODING 8712
SWIDTH 960 0
DWIDTH 8 0
BBX 5 5 1 0
BITMAP
78
80
F8
80
78
ENDCHAR
STARTCHAR 2209
ENCODING 8713
SWIDTH 960 0
DWIDTH 8 0
BBX 5 5 1 0
BITMAP
20
D0
F8
A0
70
ENDCHAR
STARTCHAR 220B
ENCODING 8715
SWIDTH 960 0
DWIDTH 8 0
BBX 5 5 2 0
BITMAP
F0
08
F8
08
F0
ENDCHAR
STARTCHAR 220C
ENCODING 8716
SWIDTH 960 0
DWIDTH 8 0
BBX 5 5 1 0
BITMAP
50
28
F8
28
50
ENDCHAR
STARTCHAR 220F
ENCODING 8719
SWIDTH 720 0
DWIDTH 6 0
BBX 4 5 1 0
BITMAP
F0
90
90
90
90
ENDCHAR
STARTCHAR 2211
ENCODING 8721
SWIDTH 600 0
DWIDTH 5 0
BBX 3 5 1 0
BITMAP
E0
40
20
40
E0
ENDCHAR
STARTCHAR 2213
ENCODING 8723
SWIDTH 960 0
DWIDTH 8 0
BBX 3 4 2 0
BITMAP
E0
00
E0
40
ENDCHAR
STARTCHAR 221A
ENCODING 8730
SWIDTH 720 0
DWIDTH 6 0
BBX 5 6 0 -1
BITMAP
18
20
20
A0
40
40
ENDCHAR
STARTCHAR 221D
ENCODING 8733
SWIDTH 720 0
DWIDTH 6 0
BBX 5 3 0 1
BITMAP
E8
90
E0
ENDCHAR
STARTCHAR 221E
ENCODING 8734
SWIDTH 840 0
DWIDTH 7 0
BBX 6 3 0 1
BITMAP
FC
94
FC
ENDCHAR
STARTCHAR 221F
ENCODING 8735
SWIDTH 960 0
DWIDTH 8 0
BBX 4 4 2 1
BITMAP
80
80
80
F0
ENDCHAR
STARTCHAR 2220
ENCODING 8736
SWIDTH 960 0
DWIDTH 8 0
BBX 4 4 1 1
BITMAP
10
20
40
F0
ENDCHAR
STARTCHAR 2222
ENCODING 8738
SWIDTH 960 0
DWIDTH 8 0
BBX 5 4 1 1
BITMAP
30
C8
28
10
ENDCHAR
STARTCHAR 2225
ENCODING 8741
SWIDTH 960 0
DWIDTH 8 0
BBX 4 5 2 0
BITMAP
30
50
60
A0
40
ENDCHAR
STARTCHAR 2226
ENCODING 8742
SWIDTH 960 0
DWIDTH 8 0
BBX 4 5 2 0
BITMAP
90
50
60
A0
40
ENDCHAR
STARTCHAR 2227
ENCODING 8743
SWIDTH 960 0
DWIDTH 8 0
BBX 5 5 1 0
BITMAP
20
30
50
48
80
ENDCHAR
STARTCHAR 2228
ENCODING 8744
SWIDTH 960 0
DWIDTH 8 0
BBX 5 5 1 0
BITMAP
88
48
50
30
20
ENDCHAR
STARTCHAR 2229
ENCODING 8745
SWIDTH 600 0
DWIDTH 5 0
BBX 5 5 0 0
BITMAP
78
88
88
88
88
ENDCHAR
STARTCHAR 222A
ENCODING 8746
SWIDTH 600 0
DWIDTH 5 0
BBX 5 5 0 0
BITMAP
88
88
88
88
78
ENDCHAR
STARTCHAR 222B
ENCODING 8747
SWIDTH 480 0
DWIDTH 4 0
BBX 3 7 1 -1
BITMAP
60
40
40
40
80
80
80
ENDCHAR
STARTCHAR 222C
ENCODING 8748
SWIDTH 960 0
DWIDTH 8 0
BBX 4 7 2 -1
BITMAP
50
A0
A0
A0
A0
A0
80
ENDCHAR
STARTCHAR 222E
ENCODING 8750
SWIDTH 960 0
DWIDTH 8 0
BBX 3 7 2 -1
BITMAP
20
40
40
E0
60
40
80
ENDCHAR
STARTCHAR 2234
ENCODING 8756
SWIDTH 960 0
DWIDTH 8 0
BBX 5 4 1 1
BITMAP
20
00
00
88
ENDCHAR
STARTCHAR 2235
ENCODING 8757
SWIDTH 960 0
DWIDTH 8 0
BBX 5 4 1 1
BITMAP
88
00
00
20
ENDCHAR
STARTCHAR 2236
ENCODING 8758
SWIDTH 960 0
DWIDTH 8 0
BBX 1 1 3 1
BITMAP
80
ENDCHAR
STARTCHAR 2237
ENCODING 8759
SWIDTH 960 0
DWIDTH 8 0
BBX 1 1 2 1
BITMAP
80
ENDCHAR
STARTCHAR 223C
ENCODING 8764
SWIDTH 960 0
DWIDTH 8 0
BBX 5 1 1 2
BITMAP
F8
ENDCHAR
STARTCHAR 223D
ENCODING 8765
SWIDTH 720 0
DWIDTH 6 0
BBX 6 3 0 1
BITMAP
1C
94
E4
ENDCHAR
STARTCHAR 2243
ENCODING 8771
SWIDTH 960 0
DWIDTH 8 0
BBX 6 3 1 1
BITMAP
74
00
FC
ENDCHAR
STARTCHAR 2245
ENCODING 8773
SWIDTH 960 0
DWIDTH 8 0
BBX 4 3 2 1
BITMAP
F0
00
F0
ENDCHAR
STARTCHAR 2248
ENCODING 8776
SWIDTH 960 0
DWIDTH 8 0
BBX 4 3 2 1
BITMAP
F0
00
F0
ENDCHAR
STARTCHAR 2250
ENCODING 8784
SWIDTH 960 0
DWIDTH 8 0
BBX 3 3 2 1
BITMAP
40
00
E0
ENDCHAR
STARTCHAR 2251
ENCODING 8785
SWIDTH 960 0
DWIDTH 8 0
BBX 3 5 2 0
BITMAP
40
E0
00
E0
40
ENDCHAR
STARTCHAR 2252
ENCODING 8786
SWIDTH 720 0
DWIDTH 6 0
BBX 4 5 1 0
BITMAP
80
00
F0
00
F0
ENDCHAR
STARTCHAR 2253
ENCODING 8787
SWIDTH 960 0
DWIDTH 8 0
BBX 4 5 2 0
BITMAP
10
E0
00
E0
80
ENDCHAR
STARTCHAR 225A
ENCODING 8794
SWIDTH 960 0
DWIDTH 8 0
BBX 4 5 2 0
BITMAP
10
A0
40
00
E0
ENDCHAR
STARTCHAR 2260
ENCODING 8800
SWIDTH 600 0
DWIDTH 5 0
BBX 5 4 0 1
BITMAP
20
F8
20
F8
ENDCHAR
STARTCHAR 2261
ENCODING 8801
SWIDTH 720 0
DWIDTH 6 0
BBX 4 3 1 1
BITMAP
F0
F0
F0
ENDCHAR
STARTCHAR 2262
ENCODING 8802
SWIDTH 960 0
DWIDTH 8 0
BBX 5 4 1 1
BITMAP
F8
F8
30
40
ENDCHAR
STARTCHAR 2264
ENCODING 8804
SWIDTH 600 0
DWIDTH 5 0
BBX 4 5 1 0
BITMAP
20
C0
C0
30
E0
ENDCHAR
STARTCHAR 2265
ENCODING 8805
SWIDTH 600 0
DWIDTH 5 0
BBX 4 5 1 0
BITMAP
C0
20
70
80
E0
ENDCHAR
STARTCHAR 2266
ENCODING 8806
SWIDTH 960 0
DWIDTH 8 0
BBX 4 5 1 0
BITMAP
30
C0
30
00
70
ENDCHAR
STARTCHAR 2267
ENCODING 8807
SWIDTH 960 0
DWIDTH 8 0
BBX 4 5 2 0
BITMAP
C0
30
E0
00
E0
ENDCHAR
STARTCHAR 226A
ENCODING 8810
SWIDTH 960 0
DWIDTH 8 0
BBX 5 5 1 0
BITMAP
38
50
E0
70
38
ENDCHAR
STARTCHAR 226B
ENCODING 8811
SWIDTH 960 0
DWIDTH 8 0
BBX 6 5 1 0
BITMAP
A0
78
14
78
A0
ENDCHAR
STARTCHAR 226E
ENCODING 8814
SWIDTH 960 0
DWIDTH 8 0
BBX 5 5 1 0
BITMAP
18
20
E0
60
38
ENDCHAR
STARTCHAR 226F
ENCODING 8815
SWIDTH 960 0
DWIDTH 8 0
BBX 4 5 2 0
BITMAP
80
60
50
60
80
ENDCHAR
STARTCHAR 2270
ENCODING 8816
SWIDTH 960 0
DWIDTH 8 0
BBX 3 5 2 0
BITMAP
60
A0
60
40
E0
ENDCHAR
STARTCHAR 2271
ENCODING 8817
SWIDTH 960 0
DWIDTH 8 0
BBX 4 6 2 -1
BITMAP
20
A0
50
E0
40
E0
ENDCHAR
STARTCHAR 2272
ENCODING 8818
SWIDTH 960 0
DWIDTH 8 0
BBX 4 5 2 0
BITMAP
30
C0
40
30
E0
ENDCHAR
STARTCHAR 2273
ENCODING 8819
SWIDTH 960 0
DWIDTH 8 0
BBX 5 5 1 0
BITMAP
60
18
30
C0
70
ENDCHAR
STARTCHAR 2276
ENCODING 8822
SWIDTH 960 0
DWIDTH 8 0
BBX 4 5 2 0
BITMAP
60
80
F0
30
C0
ENDCHAR
STARTCHAR 2277
ENCODING 8823
SWIDTH 960 0
DWIDTH 8 0
BBX 4 5 2 0
BITMAP
C0
30
F0
C0
60
ENDCHAR
STARTCHAR 2279
ENCODING 8825
SWIDTH 960 0
DWIDTH 8 0
BBX 4 6 2 -1
BITMAP
20
E0
30
F0
C0
60
ENDCHAR
STARTCHAR 227A
ENCODING 8826
SWIDTH 960 0
DWIDTH 8 0
BBX 5 4 1 1
BITMAP
10
E0
30
08
ENDCHAR
STARTCHAR 227B
ENCODING 8827
SWIDTH 960 0
DWIDTH 8 0
BBX 5 5 1 0
BITMAP
80
60
18
60
80
ENDCHAR
STARTCHAR 2280
ENCODING 8832
SWIDTH 960 0
DWIDTH 8 0
BBX 5 4 1 1
BITMAP
10
E0
10
08
ENDCHAR
STARTCHAR 2281
ENCODING 8833
SWIDTH 960 0
DWIDTH 8 0
BBX 5 5 1 0
BITMAP
A0
60
38
60
A0
ENDCHAR
STARTCHAR 2282
ENCODING 8834
SWIDTH 960 0
DWIDTH 8 0
BBX 5 5 1 0
BITMAP
78
80
80
80
78
ENDCHAR
STARTCHAR 2283
ENCODING 8835
SWIDTH 960 0
DWIDTH 8 0
BBX 5 5 2 0
BITMAP
F0
08
08
08
F0
ENDCHAR
STARTCHAR 2284
ENCODING 8836
SWIDTH 960 0
DWIDTH 8 0
BBX 4 5 1 0
BITMAP
20
D0
90
A0
70
ENDCHAR
STARTCHAR 2285
ENCODING 8837
SWIDTH 960 0
DWIDTH 8 0
BBX 4 5 2 0
BITMAP
A0
50
50
50
A0
ENDCHAR
STARTCHAR 2286
ENCODING 8838
SWIDTH 960 0
DWIDTH 8 0
BBX 5 5 1 0
BITMAP
F8
80
80
80
78
ENDCHAR
STARTCHAR 2287
ENCODING 8839
SWIDTH 960 0
DWIDTH 8 0
BBX 5 5 2 0
BITMAP
F0
08
08
00
F0
ENDCHAR
STARTCHAR 228A
ENCODING 8842
SWIDTH 960 0
DWIDTH 8 0
BBX 5 6 1 -1
BITMAP
F8
80
80
78
78
78
ENDCHAR
STARTCHAR 228B
ENCODING 8843
SWIDTH 960 0
DWIDTH 8 0
BBX 5 6 2 -1
BITMAP
F0
08
00
F0
F0
F0
ENDCHAR
STARTCHAR 2295
ENCODING 8853
SWIDTH 960 0
DWIDTH 8 0
BBX 6 7 1 -1
BITMAP
70
88
A4
FC
A4
84
78
ENDCHAR
STARTCHAR 2296
ENCODING 8854
SWIDTH 960 0
DWIDTH 8 0
BBX 6 7 1 -1
BITMAP
70
88
84
FC
84
84
78
ENDCHAR
STARTCHAR 2297
ENCODING 8855
SWIDTH 960 0
DWIDTH 8 0
BBX 6 7 1 -1
BITMAP
70
88
D4
A4
D4
84
78
ENDCHAR
STARTCHAR 2299
ENCODING 8857
SWIDTH 960 0
DWIDTH 8 0
BBX 6 7 1 -1
BITMAP
78
84
B4
B4
B4
84
78
ENDCHAR
STARTCHAR 22A3
ENCODING 8867
SWIDTH 960 0
DWIDTH 8 0
BBX 4 5 2 0
BITMAP
10
10
F0
10
10
ENDCHAR
STARTCHAR 22A4
ENCODING 8868
SWIDTH 960 0
DWIDTH 8 0
BBX 5 4 1 0
BITMAP
F8
20
20
20
ENDCHAR
STARTCHAR 22A5
ENCODING 8869
SWIDTH 960 0
DWIDTH 8 0
BBX 3 4 2 1
BITMAP
40
40
40
E0
ENDCHAR
STARTCHAR 22BB
ENCODING 8891
SWIDTH 960 0
DWIDTH 8 0
BBX 4 5 2 0
BITMAP
10
90
A0
40
E0
ENDCHAR
STARTCHAR 22BC
ENCODING 8892
SWIDTH 960 0
DWIDTH 8 0
BBX 5 5 1 0
BITMAP
F8
20
30
50
08
ENDCHAR
STARTCHAR 22CE
ENCODING 8910
SWIDTH 960 0
DWIDTH 8 0
BBX 4 4 2 1
BITMAP
40
60
A0
10
ENDCHAR
STARTCHAR 22CF
ENCODING 8911
SWIDTH 960 0
DWIDTH 8 0
BBX 4 4 2 0
BITMAP
10
A0
60
40
ENDCHAR
STARTCHAR 22DA
ENCODING 8922
SWIDTH 960 0
DWIDTH 8 0
BBX 5 5 1 0
BITMAP
70
18
F8
60
70
ENDCHAR
STARTCHAR 22DB
ENCODING 8923
SWIDTH 960 0
DWIDTH 8 0
BBX 5 5 1 0
BITMAP
70
60
F8
10
70
ENDCHAR
STARTCHAR 22EE
ENCODING 8942
SWIDTH 960 0
DWIDTH 8 0
BBX 1 3 3 0
BITMAP
80
00
80
ENDCHAR
STARTCHAR 22EF
ENCODING 8943
SWIDTH 960 0
DWIDTH 8 0
BBX 6 1 1 2
BITMAP
A4
ENDCHAR
STARTCHAR 2306
ENCODING 8966
SWIDTH 960 0
DWIDTH 8 0
BBX 5 4 1 0
BITMAP
F8
00
20
50
ENDCHAR
STARTCHAR 2312
ENCODING 8978
SWIDTH 960 0
DWIDTH 8 0
BBX 3 1 2 4
BITMAP
E0
ENDCHAR
STARTCHAR 2314
ENCODING 8980
SWIDTH 960 0
DWIDTH 8 0
BBX 5 5 1 0
BITMAP
70
88
48
50
20
ENDCHAR
STARTCHAR 2460
ENCODING 9312
SWIDTH 960 0
DWIDTH 8 0
BBX 7 7 0 -1
BITMAP
7C
82
92
92
92
42
3C
ENDCHAR
STARTCHAR 2461
ENCODING 9313
SWIDTH 960 0
DWIDTH 8 0
BBX 7 7 0 -1
BITMAP
7C
9A
8A
8A
92
62
3C
ENDCHAR
STARTCHAR 2462
ENCODING 9314
SWIDTH 960 0
DWIDTH 8 0
BBX 7 7 0 -1
BITMAP
7C
9A
8A
8A
86
6A
3C
ENDCHAR
STARTCHAR 2463
ENCODING 9315
SWIDTH 960 0
DWIDTH 8 0
BBX 7 7 0 -1
BITMAP
7C
8A
92
AA
9A
42
3C
ENDCHAR
STARTCHAR 2464
ENCODING 9316
SWIDTH 960 0
DWIDTH 8 0
BBX 7 7 0 -1
BITMAP
7C
92
A2
BA
86
6A
3C
ENDCHAR
STARTCHAR 2465
ENCODING 9317
SWIDTH 960 0
DWIDTH 8 0
BBX 7 7 0 -1
BITMAP
7C
B2
A2
BA
AA
6A
3C
ENDCHAR
STARTCHAR 2466
ENCODING 9318
SWIDTH 960 0
DWIDTH 8 0
BBX 7 7 0 -1
BITMAP
7C
9A
8A
92
92
52
3C
ENDCHAR
STARTCHAR 2467
ENCODING 9319
SWIDTH 960 0
DWIDTH 8 0
BBX 7 7 0 -1
BITMAP
7C
BA
BA
AA
A6
6A
3C
ENDCHAR
STARTCHAR 2468
ENCODING 9320
SWIDTH 960 0
DWIDTH 8 0
BBX 7 7 0 -1
BITMAP
7C
BA
A6
BA
8A
4A
3C
ENDCHAR
STARTCHAR 2469
ENCODING 9321
SWIDTH 960 0
DWIDTH 8 0
BBX 7 7 0 -1
BITMAP
7C
AE
B6
B6
B6
6E
3C
ENDCHAR
STARTCHAR 246A
ENCODING 9322
SWIDTH 960 0
DWIDTH 8 0
BBX 7 7 0 -1
BITMAP
7C
AA
A6
A6
A6
42
3C
ENDCHAR
STARTCHAR 246B
ENCODING 9323
SWIDTH 960 0
DWIDTH 8 0
BBX 7 7 0 -1
BITMAP
7C
BE
A6
A6
AA
72
3C
ENDCHAR
STARTCHAR 246C
ENCODING 9324
SWIDTH 960 0
DWIDTH 8 0
BBX 7 7 0 -1
BITMAP
7C
BE
B6
A6
B6
76
3C
ENDCHAR
STARTCHAR 246D
ENCODING 9325
SWIDTH 960 0
DWIDTH 8 0
BBX 7 7 0 -1
BITMAP
7C
A6
AA
AA
B6
6A
3C
ENDCHAR
STARTCHAR 246E
ENCODING 9326
SWIDTH 960 0
DWIDTH 8 0
BBX 7 7 0 -1
BITMAP
7C
AA
B2
BE
B6
76
3C
ENDCHAR
STARTCHAR 246F
ENCODING 9327
SWIDTH 960 0
DWIDTH 8 0
BBX 7 7 0 -1
BITMAP
3C
6A
F2
BE
B6
B6
7C
ENDCHAR
STARTCHAR 2470
ENCODING 9328
SWIDTH 960 0
DWIDTH 8 0
BBX 7 7 0 -1
BITMAP
3C
7E
A6
AA
AA
A2
7C
ENDCHAR
STARTCHAR 2471
ENCODING 9329
SWIDTH 960 0
DWIDTH 8 0
BBX 7 7 0 -1
BITMAP
3C
6A
B6
AA
B6
B6
7C
ENDCHAR
STARTCHAR 2472
ENCODING 9330
SWIDTH 960 0
DWIDTH 8 0
BBX 7 7 0 -1
BITMAP
3C
6A
F6
B6
AE
AE
7C
ENDCHAR
STARTCHAR 2473
ENCODING 9331
SWIDTH 960 0
DWIDTH 8 0
BBX 7 7 0 -1
BITMAP
3C
6E
96
92
AE
BE
7C
ENDCHAR
STARTCHAR 2474
ENCODING 9332
SWIDTH 960 0
DWIDTH 8 0
BBX 7 7 0 -1
BITMAP
02
92
92
92
92
82
02
ENDCHAR
STARTCHAR 2475
ENCODING 9333
SWIDTH 960 0
DWIDTH 8 0
BBX 7 7 0 -1
BITMAP
02
9A
AA
9A
A2
BA
02
ENDCHAR
STARTCHAR 2476
ENCODING 9334
SWIDTH 960 0
DWIDTH 8 0
BBX 7 7 0 -1
BITMAP
02
9A
A6
8A
A6
9A
02
ENDCHAR
STARTCHAR 2477
ENCODING 9335
SWIDTH 960 0
DWIDTH 8 0
BBX 7 7 0 -1
BITMAP
02
8A
9A
AA
BA
8A
02
ENDCHAR
STARTCHAR 2478
ENCODING 9336
SWIDTH 960 0
DWIDTH 8 0
BBX 7 7 0 -1
BITMAP
02
9A
A2
BA
A6
9A
02
ENDCHAR
STARTCHAR 2479
ENCODING 9337
SWIDTH 960 0
DWIDTH 8 0
BBX 7 7 0 -1
BITMAP
02
9A
A2
BA
A6
9A
02
ENDCHAR
STARTCHAR 247A
ENCODING 9338
SWIDTH 960 0
DWIDTH 8 0
BBX 7 7 0 -1
BITMAP
02
BA
8A
8A
92
92
02
ENDCHAR
STARTCHAR 247B
ENCODING 9339
SWIDTH 960 0
DWIDTH 8 0
BBX 7 7 0 -1
BITMAP
02
9A
AA
9A
A6
BA
02
ENDCHAR
STARTCHAR 247C
ENCODING 9340
SWIDTH 960 0
DWIDTH 8 0
BBX 7 7 0 -1
BITMAP
02
9A
A6
9A
86
BA
02
ENDCHAR
STARTCHAR 247D
ENCODING 9341
SWIDTH 960 0
DWIDTH 8 0
BBX 7 7 0 -1
BITMAP
02
EE
B6
B2
B6
AE
02
ENDCHAR
STARTCHAR 247E
ENCODING 9342
SWIDTH 960 0
DWIDTH 8 0
BBX 7 7 0 -1
BITMAP
02
AA
A6
A6
A6
82
02
ENDCHAR
STARTCHAR 247F
ENCODING 9343
SWIDTH 960 0
DWIDTH 8 0
BBX 7 7 0 -1
BITMAP
02
EE
B6
AE
B2
BE
02
ENDCHAR
STARTCHAR 2480
ENCODING 9344
SWIDTH 960 0
DWIDTH 8 0
BBX 7 7 0 -1
BITMAP
02
EE
B6
AE
B6
AE
02
ENDCHAR
STARTCHAR 2481
ENCODING 9345
SWIDTH 960 0
DWIDTH 8 0
BBX 7 7 0 -1
BITMAP
02
E6
AE
B6
BE
A6
02
ENDCHAR
STARTCHAR 2482
ENCODING 9346
SWIDTH 960 0
DWIDTH 8 0
BBX 7 7 0 -1
BITMAP
02
EE
B2
BE
A6
BE
02
ENDCHAR
STARTCHAR 2483
ENCODING 9347
SWIDTH 960 0
DWIDTH 8 0
BBX 7 7 0 -1
BITMAP
02
AE
B2
BE
B6
BE
02
ENDCHAR
STARTCHAR 2484
ENCODING 9348
SWIDTH 960 0
DWIDTH 8 0
BBX 7 7 0 -1
BITMAP
02
BE
E6
AA
AA
A2
02
ENDCHAR
STARTCHAR 2485
ENCODING 9349
SWIDTH 960 0
DWIDTH 8 0
BBX 7 7 0 -1
BITMAP
02
AE
B6
AE
B2
BE
02
ENDCHAR
STARTCHAR 2486
ENCODING 9350
SWIDTH 960 0
DWIDTH 8 0
BBX 7 7 0 -1
BITMAP
02
AE
B6
B6
AA
BE
02
ENDCHAR
STARTCHAR 2487
ENCODING 9351
SWIDTH 960 0
DWIDTH 8 0
BBX 7 7 0 -1
BITMAP
02
AE
D2
92
AA
EE
02
ENDCHAR
STARTCHAR 249C
ENCODING 9372
SWIDTH 960 0
DWIDTH 8 0
BBX 7 7 0 -1
BITMAP
02
82
9A
AA
BE
82
02
ENDCHAR
STARTCHAR 249D
ENCODING 9373
SWIDTH 960 0
DWIDTH 8 0
BBX 7 7 0 -1
BITMAP
02
A2
BA
A6
A6
BA
02
ENDCHAR
STARTCHAR 249E
ENCODING 9374
SWIDTH 960 0
DWIDTH 8 0
BBX 7 7 0 -1
BITMAP
02
82
9A
A6
BA
82
02
ENDCHAR
STARTCHAR 249F
ENCODING 9375
SWIDTH 960 0
DWIDTH 8 0
BBX 7 7 0 -1
BITMAP
02
82
BA
AA
AA
BA
02
ENDCHAR
STARTCHAR 24A0
ENCODING 9376
SWIDTH 960 0
DWIDTH 8 0
BBX 7 7 0 -1
BITMAP
02
82
BA
BA
BA
82
02
ENDCHAR
STARTCHAR 24A1
ENCODING 9377
SWIDTH 960 0
DWIDTH 8 0
BBX 7 7 0 -1
BITMAP
02
92
92
9A
92
92
02
ENDCHAR
STARTCHAR 24A2
ENCODING 9378
SWIDTH 960 0
DWIDTH 8 0
BBX 7 7 0 -1
BITMAP
02
9A
A6
A6
9A
BA
02
ENDCHAR
STARTCHAR 24A3
ENCODING 9379
SWIDTH 960 0
DWIDTH 8 0
BBX 7 7 0 -1
BITMAP
02
A2
BA
A6
A6
A2
02
ENDCHAR
STARTCHAR 24A4
ENCODING 9380
SWIDTH 960 0
DWIDTH 8 0
BBX 7 7 0 -1
BITMAP
02
82
82
92
92
82
02
ENDCHAR
STARTCHAR 24A5
ENCODING 9381
SWIDTH 960 0
DWIDTH 8 0
BBX 7 7 0 -1
BITMAP
02
82
82
92
92
92
12
ENDCHAR
STARTCHAR 24A6
ENCODING 9382
SWIDTH 960 0
DWIDTH 8 0
BBX 7 7 0 -1
BITMAP
02
A2
AA
B2
AA
A6
02
ENDCHAR
STARTCHAR 24A7
ENCODING 9383
SWIDTH 960 0
DWIDTH 8 0
BBX 7 7 0 -1
BITMAP
02
82
92
92
92
82
02
ENDCHAR
STARTCHAR 24A8
ENCODING 9384
SWIDTH 960 0
DWIDTH 8 0
BBX 7 7 0 -1
BITMAP
02
82
FE
D2
C2
82
02
ENDCHAR
STARTCHAR 24A9
ENCODING 9385
SWIDTH 960 0
DWIDTH 8 0
BBX 7 7 0 -1
BITMAP
02
82
BA
A6
A2
82
02
ENDCHAR
STARTCHAR 24AA
ENCODING 9386
SWIDTH 960 0
DWIDTH 8 0
BBX 7 7 0 -1
BITMAP
02
82
BA
A6
BA
82
02
ENDCHAR
STARTCHAR 24AB
ENCODING 9387
SWIDTH 960 0
DWIDTH 8 0
BBX 7 7 0 -1
BITMAP
02
BA
A6
A6
BA
A2
02
ENDCHAR
STARTCHAR 24AC
ENCODING 9388
SWIDTH 960 0
DWIDTH 8 0
BBX 7 7 0 -1
BITMAP
02
BA
A6
A6
BA
82
02
ENDCHAR
STARTCHAR 24AD
ENCODING 9389
SWIDTH 960 0
DWIDTH 8 0
BBX 7 7 0 -1
BITMAP
02
82
9A
92
92
82
02
ENDCHAR
STARTCHAR 24AE
ENCODING 9390
SWIDTH 960 0
DWIDTH 8 0
BBX 7 7 0 -1
BITMAP
02
82
9A
9A
BA
82
02
ENDCHAR
STARTCHAR 24AF
ENCODING 9391
SWIDTH 960 0
DWIDTH 8 0
BBX 7 7 0 -1
BITMAP
02
92
9A
92
92
92
02
ENDCHAR
STARTCHAR 24B0
ENCODING 9392
SWIDTH 960 0
DWIDTH 8 0
BBX 7 7 0 -1
BITMAP
02
82
A2
A6
BA
82
02
ENDCHAR
STARTCHAR 24B1
ENCODING 9393
SWIDTH 960 0
DWIDTH 8 0
BBX 7 7 0 -1
BITMAP
02
82
AA
9A
92
82
02
ENDCHAR
STARTCHAR 24B2
ENCODING 9394
SWIDTH 960 0
DWIDTH 8 0
BBX 7 7 0 -1
BITMAP
02
82
D6
AE
AA
82
02
ENDCHAR
STARTCHAR 24B3
ENCODING 9395
SWIDTH 960 0
DWIDTH 8 0
BBX 7 7 0 -1
BITMAP
02
82
9A
92
AA
82
02
ENDCHAR
STARTCHAR 24B4
ENCODING 9396
SWIDTH 960 0
DWIDTH 8 0
BBX 7 7 0 -1
BITMAP
02
A2
9A
9A
92
92
02
ENDCHAR
STARTCHAR 24B5
ENCODING 9397
SWIDTH 960 0
DWIDTH 8 0
BBX 7 7 0 -1
BITMAP
02
82
BA
92
BA
82
02
ENDCHAR
STARTCHAR 24B6
ENCODING 9398
SWIDTH 960 0
DWIDTH 8 0
BBX 7 7 0 -1
BITMAP
3C
52
9A
AA
B6
86
7C
ENDCHAR
STARTCHAR 24B7
ENCODING 9399
SWIDTH 960 0
DWIDTH 8 0
BBX 7 7 0 -1
BITMAP
3C
7A
A6
BA
A6
AA
7C
ENDCHAR
STARTCHAR 24B8
ENCODING 9400
SWIDTH 960 0
DWIDTH 8 0
BBX 7 7 0 -1
BITMAP
3C
5A
A6
C2
A6
AA
7C
ENDCHAR
STARTCHAR 24B9
ENCODING 9401
SWIDTH 960 0
DWIDTH 8 0
BBX 7 7 0 -1
BITMAP
3C
7A
A6
A6
A6
AA
7C
ENDCHAR
STARTCHAR 24BA
ENCODING 9402
SWIDTH 960 0
DWIDTH 8 0
BBX 7 7 0 -1
BITMAP
3C
7A
A2
BA
A2
A2
7C
ENDCHAR
STARTCHAR 24BB
ENCODING 9403
SWIDTH 960 0
DWIDTH 8 0
BBX 7 7 0 -1
BITMAP
3C
7A
A2
BA
A2
A2
7C
ENDCHAR
STARTCHAR 24BC
ENCODING 9404
SWIDTH 960 0
DWIDTH 8 0
BBX 7 7 0 -1
BITMAP
3C
7A
C6
C2
C6
AE
7C
ENDCHAR
STARTCHAR 24BD
ENCODING 9405
SWIDTH 960 0
DWIDTH 8 0
BBX 7 7 0 -1
BITMAP
3C
46
A6
BE
A6
86
7C
ENDCHAR
STARTCHAR 24BE
ENCODING 9406
SWIDTH 960 0
DWIDTH 8 0
BBX 7 7 0 -1
BITMAP
3C
42
92
92
92
82
7C
ENDCHAR
STARTCHAR 24BF
ENCODING 9407
SWIDTH 960 0
DWIDTH 8 0
BBX 7 7 0 -1
BITMAP
3C
4A
8A
8A
AA
AA
7C
ENDCHAR
STARTCHAR 24C0
ENCODING 9408
SWIDTH 960 0
DWIDTH 8 0
BBX 7 7 0 -1
BITMAP
3C
62
AA
B2
AA
A2
7C
ENDCHAR
STARTCHAR 24C1
ENCODING 9409
SWIDTH 960 0
DWIDTH 8 0
BBX 7 7 0 -1
BITMAP
3C
62
A2
A2
A2
BA
7C
ENDCHAR
STARTCHAR 24C2
ENCODING 9410
SWIDTH 960 0
DWIDTH 8 0
BBX 7 7 0 -1
BITMAP
3C
46
A6
EE
DE
92
7C
ENDCHAR
STARTCHAR 24C3
ENCODING 9411
SWIDTH 960 0
DWIDTH 8 0
BBX 7 7 0 -1
BITMAP
3C
66
A6
B6
AE
86
7C
ENDCHAR
STARTCHAR 24C4
ENCODING 9412
SWIDTH 960 0
DWIDTH 8 0
BBX 7 7 0 -1
BITMAP
3C
5A
A6
C6
A6
AA
7C
ENDCHAR
STARTCHAR 24C5
ENCODING 9413
SWIDTH 960 0
DWIDTH 8 0
BBX 7 7 0 -1
BITMAP
3C
7A
A6
BE
A2
A2
7C
ENDCHAR
STARTCHAR 24C6
ENCODING 9414
SWIDTH 960 0
DWIDTH 8 0
BBX 7 7 0 -1
BITMAP
3C
5A
A6
C6
A6
AA
7C
ENDCHAR
STARTCHAR 24C7
ENCODING 9415
SWIDTH 960 0
DWIDTH 8 0
BBX 7 7 0 -1
BITMAP
3C
7A
A6
BA
A6
A6
7C
ENDCHAR
STARTCHAR 24C8
ENCODING 9416
SWIDTH 960 0
DWIDTH 8 0
BBX 7 7 0 -1
BITMAP
3C
5A
A2
9A
86
AA
7C
ENDCHAR
STARTCHAR 24C9
ENCODING 9417
SWIDTH 960 0
DWIDTH 8 0
BBX 7 7 0 -1
BITMAP
3C
7E
92
92
92
82
7C
ENDCHAR
STARTCHAR 24CA
ENCODING 9418
SWIDTH 960 0
DWIDTH 8 0
BBX 7 7 0 -1
BITMAP
3C
46
A6
A6
A6
A6
7C
ENDCHAR
STARTCHAR 24CB
ENCODING 9419
SWIDTH 960 0
DWIDTH 8 0
BBX 7 7 0 -1
BITMAP
3C
46
A6
AA
9A
92
7C
ENDCHAR
STARTCHAR 24CC
ENCODING 9420
SWIDTH 960 0
DWIDTH 8 0
BBX 7 7 0 -1
BITMAP
3C
42
D2
DE
AE
A6
7C
ENDCHAR
STARTCHAR 24CD
ENCODING 9421
SWIDTH 960 0
DWIDTH 8 0
BBX 7 7 0 -1
BITMAP
3C
62
9A
92
9A
A2
7C
ENDCHAR
STARTCHAR 24CE
ENCODING 9422
SWIDTH 960 0
DWIDTH 8 0
BBX 7 7 0 -1
BITMAP
3C
42
A2
9A
92
82
7C
ENDCHAR
STARTCHAR 24CF
ENCODING 9423
SWIDTH 960 0
DWIDTH 8 0
BBX 7 7 0 -1
BITMAP
3C
7E
8A
92
92
A2
7C
ENDCHAR
STARTCHAR 24D0
ENCODING 9424
SWIDTH 960 0
DWIDTH 8 0
BBX 7 7 0 -1
BITMAP
7C
82
9A
BA
BA
42
3C
ENDCHAR
STARTCHAR 24D1
ENCODING 9425
SWIDTH 960 0
DWIDTH 8 0
BBX 7 7 0 -1
BITMAP
7C
A2
BA
A6
A6
6A
3C
ENDCHAR
STARTCHAR 24D2
ENCODING 9426
SWIDTH 960 0
DWIDTH 8 0
BBX 7 7 0 -1
BITMAP
7C
82
B2
A2
B2
42
3C
ENDCHAR
STARTCHAR 24D3
ENCODING 9427
SWIDTH 960 0
DWIDTH 8 0
BBX 7 7 0 -1
BITMAP
7C
82
BA
AA
AA
6A
3C
ENDCHAR
STARTCHAR 24D4
ENCODING 9428
SWIDTH 960 0
DWIDTH 8 0
BBX 7 7 0 -1
BITMAP
7C
82
BA
AA
B2
42
3C
ENDCHAR
STARTCHAR 24D5
ENCODING 9429
SWIDTH 960 0
DWIDTH 8 0
BBX 7 7 0 -1
BITMAP
7C
92
92
92
92
52
3C
ENDCHAR
STARTCHAR 24D6
ENCODING 9430
SWIDTH 960 0
DWIDTH 8 0
BBX 7 7 0 -1
BITMAP
7C
BA
AA
A6
BA
6A
3C
ENDCHAR
STARTCHAR 24D7
ENCODING 9431
SWIDTH 960 0
DWIDTH 8 0
BBX 7 7 0 -1
BITMAP
7C
A2
BA
A6
A6
62
3C
ENDCHAR
STARTCHAR 24D8
ENCODING 9432
SWIDTH 960 0
DWIDTH 8 0
BBX 7 7 0 -1
BITMAP
7C
82
82
92
92
42
3C
ENDCHAR
STARTCHAR 24D9
ENCODING 9433
SWIDTH 960 0
DWIDTH 8 0
BBX 7 7 0 -1
BITMAP
7C
82
82
92
92
42
3C
ENDCHAR
STARTCHAR 24DA
ENCODING 9434
SWIDTH 960 0
DWIDTH 8 0
BBX 7 7 0 -1
BITMAP
7C
82
AA
B2
AA
4A
3C
ENDCHAR
STARTCHAR 24DB
ENCODING 9435
SWIDTH 960 0
DWIDTH 8 0
BBX 7 7 0 -1
BITMAP
7C
82
92
92
92
42
3C
ENDCHAR
STARTCHAR 24DC
ENCODING 9436
SWIDTH 960 0
DWIDTH 8 0
BBX 7 7 0 -1
BITMAP
7C
82
FE
D6
C2
42
3C
ENDCHAR
STARTCHAR 24DD
ENCODING 9437
SWIDTH 960 0
DWIDTH 8 0
BBX 7 7 0 -1
BITMAP
7C
82
BA
AA
A2
42
3C
ENDCHAR
STARTCHAR 24DE
ENCODING 9438
SWIDTH 960 0
DWIDTH 8 0
BBX 7 7 0 -1
BITMAP
7C
82
BA
A6
BA
42
3C
ENDCHAR
STARTCHAR 24DF
ENCODING 9439
SWIDTH 960 0
DWIDTH 8 0
BBX 7 7 0 -1
BITMAP
7C
BA
A6
A6
BA
62
3C
ENDCHAR
STARTCHAR 24E0
ENCODING 9440
SWIDTH 960 0
DWIDTH 8 0
BBX 7 7 0 -1
BITMAP
7C
BA
AA
AA
BA
42
3C
ENDCHAR
STARTCHAR 24E1
ENCODING 9441
SWIDTH 960 0
DWIDTH 8 0
BBX 7 7 0 -1
BITMAP
7C
82
92
92
82
42
3C
ENDCHAR
STARTCHAR 24E2
ENCODING 9442
SWIDTH 960 0
DWIDTH 8 0
BBX 7 7 0 -1
BITMAP
7C
82
B2
8A
BA
42
3C
ENDCHAR
STARTCHAR 24E3
ENCODING 9443
SWIDTH 960 0
DWIDTH 8 0
BBX 7 7 0 -1
BITMAP
7C
92
92
92
92
52
3C
ENDCHAR
STARTCHAR 24E4
ENCODING 9444
SWIDTH 960 0
DWIDTH 8 0
BBX 7 7 0 -1
BITMAP
7C
82
A2
AA
BA
42
3C
ENDCHAR
STARTCHAR 24E5
ENCODING 9445
SWIDTH 960 0
DWIDTH 8 0
BBX 7 7 0 -1
BITMAP
7C
82
A2
9A
92
42
3C
ENDCHAR
STARTCHAR 24E6
ENCODING 9446
SWIDTH 960 0
DWIDTH 8 0
BBX 7 7 0 -1
BITMAP
7C
82
92
AE
AA
42
3C
ENDCHAR
STARTCHAR 24E7
ENCODING 9447
SWIDTH 960 0
DWIDTH 8 0
BBX 7 7 0 -1
BITMAP
7C
82
9A
92
8A
42
3C
ENDCHAR
STARTCHAR 24E8
ENCODING 9448
SWIDTH 960 0
DWIDTH 8 0
BBX 7 7 0 -1
BITMAP
7C
A2
AA
92
92
52
3C
ENDCHAR
STARTCHAR 24E9
ENCODING 9449
SWIDTH 960 0
DWIDTH 8 0
BBX 7 7 0 -1
BITMAP
7C
82
9A
92
82
52
3C
ENDCHAR
STARTCHAR 24EB
ENCODING 9451
SWIDTH 960 0
DWIDTH 8 0
BBX 7 7 0 -1
BITMAP
38
7E
FE
FE
FE
7E
3C
ENDCHAR
STARTCHAR 24EC
ENCODING 9452
SWIDTH 960 0
DWIDTH 8 0
BBX 7 7 0 -1
BITMAP
3C
52
EE
DA
DE
6E
3C
ENDCHAR
STARTCHAR 24ED
ENCODING 9453
SWIDTH 960 0
DWIDTH 8 0
BBX 7 7 0 -1
BITMAP
3C
52
EA
D6
EE
6A
3C
ENDCHAR
STARTCHAR 24EE
ENCODING 9454
SWIDTH 960 0
DWIDTH 8 0
BBX 7 7 0 -1
BITMAP
38
5E
D6
DE
E2
5E
3C
ENDCHAR
STARTCHAR 24EF
ENCODING 9455
SWIDTH 960 0
DWIDTH 8 0
BBX 7 7 0 -1
BITMAP
3C
52
DE
EA
DE
5A
3C
ENDCHAR
STARTCHAR 24F0
ENCODING 9456
SWIDTH 960 0
DWIDTH 8 0
BBX 7 7 0 -1
BITMAP
3C
52
EE
EA
EE
5A
3C
ENDCHAR
STARTCHAR 24F1
ENCODING 9457
SWIDTH 960 0
DWIDTH 8 0
BBX 7 7 0 -1
BITMAP
3C
52
9E
DE
D6
5E
3C
ENDCHAR
STARTCHAR 24F2
ENCODING 9458
SWIDTH 960 0
DWIDTH 8 0
BBX 7 7 0 -1
BITMAP
3C
52
EE
D2
EE
5A
3C
ENDCHAR
STARTCHAR 24F3
ENCODING 9459
SWIDTH 960 0
DWIDTH 8 0
BBX 7 7 0 -1
BITMAP
3C
52
EE
DE
DE
5A
3C
ENDCHAR
STARTCHAR 24F4
ENCODING 9460
SWIDTH 960 0
DWIDTH 8 0
BBX 7 7 0 -1
BITMAP
3C
52
AE
FE
FE
4A
3C
ENDCHAR
STARTCHAR 2500
ENCODING 9472
SWIDTH 960 0
DWIDTH 8 0
BBX 0 0 0 3
BITMAP
ENDCHAR
STARTCHAR 2501
ENCODING 9473
SWIDTH 960 0
DWIDTH 8 0
BBX 0 0 0 2
BITMAP
ENDCHAR
STARTCHAR 2502
ENCODING 9474
SWIDTH 960 0
DWIDTH 8 0
BBX 1 6 3 -1
BITMAP
80
80
80
80
80
80
ENDCHAR
STARTCHAR 2503
ENCODING 9475
SWIDTH 960 0
DWIDTH 8 0
BBX 1 6 3 -1
BITMAP
80
80
80
80
80
80
ENDCHAR
STARTCHAR 250C
ENCODING 9484
SWIDTH 960 0
DWIDTH 8 0
BBX 3 3 4 -2
BITMAP
60
80
80
ENDCHAR
STARTCHAR 250D
ENCODING 9485
SWIDTH 960 0
DWIDTH 8 0
BBX 4 4 4 -2
BITMAP
F0
80
80
80
ENDCHAR
STARTCHAR 250E
ENCODING 9486
SWIDTH 960 0
DWIDTH 8 0
BBX 4 4 3 -2
BITMAP
F0
80
80
80
ENDCHAR
STARTCHAR 250F
ENCODING 9487
SWIDTH 960 0
DWIDTH 8 0
BBX 3 3 4 -2
BITMAP
60
80
80
ENDCHAR
STARTCHAR 2510
ENCODING 9488
SWIDTH 960 0
DWIDTH 8 0
BBX 3 3 1 -2
BITMAP
C0
20
20
ENDCHAR
STARTCHAR 2511
ENCODING 9489
SWIDTH 960 0
DWIDTH 8 0
BBX 4 4 0 -2
BITMAP
F0
10
10
10
ENDCHAR
STARTCHAR 2512
ENCODING 9490
SWIDTH 960 0
DWIDTH 8 0
BBX 3 4 1 -2
BITMAP
E0
20
20
20
ENDCHAR
STARTCHAR 2513
ENCODING 9491
SWIDTH 960 0
DWIDTH 8 0
BBX 3 3 1 -2
BITMAP
C0
20
20
ENDCHAR
STARTCHAR 2514
ENCODING 9492
SWIDTH 960 0
DWIDTH 8 0
BBX 3 2 4 4
BITMAP
80
60
ENDCHAR
STARTCHAR 2515
ENCODING 9493
SWIDTH 960 0
DWIDTH 8 0
BBX 4 3 4 3
BITMAP
80
80
F0
ENDCHAR
STARTCHAR 2516
ENCODING 9494
SWIDTH 960 0
DWIDTH 8 0
BBX 4 3 3 3
BITMAP
80
80
F0
ENDCHAR
STARTCHAR 2517
ENCODING 9495
SWIDTH 960 0
DWIDTH 8 0
BBX 3 2 4 4
BITMAP
80
60
ENDCHAR
STARTCHAR 2518
ENCODING 9496
SWIDTH 960 0
DWIDTH 8 0
BBX 3 2 1 4
BITMAP
20
C0
ENDCHAR
STARTCHAR 2519
ENCODING 9497
SWIDTH 960 0
DWIDTH 8 0
BBX 4 3 0 3
BITMAP
10
10
F0
ENDCHAR
STARTCHAR 251A
ENCODING 9498
SWIDTH 960 0
DWIDTH 8 0
BBX 3 3 1 3
BITMAP
20
20
E0
ENDCHAR
STARTCHAR 251B
ENCODING 9499
SWIDTH 960 0
DWIDTH 8 0
BBX 3 2 1 4
BITMAP
20
C0
ENDCHAR
STARTCHAR 251C
ENCODING 9500
SWIDTH 960 0
DWIDTH 8 0
BBX 3 6 4 -1
BITMAP
80
80
80
E0
80
80
ENDCHAR
STARTCHAR 251D
ENCODING 9501
SWIDTH 960 0
DWIDTH 8 0
BBX 4 6 4 -1
BITMAP
80
80
F0
80
80
80
ENDCHAR
STARTCHAR 251E
ENCODING 9502
SWIDTH 960 0
DWIDTH 8 0
BBX 4 7 3 -2
BITMAP
80
80
80
80
F0
80
80
ENDCHAR
STARTCHAR 251F
ENCODING 9503
SWIDTH 960 0
DWIDTH 8 0
BBX 4 7 3 -1
BITMAP
80
80
80
F0
80
80
80
ENDCHAR
STARTCHAR 2520
ENCODING 9504
SWIDTH 960 0
DWIDTH 8 0
BBX 4 8 3 -2
BITMAP
80
80
80
80
F0
80
80
80
ENDCHAR
STARTCHAR 2521
ENCODING 9505
SWIDTH 960 0
DWIDTH 8 0
BBX 5 7 3 -2
BITMAP
80
80
80
F8
80
80
80
ENDCHAR
STARTCHAR 2522
ENCODING 9506
SWIDTH 960 0
DWIDTH 8 0
BBX 5 7 3 -1
BITMAP
80
80
78
80
80
80
80
ENDCHAR
STARTCHAR 2523
ENCODING 9507
SWIDTH 960 0
DWIDTH 8 0
BBX 3 6 4 -1
BITMAP
80
80
E0
80
80
80
ENDCHAR
STARTCHAR 2524
ENCODING 9508
SWIDTH 960 0
DWIDTH 8 0
BBX 3 6 1 -1
BITMAP
20
20
20
E0
20
20
ENDCHAR
STARTCHAR 2525
ENCODING 9509
SWIDTH 960 0
DWIDTH 8 0
BBX 4 6 0 -1
BITMAP
10
10
F0
10
10
10
ENDCHAR
STARTCHAR 2526
ENCODING 9510
SWIDTH 960 0
DWIDTH 8 0
BBX 3 7 1 -2
BITMAP
20
20
20
E0
20
20
20
ENDCHAR
STARTCHAR 2527
ENCODING 9511
SWIDTH 960 0
DWIDTH 8 0
BBX 3 7 1 -1
BITMAP
20
20
20
E0
20
20
20
ENDCHAR
STARTCHAR 2528
ENCODING 9512
SWIDTH 960 0
DWIDTH 8 0
BBX 3 8 1 -2
BITMAP
20
20
20
20
E0
20
20
20
ENDCHAR
STARTCHAR 2529
ENCODING 9513
SWIDTH 960 0
DWIDTH 8 0
BBX 4 7 0 -2
BITMAP
10
10
10
F0
10
10
10
ENDCHAR
STARTCHAR 252A
ENCODING 9514
SWIDTH 960 0
DWIDTH 8 0
BBX 4 7 0 -1
BITMAP
10
10
F0
10
10
10
10
ENDCHAR
STARTCHAR 252B
ENCODING 9515
SWIDTH 960 0
DWIDTH 8 0
BBX 3 6 1 -1
BITMAP
20
20
20
E0
20
20
ENDCHAR
STARTCHAR 252C
ENCODING 9516
SWIDTH 960 0
DWIDTH 8 0
BBX 6 3 1 -2
BITMAP
FC
20
20
ENDCHAR
STARTCHAR 252D
ENCODING 9517
SWIDTH 960 0
DWIDTH 8 0
BBX 7 4 0 -2
BITMAP
FE
10
10
10
ENDCHAR
STARTCHAR 252E
ENCODING 9518
SWIDTH 960 0
DWIDTH 8 0
BBX 7 4 1 -2
BITMAP
FE
20
20
20
ENDCHAR
STARTCHAR 252F
ENCODING 9519
SWIDTH 960 0
DWIDTH 8 0
BBX 8 4 0 -2
BITMAP
FF
10
10
10
ENDCHAR
STARTCHAR 2530
ENCODING 9520
SWIDTH 960 0
DWIDTH 8 0
BBX 6 5 1 -2
BITMAP
FC
20
20
20
20
ENDCHAR
STARTCHAR 2531
ENCODING 9521
SWIDTH 960 0
DWIDTH 8 0
BBX 7 5 0 -2
BITMAP
FE
10
10
10
10
ENDCHAR
STARTCHAR 2532
ENCODING 9522
SWIDTH 960 0
DWIDTH 8 0
BBX 7 5 1 -2
BITMAP
FE
20
20
20
20
ENDCHAR
STARTCHAR 2533
ENCODING 9523
SWIDTH 960 0
DWIDTH 8 0
BBX 6 3 1 -2
BITMAP
FC
20
20
ENDCHAR
STARTCHAR 2534
ENCODING 9524
SWIDTH 960 0
DWIDTH 8 0
BBX 6 3 1 3
BITMAP
20
20
FC
ENDCHAR
STARTCHAR 2535
ENCODING 9525
SWIDTH 960 0
DWIDTH 8 0
BBX 7 3 0 3
BITMAP
10
10
FE
ENDCHAR
STARTCHAR 2536
ENCODING 9526
SWIDTH 960 0
DWIDTH 8 0
BBX 7 3 1 3
BITMAP
20
20
FE
ENDCHAR
STARTCHAR 2537
ENCODING 9527
SWIDTH 960 0
DWIDTH 8 0
BBX 8 3 0 3
BITMAP
10
10
FF
ENDCHAR
STARTCHAR 2538
ENCODING 9528
SWIDTH 960 0
DWIDTH 8 0
BBX 8 4 0 2
BITMAP
10
10
10
FF
ENDCHAR
STARTCHAR 2539
ENCODING 9529
SWIDTH 960 0
DWIDTH 8 0
BBX 7 4 0 2
BITMAP
10
10
10
FE
ENDCHAR
STARTCHAR 253A
ENCODING 9530
SWIDTH 960 0
DWIDTH 8 0
BBX 7 4 1 2
BITMAP
20
20
20
FE
ENDCHAR
STARTCHAR 253B
ENCODING 9531
SWIDTH 960 0
DWIDTH 8 0
BBX 6 2 1 4
BITMAP
20
FC
ENDCHAR
STARTCHAR 253C
ENCODING 9532
SWIDTH 960 0
DWIDTH 8 0
BBX 6 6 1 -1
BITMAP
20
20
20
FC
20
20
ENDCHAR
STARTCHAR 253D
ENCODING 9533
SWIDTH 960 0
DWIDTH 8 0
BBX 7 6 0 -1
BITMAP
10
10
F0
1E
10
10
ENDCHAR
STARTCHAR 253E
ENCODING 9534
SWIDTH 960 0
DWIDTH 8 0
BBX 7 6 1 -1
BITMAP
20
20
1E
E0
20
20
ENDCHAR
STARTCHAR 253F
ENCODING 9535
SWIDTH 960 0
DWIDTH 8 0
BBX 8 6 0 -1
BITMAP
10
10
FF
10
10
10
ENDCHAR
STARTCHAR 2540
ENCODING 9536
SWIDTH 960 0
DWIDTH 8 0
BBX 6 7 1 -2
BITMAP
20
20
20
FC
20
20
20
ENDCHAR
STARTCHAR 2541
ENCODING 9537
SWIDTH 960 0
DWIDTH 8 0
BBX 6 7 1 -1
BITMAP
20
20
20
FC
20
20
20
ENDCHAR
STARTCHAR 2542
ENCODING 9538
SWIDTH 960 0
DWIDTH 8 0
BBX 6 8 1 -2
BITMAP
20
20
20
20
FC
20
20
20
ENDCHAR
STARTCHAR 2543
ENCODING 9539
SWIDTH 960 0
DWIDTH 8 0
BBX 7 7 0 -2
BITMAP
10
10
10
FE
10
10
10
ENDCHAR
STARTCHAR 2544
ENCODING 9540
SWIDTH 960 0
DWIDTH 8 0
BBX 7 7 1 -2
BITMAP
20
20
20
DE
20
20
20
ENDCHAR
STARTCHAR 2545
ENCODING 9541
SWIDTH 960 0
DWIDTH 8 0
BBX 7 7 0 -1
BITMAP
10
10
FE
10
10
10
10
ENDCHAR
STARTCHAR 2546
ENCODING 9542
SWIDTH 960 0
DWIDTH 8 0
BBX 7 7 1 -1
BITMAP
20
20
FE
20
20
20
20
ENDCHAR
STARTCHAR 2547
ENCODING 9543
SWIDTH 960 0
DWIDTH 8 0
BBX 8 7 0 -2
BITMAP
10
10
10
FF
10
10
10
ENDCHAR
STARTCHAR 2548
ENCODING 9544
SWIDTH 960 0
DWIDTH 8 0
BBX 8 7 0 -1
BITMAP
10
10
FF
10
10
10
10
ENDCHAR
STARTCHAR 2549
ENCODING 9545
SWIDTH 960 0
DWIDTH 8 0
BBX 7 8 0 -2
BITMAP
10
10
10
FE
10
10
10
10
ENDCHAR
STARTCHAR 254A
ENCODING 9546
SWIDTH 960 0
DWIDTH 8 0
BBX 7 8 1 -2
BITMAP
20
20
20
FE
20
20
20
20
ENDCHAR
STARTCHAR 254B
ENCODING 9547
SWIDTH 960 0
DWIDTH 8 0
BBX 6 6 1 -1
BITMAP
20
20
20
FC
20
20
ENDCHAR
STARTCHAR 2592
ENCODING 9618
SWIDTH 960 0
DWIDTH 8 0
BBX 6 6 1 -1
BITMAP
FC
84
94
94
84
FC
ENDCHAR
STARTCHAR 25A0
ENCODING 9632
SWIDTH 960 0
DWIDTH 8 0
BBX 5 5 1 0
BITMAP
F8
F8
F8
F8
F8
ENDCHAR
STARTCHAR 25A1
ENCODING 9633
SWIDTH 960 0
DWIDTH 8 0
BBX 5 5 1 0
BITMAP
F8
88
88
88
F8
ENDCHAR
STARTCHAR 25A3
ENCODING 9635
SWIDTH 960 0
DWIDTH 8 0
BBX 6 6 1 -1
BITMAP
FC
FC
FC
FC
84
FC
ENDCHAR
STARTCHAR 25A4
ENCODING 9636
SWIDTH 960 0
DWIDTH 8 0
BBX 6 6 1 -1
BITMAP
FC
FC
84
FC
84
FC
ENDCHAR
STARTCHAR 25A5
ENCODING 9637
SWIDTH 960 0
DWIDTH 8 0
BBX 6 6 1 -1
BITMAP
FC
D4
D4
D4
D4
FC
ENDCHAR
STARTCHAR 25A6
ENCODING 9638
SWIDTH 960 0
DWIDTH 8 0
BBX 6 6 1 -1
BITMAP
FC
FC
D4
FC
D4
FC
ENDCHAR
STARTCHAR 25A7
ENCODING 9639
SWIDTH 960 0
DWIDTH 8 0
BBX 6 6 1 -1
BITMAP
FC
EC
F4
BC
DC
FC
ENDCHAR
STARTCHAR 25A8
ENCODING 9640
SWIDTH 960 0
DWIDTH 8 0
BBX 6 6 1 -1
BITMAP
FC
F4
EC
DC
B4
FC
ENDCHAR
STARTCHAR 25A9
ENCODING 9641
SWIDTH 960 0
DWIDTH 8 0
BBX 6 6 1 -1
BITMAP
FC
F4
EC
FC
BC
FC
ENDCHAR
STARTCHAR 25B1
ENCODING 9649
SWIDTH 960 0
DWIDTH 8 0
BBX 5 3 1 1
BITMAP
F8
88
F8
ENDCHAR
STARTCHAR 25B2
ENCODING 9650
SWIDTH 960 0
DWIDTH 8 0
BBX 6 5 1 0
BITMAP
20
30
70
78
FC
ENDCHAR
STARTCHAR 25B3
ENCODING 9651
SWIDTH 960 0
DWIDTH 8 0
BBX 6 5 1 0
BITMAP
20
50
48
88
FC
ENDCHAR
STARTCHAR 25B5
ENCODING 9653
SWIDTH 960 0
DWIDTH 8 0
BBX 6 4 1 1
BITMAP
30
50
88
FC
ENDCHAR
STARTCHAR 25B6
ENCODING 9654
SWIDTH 960 0
DWIDTH 8 0
BBX 5 6 1 0
BITMAP
C0
E0
F8
F0
C0
80
ENDCHAR
STARTCHAR 25B7
ENCODING 9655
SWIDTH 960 0
DWIDTH 8 0
BBX 5 6 1 0
BITMAP
C0
B0
88
90
E0
80
ENDCHAR
STARTCHAR 25B9
ENCODING 9657
SWIDTH 960 0
DWIDTH 8 0
BBX 5 6 1 0
BITMAP
C0
B0
88
B0
C0
80
ENDCHAR
STARTCHAR 25BC
ENCODING 9660
SWIDTH 960 0
DWIDTH 8 0
BBX 6 5 1 0
BITMAP
FC
78
70
30
20
ENDCHAR
STARTCHAR 25BD
ENCODING 9661
SWIDTH 960 0
DWIDTH 8 0
BBX 6 5 1 0
BITMAP
FC
88
48
50
20
ENDCHAR
STARTCHAR 25BF
ENCODING 9663
SWIDTH 960 0
DWIDTH 8 0
BBX 6 5 1 0
BITMAP
FC
88
48
30
20
ENDCHAR
STARTCHAR 25C0
ENCODING 9664
SWIDTH 960 0
DWIDTH 8 0
BBX 5 5 1 0
BITMAP
08
38
F8
38
18
ENDCHAR
STARTCHAR 25C1
ENCODING 9665
SWIDTH 960 0
DWIDTH 8 0
BBX 5 5 1 0
BITMAP
18
68
88
68
18
ENDCHAR
STARTCHAR 25C3
ENCODING 9667
SWIDTH 960 0
DWIDTH 8 0
BBX 5 5 1 0
BITMAP
18
28
C8
28
18
ENDCHAR
STARTCHAR 25C6
ENCODING 9670
SWIDTH 960 0
DWIDTH 8 0
BBX 6 7 1 -1
BITMAP
20
78
FC
FC
78
70
20
ENDCHAR
STARTCHAR 25C7
ENCODING 9671
SWIDTH 960 0
DWIDTH 8 0
BBX 7 7 0 -1
BITMAP
18
24
42
82
44
24
18
ENDCHAR
STARTCHAR 25C8
ENCODING 9672
SWIDTH 960 0
DWIDTH 8 0
BBX 7 7 0 -1
BITMAP
10
28
5C
BE
7A
34
18
ENDCHAR
STARTCHAR 25C9
ENCODING 9673
SWIDTH 960 0
DWIDTH 8 0
BBX 6 7 1 -1
BITMAP
78
84
B4
B4
B4
84
78
ENDCHAR
STARTCHAR 25CA
ENCODING 9674
SWIDTH 960 0
DWIDTH 8 0
BBX 6 7 1 -1
BITMAP
20
30
48
84
48
50
20
ENDCHAR
STARTCHAR 25CB
ENCODING 9675
SWIDTH 960 0
DWIDTH 8 0
BBX 6 6 1 -1
BITMAP
78
84
84
84
84
78
ENDCHAR
STARTCHAR 25CC
ENCODING 9676
SWIDTH 960 0
DWIDTH 8 0
BBX 1 1 0 1
BITMAP
80
ENDCHAR
STARTCHAR 25CE
ENCODING 9678
SWIDTH 960 0
DWIDTH 8 0
BBX 6 7 1 -1
BITMAP
78
F4
8C
8C
8C
D4
78
ENDCHAR
STARTCHAR 25CF
ENCODING 9679
SWIDTH 960 0
DWIDTH 8 0
BBX 6 6 1 -1
BITMAP
70
F8
FC
FC
F8
70
ENDCHAR
STARTCHAR 25D0
ENCODING 9680
SWIDTH 960 0
DWIDTH 8 0
BBX 6 7 1 -1
BITMAP
10
E8
E4
E4
E4
EC
30
ENDCHAR
STARTCHAR 25D1
ENCODING 9681
SWIDTH 960 0
DWIDTH 8 0
BBX 6 7 1 -1
BITMAP
60
98
9C
9C
9C
98
70
ENDCHAR
STARTCHAR 25E6
ENCODING 9702
SWIDTH 960 0
DWIDTH 8 0
BBX 4 5 2 0
BITMAP
60
90
90
90
60
ENDCHAR
STARTCHAR 25EF
ENCODING 9711
SWIDTH 960 0
DWIDTH 8 0
BBX 7 7 0 -1
BITMAP
3C
42
82
82
82
82
7C
ENDCHAR
STARTCHAR 2605
ENCODING 9733
SWIDTH 960 0
DWIDTH 8 0
BBX 5 6 1 0
BITMAP
20
20
F8
70
50
08
ENDCHAR
STARTCHAR 2606
ENCODING 9734
SWIDTH 960 0
DWIDTH 8 0
BBX 5 6 1 0
BITMAP
20
30
C8
48
70
08
ENDCHAR
STARTCHAR 260E
ENCODING 9742
SWIDTH 960 0
DWIDTH 8 0
BBX 7 5 0 0
BITMAP
3C
FA
28
64
7E
ENDCHAR
STARTCHAR 260F
ENCODING 9743
SWIDTH 960 0
DWIDTH 8 0
BBX 7 5 0 0
BITMAP
7C
BA
68
64
7E
ENDCHAR
STARTCHAR 261C
ENCODING 9756
SWIDTH 960 0
DWIDTH 8 0
BBX 6 3 1 1
BITMAP
28
D4
78
ENDCHAR
STARTCHAR 261D
ENCODING 9757
SWIDTH 960 0
DWIDTH 8 0
BBX 2 6 3 -1
BITMAP
80
80
C0
C0
C0
C0
ENDCHAR
STARTCHAR 261E
ENCODING 9758
SWIDTH 960 0
DWIDTH 8 0
BBX 5 3 1 1
BITMAP
70
B8
70
ENDCHAR
STARTCHAR 261F
ENCODING 9759
SWIDTH 960 0
DWIDTH 8 0
BBX 2 5 3 0
BITMAP
C0
C0
C0
80
80
ENDCHAR
STARTCHAR 262F
ENCODING 9775
SWIDTH 960 0
DWIDTH 8 0
BBX 6 7 1 -1
BITMAP
70
88
84
9C
BC
F8
30
ENDCHAR
STARTCHAR 2640
ENCODING 9792
SWIDTH 960 0
DWIDTH 8 0
BBX 3 6 2 -1
BITMAP
E0
A0
A0
40
E0
40
ENDCHAR
STARTCHAR 2642
ENCODING 9794
SWIDTH 960 0
DWIDTH 8 0
BBX 3 7 2 -1
BITMAP
40
A0
40
40
A0
A0
E0
ENDCHAR
STARTCHAR 2660
ENCODING 9824
SWIDTH 960 0
DWIDTH 8 0
BBX 5 6 1 0
BITMAP
30
78
F8
F8
68
30
ENDCHAR
STARTCHAR 2661
ENCODING 9825
SWIDTH 960 0
DWIDTH 8 0
BBX 6 6 1 -1
BITMAP
FC
84
84
48
50
20
ENDCHAR
STARTCHAR 2663
ENCODING 9827
SWIDTH 960 0
DWIDTH 8 0
BBX 6 7 1 -1
BITMAP
30
70
30
FC
FC
E8
30
ENDCHAR
STARTCHAR 2664
ENCODING 9828
SWIDTH 960 0
DWIDTH 8 0
BBX 5 7 1 -1
BITMAP
20
50
48
88
88
78
30
ENDCHAR
STARTCHAR 2665
ENCODING 9829
SWIDTH 960 0
DWIDTH 8 0
BBX 6 5 1 -1
BITMAP
F8
FC
F8
78
30
ENDCHAR
STARTCHAR 2667
ENCODING 9831
SWIDTH 960 0
DWIDTH 8 0
BBX 6 7 1 -1
BITMAP
30
48
50
9C
84
D8
30
ENDCHAR
STARTCHAR 2668
ENCODING 9832
SWIDTH 960 0
DWIDTH 8 0
BBX 6 6 1 0
BITMAP
20
70
68
F4
F4
78
ENDCHAR
STARTCHAR 2669
ENCODING 9833
SWIDTH 360 0
DWIDTH 3 0
BBX 1 4 1 0
BITMAP
80
80
80
80
ENDCHAR
STARTCHAR 266A
ENCODING 9834
SWIDTH 480 0
DWIDTH 4 0
BBX 3 5 1 -1
BITMAP
40
60
A0
80
80
ENDCHAR
STARTCHAR 266C
ENCODING 9836
SWIDTH 720 0
DWIDTH 6 0
BBX 4 5 1 0
BITMAP
70
F0
90
90
80
ENDCHAR
STARTCHAR 266D
ENCODING 9837
SWIDTH 480 0
DWIDTH 4 0
BBX 2 5 1 0
BITMAP
80
80
C0
C0
C0
ENDCHAR
STARTCHAR 266F
ENCODING 9839
SWIDTH 960 0
DWIDTH 8 0
BBX 4 5 2 0
BITMAP
20
E0
A0
F0
A0
ENDCHAR
STARTCHAR 2716
ENCODING 10006
SWIDTH 960 0
DWIDTH 8 0
BBX 5 5 1 -1
BITMAP
58
F8
70
F8
D8
ENDCHAR
STARTCHAR 271A
ENCODING 10010
SWIDTH 960 0
DWIDTH 8 0
BBX 6 6 1 -1
BITMAP
30
30
FC
FC
30
30
ENDCHAR
STARTCHAR 273D
ENCODING 10045
SWIDTH 960 0
DWIDTH 8 0
BBX 4 5 2 0
BITMAP
40
D0
40
90
40
ENDCHAR
STARTCHAR 2756
ENCODING 10070
SWIDTH 960 0
DWIDTH 8 0
BBX 6 6 1 0
BITMAP
30
28
DC
A8
70
20
ENDCHAR
STARTCHAR 2776
ENCODING 10102
SWIDTH 960 0
DWIDTH 8 0
BBX 7 7 0 -1
BITMAP
38
7E
FE
FE
FE
7E
3C
ENDCHAR
STARTCHAR 2777
ENCODING 10103
SWIDTH 960 0
DWIDTH 8 0
BBX 7 7 0 -1
BITMAP
38
76
DE
F6
FE
46
3C
ENDCHAR
STARTCHAR 2778
ENCODING 10104
SWIDTH 960 0
DWIDTH 8 0
BBX 7 7 0 -1
BITMAP
38
76
DE
F6
DE
76
3C
ENDCHAR
STARTCHAR 2779
ENCODING 10105
SWIDTH 960 0
DWIDTH 8 0
BBX 7 7 0 -1
BITMAP
38
7E
EE
DE
C6
7E
3C
ENDCHAR
STARTCHAR 277A
ENCODING 10106
SWIDTH 960 0
DWIDTH 8 0
BBX 7 7 0 -1
BITMAP
38
66
FE
DE
FE
76
3C
ENDCHAR
STARTCHAR 277B
ENCODING 10107
SWIDTH 960 0
DWIDTH 8 0
BBX 7 7 0 -1
BITMAP
38
66
DE
DE
DE
76
3C
ENDCHAR
STARTCHAR 277C
ENCODING 10108
SWIDTH 960 0
DWIDTH 8 0
BBX 7 7 0 -1
BITMAP
38
46
F6
FE
EE
6E
3C
ENDCHAR
STARTCHAR 277D
ENCODING 10109
SWIDTH 960 0
DWIDTH 8 0
BBX 7 7 0 -1
BITMAP
38
66
DE
E6
DE
5E
3C
ENDCHAR
STARTCHAR 277E
ENCODING 10110
SWIDTH 960 0
DWIDTH 8 0
BBX 7 7 0 -1
BITMAP
38
66
DE
DE
FE
76
3C
ENDCHAR
STARTCHAR 277F
ENCODING 10111
SWIDTH 960 0
DWIDTH 8 0
BBX 7 7 0 -1
BITMAP
3C
52
DE
DE
DE
5A
3C
ENDCHAR
STARTCHAR 278A
ENCODING 10122
SWIDTH 960 0
DWIDTH 8 0
BBX 7 7 0 -1
BITMAP
38
6E
EE
EE
EE
6E
3C
ENDCHAR
STARTCHAR 278B
ENCODING 10123
SWIDTH 960 0
DWIDTH 8 0
BBX 7 7 0 -1
BITMAP
38
66
F6
F6
EE
46
3C
ENDCHAR
STARTCHAR 278C
ENCODING 10124
SWIDTH 960 0
DWIDTH 8 0
BBX 7 7 0 -1
BITMAP
38
66
F6
EE
F6
66
3C
ENDCHAR
STARTCHAR 278D
ENCODING 10125
SWIDTH 960 0
DWIDTH 8 0
BBX 7 7 0 -1
BITMAP
38
6E
EE
DE
C6
7E
3C
ENDCHAR
STARTCHAR 278E
ENCODING 10126
SWIDTH 960 0
DWIDTH 8 0
BBX 7 7 0 -1
BITMAP
38
66
FE
E6
F6
66
3C
ENDCHAR
STARTCHAR 278F
ENCODING 10127
SWIDTH 960 0
DWIDTH 8 0
BBX 7 7 0 -1
BITMAP
38
66
FE
E6
F6
66
3C
ENDCHAR
STARTCHAR 2790
ENCODING 10128
SWIDTH 960 0
DWIDTH 8 0
BBX 7 7 0 -1
BITMAP
38
66
F6
F6
EE
6E
3C
ENDCHAR
STARTCHAR 2791
ENCODING 10129
SWIDTH 960 0
DWIDTH 8 0
BBX 7 7 0 -1
BITMAP
38
66
F6
E6
F6
66
3C
ENDCHAR
STARTCHAR 2792
ENCODING 10130
SWIDTH 960 0
DWIDTH 8 0
BBX 7 7 0 -1
BITMAP
38
66
F6
E6
F6
66
3C
ENDCHAR
STARTCHAR 2793
ENCODING 10131
SWIDTH 960 0
DWIDTH 8 0
BBX 7 7 0 -1
BITMAP
3C
52
DA
DA
DA
52
3C
ENDCHAR
STARTCHAR 2963
ENCODING 10595
SWIDTH 960 0
DWIDTH 8 0
BBX 5 8 1 -2
BITMAP
50
D8
50
50
50
50
50
10
ENDCHAR
STARTCHAR 2965
ENCODING 10597
SWIDTH 960 0
DWIDTH 8 0
BBX 7 7 0 -2
BITMAP
08
28
28
28
AA
6A
2C
ENDCHAR
STARTCHAR 2AC5
ENCODING 10949
SWIDTH 960 0
DWIDTH 8 0
BBX 5 5 1 0
BITMAP
F8
80
80
78
78
ENDCHAR
STARTCHAR 2AC6
ENCODING 10950
SWIDTH 960 0
DWIDTH 8 0
BBX 5 5 2 0
BITMAP
F0
08
00
F0
F0
ENDCHAR
STARTCHAR 2ACB
ENCODING 10955
SWIDTH 960 0
DWIDTH 8 0
BBX 5 6 1 -1
BITMAP
F8
80
80
78
78
78
ENDCHAR
STARTCHAR 2ACC
ENCODING 10956
SWIDTH 960 0
DWIDTH 8 0
BBX 5 6 2 -1
BITMAP
F0
08
00
F0
F0
F0
ENDCHAR
STARTCHAR 2F00
ENCODING 12032
SWIDTH 960 0
DWIDTH 8 0
BBX 5 1 1 2
BITMAP
F8
ENDCHAR
STARTCHAR 2F04
ENCODING 12036
SWIDTH 960 0
DWIDTH 8 0
BBX 6 6 1 0
BITMAP
F0
10
20
40
84
F8
ENDCHAR
STARTCHAR 2F06
ENCODING 12038
SWIDTH 960 0
DWIDTH 8 0
BBX 6 5 1 0
BITMAP
F8
00
00
00
FC
ENDCHAR
STARTCHAR 2F08
ENCODING 12040
SWIDTH 960 0
DWIDTH 8 0
BBX 6 7 1 -1
BITMAP
20
20
20
20
50
C8
84
ENDCHAR
STARTCHAR 2F0A
ENCODING 12042
SWIDTH 960 0
DWIDTH 8 0
BBX 6 7 1 -1
BITMAP
60
20
20
30
50
C8
84
ENDCHAR
STARTCHAR 2F0B
ENCODING 12043
SWIDTH 960 0
DWIDTH 8 0
BBX 7 7 0 -1
BITMAP
18
28
24
24
44
42
82
ENDCHAR
STARTCHAR 2F11
ENCODING 12049
SWIDTH 960 0
DWIDTH 8 0
BBX 5 7 1 -1
BITMAP
F8
28
28
48
48
C8
98
ENDCHAR
STARTCHAR 2F12
ENCODING 12050
SWIDTH 960 0
DWIDTH 8 0
BBX 6 7 1 -1
BITMAP
20
20
FC
24
24
48
98
ENDCHAR
STARTCHAR 2F14
ENCODING 12052
SWIDTH 960 0
DWIDTH 8 0
BBX 5 7 2 -1
BITMAP
80
90
E0
80
80
88
F0
ENDCHAR
STARTCHAR 2F17
ENCODING 12055
SWIDTH 960 0
DWIDTH 8 0
BBX 6 7 1 -1
BITMAP
20
20
20
FC
20
20
20
ENDCHAR
STARTCHAR 2F18
ENCODING 12056
SWIDTH 960 0
DWIDTH 8 0
BBX 3 7 3 -1
BITMAP
80
80
80
E0
A0
80
80
ENDCHAR
STARTCHAR 2F1C
ENCODING 12060
SWIDTH 960 0
DWIDTH 8 0
BBX 6 7 1 -1
BITMAP
F8
48
48
30
30
58
84
ENDCHAR
STARTCHAR 2F1D
ENCODING 12061
SWIDTH 960 0
DWIDTH 8 0
BBX 5 6 1 -1
BITMAP
F8
88
88
88
F8
88
ENDCHAR
STARTCHAR 2F1F
ENCODING 12063
SWIDTH 960 0
DWIDTH 8 0
BBX 6 7 1 -1
BITMAP
20
20
F8
20
20
20
FC
ENDCHAR
STARTCHAR 2F20
ENCODING 12064
SWIDTH 960 0
DWIDTH 8 0
BBX 6 7 1 -1
BITMAP
20
20
FC
20
20
20
FC
ENDCHAR
STARTCHAR 2F23
ENCODING 12067
SWIDTH 960 0
DWIDTH 8 0
BBX 5 7 1 -1
BITMAP
20
38
48
A8
90
60
80
ENDCHAR
STARTCHAR 2F24
ENCODING 12068
SWIDTH 960 0
DWIDTH 8 0
BBX 6 7 1 -1
BITMAP
20
20
FC
20
50
C8
84
ENDCHAR
STARTCHAR 2F25
ENCODING 12069
SWIDTH 960 0
DWIDTH 8 0
BBX 6 7 1 -1
BITMAP
20
40
FC
48
50
38
C4
ENDCHAR
STARTCHAR 2F26
ENCODING 12070
SWIDTH 960 0
DWIDTH 8 0
BBX 6 7 1 -1
BITMAP
F8
10
20
FC
20
20
60
ENDCHAR
STARTCHAR 2F28
ENCODING 12072
SWIDTH 960 0
DWIDTH 8 0
BBX 6 7 1 -1
BITMAP
10
10
FC
50
50
10
10
ENDCHAR
STARTCHAR 2F29
ENCODING 12073
SWIDTH 960 0
DWIDTH 8 0
BBX 6 7 1 -1
BITMAP
20
20
68
A8
A4
A4
60
ENDCHAR
STARTCHAR 2F2B
ENCODING 12075
SWIDTH 960 0
DWIDTH 8 0
BBX 6 7 1 -1
BITMAP
FC
84
FC
80
80
80
80
ENDCHAR
STARTCHAR 2F2D
ENCODING 12077
SWIDTH 960 0
DWIDTH 8 0
BBX 6 7 1 -1
BITMAP
20
A4
A4
A4
A4
FC
84
ENDCHAR
STARTCHAR 2F2F
ENCODING 12079
SWIDTH 960 0
DWIDTH 8 0
BBX 6 6 1 0
BITMAP
F8
20
20
20
20
FC
ENDCHAR
STARTCHAR 2F30
ENCODING 12080
SWIDTH 960 0
DWIDTH 8 0
BBX 6 7 1 -1
BITMAP
F8
08
08
F8
80
84
F8
ENDCHAR
STARTCHAR 2F31
ENCODING 12081
SWIDTH 960 0
DWIDTH 8 0
BBX 5 7 1 -1
BITMAP
20
F8
A8
A8
A8
A8
20
ENDCHAR
STARTCHAR 2F32
ENCODING 12082
SWIDTH 960 0
DWIDTH 8 0
BBX 6 7 1 -1
BITMAP
F8
20
20
FC
20
20
20
ENDCHAR
STARTCHAR 2F38
ENCODING 12088
SWIDTH 960 0
DWIDTH 8 0
BBX 6 7 1 -1
BITMAP
F8
08
F8
80
FC
04
18
ENDCHAR
STARTCHAR 2F3C
ENCODING 12092
SWIDTH 960 0
DWIDTH 8 0
BBX 6 7 1 -1
BITMAP
20
20
48
C4
C4
C8
78
ENDCHAR
STARTCHAR 2F3D
ENCODING 12093
SWIDTH 960 0
DWIDTH 8 0
BBX 6 7 1 -1
BITMAP
30
28
FC
28
30
54
8C
ENDCHAR
STARTCHAR 2F3E
ENCODING 12094
SWIDTH 960 0
DWIDTH 8 0
BBX 7 7 0 -1
BITMAP
04
78
7E
42
7E
40
80
ENDCHAR
STARTCHAR 2F3F
ENCODING 12095
SWIDTH 960 0
DWIDTH 8 0
BBX 6 7 1 -1
BITMAP
18
E0
F8
20
FC
20
60
ENDCHAR
STARTCHAR 2F40
ENCODING 12096
SWIDTH 960 0
DWIDTH 8 0
BBX 6 7 1 -1
BITMAP
20
FC
20
F8
50
30
CC
ENDCHAR
STARTCHAR 2F42
ENCODING 12098
SWIDTH 960 0
DWIDTH 8 0
BBX 6 7 1 -1
BITMAP
20
FC
48
30
30
50
8C
ENDCHAR
STARTCHAR 2F43
ENCODING 12099
SWIDTH 960 0
DWIDTH 8 0
BBX 6 7 1 -1
BITMAP
50
30
50
10
1C
F0
10
ENDCHAR
STARTCHAR 2F44
ENCODING 12100
SWIDTH 960 0
DWIDTH 8 0
BBX 6 7 1 -1
BITMAP
F8
80
80
FC
90
90
90
ENDCHAR
STARTCHAR 2F45
ENCODING 12101
SWIDTH 960 0
DWIDTH 8 0
BBX 6 7 1 -1
BITMAP
20
FC
40
78
48
88
98
ENDCHAR
STARTCHAR 2F46
ENCODING 12102
SWIDTH 960 0
DWIDTH 8 0
BBX 6 7 1 -1
BITMAP
F8
20
FC
20
50
D4
9C
ENDCHAR
STARTCHAR 2F47
ENCODING 12103
SWIDTH 960 0
DWIDTH 8 0
BBX 5 7 1 -1
BITMAP
F8
88
88
F8
88
F8
88
ENDCHAR
STARTCHAR 2F48
ENCODING 12104
SWIDTH 960 0
DWIDTH 8 0
BBX 5 7 1 -1
BITMAP
F8
88
88
F8
88
F8
88
ENDCHAR
STARTCHAR 2F49
ENCODING 12105
SWIDTH 960 0
DWIDTH 8 0
BBX 5 7 1 -1
BITMAP
78
88
78
88
78
88
98
ENDCHAR
STARTCHAR 2F4A
ENCODING 12106
SWIDTH 960 0
DWIDTH 8 0
BBX 6 7 1 -1
BITMAP
20
20
FC
30
E8
A4
20
ENDCHAR
STARTCHAR 2F4B
ENCODING 12107
SWIDTH 960 0
DWIDTH 8 0
BBX 6 7 1 -1
BITMAP
40
78
A8
A8
30
48
84
ENDCHAR
STARTCHAR 2F4C
ENCODING 12108
SWIDTH 960 0
DWIDTH 8 0
BBX 6 7 1 -1
BITMAP
10
10
50
5C
50
50
FC
ENDCHAR
STARTCHAR 2F4F
ENCODING 12111
SWIDTH 960 0
DWIDTH 8 0
BBX 6 7 1 -1
BITMAP
78
A8
A8
FC
A8
FC
98
ENDCHAR
STARTCHAR 2F50
ENCODING 12112
SWIDTH 960 0
DWIDTH 8 0
BBX 6 7 1 -1
BITMAP
90
94
F8
90
90
F4
9C
ENDCHAR
STARTCHAR 2F51
ENCODING 12113
SWIDTH 960 0
DWIDTH 8 0
BBX 6 7 1 -1
BITMAP
18
E0
38
FC
A0
24
3C
ENDCHAR
STARTCHAR 2F52
ENCODING 12114
SWIDTH 960 0
DWIDTH 8 0
BBX 6 7 1 -1
BITMAP
08
F0
90
FC
90
F4
CC
ENDCHAR
STARTCHAR 2F54
ENCODING 12116
SWIDTH 960 0
DWIDTH 8 0
BBX 7 7 0 -1
BITMAP
10
10
74
38
54
92
30
ENDCHAR
STARTCHAR 2F55
ENCODING 12117
SWIDTH 960 0
DWIDTH 8 0
BBX 6 7 1 -1
BITMAP
20
A4
A8
A8
50
C8
84
ENDCHAR
STARTCHAR 2F56
ENCODING 12118
SWIDTH 960 0
DWIDTH 8 0
BBX 6 7 1 -1
BITMAP
18
68
A8
A8
A8
A4
A4
ENDCHAR
STARTCHAR 2F57
ENCODING 12119
SWIDTH 960 0
DWIDTH 8 0
BBX 6 7 1 -1
BITMAP
48
C4
48
D0
20
58
84
ENDCHAR
STARTCHAR 2F58
ENCODING 12120
SWIDTH 960 0
DWIDTH 8 0
BBX 6 7 1 -1
BITMAP
C8
78
CC
C8
F0
70
CC
ENDCHAR
STARTCHAR 2F5A
ENCODING 12122
SWIDTH 960 0
DWIDTH 8 0
BBX 7 7 0 -1
BITMAP
48
48
7E
40
78
48
88
ENDCHAR
STARTCHAR 2F5B
ENCODING 12123
SWIDTH 960 0
DWIDTH 8 0
BBX 6 7 1 -1
BITMAP
FC
50
50
FC
30
D0
10
ENDCHAR
STARTCHAR 2F5C
ENCODING 12124
SWIDTH 960 0
DWIDTH 8 0
BBX 6 7 1 -1
BITMAP
60
F8
A0
20
FC
20
20
ENDCHAR
STARTCHAR 2F5D
ENCODING 12125
SWIDTH 960 0
DWIDTH 8 0
BBX 6 7 1 -1
BITMAP
28
28
FC
20
50
C8
84
ENDCHAR
STARTCHAR 2F5E
ENCODING 12126
SWIDTH 960 0
DWIDTH 8 0
BBX 6 7 1 -1
BITMAP
20
FC
20
D0
68
5C
E4
ENDCHAR
STARTCHAR 2F5F
ENCODING 12127
SWIDTH 960 0
DWIDTH 8 0
BBX 6 6 1 0
BITMAP
FC
20
F8
28
28
FC
ENDCHAR
STARTCHAR 2F60
ENCODING 12128
SWIDTH 960 0
DWIDTH 8 0
BBX 6 7 1 -1
BITMAP
08
78
A8
A8
A8
B4
EC
ENDCHAR
STARTCHAR 2F61
ENCODING 12129
SWIDTH 960 0
DWIDTH 8 0
BBX 6 7 1 -1
BITMAP
FC
40
70
68
68
74
CC
ENDCHAR
STARTCHAR 2F62
ENCODING 12130
SWIDTH 960 0
DWIDTH 8 0
BBX 6 7 1 -1
BITMAP
48
FC
48
78
48
78
48
ENDCHAR
STARTCHAR 2F63
ENCODING 12131
SWIDTH 960 0
DWIDTH 8 0
BBX 6 7 1 -1
BITMAP
20
A0
FC
A0
F8
20
FC
ENDCHAR
STARTCHAR 2F64
ENCODING 12132
SWIDTH 960 0
DWIDTH 8 0
BBX 7 7 0 -1
BITMAP
7E
52
7E
52
7E
52
96
ENDCHAR
STARTCHAR 2F65
ENCODING 12133
SWIDTH 960 0
DWIDTH 8 0
BBX 5 7 1 -1
BITMAP
F8
A8
A8
F8
A8
F8
88
ENDCHAR
STARTCHAR 2F66
ENCODING 12134
SWIDTH 960 0
DWIDTH 8 0
BBX 6 7 1 -1
BITMAP
FC
24
60
98
E0
E0
BC
ENDCHAR
STARTCHAR 2F69
ENCODING 12137
SWIDTH 960 0
DWIDTH 8 0
BBX 5 7 1 -1
BITMAP
20
F8
88
F8
88
F8
88
ENDCHAR
STARTCHAR 2F6A
ENCODING 12138
SWIDTH 960 0
DWIDTH 8 0
BBX 6 7 1 -1
BITMAP
10
FC
94
F8
A8
B0
CC
ENDCHAR
STARTCHAR 2F6B
ENCODING 12139
SWIDTH 960 0
DWIDTH 8 0
BBX 7 6 0 -1
BITMAP
7C
6A
6A
6A
6A
FE
ENDCHAR
STARTCHAR 2F6C
ENCODING 12140
SWIDTH 960 0
DWIDTH 8 0
BBX 5 7 1 -1
BITMAP
F8
88
F8
88
F8
F8
88
ENDCHAR
STARTCHAR 2F6D
ENCODING 12141
SWIDTH 960 0
DWIDTH 8 0
BBX 6 7 1 -1
BITMAP
F8
20
FC
28
E0
A0
20
ENDCHAR
STARTCHAR 2F6E
ENCODING 12142
SWIDTH 960 0
DWIDTH 8 0
BBX 6 7 1 -1
BITMAP
40
78
A0
FC
30
48
84
ENDCHAR
STARTCHAR 2F6F
ENCODING 12143
SWIDTH 960 0
DWIDTH 8 0
BBX 6 7 1 -1
BITMAP
FC
40
40
F8
84
78
44
ENDCHAR
STARTCHAR 2F70
ENCODING 12144
SWIDTH 960 0
DWIDTH 8 0
BBX 6 7 1 -1
BITMAP
F8
00
FC
68
A4
A4
20
ENDCHAR
STARTCHAR 2F72
ENCODING 12146
SWIDTH 960 0
DWIDTH 8 0
BBX 7 7 0 -1
BITMAP
0C
70
7E
18
74
92
10
ENDCHAR
STARTCHAR 2F73
ENCODING 12147
SWIDTH 960 0
DWIDTH 8 0
BBX 7 7 0 -1
BITMAP
10
7E
BA
24
24
46
82
ENDCHAR
STARTCHAR 2F74
ENCODING 12148
SWIDTH 960 0
DWIDTH 8 0
BBX 6 7 1 -1
BITMAP
20
FC
08
48
50
50
FC
ENDCHAR
STARTCHAR 2F75
ENCODING 12149
SWIDTH 960 0
DWIDTH 8 0
BBX 6 7 1 -1
BITMAP
90
FC
D8
48
48
48
58
ENDCHAR
STARTCHAR 2F76
ENCODING 12150
SWIDTH 960 0
DWIDTH 8 0
BBX 6 7 1 -1
BITMAP
20
A8
20
DC
68
A4
20
ENDCHAR
STARTCHAR 2F78
ENCODING 12152
SWIDTH 960 0
DWIDTH 8 0
BBX 6 7 1 -1
BITMAP
40
7C
A0
FC
A4
A4
F8
ENDCHAR
STARTCHAR 2F7A
ENCODING 12154
SWIDTH 960 0
DWIDTH 8 0
BBX 6 7 1 -1
BITMAP
50
FC
20
F8
FC
20
20
ENDCHAR
STARTCHAR 2F7B
ENCODING 12155
SWIDTH 960 0
DWIDTH 8 0
BBX 6 7 1 -1
BITMAP
FC
6C
F4
A4
6C
B4
6C
ENDCHAR
STARTCHAR 2F7C
ENCODING 12156
SWIDTH 960 0
DWIDTH 8 0
BBX 6 7 1 -1
BITMAP
20
F8
28
FC
F8
44
78
ENDCHAR
STARTCHAR 2F7D
ENCODING 12157
SWIDTH 960 0
DWIDTH 8 0
BBX 6 7 1 -1
BITMAP
FC
20
F8
D4
D4
D4
D8
ENDCHAR
STARTCHAR 2F7F
ENCODING 12159
SWIDTH 960 0
DWIDTH 8 0
BBX 6 7 1 -1
BITMAP
FC
48
78
78
4C
F8
08
ENDCHAR
STARTCHAR 2F80
ENCODING 12160
SWIDTH 960 0
DWIDTH 8 0
BBX 6 7 1 -1
BITMAP
20
F8
FC
F8
F8
FC
20
ENDCHAR
STARTCHAR 2F81
ENCODING 12161
SWIDTH 960 0
DWIDTH 8 0
BBX 6 7 1 -1
BITMAP
20
FC
B4
AC
F4
DC
8C
ENDCHAR
STARTCHAR 2F82
ENCODING 12162
SWIDTH 960 0
DWIDTH 8 0
BBX 6 7 1 -1
BITMAP
FC
A0
F8
88
F8
A0
FC
ENDCHAR
STARTCHAR 2F83
ENCODING 12163
SWIDTH 960 0
DWIDTH 8 0
BBX 5 7 1 -1
BITMAP
20
F8
88
F8
F8
F8
88
ENDCHAR
STARTCHAR 2F84
ENCODING 12164
SWIDTH 960 0
DWIDTH 8 0
BBX 6 7 1 -1
BITMAP
FC
48
F8
20
F8
20
FC
ENDCHAR
STARTCHAR 2F85
ENCODING 12165
SWIDTH 960 0
DWIDTH 8 0
BBX 6 7 1 -1
BITMAP
20
DC
84
FC
84
FC
84
ENDCHAR
STARTCHAR 2F86
ENCODING 12166
SWIDTH 960 0
DWIDTH 8 0
BBX 6 7 1 -1
BITMAP
F8
20
FC
20
F8
88
F8
ENDCHAR
STARTCHAR 2F87
ENCODING 12167
SWIDTH 960 0
DWIDTH 8 0
BBX 6 7 1 -1
BITMAP
88
C8
BC
D8
7C
88
88
ENDCHAR
STARTCHAR 2F88
ENCODING 12168
SWIDTH 960 0
DWIDTH 8 0
BBX 6 7 1 -1
BITMAP
20
78
A8
FC
A8
A8
98
ENDCHAR
STARTCHAR 2F89
ENCODING 12169
SWIDTH 960 0
DWIDTH 8 0
BBX 6 7 1 -1
BITMAP
F8
F8
88
F8
A4
B8
C4
ENDCHAR
STARTCHAR 2F8A
ENCODING 12170
SWIDTH 960 0
DWIDTH 8 0
BBX 6 7 1 -1
BITMAP
40
70
F8
A4
F8
84
F8
ENDCHAR
STARTCHAR 2F8B
ENCODING 12171
SWIDTH 960 0
DWIDTH 8 0
BBX 7 7 0 -1
BITMAP
04
26
AE
AE
6E
44
44
ENDCHAR
STARTCHAR 2F8E
ENCODING 12174
SWIDTH 960 0
DWIDTH 8 0
BBX 7 6 0 0
BITMAP
10
7C
6C
6C
6C
FE
ENDCHAR
STARTCHAR 2F8F
ENCODING 12175
SWIDTH 960 0
DWIDTH 8 0
BBX 7 7 0 -1
BITMAP
20
4E
20
5E
C4
44
4C
ENDCHAR
STARTCHAR 2F90
ENCODING 12176
SWIDTH 960 0
DWIDTH 8 0
BBX 6 7 1 -1
BITMAP
20
FC
20
58
C8
58
E4
ENDCHAR
STARTCHAR 2F92
ENCODING 12178
SWIDTH 960 0
DWIDTH 8 0
BBX 6 7 1 -1
BITMAP
78
78
88
78
78
54
9C
ENDCHAR
STARTCHAR 2F93
ENCODING 12179
SWIDTH 960 0
DWIDTH 8 0
BBX 5 7 1 -1
BITMAP
40
F0
F8
F8
A8
F8
88
ENDCHAR
STARTCHAR 2F94
ENCODING 12180
SWIDTH 960 0
DWIDTH 8 0
BBX 6 7 1 -1
BITMAP
78
FC
78
78
78
88
78
ENDCHAR
STARTCHAR 2F95
ENCODING 12181
SWIDTH 960 0
DWIDTH 8 0
BBX 6 7 1 -1
BITMAP
48
A4
50
88
FC
88
78
ENDCHAR
STARTCHAR 2F96
ENCODING 12182
SWIDTH 960 0
DWIDTH 8 0
BBX 6 7 1 -1
BITMAP
FC
00
78
78
48
50
FC
ENDCHAR
STARTCHAR 2F97
ENCODING 12183
SWIDTH 960 0
DWIDTH 8 0
BBX 6 7 1 -1
BITMAP
FC
70
B8
E8
D8
94
20
ENDCHAR
STARTCHAR 2F99
ENCODING 12185
SWIDTH 960 0
DWIDTH 8 0
BBX 6 7 1 -1
BITMAP
F8
88
F8
F8
F8
48
84
ENDCHAR
STARTCHAR 2F9A
ENCODING 12186
SWIDTH 960 0
DWIDTH 8 0
BBX 6 7 1 -1
BITMAP
20
F8
20
FC
B8
D4
B0
ENDCHAR
STARTCHAR 2F9B
ENCODING 12187
SWIDTH 960 0
DWIDTH 8 0
BBX 6 7 1 -1
BITMAP
20
F8
20
FC
78
E0
BC
ENDCHAR
STARTCHAR 2F9C
ENCODING 12188
SWIDTH 960 0
DWIDTH 8 0
BBX 6 7 1 -1
BITMAP
F8
88
F8
A0
9C
E0
BC
ENDCHAR
STARTCHAR 2F9D
ENCODING 12189
SWIDTH 960 0
DWIDTH 8 0
BBX 6 7 1 -1
BITMAP
20
78
78
7C
F8
68
98
ENDCHAR
STARTCHAR 2F9E
ENCODING 12190
SWIDTH 960 0
DWIDTH 8 0
BBX 6 7 1 -1
BITMAP
20
FC
F8
F8
F8
FC
20
ENDCHAR
STARTCHAR 2F9F
ENCODING 12191
SWIDTH 960 0
DWIDTH 8 0
BBX 6 7 1 -1
BITMAP
20
FC
48
FC
FC
20
20
ENDCHAR
STARTCHAR 2FA0
ENCODING 12192
SWIDTH 960 0
DWIDTH 8 0
BBX 6 7 1 -1
BITMAP
FC
F8
80
FC
D8
D8
E4
ENDCHAR
STARTCHAR 2FA2
ENCODING 12194
SWIDTH 960 0
DWIDTH 8 0
BBX 6 7 1 -1
BITMAP
78
78
00
F8
F8
84
FC
ENDCHAR
STARTCHAR 2FA3
ENCODING 12195
SWIDTH 960 0
DWIDTH 8 0
BBX 6 7 1 -1
BITMAP
FC
50
F8
D8
F8
F8
84
ENDCHAR
STARTCHAR 2FA5
ENCODING 12197
SWIDTH 960 0
DWIDTH 8 0
BBX 6 7 1 -1
BITMAP
F8
A8
F8
F8
F8
20
FC
ENDCHAR
STARTCHAR 2FA6
ENCODING 12198
SWIDTH 960 0
DWIDTH 8 0
BBX 6 7 1 -1
BITMAP
30
48
84
78
F8
68
FC
ENDCHAR
STARTCHAR 2FA7
ENCODING 12199
SWIDTH 960 0
DWIDTH 8 0
BBX 6 7 1 -1
BITMAP
78
78
78
FC
A8
B8
C4
ENDCHAR
STARTCHAR 2FA8
ENCODING 12200
SWIDTH 960 0
DWIDTH 8 0
BBX 6 7 1 -1
BITMAP
DC
DC
DC
84
84
84
8C
ENDCHAR
STARTCHAR 2FA9
ENCODING 12201
SWIDTH 960 0
DWIDTH 8 0
BBX 6 7 1 -1
BITMAP
20
F8
F8
F8
F8
FC
20
ENDCHAR
STARTCHAR 2FAC
ENCODING 12204
SWIDTH 960 0
DWIDTH 8 0
BBX 6 7 1 -1
BITMAP
FC
FC
F4
AC
F4
AC
AC
ENDCHAR
STARTCHAR 2FAD
ENCODING 12205
SWIDTH 960 0
DWIDTH 8 0
BBX 6 7 1 -1
BITMAP
20
FC
FC
F8
A8
F8
98
ENDCHAR
STARTCHAR 2FAE
ENCODING 12206
SWIDTH 960 0
DWIDTH 8 0
BBX 6 7 1 -1
BITMAP
50
DC
50
DC
DC
50
90
ENDCHAR
STARTCHAR 2FAF
ENCODING 12207
SWIDTH 960 0
DWIDTH 8 0
BBX 6 7 1 -1
BITMAP
FC
20
FC
B4
B4
FC
84
ENDCHAR
STARTCHAR 2FB0
ENCODING 12208
SWIDTH 960 0
DWIDTH 8 0
BBX 6 7 1 -1
BITMAP
48
FC
70
F8
F8
FC
20
ENDCHAR
STARTCHAR 2FB1
ENCODING 12209
SWIDTH 960 0
DWIDTH 8 0
BBX 6 7 1 -1
BITMAP
20
FC
00
78
78
FC
E0
ENDCHAR
STARTCHAR 2FB3
ENCODING 12211
SWIDTH 960 0
DWIDTH 8 0
BBX 6 7 1 -1
BITMAP
20
F8
FC
00
78
78
78
ENDCHAR
STARTCHAR 2FB4
ENCODING 12212
SWIDTH 960 0
DWIDTH 8 0
BBX 6 7 1 -1
BITMAP
FC
78
78
88
78
18
C4
ENDCHAR
STARTCHAR 2FB5
ENCODING 12213
SWIDTH 960 0
DWIDTH 8 0
BBX 6 7 1 -1
BITMAP
F8
F8
A8
F8
F8
B4
6C
ENDCHAR
STARTCHAR 2FB6
ENCODING 12214
SWIDTH 960 0
DWIDTH 8 0
BBX 6 7 1 -1
BITMAP
F8
6C
A8
F4
B8
AC
AC
ENDCHAR
STARTCHAR 2FB7
ENCODING 12215
SWIDTH 960 0
DWIDTH 8 0
BBX 6 7 1 -1
BITMAP
30
78
FC
78
78
B8
CC
ENDCHAR
STARTCHAR 2FB8
ENCODING 12216
SWIDTH 960 0
DWIDTH 8 0
BBX 6 7 1 -1
BITMAP
50
FC
F8
88
F8
F8
F8
ENDCHAR
STARTCHAR 2FB9
ENCODING 12217
SWIDTH 960 0
DWIDTH 8 0
BBX 6 7 1 -1
BITMAP
F8
20
FC
AC
F8
F8
F8
ENDCHAR
STARTCHAR 2FBA
ENCODING 12218
SWIDTH 960 0
DWIDTH 8 0
BBX 6 7 1 -1
BITMAP
FC
F8
A0
F8
FC
C4
CC
ENDCHAR
STARTCHAR 2FBB
ENCODING 12219
SWIDTH 960 0
DWIDTH 8 0
BBX 6 7 1 -1
BITMAP
78
B8
FC
FC
78
78
98
ENDCHAR
STARTCHAR 2FBC
ENCODING 12220
SWIDTH 960 0
DWIDTH 8 0
BBX 6 7 1 -1
BITMAP
FC
78
78
FC
F4
F4
8C
ENDCHAR
STARTCHAR 2FC1
ENCODING 12225
SWIDTH 960 0
DWIDTH 8 0
BBX 6 7 1 -1
BITMAP
20
F8
F8
F8
68
5C
9C
ENDCHAR
STARTCHAR 2FC2
ENCODING 12226
SWIDTH 960 0
DWIDTH 8 0
BBX 6 7 1 -1
BITMAP
40
70
F8
F8
F8
B4
B4
ENDCHAR
STARTCHAR 2FC3
ENCODING 12227
SWIDTH 960 0
DWIDTH 8 0
BBX 6 7 1 -1
BITMAP
20
F8
F8
F8
FC
C4
C8
ENDCHAR
STARTCHAR 2FC4
ENCODING 12228
SWIDTH 960 0
DWIDTH 8 0
BBX 6 7 1 -1
BITMAP
20
38
FC
D4
BC
EC
FC
ENDCHAR
STARTCHAR 2FC5
ENCODING 12229
SWIDTH 960 0
DWIDTH 8 0
BBX 7 7 0 -1
BITMAP
10
7E
7E
7E
6A
7C
FE
ENDCHAR
STARTCHAR 2FC6
ENCODING 12230
SWIDTH 960 0
DWIDTH 8 0
BBX 6 7 1 -1
BITMAP
20
FC
F8
6C
BC
F0
CC
ENDCHAR
STARTCHAR 2FC7
ENCODING 12231
SWIDTH 960 0
DWIDTH 8 0
BBX 7 7 0 -1
BITMAP
10
7E
7E
58
5A
5A
C0
ENDCHAR
STARTCHAR 2FC8
ENCODING 12232
SWIDTH 960 0
DWIDTH 8 0
BBX 6 7 1 -1
BITMAP
50
FC
FC
F8
F8
F8
CC
ENDCHAR
STARTCHAR 2FC9
ENCODING 12233
SWIDTH 960 0
DWIDTH 8 0
BBX 6 7 1 -1
BITMAP
F8
FC
70
BC
EC
78
24
ENDCHAR
STARTCHAR 2FCA
ENCODING 12234
SWIDTH 960 0
DWIDTH 8 0
BBX 6 7 1 -1
BITMAP
F8
F4
F8
F8
FC
D4
94
ENDCHAR
STARTCHAR 2FCD
ENCODING 12237
SWIDTH 960 0
DWIDTH 8 0
BBX 6 7 1 -1
BITMAP
70
F4
F4
84
DC
B8
98
ENDCHAR
STARTCHAR 2FCE
ENCODING 12238
SWIDTH 960 0
DWIDTH 8 0
BBX 7 7 0 -1
BITMAP
24
FE
04
6E
0C
7C
5A
ENDCHAR
STARTCHAR 2FCF
ENCODING 12239
SWIDTH 960 0
DWIDTH 8 0
BBX 6 7 1 -1
BITMAP
D8
D8
F8
F8
A8
F8
A4
ENDCHAR
STARTCHAR 2FD0
ENCODING 12240
SWIDTH 960 0
DWIDTH 8 0
BBX 6 7 1 -1
BITMAP
78
88
78
F8
A4
FC
90
ENDCHAR
STARTCHAR 2FD1
ENCODING 12241
SWIDTH 960 0
DWIDTH 8 0
BBX 6 7 1 -1
BITMAP
FC
34
EC
B0
78
F8
88
ENDCHAR
STARTCHAR 2FD2
ENCODING 12242
SWIDTH 960 0
DWIDTH 8 0
BBX 7 7 0 -1
BITMAP
28
FE
6A
7E
7E
7E
7E
ENDCHAR
STARTCHAR 2FD3
ENCODING 12243
SWIDTH 960 0
DWIDTH 8 0
BBX 7 7 0 -1
BITMAP
28
7E
FE
6E
6E
6E
6E
ENDCHAR
STARTCHAR 2FD4
ENCODING 12244
SWIDTH 960 0
DWIDTH 8 0
BBX 7 7 0 -1
BITMAP
38
7C
7C
FE
1E
FE
1E
ENDCHAR
STARTCHAR 3000
ENCODING 12288
SWIDTH 960 0
DWIDTH 8 0
BBX 0 0 0 0
BITMAP
ENDCHAR
STARTCHAR 3001
ENCODING 12289
SWIDTH 960 0
DWIDTH 8 0
BBX 1 1 1 -1
BITMAP
80
ENDCHAR
STARTCHAR 3002
ENCODING 12290
SWIDTH 960 0
DWIDTH 8 0
BBX 2 1 0 -1
BITMAP
C0
ENDCHAR
STARTCHAR 3003
ENCODING 12291
SWIDTH 960 0
DWIDTH 8 0
BBX 3 2 2 1
BITMAP
60
A0
ENDCHAR
STARTCHAR 3008
ENCODING 12296
SWIDTH 480 0
DWIDTH 4 0
BBX 3 5 0 0
BITMAP
20
40
80
40
20
ENDCHAR
STARTCHAR 3009
ENCODING 12297
SWIDTH 480 0
DWIDTH 4 0
BBX 2 5 1 0
BITMAP
80
40
40
40
80
ENDCHAR
STARTCHAR 300A
ENCODING 12298
SWIDTH 480 0
DWIDTH 4 0
BBX 3 5 0 0
BITMAP
20
40
80
40
20
ENDCHAR
STARTCHAR 300B
ENCODING 12299
SWIDTH 480 0
DWIDTH 4 0
BBX 2 7 1 -1
BITMAP
80
80
C0
40
C0
80
80
ENDCHAR
STARTCHAR 300C
ENCODING 12300
SWIDTH 360 0
DWIDTH 3 0
BBX 2 4 0 2
BITMAP
C0
80
80
80
ENDCHAR
STARTCHAR 300D
ENCODING 12301
SWIDTH 360 0
DWIDTH 3 0
BBX 2 3 1 -1
BITMAP
40
40
C0
ENDCHAR
STARTCHAR 300E
ENCODING 12302
SWIDTH 360 0
DWIDTH 3 0
BBX 3 4 0 2
BITMAP
E0
80
80
80
ENDCHAR
STARTCHAR 300F
ENCODING 12303
SWIDTH 360 0
DWIDTH 3 0
BBX 3 3 0 -1
BITMAP
20
20
E0
ENDCHAR
STARTCHAR 3010
ENCODING 12304
SWIDTH 360 0
DWIDTH 3 0
BBX 2 7 0 -1
BITMAP
C0
80
80
80
80
80
C0
ENDCHAR
STARTCHAR 3011
ENCODING 12305
SWIDTH 360 0
DWIDTH 3 0
BBX 2 7 1 -1
BITMAP
C0
40
40
40
40
40
C0
ENDCHAR
STARTCHAR 3012
ENCODING 12306
SWIDTH 960 0
DWIDTH 8 0
BBX 6 6 1 -1
BITMAP
F8
FC
20
20
20
20
ENDCHAR
STARTCHAR 3013
ENCODING 12307
SWIDTH 960 0
DWIDTH 8 0
BBX 3 1 2 2
BITMAP
E0
ENDCHAR
STARTCHAR 3014
ENCODING 12308
SWIDTH 360 0
DWIDTH 3 0
BBX 2 7 0 -1
BITMAP
40
80
80
80
80
80
40
ENDCHAR
STARTCHAR 3015
ENCODING 12309
SWIDTH 360 0
DWIDTH 3 0
BBX 1 7 1 -1
BITMAP
80
80
80
80
80
80
80
ENDCHAR
STARTCHAR 3016
ENCODING 12310
SWIDTH 360 0
DWIDTH 3 0
BBX 3 7 0 -1
BITMAP
E0
C0
C0
C0
C0
C0
E0
ENDCHAR
STARTCHAR 3017
ENCODING 12311
SWIDTH 360 0
DWIDTH 3 0
BBX 3 7 0 -1
BITMAP
E0
60
60
60
60
60
E0
ENDCHAR
STARTCHAR 3018
ENCODING 12312
SWIDTH 360 0
DWIDTH 3 0
BBX 3 7 0 -1
BITMAP
60
80
80
80
80
80
60
ENDCHAR
STARTCHAR 3019
ENCODING 12313
SWIDTH 360 0
DWIDTH 3 0
BBX 3 7 0 -1
BITMAP
C0
20
20
20
20
20
C0
ENDCHAR
STARTCHAR 301C
ENCODING 12316
SWIDTH 960 0
DWIDTH 8 0
BBX 5 1 1 2
BITMAP
F8
ENDCHAR
STARTCHAR 301E
ENCODING 12318
SWIDTH 360 0
DWIDTH 3 0
BBX 3 2 0 4
BITMAP
20
80
ENDCHAR
STARTCHAR 301F
ENCODING 12319
SWIDTH 360 0
DWIDTH 3 0
BBX 3 2 0 -1
BITMAP
20
80
ENDCHAR
STARTCHAR 3020
ENCODING 12320
SWIDTH 960 0
DWIDTH 8 0
BBX 6 5 1 0
BITMAP
20
9C
C0
84
78
ENDCHAR
STARTCHAR 3036
ENCODING 12342
SWIDTH 960 0
DWIDTH 8 0
BBX 7 7 0 -1
BITMAP
3C
42
BE
FE
92
92
7C
ENDCHAR
STARTCHAR 3041
ENCODING 12353
SWIDTH 960 0
DWIDTH 8 0
BBX 4 5 2 0
BITMAP
E0
60
D0
D0
20
ENDCHAR
STARTCHAR 3042
ENCODING 12354
SWIDTH 960 0
DWIDTH 8 0
BBX 5 6 1 -1
BITMAP
20
70
50
78
A8
E8
ENDCHAR
STARTCHAR 3043
ENCODING 12355
SWIDTH 960 0
DWIDTH 8 0
BBX 5 4 1 0
BITMAP
80
88
88
60
ENDCHAR
STARTCHAR 3044
ENCODING 12356
SWIDTH 960 0
DWIDTH 8 0
BBX 5 5 1 0
BITMAP
80
88
88
80
40
ENDCHAR
STARTCHAR 3045
ENCODING 12357
SWIDTH 960 0
DWIDTH 8 0
BBX 3 5 2 -1
BITMAP
40
00
E0
20
20
ENDCHAR
STARTCHAR 3046
ENCODING 12358
SWIDTH 960 0
DWIDTH 8 0
BBX 4 6 2 -1
BITMAP
40
20
60
90
10
20
ENDCHAR
STARTCHAR 3047
ENCODING 12359
SWIDTH 960 0
DWIDTH 8 0
BBX 4 5 2 0
BITMAP
40
00
C0
40
B0
ENDCHAR
STARTCHAR 3048
ENCODING 12360
SWIDTH 960 0
DWIDTH 8 0
BBX 5 7 1 -1
BITMAP
20
10
60
20
20
50
98
ENDCHAR
STARTCHAR 3049
ENCODING 12361
SWIDTH 960 0
DWIDTH 8 0
BBX 4 4 2 0
BITMAP
10
A0
D0
90
ENDCHAR
STARTCHAR 304A
ENCODING 12362
SWIDTH 960 0
DWIDTH 8 0
BBX 5 6 1 -1
BITMAP
48
C0
70
C8
C8
50
ENDCHAR
STARTCHAR 304B
ENCODING 12363
SWIDTH 960 0
DWIDTH 8 0
BBX 6 5 1 0
BITMAP
40
F4
54
90
B0
ENDCHAR
STARTCHAR 304C
ENCODING 12364
SWIDTH 960 0
DWIDTH 8 0
BBX 5 5 1 1
BITMAP
40
F8
50
90
A0
ENDCHAR
STARTCHAR 304D
ENCODING 12365
SWIDTH 960 0
DWIDTH 8 0
BBX 4 6 2 0
BITMAP
C0
70
A0
F0
80
E0
ENDCHAR
STARTCHAR 304E
ENCODING 12366
SWIDTH 960 0
DWIDTH 8 0
BBX 4 7 1 -1
BITMAP
40
60
30
E0
F0
80
60
ENDCHAR
STARTCHAR 304F
ENCODING 12367
SWIDTH 960 0
DWIDTH 8 0
BBX 3 6 2 0
BITMAP
20
40
80
40
20
20
ENDCHAR
STARTCHAR 3050
ENCODING 12368
SWIDTH 960 0
DWIDTH 8 0
BBX 2 6 2 -1
BITMAP
40
40
80
80
80
40
ENDCHAR
STARTCHAR 3051
ENCODING 12369
SWIDTH 960 0
DWIDTH 8 0
BBX 5 5 1 -1
BITMAP
90
B8
88
90
90
ENDCHAR
STARTCHAR 3052
ENCODING 12370
SWIDTH 960 0
DWIDTH 8 0
BBX 6 7 1 -1
BITMAP
04
90
F8
90
90
A0
20
ENDCHAR
STARTCHAR 3053
ENCODING 12371
SWIDTH 960 0
DWIDTH 8 0
BBX 4 5 2 0
BITMAP
E0
00
00
00
F0
ENDCHAR
STARTCHAR 3054
ENCODING 12372
SWIDTH 960 0
DWIDTH 8 0
BBX 4 5 1 1
BITMAP
F0
00
00
00
F0
ENDCHAR
STARTCHAR 3055
ENCODING 12373
SWIDTH 960 0
DWIDTH 8 0
BBX 4 7 2 -1
BITMAP
40
50
A0
20
F0
80
60
ENDCHAR
STARTCHAR 3056
ENCODING 12374
SWIDTH 960 0
DWIDTH 8 0
BBX 4 7 1 -1
BITMAP
40
50
A0
20
D0
80
60
ENDCHAR
STARTCHAR 3057
ENCODING 12375
SWIDTH 960 0
DWIDTH 8 0
BBX 4 6 2 0
BITMAP
80
80
80
80
90
60
ENDCHAR
STARTCHAR 3058
ENCODING 12376
SWIDTH 960 0
DWIDTH 8 0
BBX 4 6 2 0
BITMAP
B0
80
80
80
90
60
ENDCHAR
STARTCHAR 3059
ENCODING 12377
SWIDTH 960 0
DWIDTH 8 0
BBX 6 6 1 0
BITMAP
FC
10
60
50
20
60
ENDCHAR
STARTCHAR 305A
ENCODING 12378
SWIDTH 960 0
DWIDTH 8 0
BBX 6 7 1 -1
BITMAP
2C
78
A0
60
60
20
40
ENDCHAR
STARTCHAR 305B
ENCODING 12379
SWIDTH 960 0
DWIDTH 8 0
BBX 5 5 2 0
BITMAP
90
F8
90
A0
E0
ENDCHAR
STARTCHAR 305C
ENCODING 12380
SWIDTH 960 0
DWIDTH 8 0
BBX 6 5 1 0
BITMAP
10
7C
D0
70
70
ENDCHAR
STARTCHAR 305D
ENCODING 12381
SWIDTH 960 0
DWIDTH 8 0
BBX 4 7 2 -1
BITMAP
E0
20
C0
F0
40
40
20
ENDCHAR
STARTCHAR 305E
ENCODING 12382
SWIDTH 960 0
DWIDTH 8 0
BBX 6 7 1 -1
BITMAP
40
2C
40
F0
40
40
30
ENDCHAR
STARTCHAR 305F
ENCODING 12383
SWIDTH 960 0
DWIDTH 8 0
BBX 5 6 1 -1
BITMAP
40
E0
58
40
80
98
ENDCHAR
STARTCHAR 3060
ENCODING 12384
SWIDTH 960 0
DWIDTH 8 0
BBX 6 6 1 -1
BITMAP
4C
C0
58
80
80
B8
ENDCHAR
STARTCHAR 3061
ENCODING 12385
SWIDTH 960 0
DWIDTH 8 0
BBX 4 6 2 0
BITMAP
60
80
80
F0
10
20
ENDCHAR
STARTCHAR 3062
ENCODING 12386
SWIDTH 960 0
DWIDTH 8 0
BBX 5 6 1 0
BITMAP
78
C0
40
78
08
30
ENDCHAR
STARTCHAR 3063
ENCODING 12387
SWIDTH 960 0
DWIDTH 8 0
BBX 4 3 2 0
BITMAP
F0
10
20
ENDCHAR
STARTCHAR 3064
ENCODING 12388
SWIDTH 960 0
DWIDTH 8 0
BBX 6 4 1 0
BITMAP
F8
04
04
18
ENDCHAR
STARTCHAR 3065
ENCODING 12389
SWIDTH 960 0
DWIDTH 8 0
BBX 5 4 1 1
BITMAP
F8
08
08
30
ENDCHAR
STARTCHAR 3066
ENCODING 12390
SWIDTH 960 0
DWIDTH 8 0
BBX 4 5 2 0
BITMAP
F0
20
40
40
20
ENDCHAR
STARTCHAR 3067
ENCODING 12391
SWIDTH 960 0
DWIDTH 8 0
BBX 6 5 1 0
BITMAP
F8
24
20
20
30
ENDCHAR
STARTCHAR 3068
ENCODING 12392
SWIDTH 960 0
DWIDTH 8 0
BBX 4 6 2 -1
BITMAP
80
A0
40
80
80
70
ENDCHAR
STARTCHAR 3069
ENCODING 12393
SWIDTH 960 0
DWIDTH 8 0
BBX 5 6 1 -1
BITMAP
48
70
40
80
80
70
ENDCHAR
STARTCHAR 306A
ENCODING 12394
SWIDTH 960 0
DWIDTH 8 0
BBX 5 6 1 0
BITMAP
60
40
50
90
78
30
ENDCHAR
STARTCHAR 306B
ENCODING 12395
SWIDTH 960 0
DWIDTH 8 0
BBX 5 5 1 0
BITMAP
98
80
80
80
B8
ENDCHAR
STARTCHAR 306C
ENCODING 12396
SWIDTH 960 0
DWIDTH 8 0
BBX 6 5 1 0
BITMAP
20
F0
A8
C4
FC
ENDCHAR
STARTCHAR 306D
ENCODING 12397
SWIDTH 960 0
DWIDTH 8 0
BBX 6 6 1 -1
BITMAP
40
F8
48
98
6C
10
ENDCHAR
STARTCHAR 306E
ENCODING 12398
SWIDTH 960 0
DWIDTH 8 0
BBX 6 5 1 0
BITMAP
78
A4
A4
A4
C8
ENDCHAR
STARTCHAR 306F
ENCODING 12399
SWIDTH 960 0
DWIDTH 8 0
BBX 6 6 1 -1
BITMAP
90
B8
90
90
BC
20
ENDCHAR
STARTCHAR 3070
ENCODING 12400
SWIDTH 960 0
DWIDTH 8 0
BBX 6 7 1 -1
BITMAP
0C
90
B8
90
B0
D8
20
ENDCHAR
STARTCHAR 3071
ENCODING 12401
SWIDTH 960 0
DWIDTH 8 0
BBX 6 7 1 -1
BITMAP
0C
90
B8
90
B0
D8
20
ENDCHAR
STARTCHAR 3072
ENCODING 12402
SWIDTH 960 0
DWIDTH 8 0
BBX 5 6 1 -1
BITMAP
C8
88
88
90
90
60
ENDCHAR
STARTCHAR 3073
ENCODING 12403
SWIDTH 960 0
DWIDTH 8 0
BBX 6 7 1 -1
BITMAP
0C
D0
98
90
90
90
60
ENDCHAR
STARTCHAR 3074
ENCODING 12404
SWIDTH 960 0
DWIDTH 8 0
BBX 6 7 1 -1
BITMAP
0C
D0
98
90
90
90
60
ENDCHAR
STARTCHAR 3075
ENCODING 12405
SWIDTH 960 0
DWIDTH 8 0
BBX 6 6 1 -1
BITMAP
30
00
20
14
90
20
ENDCHAR
STARTCHAR 3076
ENCODING 12406
SWIDTH 960 0
DWIDTH 8 0
BBX 6 7 1 -1
BITMAP
04
30
00
20
14
90
20
ENDCHAR
STARTCHAR 3077
ENCODING 12407
SWIDTH 960 0
DWIDTH 8 0
BBX 6 7 1 -1
BITMAP
04
30
00
20
14
90
20
ENDCHAR
STARTCHAR 3078
ENCODING 12408
SWIDTH 960 0
DWIDTH 8 0
BBX 6 3 1 1
BITMAP
60
90
0C
ENDCHAR
STARTCHAR 3079
ENCODING 12409
SWIDTH 960 0
DWIDTH 8 0
BBX 6 3 1 2
BITMAP
60
90
0C
ENDCHAR
STARTCHAR 307A
ENCODING 12410
SWIDTH 960 0
DWIDTH 8 0
BBX 6 4 1 1
BITMAP
08
68
90
0C
ENDCHAR
STARTCHAR 307B
ENCODING 12411
SWIDTH 960 0
DWIDTH 8 0
BBX 6 6 1 -1
BITMAP
B0
B8
90
90
BC
20
ENDCHAR
STARTCHAR 307C
ENCODING 12412
SWIDTH 960 0
DWIDTH 8 0
BBX 7 6 0 -1
BITMAP
5E
9C
88
D8
6C
10
ENDCHAR
STARTCHAR 307D
ENCODING 12413
SWIDTH 960 0
DWIDTH 8 0
BBX 7 6 0 -1
BITMAP
5E
9C
88
D8
6C
10
ENDCHAR
STARTCHAR 307E
ENCODING 12414
SWIDTH 960 0
DWIDTH 8 0
BBX 4 7 2 -1
BITMAP
40
E0
40
E0
40
F0
C0
ENDCHAR
STARTCHAR 307F
ENCODING 12415
SWIDTH 960 0
DWIDTH 8 0
BBX 5 5 1 0
BITMAP
60
28
78
C8
90
ENDCHAR
STARTCHAR 3080
ENCODING 12416
SWIDTH 960 0
DWIDTH 8 0
BBX 6 6 1 -1
BITMAP
60
44
C0
C0
48
30
ENDCHAR
STARTCHAR 3081
ENCODING 12417
SWIDTH 960 0
DWIDTH 8 0
BBX 6 5 1 0
BITMAP
20
78
A4
C4
E8
ENDCHAR
STARTCHAR 3082
ENCODING 12418
SWIDTH 960 0
DWIDTH 8 0
BBX 4 6 2 0
BITMAP
C0
40
C0
90
90
60
ENDCHAR
STARTCHAR 3083
ENCODING 12419
SWIDTH 960 0
DWIDTH 8 0
BBX 4 5 2 -1
BITMAP
20
F0
B0
40
40
ENDCHAR
STARTCHAR 3084
ENCODING 12420
SWIDTH 960 0
DWIDTH 8 0
BBX 6 6 1 0
BITMAP
98
74
C4
58
20
20
ENDCHAR
STARTCHAR 3085
ENCODING 12421
SWIDTH 960 0
DWIDTH 8 0
BBX 4 5 2 -1
BITMAP
60
B0
B0
20
40
ENDCHAR
STARTCHAR 3086
ENCODING 12422
SWIDTH 960 0
DWIDTH 8 0
BBX 5 6 1 0
BITMAP
B0
D8
98
B8
90
20
ENDCHAR
STARTCHAR 3087
ENCODING 12423
SWIDTH 960 0
DWIDTH 8 0
BBX 4 4 2 0
BITMAP
40
40
40
F0
ENDCHAR
STARTCHAR 3088
ENCODING 12424
SWIDTH 960 0
DWIDTH 8 0
BBX 4 6 2 -1
BITMAP
40
60
40
40
F0
80
ENDCHAR
STARTCHAR 3089
ENCODING 12425
SWIDTH 960 0
DWIDTH 8 0
BBX 4 6 2 0
BITMAP
40
80
80
F0
10
60
ENDCHAR
STARTCHAR 308A
ENCODING 12426
SWIDTH 960 0
DWIDTH 8 0
BBX 4 5 2 -1
BITMAP
90
90
90
90
20
ENDCHAR
STARTCHAR 308B
ENCODING 12427
SWIDTH 960 0
DWIDTH 8 0
BBX 5 6 1 -1
BITMAP
70
20
58
A8
58
30
ENDCHAR
STARTCHAR 308C
ENCODING 12428
SWIDTH 960 0
DWIDTH 8 0
BBX 6 6 1 -1
BITMAP
40
F0
48
88
4C
08
ENDCHAR
STARTCHAR 308D
ENCODING 12429
SWIDTH 960 0
DWIDTH 8 0
BBX 5 6 1 -1
BITMAP
70
20
78
88
08
10
ENDCHAR
STARTCHAR 308E
ENCODING 12430
SWIDTH 960 0
DWIDTH 8 0
BBX 4 4 2 0
BITMAP
80
F0
90
90
ENDCHAR
STARTCHAR 308F
ENCODING 12431
SWIDTH 960 0
DWIDTH 8 0
BBX 6 6 1 -1
BITMAP
40
F8
44
C4
48
40
ENDCHAR
STARTCHAR 3090
ENCODING 12432
SWIDTH 960 0
DWIDTH 8 0
BBX 6 6 1 -1
BITMAP
70
30
68
D4
E8
10
ENDCHAR
STARTCHAR 3091
ENCODING 12433
SWIDTH 960 0
DWIDTH 8 0
BBX 5 7 1 -1
BITMAP
30
10
68
28
30
58
A0
ENDCHAR
STARTCHAR 3092
ENCODING 12434
SWIDTH 960 0
DWIDTH 8 0
BBX 4 6 2 0
BITMAP
40
C0
B0
60
80
60
ENDCHAR
STARTCHAR 3093
ENCODING 12435
SWIDTH 960 0
DWIDTH 8 0
BBX 5 5 1 -1
BITMAP
20
20
60
50
98
ENDCHAR
STARTCHAR 30A1
ENCODING 12449
SWIDTH 960 0
DWIDTH 8 0
BBX 3 4 3 0
BITMAP
E0
C0
80
80
ENDCHAR
STARTCHAR 30A2
ENCODING 12450
SWIDTH 960 0
DWIDTH 8 0
BBX 4 5 2 -1
BITMAP
F0
50
60
40
80
ENDCHAR
STARTCHAR 30A3
ENCODING 12451
SWIDTH 960 0
DWIDTH 8 0
BBX 3 4 2 -1
BITMAP
20
40
A0
20
ENDCHAR
STARTCHAR 30A4
ENCODING 12452
SWIDTH 960 0
DWIDTH 8 0
BBX 4 5 2 -1
BITMAP
10
60
A0
20
20
ENDCHAR
STARTCHAR 30A5
ENCODING 12453
SWIDTH 960 0
DWIDTH 8 0
BBX 4 5 2 -1
BITMAP
F0
90
10
20
40
ENDCHAR
STARTCHAR 30A6
ENCODING 12454
SWIDTH 960 0
DWIDTH 8 0
BBX 5 6 1 -1
BITMAP
70
88
88
08
10
20
ENDCHAR
STARTCHAR 30A7
ENCODING 12455
SWIDTH 960 0
DWIDTH 8 0
BBX 4 3 2 0
BITMAP
60
40
F0
ENDCHAR
STARTCHAR 30A8
ENCODING 12456
SWIDTH 960 0
DWIDTH 8 0
BBX 5 4 1 0
BITMAP
70
20
20
F8
ENDCHAR
STARTCHAR 30A9
ENCODING 12457
SWIDTH 960 0
DWIDTH 8 0
BBX 3 5 2 -1
BITMAP
20
60
60
A0
40
ENDCHAR
STARTCHAR 30AA
ENCODING 12458
SWIDTH 960 0
DWIDTH 8 0
BBX 4 6 2 -1
BITMAP
20
F0
60
A0
20
40
ENDCHAR
STARTCHAR 30AB
ENCODING 12459
SWIDTH 960 0
DWIDTH 8 0
BBX 4 6 2 -1
BITMAP
40
F0
50
50
90
20
ENDCHAR
STARTCHAR 30AC
ENCODING 12460
SWIDTH 960 0
DWIDTH 8 0
BBX 5 5 1 0
BITMAP
40
F0
48
48
90
ENDCHAR
STARTCHAR 30AD
ENCODING 12461
SWIDTH 960 0
DWIDTH 8 0
BBX 5 5 1 0
BITMAP
20
70
28
F0
20
ENDCHAR
STARTCHAR 30AE
ENCODING 12462
SWIDTH 960 0
DWIDTH 8 0
BBX 4 6 1 0
BITMAP
40
F0
20
F0
20
20
ENDCHAR
STARTCHAR 30AF
ENCODING 12463
SWIDTH 960 0
DWIDTH 8 0
BBX 4 6 2 -1
BITMAP
60
90
10
20
40
80
ENDCHAR
STARTCHAR 30B0
ENCODING 12464
SWIDTH 960 0
DWIDTH 8 0
BBX 4 6 1 0
BITMAP
60
90
10
20
40
80
ENDCHAR
STARTCHAR 30B1
ENCODING 12465
SWIDTH 960 0
DWIDTH 8 0
BBX 5 5 1 0
BITMAP
40
78
90
10
20
ENDCHAR
STARTCHAR 30B2
ENCODING 12466
SWIDTH 960 0
DWIDTH 8 0
BBX 6 7 1 -1
BITMAP
04
40
B0
10
20
20
40
ENDCHAR
STARTCHAR 30B3
ENCODING 12467
SWIDTH 960 0
DWIDTH 8 0
BBX 4 4 2 0
BITMAP
F0
10
10
F0
ENDCHAR
STARTCHAR 30B4
ENCODING 12468
SWIDTH 960 0
DWIDTH 8 0
BBX 4 5 1 1
BITMAP
E0
10
10
10
F0
ENDCHAR
STARTCHAR 30B5
ENCODING 12469
SWIDTH 960 0
DWIDTH 8 0
BBX 6 6 1 -1
BITMAP
48
FC
50
10
10
20
ENDCHAR
STARTCHAR 30B6
ENCODING 12470
SWIDTH 960 0
DWIDTH 8 0
BBX 7 6 0 -1
BITMAP
02
28
FC
28
08
10
ENDCHAR
STARTCHAR 30B7
ENCODING 12471
SWIDTH 960 0
DWIDTH 8 0
BBX 5 5 1 0
BITMAP
40
80
08
10
60
ENDCHAR
STARTCHAR 30B8
ENCODING 12472
SWIDTH 960 0
DWIDTH 8 0
BBX 5 5 1 0
BITMAP
48
80
08
10
60
ENDCHAR
STARTCHAR 30B9
ENCODING 12473
SWIDTH 960 0
DWIDTH 8 0
BBX 5 5 1 0
BITMAP
70
10
10
28
C8
ENDCHAR
STARTCHAR 30BA
ENCODING 12474
SWIDTH 960 0
DWIDTH 8 0
BBX 5 5 1 1
BITMAP
E0
10
20
50
88
ENDCHAR
STARTCHAR 30BB
ENCODING 12475
SWIDTH 960 0
DWIDTH 8 0
BBX 5 5 1 0
BITMAP
40
78
C8
40
78
ENDCHAR
STARTCHAR 30BC
ENCODING 12476
SWIDTH 960 0
DWIDTH 8 0
BBX 6 6 1 0
BITMAP
04
40
78
D0
40
70
ENDCHAR
STARTCHAR 30BD
ENCODING 12477
SWIDTH 960 0
DWIDTH 8 0
BBX 5 5 1 0
BITMAP
88
48
10
10
20
ENDCHAR
STARTCHAR 30BE
ENCODING 12478
SWIDTH 960 0
DWIDTH 8 0
BBX 7 6 0 -1
BITMAP
06
88
48
08
10
20
ENDCHAR
STARTCHAR 30BF
ENCODING 12479
SWIDTH 960 0
DWIDTH 8 0
BBX 4 6 2 0
BITMAP
60
90
50
20
40
80
ENDCHAR
STARTCHAR 30C0
ENCODING 12480
SWIDTH 960 0
DWIDTH 8 0
BBX 6 7 1 -1
BITMAP
04
60
90
50
20
50
80
ENDCHAR
STARTCHAR 30C1
ENCODING 12481
SWIDTH 960 0
DWIDTH 8 0
BBX 5 6 1 0
BITMAP
70
20
F8
20
20
40
ENDCHAR
STARTCHAR 30C2
ENCODING 12482
SWIDTH 960 0
DWIDTH 8 0
BBX 6 7 1 -1
BITMAP
10
E4
20
F0
20
40
80
ENDCHAR
STARTCHAR 30C3
ENCODING 12483
SWIDTH 960 0
DWIDTH 8 0
BBX 3 4 3 -1
BITMAP
A0
20
40
80
ENDCHAR
STARTCHAR 30C4
ENCODING 12484
SWIDTH 960 0
DWIDTH 8 0
BBX 6 5 1 0
BITMAP
A4
A8
08
10
20
ENDCHAR
STARTCHAR 30C5
ENCODING 12485
SWIDTH 960 0
DWIDTH 8 0
BBX 7 6 0 0
BITMAP
02
A0
48
08
10
20
ENDCHAR
STARTCHAR 30C6
ENCODING 12486
SWIDTH 960 0
DWIDTH 8 0
BBX 5 6 1 -1
BITMAP
30
F8
20
20
20
40
ENDCHAR
STARTCHAR 30C7
ENCODING 12487
SWIDTH 960 0
DWIDTH 8 0
BBX 6 6 1 -1
BITMAP
0C
60
F8
20
20
40
ENDCHAR
STARTCHAR 30C8
ENCODING 12488
SWIDTH 960 0
DWIDTH 8 0
BBX 3 6 2 -1
BITMAP
80
80
E0
80
80
80
ENDCHAR
STARTCHAR 30C9
ENCODING 12489
SWIDTH 960 0
DWIDTH 8 0
BBX 3 6 2 0
BITMAP
A0
80
E0
80
80
80
ENDCHAR
STARTCHAR 30CA
ENCODING 12490
SWIDTH 960 0
DWIDTH 8 0
BBX 6 6 1 -1
BITMAP
20
FC
20
20
20
40
ENDCHAR
STARTCHAR 30CB
ENCODING 12491
SWIDTH 960 0
DWIDTH 8 0
BBX 5 5 1 0
BITMAP
78
00
00
00
F8
ENDCHAR
STARTCHAR 30CC
ENCODING 12492
SWIDTH 960 0
DWIDTH 8 0
BBX 4 5 2 0
BITMAP
70
10
60
60
90
ENDCHAR
STARTCHAR 30CD
ENCODING 12493
SWIDTH 960 0
DWIDTH 8 0
BBX 5 7 1 -1
BITMAP
20
70
10
20
E8
20
20
ENDCHAR
STARTCHAR 30CE
ENCODING 12494
SWIDTH 960 0
DWIDTH 8 0
BBX 4 5 2 0
BITMAP
10
20
20
40
80
ENDCHAR
STARTCHAR 30CF
ENCODING 12495
SWIDTH 960 0
DWIDTH 8 0
BBX 6 3 1 1
BITMAP
48
48
84
ENDCHAR
STARTCHAR 30D0
ENCODING 12496
SWIDTH 960 0
DWIDTH 8 0
BBX 5 3 1 1
BITMAP
50
48
88
ENDCHAR
STARTCHAR 30D1
ENCODING 12497
SWIDTH 960 0
DWIDTH 8 0
BBX 6 4 1 1
BITMAP
0C
50
48
88
ENDCHAR
STARTCHAR 30D2
ENCODING 12498
SWIDTH 960 0
DWIDTH 8 0
BBX 4 5 2 0
BITMAP
80
E0
80
80
F0
ENDCHAR
STARTCHAR 30D3
ENCODING 12499
SWIDTH 960 0
DWIDTH 8 0
BBX 4 5 1 1
BITMAP
80
B0
C0
80
F0
ENDCHAR
STARTCHAR 30D4
ENCODING 12500
SWIDTH 960 0
DWIDTH 8 0
BBX 5 6 1 0
BITMAP
08
88
B0
C0
80
F0
ENDCHAR
STARTCHAR 30D5
ENCODING 12501
SWIDTH 960 0
DWIDTH 8 0
BBX 5 5 1 0
BITMAP
F8
08
08
10
20
ENDCHAR
STARTCHAR 30D6
ENCODING 12502
SWIDTH 960 0
DWIDTH 8 0
BBX 6 6 1 0
BITMAP
0C
F0
10
10
20
40
ENDCHAR
STARTCHAR 30D7
ENCODING 12503
SWIDTH 960 0
DWIDTH 8 0
BBX 6 6 1 0
BITMAP
0C
F0
10
10
20
40
ENDCHAR
STARTCHAR 30D8
ENCODING 12504
SWIDTH 960 0
DWIDTH 8 0
BBX 5 3 1 1
BITMAP
60
90
08
ENDCHAR
STARTCHAR 30D9
ENCODING 12505
SWIDTH 960 0
DWIDTH 8 0
BBX 5 3 1 2
BITMAP
68
90
08
ENDCHAR
STARTCHAR 30DA
ENCODING 12506
SWIDTH 960 0
DWIDTH 8 0
BBX 5 4 1 1
BITMAP
08
68
90
08
ENDCHAR
STARTCHAR 30DB
ENCODING 12507
SWIDTH 960 0
DWIDTH 8 0
BBX 5 6 1 -1
BITMAP
20
F8
28
A8
20
20
ENDCHAR
STARTCHAR 30DC
ENCODING 12508
SWIDTH 960 0
DWIDTH 8 0
BBX 6 7 1 -1
BITMAP
04
20
F8
20
A8
20
20
ENDCHAR
STARTCHAR 30DD
ENCODING 12509
SWIDTH 960 0
DWIDTH 8 0
BBX 6 7 1 -1
BITMAP
0C
20
F8
20
A8
20
20
ENDCHAR
STARTCHAR 30DE
ENCODING 12510
SWIDTH 960 0
DWIDTH 8 0
BBX 4 4 2 0
BITMAP
F0
10
60
20
ENDCHAR
STARTCHAR 30DF
ENCODING 12511
SWIDTH 960 0
DWIDTH 8 0
BBX 3 5 2 0
BITMAP
60
80
60
00
60
ENDCHAR
STARTCHAR 30E0
ENCODING 12512
SWIDTH 960 0
DWIDTH 8 0
BBX 6 5 1 0
BITMAP
20
20
40
48
FC
ENDCHAR
STARTCHAR 30E1
ENCODING 12513
SWIDTH 960 0
DWIDTH 8 0
BBX 4 5 2 0
BITMAP
10
50
20
50
80
ENDCHAR
STARTCHAR 30E2
ENCODING 12514
SWIDTH 960 0
DWIDTH 8 0
BBX 5 5 1 0
BITMAP
78
20
F8
20
38
ENDCHAR
STARTCHAR 30E3
ENCODING 12515
SWIDTH 960 0
DWIDTH 8 0
BBX 4 5 2 -1
BITMAP
80
F0
40
40
40
ENDCHAR
STARTCHAR 30E4
ENCODING 12516
SWIDTH 960 0
DWIDTH 8 0
BBX 5 6 2 -1
BITMAP
80
F8
50
40
40
40
ENDCHAR
STARTCHAR 30E5
ENCODING 12517
SWIDTH 960 0
DWIDTH 8 0
BBX 3 3 2 0
BITMAP
60
20
E0
ENDCHAR
STARTCHAR 30E6
ENCODING 12518
SWIDTH 960 0
DWIDTH 8 0
BBX 6 5 1 0
BITMAP
78
08
10
10
FC
ENDCHAR
STARTCHAR 30E7
ENCODING 12519
SWIDTH 960 0
DWIDTH 8 0
BBX 4 4 2 0
BITMAP
F0
10
F0
F0
ENDCHAR
STARTCHAR 30E8
ENCODING 12520
SWIDTH 960 0
DWIDTH 8 0
BBX 4 5 2 0
BITMAP
F0
10
F0
10
F0
ENDCHAR
STARTCHAR 30E9
ENCODING 12521
SWIDTH 960 0
DWIDTH 8 0
BBX 5 6 1 -1
BITMAP
30
F8
08
10
10
20
ENDCHAR
STARTCHAR 30EA
ENCODING 12522
SWIDTH 960 0
DWIDTH 8 0
BBX 3 6 2 -1
BITMAP
A0
A0
A0
20
20
40
ENDCHAR
STARTCHAR 30EB
ENCODING 12523
SWIDTH 960 0
DWIDTH 8 0
BBX 6 5 1 0
BITMAP
60
60
64
A8
90
ENDCHAR
STARTCHAR 30EC
ENCODING 12524
SWIDTH 960 0
DWIDTH 8 0
BBX 5 5 1 0
BITMAP
80
80
88
90
E0
ENDCHAR
STARTCHAR 30ED
ENCODING 12525
SWIDTH 960 0
DWIDTH 8 0
BBX 4 5 2 0
BITMAP
F0
10
10
10
F0
ENDCHAR
STARTCHAR 30EE
ENCODING 12526
SWIDTH 960 0
DWIDTH 8 0
BBX 4 5 2 -1
BITMAP
F0
90
10
20
40
ENDCHAR
STARTCHAR 30EF
ENCODING 12527
SWIDTH 960 0
DWIDTH 8 0
BBX 5 5 1 0
BITMAP
F8
88
08
08
10
ENDCHAR
STARTCHAR 30F0
ENCODING 12528
SWIDTH 960 0
DWIDTH 8 0
BBX 6 7 1 -1
BITMAP
10
10
78
50
FC
10
10
ENDCHAR
STARTCHAR 30F1
ENCODING 12529
SWIDTH 960 0
DWIDTH 8 0
BBX 6 5 1 0
BITMAP
78
08
30
20
FC
ENDCHAR
STARTCHAR 30F2
ENCODING 12530
SWIDTH 960 0
DWIDTH 8 0
BBX 4 5 2 0
BITMAP
F0
10
F0
20
40
ENDCHAR
STARTCHAR 30F3
ENCODING 12531
SWIDTH 960 0
DWIDTH 8 0
BBX 5 5 1 0
BITMAP
80
00
08
30
40
ENDCHAR
STARTCHAR 30F4
ENCODING 12532
SWIDTH 960 0
DWIDTH 8 0
BBX 6 6 1 -1
BITMAP
0C
70
88
10
10
20
ENDCHAR
STARTCHAR 30F5
ENCODING 12533
SWIDTH 960 0
DWIDTH 8 0
BBX 4 4 2 0
BITMAP
40
70
50
90
ENDCHAR
STARTCHAR 30F6
ENCODING 12534
SWIDTH 960 0
DWIDTH 8 0
BBX 3 4 2 -1
BITMAP
40
A0
20
40
ENDCHAR
STARTCHAR 30FB
ENCODING 12539
SWIDTH 240 0
DWIDTH 2 0
BBX 1 1 1 2
BITMAP
80
ENDCHAR
STARTCHAR 30FC
ENCODING 12540
SWIDTH 960 0
DWIDTH 8 0
BBX 7 1 0 2
BITMAP
FE
ENDCHAR
STARTCHAR 3131
ENCODING 12593
SWIDTH 960 0
DWIDTH 8 0
BBX 4 3 2 1
BITMAP
F0
10
10
ENDCHAR
STARTCHAR 3132
ENCODING 12594
SWIDTH 960 0
DWIDTH 8 0
BBX 5 3 1 1
BITMAP
F8
28
28
ENDCHAR
STARTCHAR 3133
ENCODING 12595
SWIDTH 960 0
DWIDTH 8 0
BBX 6 3 1 1
BITMAP
D0
58
24
ENDCHAR
STARTCHAR 3134
ENCODING 12596
SWIDTH 960 0
DWIDTH 8 0
BBX 4 3 2 1
BITMAP
80
80
F0
ENDCHAR
STARTCHAR 3135
ENCODING 12597
SWIDTH 960 0
DWIDTH 8 0
BBX 5 3 1 1
BITMAP
B8
88
D8
ENDCHAR
STARTCHAR 3136
ENCODING 12598
SWIDTH 960 0
DWIDTH 8 0
BBX 5 3 1 1
BITMAP
B8
98
F8
ENDCHAR
STARTCHAR 3137
ENCODING 12599
SWIDTH 960 0
DWIDTH 8 0
BBX 4 3 2 1
BITMAP
F0
80
F0
ENDCHAR
STARTCHAR 3138
ENCODING 12600
SWIDTH 960 0
DWIDTH 8 0
BBX 5 3 1 1
BITMAP
D8
90
F8
ENDCHAR
STARTCHAR 3139
ENCODING 12601
SWIDTH 960 0
DWIDTH 8 0
BBX 4 3 2 1
BITMAP
F0
F0
F0
ENDCHAR
STARTCHAR 313A
ENCODING 12602
SWIDTH 960 0
DWIDTH 8 0
BBX 5 3 1 1
BITMAP
F8
E8
E8
ENDCHAR
STARTCHAR 313B
ENCODING 12603
SWIDTH 960 0
DWIDTH 8 0
BBX 5 3 1 1
BITMAP
F8
F8
F8
ENDCHAR
STARTCHAR 313C
ENCODING 12604
SWIDTH 960 0
DWIDTH 8 0
BBX 5 3 1 1
BITMAP
E8
F8
F8
ENDCHAR
STARTCHAR 313D
ENCODING 12605
SWIDTH 960 0
DWIDTH 8 0
BBX 5 3 1 1
BITMAP
D0
D0
D8
ENDCHAR
STARTCHAR 313E
ENCODING 12606
SWIDTH 960 0
DWIDTH 8 0
BBX 5 3 1 1
BITMAP
D8
D8
F8
ENDCHAR
STARTCHAR 313F
ENCODING 12607
SWIDTH 960 0
DWIDTH 8 0
BBX 5 3 1 1
BITMAP
D8
D8
F8
ENDCHAR
STARTCHAR 3140
ENCODING 12608
SWIDTH 960 0
DWIDTH 8 0
BBX 5 3 1 1
BITMAP
D8
D8
F8
ENDCHAR
STARTCHAR 3141
ENCODING 12609
SWIDTH 960 0
DWIDTH 8 0
BBX 4 3 2 1
BITMAP
F0
90
F0
ENDCHAR
STARTCHAR 3142
ENCODING 12610
SWIDTH 960 0
DWIDTH 8 0
BBX 4 3 2 1
BITMAP
90
F0
F0
ENDCHAR
STARTCHAR 3143
ENCODING 12611
SWIDTH 960 0
DWIDTH 8 0
BBX 5 3 1 1
BITMAP
B8
F8
F8
ENDCHAR
STARTCHAR 3144
ENCODING 12612
SWIDTH 960 0
DWIDTH 8 0
BBX 5 3 1 1
BITMAP
90
D0
E8
ENDCHAR
STARTCHAR 3145
ENCODING 12613
SWIDTH 960 0
DWIDTH 8 0
BBX 4 3 2 1
BITMAP
40
60
90
ENDCHAR
STARTCHAR 3146
ENCODING 12614
SWIDTH 960 0
DWIDTH 8 0
BBX 6 3 1 1
BITMAP
50
FC
20
ENDCHAR
STARTCHAR 3147
ENCODING 12615
SWIDTH 960 0
DWIDTH 8 0
BBX 4 3 2 1
BITMAP
E0
90
E0
ENDCHAR
STARTCHAR 3148
ENCODING 12616
SWIDTH 960 0
DWIDTH 8 0
BBX 5 3 1 1
BITMAP
70
20
D8
ENDCHAR
STARTCHAR 3149
ENCODING 12617
SWIDTH 960 0
DWIDTH 8 0
BBX 5 3 1 1
BITMAP
F8
58
A0
ENDCHAR
STARTCHAR 314A
ENCODING 12618
SWIDTH 960 0
DWIDTH 8 0
BBX 5 4 1 1
BITMAP
30
78
30
C8
ENDCHAR
STARTCHAR 314B
ENCODING 12619
SWIDTH 960 0
DWIDTH 8 0
BBX 4 3 2 1
BITMAP
F0
F0
10
ENDCHAR
STARTCHAR 314C
ENCODING 12620
SWIDTH 960 0
DWIDTH 8 0
BBX 4 3 2 1
BITMAP
F0
F0
F0
ENDCHAR
STARTCHAR 314D
ENCODING 12621
SWIDTH 960 0
DWIDTH 8 0
BBX 4 3 2 1
BITMAP
F0
A0
F0
ENDCHAR
STARTCHAR 314E
ENCODING 12622
SWIDTH 960 0
DWIDTH 8 0
BBX 4 5 2 0
BITMAP
60
F0
E0
90
E0
ENDCHAR
STARTCHAR 314F
ENCODING 12623
SWIDTH 960 0
DWIDTH 8 0
BBX 2 7 3 -1
BITMAP
80
80
80
C0
80
80
80
ENDCHAR
STARTCHAR 3150
ENCODING 12624
SWIDTH 960 0
DWIDTH 8 0
BBX 3 7 2 -1
BITMAP
A0
A0
A0
E0
A0
A0
A0
ENDCHAR
STARTCHAR 3151
ENCODING 12625
SWIDTH 960 0
DWIDTH 8 0
BBX 2 7 3 -1
BITMAP
80
80
C0
80
C0
80
80
ENDCHAR
STARTCHAR 3152
ENCODING 12626
SWIDTH 960 0
DWIDTH 8 0
BBX 3 7 2 -1
BITMAP
A0
A0
E0
A0
E0
A0
A0
ENDCHAR
STARTCHAR 3153
ENCODING 12627
SWIDTH 960 0
DWIDTH 8 0
BBX 2 7 3 -1
BITMAP
40
40
40
C0
40
40
40
ENDCHAR
STARTCHAR 3154
ENCODING 12628
SWIDTH 960 0
DWIDTH 8 0
BBX 3 7 2 -1
BITMAP
60
60
60
E0
60
60
60
ENDCHAR
STARTCHAR 3155
ENCODING 12629
SWIDTH 960 0
DWIDTH 8 0
BBX 2 7 3 -1
BITMAP
40
40
C0
40
C0
40
40
ENDCHAR
STARTCHAR 3156
ENCODING 12630
SWIDTH 960 0
DWIDTH 8 0
BBX 3 7 2 -1
BITMAP
60
60
E0
60
E0
60
60
ENDCHAR
STARTCHAR 3157
ENCODING 12631
SWIDTH 960 0
DWIDTH 8 0
BBX 7 3 0 1
BITMAP
10
10
FE
ENDCHAR
STARTCHAR 3158
ENCODING 12632
SWIDTH 960 0
DWIDTH 8 0
BBX 7 7 0 -1
BITMAP
04
04
04
26
24
FC
04
ENDCHAR
STARTCHAR 3159
ENCODING 12633
SWIDTH 960 0
DWIDTH 8 0
BBX 6 7 1 -1
BITMAP
0C
0C
0C
4C
4C
F4
0C
ENDCHAR
STARTCHAR 315A
ENCODING 12634
SWIDTH 960 0
DWIDTH 8 0
BBX 6 7 1 -1
BITMAP
04
04
04
24
24
FC
04
ENDCHAR
STARTCHAR 315B
ENCODING 12635
SWIDTH 960 0
DWIDTH 8 0
BBX 7 3 0 1
BITMAP
28
28
FE
ENDCHAR
STARTCHAR 315C
ENCODING 12636
SWIDTH 960 0
DWIDTH 8 0
BBX 7 3 0 0
BITMAP
FE
10
10
ENDCHAR
STARTCHAR 315D
ENCODING 12637
SWIDTH 960 0
DWIDTH 8 0
BBX 6 7 1 -1
BITMAP
04
04
04
FC
24
2C
24
ENDCHAR
STARTCHAR 315E
ENCODING 12638
SWIDTH 960 0
DWIDTH 8 0
BBX 6 7 1 -1
BITMAP
0C
0C
0C
FC
4C
5C
4C
ENDCHAR
STARTCHAR 315F
ENCODING 12639
SWIDTH 960 0
DWIDTH 8 0
BBX 6 7 1 -1
BITMAP
04
04
04
FC
24
24
24
ENDCHAR
STARTCHAR 3160
ENCODING 12640
SWIDTH 960 0
DWIDTH 8 0
BBX 7 3 0 0
BITMAP
FE
24
24
ENDCHAR
STARTCHAR 3161
ENCODING 12641
SWIDTH 960 0
DWIDTH 8 0
BBX 7 1 0 1
BITMAP
FE
ENDCHAR
STARTCHAR 3162
ENCODING 12642
SWIDTH 960 0
DWIDTH 8 0
BBX 6 7 1 -1
BITMAP
04
04
04
04
04
FC
04
ENDCHAR
STARTCHAR 3163
ENCODING 12643
SWIDTH 960 0
DWIDTH 8 0
BBX 1 7 3 -1
BITMAP
80
80
80
80
80
80
80
ENDCHAR
STARTCHAR 3164
ENCODING 12644
SWIDTH 960 0
DWIDTH 8 0
BBX 0 0 0 0
BITMAP
ENDCHAR
STARTCHAR 3165
ENCODING 12645
SWIDTH 960 0
DWIDTH 8 0
BBX 4 3 1 1
BITMAP
90
90
D0
ENDCHAR
STARTCHAR 3166
ENCODING 12646
SWIDTH 960 0
DWIDTH 8 0
BBX 4 3 1 1
BITMAP
90
90
D0
ENDCHAR
STARTCHAR 3167
ENCODING 12647
SWIDTH 960 0
DWIDTH 8 0
BBX 5 3 1 1
BITMAP
90
90
98
ENDCHAR
STARTCHAR 3168
ENCODING 12648
SWIDTH 960 0
DWIDTH 8 0
BBX 5 3 1 1
BITMAP
90
98
D8
ENDCHAR
STARTCHAR 3169
ENCODING 12649
SWIDTH 960 0
DWIDTH 8 0
BBX 7 3 0 1
BITMAP
4C
4C
CA
ENDCHAR
STARTCHAR 316A
ENCODING 12650
SWIDTH 960 0
DWIDTH 8 0
BBX 4 3 1 1
BITMAP
70
D0
D0
ENDCHAR
STARTCHAR 316B
ENCODING 12651
SWIDTH 960 0
DWIDTH 8 0
BBX 6 3 1 1
BITMAP
D8
F8
F4
ENDCHAR
STARTCHAR 316C
ENCODING 12652
SWIDTH 960 0
DWIDTH 8 0
BBX 5 3 1 1
BITMAP
68
D8
D8
ENDCHAR
STARTCHAR 316D
ENCODING 12653
SWIDTH 960 0
DWIDTH 8 0
BBX 5 3 1 1
BITMAP
60
D8
D8
ENDCHAR
STARTCHAR 316E
ENCODING 12654
SWIDTH 960 0
DWIDTH 8 0
BBX 5 3 1 1
BITMAP
E8
B8
F8
ENDCHAR
STARTCHAR 316F
ENCODING 12655
SWIDTH 960 0
DWIDTH 8 0
BBX 5 3 1 1
BITMAP
D0
D0
D8
ENDCHAR
STARTCHAR 3170
ENCODING 12656
SWIDTH 960 0
DWIDTH 8 0
BBX 5 3 1 1
BITMAP
F0
B8
F8
ENDCHAR
STARTCHAR 3171
ENCODING 12657
SWIDTH 960 0
DWIDTH 8 0
BBX 4 5 2 0
BITMAP
F0
90
F0
40
E0
ENDCHAR
STARTCHAR 3172
ENCODING 12658
SWIDTH 960 0
DWIDTH 8 0
BBX 5 3 1 1
BITMAP
A8
E8
E8
ENDCHAR
STARTCHAR 3173
ENCODING 12659
SWIDTH 960 0
DWIDTH 8 0
BBX 4 3 1 1
BITMAP
B0
D0
F0
ENDCHAR
STARTCHAR 3174
ENCODING 12660
SWIDTH 960 0
DWIDTH 8 0
BBX 6 3 1 1
BITMAP
D4
D4
F4
ENDCHAR
STARTCHAR 3175
ENCODING 12661
SWIDTH 960 0
DWIDTH 8 0
BBX 5 3 1 1
BITMAP
E8
E8
F8
ENDCHAR
STARTCHAR 3176
ENCODING 12662
SWIDTH 960 0
DWIDTH 8 0
BBX 5 3 1 1
BITMAP
D8
C8
D8
ENDCHAR
STARTCHAR 3177
ENCODING 12663
SWIDTH 960 0
DWIDTH 8 0
BBX 5 3 1 1
BITMAP
B0
F8
F0
ENDCHAR
STARTCHAR 3178
ENCODING 12664
SWIDTH 960 0
DWIDTH 8 0
BBX 4 5 2 0
BITMAP
90
F0
F0
40
E0
ENDCHAR
STARTCHAR 3179
ENCODING 12665
SWIDTH 960 0
DWIDTH 8 0
BBX 5 5 1 0
BITMAP
A8
F8
F8
20
70
ENDCHAR
STARTCHAR 317A
ENCODING 12666
SWIDTH 960 0
DWIDTH 8 0
BBX 4 3 2 1
BITMAP
90
90
D0
ENDCHAR
STARTCHAR 317B
ENCODING 12667
SWIDTH 960 0
DWIDTH 8 0
BBX 4 3 1 1
BITMAP
50
50
B0
ENDCHAR
STARTCHAR 317C
ENCODING 12668
SWIDTH 960 0
DWIDTH 8 0
BBX 4 3 1 1
BITMAP
50
50
B0
ENDCHAR
STARTCHAR 317D
ENCODING 12669
SWIDTH 960 0
DWIDTH 8 0
BBX 5 3 1 1
BITMAP
58
58
B8
ENDCHAR
STARTCHAR 317E
ENCODING 12670
SWIDTH 960 0
DWIDTH 8 0
BBX 6 3 1 1
BITMAP
48
48
D4
ENDCHAR
STARTCHAR 317F
ENCODING 12671
SWIDTH 960 0
DWIDTH 8 0
BBX 3 3 2 1
BITMAP
40
60
E0
ENDCHAR
STARTCHAR 3180
ENCODING 12672
SWIDTH 960 0
DWIDTH 8 0
BBX 5 3 1 1
BITMAP
D8
B8
F8
ENDCHAR
STARTCHAR 3181
ENCODING 12673
SWIDTH 960 0
DWIDTH 8 0
BBX 4 5 2 0
BITMAP
40
A0
90
90
60
ENDCHAR
STARTCHAR 3182
ENCODING 12674
SWIDTH 960 0
DWIDTH 8 0
BBX 5 4 1 0
BITMAP
C8
A8
B8
40
ENDCHAR
STARTCHAR 3183
ENCODING 12675
SWIDTH 960 0
DWIDTH 8 0
BBX 5 4 1 0
BITMAP
48
B8
B8
40
ENDCHAR
STARTCHAR 3184
ENCODING 12676
SWIDTH 960 0
DWIDTH 8 0
BBX 5 5 1 0
BITMAP
78
50
F8
20
70
ENDCHAR
STARTCHAR 3185
ENCODING 12677
SWIDTH 960 0
DWIDTH 8 0
BBX 6 3 1 1
BITMAP
FC
D8
FC
ENDCHAR
STARTCHAR 3186
ENCODING 12678
SWIDTH 960 0
DWIDTH 8 0
BBX 4 5 2 0
BITMAP
F0
60
90
90
60
ENDCHAR
STARTCHAR 3187
ENCODING 12679
SWIDTH 960 0
DWIDTH 8 0
BBX 7 7 0 -1
BITMAP
04
04
06
54
56
E4
04
ENDCHAR
STARTCHAR 3188
ENCODING 12680
SWIDTH 960 0
DWIDTH 8 0
BBX 6 7 1 -1
BITMAP
0C
0C
0C
AC
AC
4C
04
ENDCHAR
STARTCHAR 3189
ENCODING 12681
SWIDTH 960 0
DWIDTH 8 0
BBX 6 7 1 -1
BITMAP
04
04
04
54
54
E4
04
ENDCHAR
STARTCHAR 318A
ENCODING 12682
SWIDTH 960 0
DWIDTH 8 0
BBX 6 7 1 -1
BITMAP
04
04
04
F4
64
6C
44
ENDCHAR
STARTCHAR 318B
ENCODING 12683
SWIDTH 960 0
DWIDTH 8 0
BBX 6 7 1 -1
BITMAP
0C
0C
0C
EC
6C
7C
2C
ENDCHAR
STARTCHAR 318C
ENCODING 12684
SWIDTH 960 0
DWIDTH 8 0
BBX 6 7 1 -1
BITMAP
04
04
04
FC
54
54
54
ENDCHAR
STARTCHAR 318D
ENCODING 12685
SWIDTH 960 0
DWIDTH 8 0
BBX 1 1 3 2
BITMAP
80
ENDCHAR
STARTCHAR 318E
ENCODING 12686
SWIDTH 960 0
DWIDTH 8 0
BBX 3 7 2 -1
BITMAP
20
20
20
A0
20
20
20
ENDCHAR
STARTCHAR 3200
ENCODING 12800
SWIDTH 960 0
DWIDTH 8 0
BBX 7 7 0 -1
BITMAP
02
82
BE
86
86
82
02
ENDCHAR
STARTCHAR 3201
ENCODING 12801
SWIDTH 960 0
DWIDTH 8 0
BBX 7 7 0 -1
BITMAP
02
82
A2
A2
BE
82
02
ENDCHAR
STARTCHAR 3202
ENCODING 12802
SWIDTH 960 0
DWIDTH 8 0
BBX 7 7 0 -1
BITMAP
02
82
BE
A2
BE
82
02
ENDCHAR
STARTCHAR 3203
ENCODING 12803
SWIDTH 960 0
DWIDTH 8 0
BBX 7 7 0 -1
BITMAP
02
82
BE
BE
BE
82
02
ENDCHAR
STARTCHAR 3204
ENCODING 12804
SWIDTH 960 0
DWIDTH 8 0
BBX 7 7 0 -1
BITMAP
02
82
BE
A6
BE
82
02
ENDCHAR
STARTCHAR 3205
ENCODING 12805
SWIDTH 960 0
DWIDTH 8 0
BBX 7 7 0 -1
BITMAP
02
82
A6
BE
BE
82
02
ENDCHAR
STARTCHAR 3206
ENCODING 12806
SWIDTH 960 0
DWIDTH 8 0
BBX 7 7 0 -1
BITMAP
02
82
92
9A
A6
82
02
ENDCHAR
STARTCHAR 3207
ENCODING 12807
SWIDTH 960 0
DWIDTH 8 0
BBX 7 7 0 -1
BITMAP
02
82
BA
A6
BA
82
02
ENDCHAR
STARTCHAR 3208
ENCODING 12808
SWIDTH 960 0
DWIDTH 8 0
BBX 7 7 0 -1
BITMAP
02
82
BE
9A
A6
82
02
ENDCHAR
STARTCHAR 3209
ENCODING 12809
SWIDTH 960 0
DWIDTH 8 0
BBX 7 7 0 -1
BITMAP
02
9A
BE
9A
A6
82
02
ENDCHAR
STARTCHAR 320A
ENCODING 12810
SWIDTH 960 0
DWIDTH 8 0
BBX 7 7 0 -1
BITMAP
02
82
BE
9E
A6
82
02
ENDCHAR
STARTCHAR 320B
ENCODING 12811
SWIDTH 960 0
DWIDTH 8 0
BBX 7 7 0 -1
BITMAP
02
82
BE
BE
BE
82
02
ENDCHAR
STARTCHAR 320C
ENCODING 12812
SWIDTH 960 0
DWIDTH 8 0
BBX 7 7 0 -1
BITMAP
02
82
BE
AA
BE
82
02
ENDCHAR
STARTCHAR 320D
ENCODING 12813
SWIDTH 960 0
DWIDTH 8 0
BBX 7 7 0 -1
BITMAP
02
9A
FE
BA
A6
BA
02
ENDCHAR
STARTCHAR 320E
ENCODING 12814
SWIDTH 960 0
DWIDTH 8 0
BBX 7 7 0 -1
BITMAP
02
86
B6
96
96
E6
02
ENDCHAR
STARTCHAR 320F
ENCODING 12815
SWIDTH 960 0
DWIDTH 8 0
BBX 7 7 0 -1
BITMAP
02
86
C6
C6
C6
B6
02
ENDCHAR
STARTCHAR 3210
ENCODING 12816
SWIDTH 960 0
DWIDTH 8 0
BBX 7 7 0 -1
BITMAP
02
86
E6
C6
F6
86
02
ENDCHAR
STARTCHAR 3211
ENCODING 12817
SWIDTH 960 0
DWIDTH 8 0
BBX 7 7 0 -1
BITMAP
02
B6
8E
F6
F6
86
02
ENDCHAR
STARTCHAR 3212
ENCODING 12818
SWIDTH 960 0
DWIDTH 8 0
BBX 7 7 0 -1
BITMAP
02
86
F6
D6
D6
A6
02
ENDCHAR
STARTCHAR 3213
ENCODING 12819
SWIDTH 960 0
DWIDTH 8 0
BBX 7 7 0 -1
BITMAP
02
86
C6
F6
D6
A6
02
ENDCHAR
STARTCHAR 3214
ENCODING 12820
SWIDTH 960 0
DWIDTH 8 0
BBX 7 7 0 -1
BITMAP
02
86
A6
B6
D6
86
02
ENDCHAR
STARTCHAR 3215
ENCODING 12821
SWIDTH 960 0
DWIDTH 8 0
BBX 7 7 0 -1
BITMAP
02
F6
D6
D6
B6
86
02
ENDCHAR
STARTCHAR 3216
ENCODING 12822
SWIDTH 960 0
DWIDTH 8 0
BBX 7 7 0 -1
BITMAP
02
86
B6
B6
CE
86
02
ENDCHAR
STARTCHAR 3217
ENCODING 12823
SWIDTH 960 0
DWIDTH 8 0
BBX 7 7 0 -1
BITMAP
02
86
B6
B6
CE
86
02
ENDCHAR
STARTCHAR 3218
ENCODING 12824
SWIDTH 960 0
DWIDTH 8 0
BBX 7 7 0 -1
BITMAP
02
B6
96
B6
96
E6
02
ENDCHAR
STARTCHAR 3219
ENCODING 12825
SWIDTH 960 0
DWIDTH 8 0
BBX 7 7 0 -1
BITMAP
02
E6
C6
E6
F6
86
02
ENDCHAR
STARTCHAR 321A
ENCODING 12826
SWIDTH 960 0
DWIDTH 8 0
BBX 7 7 0 -1
BITMAP
02
86
B6
86
B6
86
02
ENDCHAR
STARTCHAR 321B
ENCODING 12827
SWIDTH 960 0
DWIDTH 8 0
BBX 7 7 0 -1
BITMAP
02
86
B6
B6
B6
86
02
ENDCHAR
STARTCHAR 321C
ENCODING 12828
SWIDTH 960 0
DWIDTH 8 0
BBX 7 7 0 -1
BITMAP
02
BE
9A
E6
BA
92
02
ENDCHAR
STARTCHAR 3231
ENCODING 12849
SWIDTH 960 0
DWIDTH 8 0
BBX 7 7 0 -1
BITMAP
02
A2
BA
BE
EE
BA
22
ENDCHAR
STARTCHAR 3239
ENCODING 12857
SWIDTH 960 0
DWIDTH 8 0
BBX 7 7 0 -1
BITMAP
02
A2
AE
EA
AA
AE
02
ENDCHAR
STARTCHAR 3251
ENCODING 12881
SWIDTH 960 0
DWIDTH 8 0
BBX 7 7 0 -1
BITMAP
3C
76
96
96
A6
B6
7C
ENDCHAR
STARTCHAR 3252
ENCODING 12882
SWIDTH 960 0
DWIDTH 8 0
BBX 7 7 0 -1
BITMAP
3C
6E
96
96
AA
7E
3C
ENDCHAR
STARTCHAR 3253
ENCODING 12883
SWIDTH 960 0
DWIDTH 8 0
BBX 7 7 0 -1
BITMAP
3C
66
96
96
A2
7E
3C
ENDCHAR
STARTCHAR 3254
ENCODING 12884
SWIDTH 960 0
DWIDTH 8 0
BBX 7 7 0 -1
BITMAP
3C
66
96
9E
AE
B6
7C
ENDCHAR
STARTCHAR 3255
ENCODING 12885
SWIDTH 960 0
DWIDTH 8 0
BBX 7 7 0 -1
BITMAP
3C
6E
92
9E
A6
7E
3C
ENDCHAR
STARTCHAR 3256
ENCODING 12886
SWIDTH 960 0
DWIDTH 8 0
BBX 7 7 0 -1
BITMAP
3C
6E
92
9E
AA
7E
3C
ENDCHAR
STARTCHAR 3257
ENCODING 12887
SWIDTH 960 0
DWIDTH 8 0
BBX 7 7 0 -1
BITMAP
3C
6E
96
96
AA
BA
7C
ENDCHAR
STARTCHAR 3258
ENCODING 12888
SWIDTH 960 0
DWIDTH 8 0
BBX 7 7 0 -1
BITMAP
3C
6E
D2
9E
AA
7E
3C
ENDCHAR
STARTCHAR 3259
ENCODING 12889
SWIDTH 960 0
DWIDTH 8 0
BBX 7 7 0 -1
BITMAP
3C
6E
92
9E
A2
7E
3C
ENDCHAR
STARTCHAR 325A
ENCODING 12890
SWIDTH 960 0
DWIDTH 8 0
BBX 7 7 0 -1
BITMAP
3C
6E
D2
AA
D2
AE
7C
ENDCHAR
STARTCHAR 3260
ENCODING 12896
SWIDTH 960 0
DWIDTH 8 0
BBX 7 7 0 -1
BITMAP
7C
82
BA
86
86
42
3C
ENDCHAR
STARTCHAR 3261
ENCODING 12897
SWIDTH 960 0
DWIDTH 8 0
BBX 7 7 0 -1
BITMAP
7C
82
A2
A2
BE
42
3C
ENDCHAR
STARTCHAR 3262
ENCODING 12898
SWIDTH 960 0
DWIDTH 8 0
BBX 7 7 0 -1
BITMAP
7C
82
BE
A2
BE
42
3C
ENDCHAR
STARTCHAR 3263
ENCODING 12899
SWIDTH 960 0
DWIDTH 8 0
BBX 7 7 0 -1
BITMAP
7C
82
BE
BE
BE
42
3C
ENDCHAR
STARTCHAR 3264
ENCODING 12900
SWIDTH 960 0
DWIDTH 8 0
BBX 7 7 0 -1
BITMAP
7C
82
BE
A6
BE
42
3C
ENDCHAR
STARTCHAR 3265
ENCODING 12901
SWIDTH 960 0
DWIDTH 8 0
BBX 7 7 0 -1
BITMAP
7C
82
A6
BE
BE
42
3C
ENDCHAR
STARTCHAR 3266
ENCODING 12902
SWIDTH 960 0
DWIDTH 8 0
BBX 7 7 0 -1
BITMAP
7C
82
92
9A
A6
42
3C
ENDCHAR
STARTCHAR 3267
ENCODING 12903
SWIDTH 960 0
DWIDTH 8 0
BBX 7 7 0 -1
BITMAP
7C
82
BA
A6
BA
82
7C
ENDCHAR
STARTCHAR 3268
ENCODING 12904
SWIDTH 960 0
DWIDTH 8 0
BBX 7 7 0 -1
BITMAP
7C
82
BE
9A
A6
42
3C
ENDCHAR
STARTCHAR 3269
ENCODING 12905
SWIDTH 960 0
DWIDTH 8 0
BBX 7 7 0 -1
BITMAP
7C
82
BE
9A
A6
42
3C
ENDCHAR
STARTCHAR 326A
ENCODING 12906
SWIDTH 960 0
DWIDTH 8 0
BBX 7 7 0 -1
BITMAP
7C
82
BE
BE
86
42
3C
ENDCHAR
STARTCHAR 326B
ENCODING 12907
SWIDTH 960 0
DWIDTH 8 0
BBX 7 7 0 -1
BITMAP
7C
82
BE
BE
BE
42
3C
ENDCHAR
STARTCHAR 326C
ENCODING 12908
SWIDTH 960 0
DWIDTH 8 0
BBX 7 7 0 -1
BITMAP
7C
82
BE
AA
BE
42
3C
ENDCHAR
STARTCHAR 326D
ENCODING 12909
SWIDTH 960 0
DWIDTH 8 0
BBX 7 7 0 -1
BITMAP
7C
9A
FE
BA
A6
7A
3C
ENDCHAR
STARTCHAR 326E
ENCODING 12910
SWIDTH 960 0
DWIDTH 8 0
BBX 7 7 0 -1
BITMAP
7C
82
96
96
A6
42
3C
ENDCHAR
STARTCHAR 326F
ENCODING 12911
SWIDTH 960 0
DWIDTH 8 0
BBX 7 7 0 -1
BITMAP
7C
82
86
C6
D6
42
3C
ENDCHAR
STARTCHAR 3270
ENCODING 12912
SWIDTH 960 0
DWIDTH 8 0
BBX 7 7 0 -1
BITMAP
7C
82
A6
C6
F6
42
3C
ENDCHAR
STARTCHAR 3271
ENCODING 12913
SWIDTH 960 0
DWIDTH 8 0
BBX 7 7 0 -1
BITMAP
7C
82
96
F6
F6
42
3C
ENDCHAR
STARTCHAR 3272
ENCODING 12914
SWIDTH 960 0
DWIDTH 8 0
BBX 7 7 0 -1
BITMAP
7C
82
F6
D6
D6
62
3C
ENDCHAR
STARTCHAR 3273
ENCODING 12915
SWIDTH 960 0
DWIDTH 8 0
BBX 7 7 0 -1
BITMAP
7C
82
86
F6
D6
62
3C
ENDCHAR
STARTCHAR 3274
ENCODING 12916
SWIDTH 960 0
DWIDTH 8 0
BBX 7 7 0 -1
BITMAP
7C
82
A6
B6
C6
42
3C
ENDCHAR
STARTCHAR 3275
ENCODING 12917
SWIDTH 960 0
DWIDTH 8 0
BBX 7 7 0 -1
BITMAP
7C
82
F6
D6
B6
42
3C
ENDCHAR
STARTCHAR 3276
ENCODING 12918
SWIDTH 960 0
DWIDTH 8 0
BBX 7 7 0 -1
BITMAP
7C
82
86
B6
CA
42
3C
ENDCHAR
STARTCHAR 3277
ENCODING 12919
SWIDTH 960 0
DWIDTH 8 0
BBX 7 7 0 -1
BITMAP
7C
82
96
B6
C6
42
3C
ENDCHAR
STARTCHAR 3278
ENCODING 12920
SWIDTH 960 0
DWIDTH 8 0
BBX 7 7 0 -1
BITMAP
7C
82
96
96
A6
42
3C
ENDCHAR
STARTCHAR 3279
ENCODING 12921
SWIDTH 960 0
DWIDTH 8 0
BBX 7 7 0 -1
BITMAP
7C
82
A6
E6
F6
42
3C
ENDCHAR
STARTCHAR 327A
ENCODING 12922
SWIDTH 960 0
DWIDTH 8 0
BBX 7 7 0 -1
BITMAP
7C
82
86
A6
B6
42
3C
ENDCHAR
STARTCHAR 327B
ENCODING 12923
SWIDTH 960 0
DWIDTH 8 0
BBX 7 7 0 -1
BITMAP
7C
82
B6
B6
B6
42
3C
ENDCHAR
STARTCHAR 327F
ENCODING 12927
SWIDTH 960 0
DWIDTH 8 0
BBX 7 7 0 -1
BITMAP
3C
42
A8
D6
AA
42
3C
ENDCHAR
STARTCHAR 328A
ENCODING 12938
SWIDTH 960 0
DWIDTH 8 0
BBX 7 7 0 -1
BITMAP
3C
7A
BA
B6
A6
42
3C
ENDCHAR
STARTCHAR 328B
ENCODING 12939
SWIDTH 960 0
DWIDTH 8 0
BBX 7 7 0 -1
BITMAP
3C
42
B6
92
9A
66
3C
ENDCHAR
STARTCHAR 328C
ENCODING 12940
SWIDTH 960 0
DWIDTH 8 0
BBX 7 7 0 -1
BITMAP
3C
42
B6
AA
B6
42
3C
ENDCHAR
STARTCHAR 328D
ENCODING 12941
SWIDTH 960 0
DWIDTH 8 0
BBX 7 7 0 -1
BITMAP
3C
42
7E
9A
B6
42
3C
ENDCHAR
STARTCHAR 328E
ENCODING 12942
SWIDTH 960 0
DWIDTH 8 0
BBX 7 7 0 -1
BITMAP
3C
52
AE
C2
B2
7E
3C
ENDCHAR
STARTCHAR 328F
ENCODING 12943
SWIDTH 960 0
DWIDTH 8 0
BBX 7 7 0 -1
BITMAP
3C
42
92
9A
92
7E
3C
ENDCHAR
STARTCHAR 3290
ENCODING 12944
SWIDTH 960 0
DWIDTH 8 0
BBX 7 7 0 -1
BITMAP
3C
7A
A6
BA
A6
7A
3C
ENDCHAR
STARTCHAR 3294
ENCODING 12948
SWIDTH 960 0
DWIDTH 8 0
BBX 7 7 0 -1
BITMAP
3C
52
EA
B2
EE
7E
3C
ENDCHAR
STARTCHAR 329E
ENCODING 12958
SWIDTH 960 0
DWIDTH 8 0
BBX 7 7 0 -1
BITMAP
3C
7E
CE
EE
EA
86
7C
ENDCHAR
STARTCHAR 32A5
ENCODING 12965
SWIDTH 960 0
DWIDTH 8 0
BBX 7 7 0 -1
BITMAP
3C
52
BE
B6
9E
52
3C
ENDCHAR
STARTCHAR 3380
ENCODING 13184
SWIDTH 960 0
DWIDTH 8 0
BBX 6 6 1 -2
BITMAP
08
D8
28
38
24
C0
ENDCHAR
STARTCHAR 3381
ENCODING 13185
SWIDTH 960 0
DWIDTH 8 0
BBX 7 5 0 0
BITMAP
04
EC
AA
AE
82
ENDCHAR
STARTCHAR 3382
ENCODING 13186
SWIDTH 960 0
DWIDTH 8 0
BBX 6 5 1 -1
BITMAP
08
38
B4
DC
E0
ENDCHAR
STARTCHAR 3383
ENCODING 13187
SWIDTH 960 0
DWIDTH 8 0
BBX 7 5 0 0
BITMAP
04
EC
DA
DE
80
ENDCHAR
STARTCHAR 3384
ENCODING 13188
SWIDTH 960 0
DWIDTH 8 0
BBX 7 5 0 0
BITMAP
84
AC
CA
AE
B2
ENDCHAR
STARTCHAR 3388
ENCODING 13192
SWIDTH 960 0
DWIDTH 8 0
BBX 6 4 1 1
BITMAP
DC
8C
9C
F8
ENDCHAR
STARTCHAR 3389
ENCODING 13193
SWIDTH 960 0
DWIDTH 8 0
BBX 6 4 1 1
BITMAP
AC
C4
DC
58
ENDCHAR
STARTCHAR 338A
ENCODING 13194
SWIDTH 960 0
DWIDTH 8 0
BBX 6 6 1 -2
BITMAP
18
D0
3C
20
20
C0
ENDCHAR
STARTCHAR 338B
ENCODING 13195
SWIDTH 960 0
DWIDTH 8 0
BBX 6 4 1 0
BITMAP
18
D0
BC
A0
ENDCHAR
STARTCHAR 338C
ENCODING 13196
SWIDTH 960 0
DWIDTH 8 0
BBX 6 5 1 -1
BITMAP
18
30
BC
D0
D0
ENDCHAR
STARTCHAR 338D
ENCODING 13197
SWIDTH 960 0
DWIDTH 8 0
BBX 6 6 1 -2
BITMAP
28
B4
B4
DC
14
08
ENDCHAR
STARTCHAR 338E
ENCODING 13198
SWIDTH 960 0
DWIDTH 8 0
BBX 6 6 1 -2
BITMAP
E8
B4
A4
3C
14
08
ENDCHAR
STARTCHAR 338F
ENCODING 13199
SWIDTH 960 0
DWIDTH 8 0
BBX 6 6 1 -1
BITMAP
9C
D4
D4
5C
04
18
ENDCHAR
STARTCHAR 3390
ENCODING 13200
SWIDTH 960 0
DWIDTH 8 0
BBX 6 5 1 0
BITMAP
20
BC
E8
A8
38
ENDCHAR
STARTCHAR 3391
ENCODING 13201
SWIDTH 960 0
DWIDTH 8 0
BBX 7 5 0 0
BITMAP
88
AE
DA
EC
8C
ENDCHAR
STARTCHAR 3392
ENCODING 13202
SWIDTH 960 0
DWIDTH 8 0
BBX 7 5 0 0
BITMAP
A0
A6
BA
EA
C4
ENDCHAR
STARTCHAR 3393
ENCODING 13203
SWIDTH 960 0
DWIDTH 8 0
BBX 7 6 0 0
BITMAP
40
A0
96
BA
AA
E4
ENDCHAR
STARTCHAR 3394
ENCODING 13204
SWIDTH 960 0
DWIDTH 8 0
BBX 6 5 1 0
BITMAP
80
AC
B4
B4
88
ENDCHAR
STARTCHAR 3395
ENCODING 13205
SWIDTH 960 0
DWIDTH 8 0
BBX 6 6 1 -1
BITMAP
0C
6C
6C
A8
D4
08
ENDCHAR
STARTCHAR 3396
ENCODING 13206
SWIDTH 960 0
DWIDTH 8 0
BBX 6 5 1 0
BITMAP
0C
AC
EC
E8
5C
ENDCHAR
STARTCHAR 3397
ENCODING 13207
SWIDTH 960 0
DWIDTH 8 0
BBX 6 5 1 0
BITMAP
0C
EC
A8
A8
FC
ENDCHAR
STARTCHAR 3398
ENCODING 13208
SWIDTH 960 0
DWIDTH 8 0
BBX 6 5 1 0
BITMAP
0C
B4
D8
C8
30
ENDCHAR
STARTCHAR 3399
ENCODING 13209
SWIDTH 960 0
DWIDTH 8 0
BBX 6 5 1 0
BITMAP
80
FC
B4
B4
A4
ENDCHAR
STARTCHAR 339A
ENCODING 13210
SWIDTH 960 0
DWIDTH 8 0
BBX 6 4 1 0
BITMAP
FC
AC
AC
20
ENDCHAR
STARTCHAR 339B
ENCODING 13211
SWIDTH 960 0
DWIDTH 8 0
BBX 6 4 1 -1
BITMAP
2C
AC
DC
C8
ENDCHAR
STARTCHAR 339C
ENCODING 13212
SWIDTH 960 0
DWIDTH 8 0
BBX 6 4 1 0
BITMAP
DC
AC
AC
28
ENDCHAR
STARTCHAR 339D
ENCODING 13213
SWIDTH 960 0
DWIDTH 8 0
BBX 6 4 1 0
BITMAP
D4
AC
9C
C8
ENDCHAR
STARTCHAR 339E
ENCODING 13214
SWIDTH 960 0
DWIDTH 8 0
BBX 6 4 1 1
BITMAP
D4
9C
9C
48
ENDCHAR
STARTCHAR 339F
ENCODING 13215
SWIDTH 960 0
DWIDTH 8 0
BBX 6 6 1 0
BITMAP
04
04
DC
AC
AC
28
ENDCHAR
STARTCHAR 33A0
ENCODING 13216
SWIDTH 960 0
DWIDTH 8 0
BBX 6 6 1 0
BITMAP
04
04
D4
AC
9C
C8
ENDCHAR
STARTCHAR 33A1
ENCODING 13217
SWIDTH 960 0
DWIDTH 8 0
BBX 5 6 1 0
BITMAP
08
08
F8
A8
A8
A8
ENDCHAR
STARTCHAR 33A2
ENCODING 13218
SWIDTH 960 0
DWIDTH 8 0
BBX 6 6 1 0
BITMAP
04
04
D4
9C
9C
48
ENDCHAR
STARTCHAR 33A3
ENCODING 13219
SWIDTH 960 0
DWIDTH 8 0
BBX 6 6 1 0
BITMAP
04
04
DC
6C
6C
28
ENDCHAR
STARTCHAR 33A4
ENCODING 13220
SWIDTH 960 0
DWIDTH 8 0
BBX 6 6 1 0
BITMAP
04
04
D4
AC
9C
C8
ENDCHAR
STARTCHAR 33A5
ENCODING 13221
SWIDTH 960 0
DWIDTH 8 0
BBX 5 6 1 0
BITMAP
08
08
F8
A8
A8
A8
ENDCHAR
STARTCHAR 33A6
ENCODING 13222
SWIDTH 960 0
DWIDTH 8 0
BBX 6 6 1 0
BITMAP
04
04
D4
9C
AC
48
ENDCHAR
STARTCHAR 33A7
ENCODING 13223
SWIDTH 960 0
DWIDTH 8 0
BBX 7 6 0 -1
BITMAP
40
B4
B8
9E
14
12
ENDCHAR
STARTCHAR 33A8
ENCODING 13224
SWIDTH 960 0
DWIDTH 8 0
BBX 7 6 0 0
BITMAP
D6
DA
8C
1C
2A
04
ENDCHAR
STARTCHAR 33A9
ENCODING 13225
SWIDTH 960 0
DWIDTH 8 0
BBX 6 5 1 0
BITMAP
E0
B8
C4
9C
3C
ENDCHAR
STARTCHAR 33AA
ENCODING 13226
SWIDTH 960 0
DWIDTH 8 0
BBX 7 5 0 0
BITMAP
98
96
DA
D6
86
ENDCHAR
STARTCHAR 33AB
ENCODING 13227
SWIDTH 960 0
DWIDTH 8 0
BBX 7 5 0 0
BITMAP
B8
B6
BA
D6
D6
ENDCHAR
STARTCHAR 33AC
ENCODING 13228
SWIDTH 960 0
DWIDTH 8 0
BBX 7 6 0 0
BITMAP
40
B8
96
BA
96
F6
ENDCHAR
STARTCHAR 33AD
ENCODING 13229
SWIDTH 960 0
DWIDTH 8 0
BBX 7 4 0 1
BITMAP
F6
9A
BA
BE
ENDCHAR
STARTCHAR 33AE
ENCODING 13230
SWIDTH 960 0
DWIDTH 8 0
BBX 7 6 0 -1
BITMAP
02
92
AC
D8
0C
12
ENDCHAR
STARTCHAR 33AF
ENCODING 13231
SWIDTH 960 0
DWIDTH 8 0
BBX 7 5 0 0
BITMAP
D4
E8
F4
0C
12
ENDCHAR
STARTCHAR 33B0
ENCODING 13232
SWIDTH 960 0
DWIDTH 8 0
BBX 6 5 1 -2
BITMAP
D8
B0
AC
B4
C8
ENDCHAR
STARTCHAR 33B1
ENCODING 13233
SWIDTH 960 0
DWIDTH 8 0
BBX 6 4 1 0
BITMAP
D8
B0
AC
3C
ENDCHAR
STARTCHAR 33B2
ENCODING 13234
SWIDTH 960 0
DWIDTH 8 0
BBX 6 5 1 -1
BITMAP
6C
B0
AC
D4
08
ENDCHAR
STARTCHAR 33B3
ENCODING 13235
SWIDTH 960 0
DWIDTH 8 0
BBX 7 4 0 0
BITMAP
D6
B8
B6
8E
ENDCHAR
STARTCHAR 33B4
ENCODING 13236
SWIDTH 960 0
DWIDTH 8 0
BBX 6 6 1 -2
BITMAP
04
D4
B8
B8
A8
C0
ENDCHAR
STARTCHAR 33B5
ENCODING 13237
SWIDTH 960 0
DWIDTH 8 0
BBX 6 5 1 0
BITMAP
04
D4
A8
B8
08
ENDCHAR
STARTCHAR 33B6
ENCODING 13238
SWIDTH 960 0
DWIDTH 8 0
BBX 6 5 1 -1
BITMAP
04
14
B4
B8
C8
ENDCHAR
STARTCHAR 33B7
ENCODING 13239
SWIDTH 960 0
DWIDTH 8 0
BBX 7 5 0 0
BITMAP
02
F2
BA
BC
94
ENDCHAR
STARTCHAR 33B8
ENCODING 13240
SWIDTH 960 0
DWIDTH 8 0
BBX 6 5 1 0
BITMAP
04
A4
D8
D8
48
ENDCHAR
STARTCHAR 33B9
ENCODING 13241
SWIDTH 960 0
DWIDTH 8 0
BBX 7 5 0 0
BITMAP
9A
9A
FA
F4
D4
ENDCHAR
STARTCHAR 33BA
ENCODING 13242
SWIDTH 960 0
DWIDTH 8 0
BBX 7 7 0 -2
BITMAP
14
F6
96
9A
AC
C0
80
ENDCHAR
STARTCHAR 33BB
ENCODING 13243
SWIDTH 960 0
DWIDTH 8 0
BBX 7 5 0 0
BITMAP
14
F6
9E
AA
8C
ENDCHAR
STARTCHAR 33BC
ENCODING 13244
SWIDTH 960 0
DWIDTH 8 0
BBX 6 5 1 -1
BITMAP
28
2C
B4
D4
D4
ENDCHAR
STARTCHAR 33BD
ENCODING 13245
SWIDTH 960 0
DWIDTH 8 0
BBX 7 5 0 0
BITMAP
14
F6
DA
DA
8C
ENDCHAR
STARTCHAR 33BE
ENCODING 13246
SWIDTH 960 0
DWIDTH 8 0
BBX 7 5 0 0
BITMAP
94
B6
D6
AA
AC
ENDCHAR
STARTCHAR 33BF
ENCODING 13247
SWIDTH 960 0
DWIDTH 8 0
BBX 7 5 0 0
BITMAP
94
96
FA
FA
DC
ENDCHAR
STARTCHAR 33C0
ENCODING 13248
SWIDTH 960 0
DWIDTH 8 0
BBX 6 6 1 0
BITMAP
18
24
E4
A4
98
48
ENDCHAR
STARTCHAR 33C1
ENCODING 13249
SWIDTH 960 0
DWIDTH 8 0
BBX 6 6 1 0
BITMAP
18
E4
E4
E4
B8
88
ENDCHAR
STARTCHAR 33C2
ENCODING 13250
SWIDTH 960 0
DWIDTH 8 0
BBX 7 4 0 0
BITMAP
5C
3A
FA
F2
ENDCHAR
STARTCHAR 33C3
ENCODING 13251
SWIDTH 960 0
DWIDTH 8 0
BBX 6 7 1 -2
BITMAP
E0
BC
D4
A4
B4
4C
04
ENDCHAR
STARTCHAR 33C4
ENCODING 13252
SWIDTH 960 0
DWIDTH 8 0
BBX 6 4 1 0
BITMAP
D8
A4
90
DC
ENDCHAR
STARTCHAR 33C5
ENCODING 13253
SWIDTH 960 0
DWIDTH 8 0
BBX 6 5 1 0
BITMAP
04
DC
94
A4
DC
ENDCHAR
STARTCHAR 33C6
ENCODING 13254
SWIDTH 960 0
DWIDTH 8 0
BBX 7 7 0 -1
BITMAP
10
90
A0
50
36
3E
06
ENDCHAR
STARTCHAR 33C7
ENCODING 13255
SWIDTH 960 0
DWIDTH 8 0
BBX 7 6 0 0
BITMAP
60
80
8C
8A
92
7E
ENDCHAR
STARTCHAR 33C8
ENCODING 13256
SWIDTH 960 0
DWIDTH 8 0
BBX 6 5 1 0
BITMAP
3C
E4
B8
A4
FC
ENDCHAR
STARTCHAR 33C9
ENCODING 13257
SWIDTH 960 0
DWIDTH 8 0
BBX 7 7 0 -2
BITMAP
20
50
88
BA
94
54
24
ENDCHAR
STARTCHAR 33CA
ENCODING 13258
SWIDTH 960 0
DWIDTH 8 0
BBX 6 4 1 1
BITMAP
D8
A4
BC
3C
ENDCHAR
STARTCHAR 33CB
ENCODING 13259
SWIDTH 960 0
DWIDTH 8 0
BBX 5 5 1 0
BITMAP
B8
A8
F8
A0
A0
ENDCHAR
STARTCHAR 33CF
ENCODING 13263
SWIDTH 960 0
DWIDTH 8 0
BBX 5 5 1 0
BITMAP
88
B8
C8
C8
A8
ENDCHAR
STARTCHAR 33D0
ENCODING 13264
SWIDTH 960 0
DWIDTH 8 0
BBX 6 4 1 1
BITMAP
E8
D4
D4
54
ENDCHAR
STARTCHAR 33D3
ENCODING 13267
SWIDTH 960 0
DWIDTH 8 0
BBX 5 5 1 0
BITMAP
80
88
B0
90
A8
ENDCHAR
STARTCHAR 33D6
ENCODING 13270
SWIDTH 960 0
DWIDTH 8 0
BBX 7 4 0 1
BITMAP
FE
B2
B2
9E
ENDCHAR
STARTCHAR 33D8
ENCODING 13272
SWIDTH 960 0
DWIDTH 8 0
BBX 7 6 0 -2
BITMAP
CC
BA
AA
A0
C0
80
ENDCHAR
STARTCHAR 33DB
ENCODING 13275
SWIDTH 960 0
DWIDTH 8 0
BBX 5 4 1 0
BITMAP
78
90
70
F0
ENDCHAR
STARTCHAR 33DC
ENCODING 13276
SWIDTH 960 0
DWIDTH 8 0
BBX 6 6 1 0
BITMAP
40
A0
94
54
34
E8
ENDCHAR
STARTCHAR 33DD
ENCODING 13277
SWIDTH 960 0
DWIDTH 8 0
BBX 7 5 0 0
BITMAP
B8
BE
BA
5A
6E
ENDCHAR
STARTCHAR 4E00
ENCODING 19968
SWIDTH 960 0
DWIDTH 8 0
BBX 5 1 1 2
BITMAP
F8
ENDCHAR
STARTCHAR 4E01
ENCODING 19969
SWIDTH 960 0
DWIDTH 8 0
BBX 6 7 1 -1
BITMAP
FC
20
20
20
20
20
60
ENDCHAR
STARTCHAR 4E03
ENCODING 19971
SWIDTH 960 0
DWIDTH 8 0
BBX 6 7 1 -1
BITMAP
40
40
FC
C0
40
44
78
ENDCHAR
STARTCHAR 4E07
ENCODING 19975
SWIDTH 960 0
DWIDTH 8 0
BBX 6 7 1 -1
BITMAP
FC
40
78
48
48
88
98
ENDCHAR
STARTCHAR 4E08
ENCODING 19976
SWIDTH 960 0
DWIDTH 8 0
BBX 6 7 1 -1
BITMAP
10
FC
10
60
E0
58
8C
ENDCHAR
STARTCHAR 4E09
ENCODING 19977
SWIDTH 960 0
DWIDTH 8 0
BBX 6 6 1 0
BITMAP
F8
00
00
78
00
FC
ENDCHAR
STARTCHAR 4E0A
ENCODING 19978
SWIDTH 960 0
DWIDTH 8 0
BBX 6 7 1 -1
BITMAP
20
20
20
3C
20
20
FC
ENDCHAR
STARTCHAR 4E0B
ENCODING 19979
SWIDTH 960 0
DWIDTH 8 0
BBX 6 7 1 -1
BITMAP
FC
20
30
28
20
20
20
ENDCHAR
STARTCHAR 4E0D
ENCODING 19981
SWIDTH 960 0
DWIDTH 8 0
BBX 6 7 1 -1
BITMAP
FC
10
30
E8
A4
20
20
ENDCHAR
STARTCHAR 4E11
ENCODING 19985
SWIDTH 960 0
DWIDTH 8 0
BBX 6 7 1 -1
BITMAP
F8
28
48
FC
48
48
FC
ENDCHAR
STARTCHAR 4E14
ENCODING 19988
SWIDTH 960 0
DWIDTH 8 0
BBX 6 7 1 -1
BITMAP
78
48
78
48
78
48
FC
ENDCHAR
STARTCHAR 4E15
ENCODING 19989
SWIDTH 960 0
DWIDTH 8 0
BBX 6 7 1 -1
BITMAP
FC
20
30
68
A4
20
FC
ENDCHAR
STARTCHAR 4E16
ENCODING 19990
SWIDTH 960 0
DWIDTH 8 0
BBX 6 7 1 -1
BITMAP
A8
A8
FC
A8
B8
7C
80
ENDCHAR
STARTCHAR 4E18
ENCODING 19992
SWIDTH 960 0
DWIDTH 8 0
BBX 6 7 1 -1
BITMAP
18
70
80
78
90
90
FC
ENDCHAR
STARTCHAR 4E19
ENCODING 19993
SWIDTH 960 0
DWIDTH 8 0
BBX 6 7 1 -1
BITMAP
FC
20
F8
B4
C8
84
88
ENDCHAR
STARTCHAR 4E1E
ENCODING 19998
SWIDTH 960 0
DWIDTH 8 0
BBX 6 7 1 -1
BITMAP
F8
10
D4
68
A8
A4
FC
ENDCHAR
STARTCHAR 4E2D
ENCODING 20013
SWIDTH 960 0
DWIDTH 8 0
BBX 6 7 1 -1
BITMAP
20
FC
A4
A4
FC
20
20
ENDCHAR
STARTCHAR 4E32
ENCODING 20018
SWIDTH 960 0
DWIDTH 8 0
BBX 6 7 1 -1
BITMAP
20
F8
F8
FC
A4
FC
20
ENDCHAR
STARTCHAR 4E38
ENCODING 20024
SWIDTH 960 0
DWIDTH 8 0
BBX 6 7 1 -1
BITMAP
20
F0
28
C8
68
48
8C
ENDCHAR
STARTCHAR 4E39
ENCODING 20025
SWIDTH 960 0
DWIDTH 8 0
BBX 6 7 1 -1
BITMAP
78
A8
A8
FC
88
88
98
ENDCHAR
STARTCHAR 4E3B
ENCODING 20027
SWIDTH 960 0
DWIDTH 8 0
BBX 6 7 1 -1
BITMAP
20
00
FC
20
F8
20
FC
ENDCHAR
STARTCHAR 4E42
ENCODING 20034
SWIDTH 960 0
DWIDTH 8 0
BBX 6 7 1 -1
BITMAP
48
88
D0
30
30
58
84
ENDCHAR
STARTCHAR 4E43
ENCODING 20035
SWIDTH 960 0
DWIDTH 8 0
BBX 6 7 1 -1
BITMAP
F0
50
5C
54
44
84
98
ENDCHAR
STARTCHAR 4E45
ENCODING 20037
SWIDTH 960 0
DWIDTH 8 0
BBX 6 7 1 -1
BITMAP
40
70
90
90
30
C8
84
ENDCHAR
STARTCHAR 4E4B
ENCODING 20043
SWIDTH 960 0
DWIDTH 8 0
BBX 7 7 0 -1
BITMAP
10
7C
04
08
50
60
BE
ENDCHAR
STARTCHAR 4E4D
ENCODING 20045
SWIDTH 960 0
DWIDTH 8 0
BBX 6 7 1 -1
BITMAP
40
7C
A0
B8
3C
20
20
ENDCHAR
STARTCHAR 4E4E
ENCODING 20046
SWIDTH 960 0
DWIDTH 8 0
BBX 6 7 1 -1
BITMAP
18
E8
68
20
FC
20
60
ENDCHAR
STARTCHAR 4E4F
ENCODING 20047
SWIDTH 960 0
DWIDTH 8 0
BBX 7 7 0 -1
BITMAP
0C
70
7C
04
18
60
BE
ENDCHAR
STARTCHAR 4E56
ENCODING 20054
SWIDTH 960 0
DWIDTH 8 0
BBX 6 7 1 -1
BITMAP
F8
20
FC
F4
EC
EC
20
ENDCHAR
STARTCHAR 4E58
ENCODING 20056
SWIDTH 960 0
DWIDTH 8 0
BBX 6 7 1 -1
BITMAP
F8
FC
74
EC
7C
A4
20
ENDCHAR
STARTCHAR 4E59
ENCODING 20057
SWIDTH 960 0
DWIDTH 8 0
BBX 6 6 1 0
BITMAP
F0
10
20
40
84
F8
ENDCHAR
STARTCHAR 4E5D
ENCODING 20061
SWIDTH 960 0
DWIDTH 8 0
BBX 6 7 1 -1
BITMAP
40
40
F0
50
50
94
8C
ENDCHAR
STARTCHAR 4E5E
ENCODING 20062
SWIDTH 960 0
DWIDTH 8 0
BBX 6 7 1 -1
BITMAP
40
FC
80
70
20
44
F8
ENDCHAR
STARTCHAR 4E5F
ENCODING 20063
SWIDTH 960 0
DWIDTH 8 0
BBX 6 7 1 -1
BITMAP
A0
A8
F8
A8
A8
A4
7C
ENDCHAR
STARTCHAR 4E6B
ENCODING 20075
SWIDTH 960 0
DWIDTH 8 0
BBX 6 7 1 -1
BITMAP
5C
F4
BC
F4
F0
40
FC
ENDCHAR
STARTCHAR 4E6D
ENCODING 20077
SWIDTH 960 0
DWIDTH 8 0
BBX 6 7 1 -1
BITMAP
FC
78
F8
00
F0
44
7C
ENDCHAR
STARTCHAR 4E73
ENCODING 20083
SWIDTH 960 0
DWIDTH 8 0
BBX 7 7 0 -1
BITMAP
78
78
88
78
B8
6A
6E
ENDCHAR
STARTCHAR 4E76
ENCODING 20086
SWIDTH 960 0
DWIDTH 8 0
BBX 6 7 1 -1
BITMAP
28
FC
F8
F8
F0
44
F8
ENDCHAR
STARTCHAR 4E77
ENCODING 20087
SWIDTH 960 0
DWIDTH 8 0
BBX 6 7 1 -1
BITMAP
B8
B4
98
E0
F0
44
FC
ENDCHAR
STARTCHAR 4E7E
ENCODING 20094
SWIDTH 960 0
DWIDTH 8 0
BBX 7 7 0 -1
BITMAP
08
6C
90
F4
68
F2
0E
ENDCHAR
STARTCHAR 4E82
ENCODING 20098
SWIDTH 960 0
DWIDTH 8 0
BBX 7 7 0 -1
BITMAP
70
A8
74
74
74
6A
56
ENDCHAR
STARTCHAR 4E86
ENCODING 20102
SWIDTH 960 0
DWIDTH 8 0
BBX 6 7 1 -1
BITMAP
FC
18
20
20
20
20
60
ENDCHAR
STARTCHAR 4E88
ENCODING 20104
SWIDTH 960 0
DWIDTH 8 0
BBX 6 7 1 -1
BITMAP
F8
10
20
FC
24
28
20
ENDCHAR
STARTCHAR 4E8B
ENCODING 20107
SWIDTH 960 0
DWIDTH 8 0
BBX 6 7 1 -1
BITMAP
20
FC
F8
F8
FC
F8
60
ENDCHAR
STARTCHAR 4E8C
ENCODING 20108
SWIDTH 960 0
DWIDTH 8 0
BBX 6 5 1 0
BITMAP
F8
00
00
00
FC
ENDCHAR
STARTCHAR 4E8E
ENCODING 20110
SWIDTH 960 0
DWIDTH 8 0
BBX 6 7 1 -1
BITMAP
F8
20
20
FC
20
20
60
ENDCHAR
STARTCHAR 4E90
ENCODING 20112
SWIDTH 960 0
DWIDTH 8 0
BBX 6 7 1 -1
BITMAP
F8
20
FC
40
78
08
18
ENDCHAR
STARTCHAR 4E91
ENCODING 20113
SWIDTH 960 0
DWIDTH 8 0
BBX 6 7 1 -1
BITMAP
F8
00
FC
40
48
78
04
ENDCHAR
STARTCHAR 4E92
ENCODING 20114
SWIDTH 960 0
DWIDTH 8 0
BBX 6 7 1 -1
BITMAP
FC
40
78
48
78
08
FC
ENDCHAR
STARTCHAR 4E94
ENCODING 20116
SWIDTH 960 0
DWIDTH 8 0
BBX 6 7 1 -1
BITMAP
FC
20
20
F8
48
48
FC
ENDCHAR
STARTCHAR 4E95
ENCODING 20117
SWIDTH 960 0
DWIDTH 8 0
BBX 6 7 1 -1
BITMAP
50
50
FC
50
FC
50
90
ENDCHAR
STARTCHAR 4E98
ENCODING 20120
SWIDTH 960 0
DWIDTH 8 0
BBX 6 7 1 -1
BITMAP
FC
00
78
78
78
00
FC
ENDCHAR
STARTCHAR 4E9B
ENCODING 20123
SWIDTH 960 0
DWIDTH 8 0
BBX 6 7 1 -1
BITMAP
50
F4
DC
FC
F8
00
FC
ENDCHAR
STARTCHAR 4E9E
ENCODING 20126
SWIDTH 960 0
DWIDTH 8 0
BBX 6 7 1 -1
BITMAP
FC
50
D8
84
D8
50
FC
ENDCHAR
STARTCHAR 4EA1
ENCODING 20129
SWIDTH 960 0
DWIDTH 8 0
BBX 6 6 1 0
BITMAP
20
FC
80
80
80
FC
ENDCHAR
STARTCHAR 4EA2
ENCODING 20130
SWIDTH 960 0
DWIDTH 8 0
BBX 6 7 1 -1
BITMAP
20
FC
70
50
50
94
8C
ENDCHAR
STARTCHAR 4EA4
ENCODING 20132
SWIDTH 960 0
DWIDTH 8 0
BBX 6 7 1 -1
BITMAP
FC
00
8C
50
30
70
8C
ENDCHAR
STARTCHAR 4EA5
ENCODING 20133
SWIDTH 960 0
DWIDTH 8 0
BBX 6 7 1 -1
BITMAP
20
FC
48
38
D0
68
84
ENDCHAR
STARTCHAR 4EA6
ENCODING 20134
SWIDTH 960 0
DWIDTH 8 0
BBX 6 7 1 -1
BITMAP
20
FC
D0
D8
D4
D0
B0
ENDCHAR
STARTCHAR 4EA8
ENCODING 20136
SWIDTH 960 0
DWIDTH 8 0
BBX 7 7 0 -1
BITMAP
FE
00
7C
00
7C
10
10
ENDCHAR
STARTCHAR 4EAB
ENCODING 20139
SWIDTH 960 0
DWIDTH 8 0
BBX 7 7 0 -1
BITMAP
FE
3C
3C
00
78
FE
10
ENDCHAR
STARTCHAR 4EAC
ENCODING 20140
SWIDTH 960 0
DWIDTH 8 0
BBX 6 7 1 -1
BITMAP
FC
00
78
88
78
A8
A4
ENDCHAR
STARTCHAR 4EAD
ENCODING 20141
SWIDTH 960 0
DWIDTH 8 0
BBX 6 7 1 -1
BITMAP
FC
00
78
00
FC
FC
60
ENDCHAR
STARTCHAR 4EAE
ENCODING 20142
SWIDTH 960 0
DWIDTH 8 0
BBX 6 7 1 -1
BITMAP
FC
00
78
00
FC
54
9C
ENDCHAR
STARTCHAR 4EB6
ENCODING 20150
SWIDTH 960 0
DWIDTH 8 0
BBX 6 7 1 -1
BITMAP
FC
F8
C8
F8
78
78
FC
ENDCHAR
STARTCHAR 4EBA
ENCODING 20154
SWIDTH 960 0
DWIDTH 8 0
BBX 6 7 1 -1
BITMAP
20
20
20
20
50
C8
84
ENDCHAR
STARTCHAR 4EC0
ENCODING 20160
SWIDTH 960 0
DWIDTH 8 0
BBX 6 7 1 -1
BITMAP
90
90
FC
90
90
90
90
ENDCHAR
STARTCHAR 4EC1
ENCODING 20161
SWIDTH 960 0
DWIDTH 8 0
BBX 6 7 1 -1
BITMAP
40
BC
80
80
80
FC
80
ENDCHAR
STARTCHAR 4EC4
ENCODING 20164
SWIDTH 960 0
DWIDTH 8 0
BBX 6 7 1 -1
BITMAP
FC
90
90
90
B0
E8
44
ENDCHAR
STARTCHAR 4EC7
ENCODING 20167
SWIDTH 960 0
DWIDTH 8 0
BBX 6 7 1 -1
BITMAP
60
A0
F8
A8
A8
CC
CC
ENDCHAR
STARTCHAR 4ECA
ENCODING 20170
SWIDTH 960 0
DWIDTH 8 0
BBX 6 7 1 -1
BITMAP
30
48
F4
00
F8
08
10
ENDCHAR
STARTCHAR 4ECB
ENCODING 20171
SWIDTH 960 0
DWIDTH 8 0
BBX 6 7 1 -1
BITMAP
30
48
84
50
50
90
90
ENDCHAR
STARTCHAR 4ECD
ENCODING 20173
SWIDTH 960 0
DWIDTH 8 0
BBX 6 7 1 -1
BITMAP
78
A8
A8
AC
A4
C4
CC
ENDCHAR
STARTCHAR 4ED4
ENCODING 20180
SWIDTH 960 0
DWIDTH 8 0
BBX 6 7 1 -1
BITMAP
7C
88
90
FC
90
90
B0
ENDCHAR
STARTCHAR 4ED5
ENCODING 20181
SWIDTH 960 0
DWIDTH 8 0
BBX 6 7 1 -1
BITMAP
50
90
FC
90
90
90
BC
ENDCHAR
STARTCHAR 4ED6
ENCODING 20182
SWIDTH 960 0
DWIDTH 8 0
BBX 7 7 0 -1
BITMAP
28
58
5E
EA
5C
5A
5E
ENDCHAR
STARTCHAR 4ED7
ENCODING 20183
SWIDTH 960 0
DWIDTH 8 0
BBX 6 7 1 -1
BITMAP
50
7C
90
B0
90
A8
C4
ENDCHAR
STARTCHAR 4ED8
ENCODING 20184
SWIDTH 960 0
DWIDTH 8 0
BBX 7 7 0 -1
BITMAP
24
44
5E
D4
4C
44
4C
ENDCHAR
STARTCHAR 4ED9
ENCODING 20185
SWIDTH 960 0
DWIDTH 8 0
BBX 6 7 1 -1
BITMAP
50
B4
B4
B4
B4
BC
A4
ENDCHAR
STARTCHAR 4EDD
ENCODING 20189
SWIDTH 960 0
DWIDTH 8 0
BBX 6 7 1 -1
BITMAP
20
50
88
84
78
20
FC
ENDCHAR
STARTCHAR 4EDF
ENCODING 20191
SWIDTH 960 0
DWIDTH 8 0
BBX 6 7 1 -1
BITMAP
48
B0
90
FC
90
90
90
ENDCHAR
STARTCHAR 4EE3
ENCODING 20195
SWIDTH 960 0
DWIDTH 8 0
BBX 6 7 1 -1
BITMAP
08
98
BC
90
90
8C
8C
ENDCHAR
STARTCHAR 4EE4
ENCODING 20196
SWIDTH 960 0
DWIDTH 8 0
BBX 6 7 1 -1
BITMAP
30
48
F4
00
F8
28
20
ENDCHAR
STARTCHAR 4EE5
ENCODING 20197
SWIDTH 960 0
DWIDTH 8 0
BBX 6 7 1 -1
BITMAP
88
A8
88
88
A8
D4
24
ENDCHAR
STARTCHAR 4EF0
ENCODING 20208
SWIDTH 960 0
DWIDTH 8 0
BBX 6 7 1 -1
BITMAP
AC
D4
D4
D4
F4
CC
90
ENDCHAR
STARTCHAR 4EF2
ENCODING 20210
SWIDTH 960 0
DWIDTH 8 0
BBX 6 7 1 -1
BITMAP
50
BC
D4
D4
BC
90
90
ENDCHAR
STARTCHAR 4EF6
ENCODING 20214
SWIDTH 960 0
DWIDTH 8 0
BBX 6 7 1 -1
BITMAP
50
B0
FC
90
FC
90
90
ENDCHAR
STARTCHAR 4EF7
ENCODING 20215
SWIDTH 960 0
DWIDTH 8 0
BBX 6 7 1 -1
BITMAP
50
A8
C4
A8
A8
A8
C8
ENDCHAR
STARTCHAR 4EFB
ENCODING 20219
SWIDTH 960 0
DWIDTH 8 0
BBX 6 7 1 -1
BITMAP
4C
B0
90
FC
90
90
FC
ENDCHAR
STARTCHAR 4F01
ENCODING 20225
SWIDTH 960 0
DWIDTH 8 0
BBX 6 7 1 -1
BITMAP
20
50
E8
A4
58
60
FC
ENDCHAR
STARTCHAR 4F09
ENCODING 20233
SWIDTH 960 0
DWIDTH 8 0
BBX 6 7 1 -1
BITMAP
50
FC
B8
A8
A8
AC
CC
ENDCHAR
STARTCHAR 4F0A
ENCODING 20234
SWIDTH 960 0
DWIDTH 8 0
BBX 6 7 1 -1
BITMAP
78
94
FC
94
B8
90
E0
ENDCHAR
STARTCHAR 4F0B
ENCODING 20235
SWIDTH 960 0
DWIDTH 8 0
BBX 6 7 1 -1
BITMAP
78
A8
A8
BC
A8
D8
E4
ENDCHAR
STARTCHAR 4F0D
ENCODING 20237
SWIDTH 960 0
DWIDTH 8 0
BBX 6 7 1 -1
BITMAP
7C
90
90
F8
A8
A8
FC
ENDCHAR
STARTCHAR 4F0E
ENCODING 20238
SWIDTH 960 0
DWIDTH 8 0
BBX 7 7 0 -1
BITMAP
28
7E
48
DE
54
4C
72
ENDCHAR
STARTCHAR 4F0F
ENCODING 20239
SWIDTH 960 0
DWIDTH 8 0
BBX 6 7 1 -1
BITMAP
58
94
FC
90
A8
A8
C4
ENDCHAR
STARTCHAR 4F10
ENCODING 20240
SWIDTH 960 0
DWIDTH 8 0
BBX 6 7 1 -1
BITMAP
68
98
FC
98
90
AC
CC
ENDCHAR
STARTCHAR 4F11
ENCODING 20241
SWIDTH 960 0
DWIDTH 8 0
BBX 6 7 1 -1
BITMAP
50
90
FC
98
B4
D4
90
ENDCHAR
STARTCHAR 4F2F
ENCODING 20271
SWIDTH 960 0
DWIDTH 8 0
BBX 6 7 1 -1
BITMAP
50
BC
C4
BC
C4
BC
C4
ENDCHAR
STARTCHAR 4F34
ENCODING 20276
SWIDTH 960 0
DWIDTH 8 0
BBX 6 7 1 -1
BITMAP
50
B8
D4
BC
FC
90
90
ENDCHAR
STARTCHAR 4F36
ENCODING 20278
SWIDTH 960 0
DWIDTH 8 0
BBX 6 7 1 -1
BITMAP
90
A8
FC
80
FC
9C
90
ENDCHAR
STARTCHAR 4F38
ENCODING 20280
SWIDTH 960 0
DWIDTH 8 0
BBX 6 7 1 -1
BITMAP
50
BC
D4
BC
BC
90
90
ENDCHAR
STARTCHAR 4F3A
ENCODING 20282
SWIDTH 960 0
DWIDTH 8 0
BBX 6 7 1 -1
BITMAP
BC
84
BC
B4
B4
A4
8C
ENDCHAR
STARTCHAR 4F3C
ENCODING 20284
SWIDTH 960 0
DWIDTH 8 0
BBX 6 7 1 -1
BITMAP
88
98
B8
A8
B8
B4
D4
ENDCHAR
STARTCHAR 4F3D
ENCODING 20285
SWIDTH 960 0
DWIDTH 8 0
BBX 6 7 1 -1
BITMAP
40
AC
FC
AC
AC
DC
EC
ENDCHAR
STARTCHAR 4F43
ENCODING 20291
SWIDTH 960 0
DWIDTH 8 0
BBX 6 7 1 -1
BITMAP
40
BC
B4
BC
B4
BC
A4
ENDCHAR
STARTCHAR 4F46
ENCODING 20294
SWIDTH 960 0
DWIDTH 8 0
BBX 7 7 0 -1
BITMAP
20
5C
5C
D2
5C
40
7E
ENDCHAR
STARTCHAR 4F47
ENCODING 20295
SWIDTH 960 0
DWIDTH 8 0
BBX 6 7 1 -1
BITMAP
50
BC
C4
FC
90
90
90
ENDCHAR
STARTCHAR 4F48
ENCODING 20296
SWIDTH 960 0
DWIDTH 8 0
BBX 6 7 1 -1
BITMAP
50
FC
B0
BC
D4
B4
B0
ENDCHAR
STARTCHAR 4F4D
ENCODING 20301
SWIDTH 960 0
DWIDTH 8 0
BBX 6 7 1 -1
BITMAP
50
FC
A8
A8
A8
88
FC
ENDCHAR
STARTCHAR 4F4E
ENCODING 20302
SWIDTH 960 0
DWIDTH 8 0
BBX 6 7 1 -1
BITMAP
48
B0
A8
BC
B0
E8
FC
ENDCHAR
STARTCHAR 4F4F
ENCODING 20303
SWIDTH 960 0
DWIDTH 8 0
BBX 6 7 1 -1
BITMAP
50
80
FC
90
BC
90
FC
ENDCHAR
STARTCHAR 4F50
ENCODING 20304
SWIDTH 960 0
DWIDTH 8 0
BBX 6 7 1 -1
BITMAP
50
7C
A0
A0
FC
D0
FC
ENDCHAR
STARTCHAR 4F51
ENCODING 20305
SWIDTH 960 0
DWIDTH 8 0
BBX 6 7 1 -1
BITMAP
50
90
FC
A0
FC
A4
BC
ENDCHAR
STARTCHAR 4F55
ENCODING 20309
SWIDTH 960 0
DWIDTH 8 0
BBX 6 7 1 -1
BITMAP
7C
84
B4
B4
B4
84
88
ENDCHAR
STARTCHAR 4F59
ENCODING 20313
SWIDTH 960 0
DWIDTH 8 0
BBX 6 7 1 -1
BITMAP
30
48
FC
20
FC
68
A4
ENDCHAR
STARTCHAR 4F5A
ENCODING 20314
SWIDTH 960 0
DWIDTH 8 0
BBX 6 7 1 -1
BITMAP
70
BC
D0
FC
90
A8
C4
ENDCHAR
STARTCHAR 4F5B
ENCODING 20315
SWIDTH 960 0
DWIDTH 8 0
BBX 6 7 1 -1
BITMAP
80
FC
FC
E8
FC
AC
C0
ENDCHAR
STARTCHAR 4F5C
ENCODING 20316
SWIDTH 960 0
DWIDTH 8 0
BBX 6 7 1 -1
BITMAP
60
BC
D0
DC
9C
90
90
ENDCHAR
STARTCHAR 4F69
ENCODING 20329
SWIDTH 960 0
DWIDTH 8 0
BBX 6 7 1 -1
BITMAP
78
F8
D8
F4
E8
F4
84
ENDCHAR
STARTCHAR 4F6F
ENCODING 20335
SWIDTH 960 0
DWIDTH 8 0
BBX 6 7 1 -1
BITMAP
68
7C
90
BC
FC
90
90
ENDCHAR
STARTCHAR 4F70
ENCODING 20336
SWIDTH 960 0
DWIDTH 8 0
BBX 6 7 1 -1
BITMAP
7C
90
BC
A4
BC
BC
A4
ENDCHAR
STARTCHAR 4F73
ENCODING 20339
SWIDTH 960 0
DWIDTH 8 0
BBX 6 7 1 -1
BITMAP
50
BC
FC
90
BC
90
FC
ENDCHAR
STARTCHAR 4F76
ENCODING 20342
SWIDTH 960 0
DWIDTH 8 0
BBX 6 7 1 -1
BITMAP
50
FC
BC
80
B8
A4
B8
ENDCHAR
STARTCHAR 4F7A
ENCODING 20346
SWIDTH 960 0
DWIDTH 8 0
BBX 6 7 1 -1
BITMAP
70
A8
A8
FC
B8
90
FC
ENDCHAR
STARTCHAR 4F7E
ENCODING 20350
SWIDTH 960 0
DWIDTH 8 0
BBX 6 7 1 -1
BITMAP
78
A4
FC
F8
A4
B8
C8
ENDCHAR
STARTCHAR 4F7F
ENCODING 20351
SWIDTH 960 0
DWIDTH 8 0
BBX 6 7 1 -1
BITMAP
50
FC
BC
D4
B8
B0
CC
ENDCHAR
STARTCHAR 4F81
ENCODING 20353
SWIDTH 960 0
DWIDTH 8 0
BBX 6 7 1 -1
BITMAP
70
BC
D0
FC
A8
A8
CC
ENDCHAR
STARTCHAR 4F83
ENCODING 20355
SWIDTH 960 0
DWIDTH 8 0
BBX 7 7 0 -1
BITMAP
3C
62
5C
CC
5C
6E
6E
ENDCHAR
STARTCHAR 4F84
ENCODING 20356
SWIDTH 960 0
DWIDTH 8 0
BBX 6 7 1 -1
BITMAP
7C
98
EC
90
BC
90
FC
ENDCHAR
STARTCHAR 4F86
ENCODING 20358
SWIDTH 960 0
DWIDTH 8 0
BBX 6 7 1 -1
BITMAP
20
FC
68
F4
68
A4
20
ENDCHAR
STARTCHAR 4F88
ENCODING 20360
SWIDTH 960 0
DWIDTH 8 0
BBX 7 7 0 -1
BITMAP
28
5C
68
F8
7E
4C
70
ENDCHAR
STARTCHAR 4F8A
ENCODING 20362
SWIDTH 960 0
DWIDTH 8 0
BBX 6 7 1 -1
BITMAP
54
B8
98
FC
A8
AC
CC
ENDCHAR
STARTCHAR 4F8B
ENCODING 20363
SWIDTH 960 0
DWIDTH 8 0
BBX 6 7 1 -1
BITMAP
74
AC
BC
DC
EC
A4
CC
ENDCHAR
STARTCHAR 4F8D
ENCODING 20365
SWIDTH 960 0
DWIDTH 8 0
BBX 6 7 1 -1
BITMAP
50
BC
FC
88
FC
A8
98
ENDCHAR
STARTCHAR 4F8F
ENCODING 20367
SWIDTH 960 0
DWIDTH 8 0
BBX 6 7 1 -1
BITMAP
70
BC
D0
FC
B8
D4
90
ENDCHAR
STARTCHAR 4F91
ENCODING 20369
SWIDTH 960 0
DWIDTH 8 0
BBX 6 7 1 -1
BITMAP
50
FC
BC
A4
FC
BC
AC
ENDCHAR
STARTCHAR 4F96
ENCODING 20374
SWIDTH 960 0
DWIDTH 8 0
BBX 7 7 0 -1
BITMAP
10
7C
82
7C
6A
7C
4C
ENDCHAR
STARTCHAR 4F98
ENCODING 20376
SWIDTH 960 0
DWIDTH 8 0
BBX 6 7 1 -1
BITMAP
50
FC
B8
90
FC
94
9C
ENDCHAR
STARTCHAR 4F9B
ENCODING 20379
SWIDTH 960 0
DWIDTH 8 0
BBX 6 7 1 -1
BITMAP
A8
A8
FC
FC
80
A8
C4
ENDCHAR
STARTCHAR 4F9D
ENCODING 20381
SWIDTH 960 0
DWIDTH 8 0
BBX 6 7 1 -1
BITMAP
50
EC
B0
A8
E8
B8
E4
ENDCHAR
STARTCHAR 4FAE
ENCODING 20398
SWIDTH 960 0
DWIDTH 8 0
BBX 6 7 1 -1
BITMAP
A0
BC
F8
B4
FC
BC
98
ENDCHAR
STARTCHAR 4FAF
ENCODING 20399
SWIDTH 960 0
DWIDTH 8 0
BBX 6 7 1 -1
BITMAP
78
FC
A0
BC
FC
A8
C4
ENDCHAR
STARTCHAR 4FB5
ENCODING 20405
SWIDTH 960 0
DWIDTH 8 0
BBX 7 7 0 -1
BITMAP
3C
7E
5C
FE
7E
48
76
ENDCHAR
STARTCHAR 4FB6
ENCODING 20406
SWIDTH 960 0
DWIDTH 8 0
BBX 6 7 1 -1
BITMAP
B8
A4
B8
90
BC
C4
BC
ENDCHAR
STARTCHAR 4FBF
ENCODING 20415
SWIDTH 960 0
DWIDTH 8 0
BBX 6 7 1 -1
BITMAP
7C
90
BC
BC
BC
B0
CC
ENDCHAR
STARTCHAR 4FC2
ENCODING 20418
SWIDTH 960 0
DWIDTH 8 0
BBX 6 7 1 -1
BITMAP
4C
70
A8
90
FC
BC
D4
ENDCHAR
STARTCHAR 4FC3
ENCODING 20419
SWIDTH 960 0
DWIDTH 8 0
BBX 7 7 0 -1
BITMAP
3E
52
5E
D8
56
58
6E
ENDCHAR
STARTCHAR 4FC4
ENCODING 20420
SWIDTH 960 0
DWIDTH 8 0
BBX 6 7 1 -1
BITMAP
54
EC
FC
AC
F8
A8
F4
ENDCHAR
STARTCHAR 4FC9
ENCODING 20425
SWIDTH 960 0
DWIDTH 8 0
BBX 6 7 1 -1
BITMAP
7C
90
B8
FC
B8
A4
B8
ENDCHAR
STARTCHAR 4FCA
ENCODING 20426
SWIDTH 960 0
DWIDTH 8 0
BBX 6 7 1 -1
BITMAP
68
BC
AC
E0
B8
98
E4
ENDCHAR
STARTCHAR 4FCE
ENCODING 20430
SWIDTH 960 0
DWIDTH 8 0
BBX 7 7 0 -1
BITMAP
0E
72
6E
52
2E
72
9E
ENDCHAR
STARTCHAR 4FD1
ENCODING 20433
SWIDTH 960 0
DWIDTH 8 0
BBX 6 7 1 -1
BITMAP
78
90
BC
BC
D4
BC
DC
ENDCHAR
STARTCHAR 4FD3
ENCODING 20435
SWIDTH 960 0
DWIDTH 8 0
BBX 6 7 1 -1
BITMAP
3C
B4
D8
B4
BC
90
FC
ENDCHAR
STARTCHAR 4FD4
ENCODING 20436
SWIDTH 960 0
DWIDTH 8 0
BBX 7 7 0 -1
BITMAP
3C
52
5C
DC
5C
56
66
ENDCHAR
STARTCHAR 4FD7
ENCODING 20439
SWIDTH 960 0
DWIDTH 8 0
BBX 6 7 1 -1
BITMAP
68
C4
90
A8
FC
A8
B8
ENDCHAR
STARTCHAR 4FDA
ENCODING 20442
SWIDTH 960 0
DWIDTH 8 0
BBX 6 7 1 -1
BITMAP
7C
D4
BC
BC
BC
90
FC
ENDCHAR
STARTCHAR 4FDD
ENCODING 20445
SWIDTH 960 0
DWIDTH 8 0
BBX 6 7 1 -1
BITMAP
78
A4
B8
FC
90
B8
D4
ENDCHAR
STARTCHAR 4FDF
ENCODING 20447
SWIDTH 960 0
DWIDTH 8 0
BBX 6 7 1 -1
BITMAP
68
FC
A0
BC
FC
98
E4
ENDCHAR
STARTCHAR 4FE0
ENCODING 20448
SWIDTH 960 0
DWIDTH 8 0
BBX 6 7 1 -1
BITMAP
50
FC
B8
BC
DC
A8
C4
ENDCHAR
STARTCHAR 4FE1
ENCODING 20449
SWIDTH 960 0
DWIDTH 8 0
BBX 6 7 1 -1
BITMAP
78
7C
BC
BC
80
BC
BC
ENDCHAR
STARTCHAR 4FEE
ENCODING 20462
SWIDTH 960 0
DWIDTH 8 0
BBX 6 7 1 -1
BITMAP
90
FC
D8
FC
E8
FC
B0
ENDCHAR
STARTCHAR 4FEF
ENCODING 20463
SWIDTH 960 0
DWIDTH 8 0
BBX 7 7 0 -1
BITMAP
08
7E
6E
F2
74
72
64
ENDCHAR
STARTCHAR 4FF1
ENCODING 20465
SWIDTH 960 0
DWIDTH 8 0
BBX 6 7 1 -1
BITMAP
78
B8
A4
B8
FC
A8
C4
ENDCHAR
STARTCHAR 4FF3
ENCODING 20467
SWIDTH 960 0
DWIDTH 8 0
BBX 6 7 1 -1
BITMAP
68
EC
A8
EC
EC
A8
C8
ENDCHAR
STARTCHAR 4FF5
ENCODING 20469
SWIDTH 960 0
DWIDTH 8 0
BBX 6 7 1 -1
BITMAP
50
FC
B8
EC
A8
F8
E4
ENDCHAR
STARTCHAR 4FF8
ENCODING 20472
SWIDTH 960 0
DWIDTH 8 0
BBX 6 7 1 -1
BITMAP
50
FC
B8
FC
FC
FC
90
ENDCHAR
STARTCHAR 4FFA
ENCODING 20474
SWIDTH 960 0
DWIDTH 8 0
BBX 6 7 1 -1
BITMAP
50
FC
B8
D4
B8
BC
9C
ENDCHAR
STARTCHAR 5002
ENCODING 20482
SWIDTH 960 0
DWIDTH 8 0
BBX 6 7 1 -1
BITMAP
68
EC
A8
A8
FC
A8
C8
ENDCHAR
STARTCHAR 5006
ENCODING 20486
SWIDTH 960 0
DWIDTH 8 0
BBX 7 7 0 -1
BITMAP
3E
48
7E
FE
7E
6A
6E
ENDCHAR
STARTCHAR 5009
ENCODING 20489
SWIDTH 960 0
DWIDTH 8 0
BBX 6 7 1 -1
BITMAP
30
7C
F8
78
F8
F8
F8
ENDCHAR
STARTCHAR 500B
ENCODING 20491
SWIDTH 960 0
DWIDTH 8 0
BBX 6 7 1 -1
BITMAP
7C
D4
BC
DC
DC
BC
C4
ENDCHAR
STARTCHAR 500D
ENCODING 20493
SWIDTH 960 0
DWIDTH 8 0
BBX 6 7 1 -1
BITMAP
7C
A8
FC
80
B8
A4
B8
ENDCHAR
STARTCHAR 5011
ENCODING 20497
SWIDTH 960 0
DWIDTH 8 0
BBX 6 7 1 -1
BITMAP
AC
D4
AC
AC
C4
C4
CC
ENDCHAR
STARTCHAR 5012
ENCODING 20498
SWIDTH 960 0
DWIDTH 8 0
BBX 7 7 0 -1
BITMAP
3A
56
6E
D6
7E
5A
76
ENDCHAR
STARTCHAR 5016
ENCODING 20502
SWIDTH 960 0
DWIDTH 8 0
BBX 6 7 1 -1
BITMAP
50
BC
FC
A8
FC
90
90
ENDCHAR
STARTCHAR 5019
ENCODING 20505
SWIDTH 960 0
DWIDTH 8 0
BBX 6 7 1 -1
BITMAP
B8
FC
E0
FC
FC
D8
A4
ENDCHAR
STARTCHAR 501A
ENCODING 20506
SWIDTH 960 0
DWIDTH 8 0
BBX 7 7 0 -1
BITMAP
28
5E
52
BE
5A
5A
46
ENDCHAR
STARTCHAR 501C
ENCODING 20508
SWIDTH 960 0
DWIDTH 8 0
BBX 6 7 1 -1
BITMAP
7C
D4
BC
D4
DC
DC
CC
ENDCHAR
STARTCHAR 501E
ENCODING 20510
SWIDTH 960 0
DWIDTH 8 0
BBX 6 7 1 -1
BITMAP
7C
80
B8
A4
B8
B8
F4
ENDCHAR
STARTCHAR 501F
ENCODING 20511
SWIDTH 960 0
DWIDTH 8 0
BBX 6 7 1 -1
BITMAP
68
FC
FC
80
B8
B8
B8
ENDCHAR
STARTCHAR 5021
ENCODING 20513
SWIDTH 960 0
DWIDTH 8 0
BBX 6 7 1 -1
BITMAP
78
B8
B8
80
BC
BC
BC
ENDCHAR
STARTCHAR 5023
ENCODING 20515
SWIDTH 960 0
DWIDTH 8 0
BBX 6 7 1 -1
BITMAP
28
FC
D4
A8
D8
EC
B0
ENDCHAR
STARTCHAR 5024
ENCODING 20516
SWIDTH 960 0
DWIDTH 8 0
BBX 6 7 1 -1
BITMAP
50
FC
98
D8
D8
E4
FC
ENDCHAR
STARTCHAR 5026
ENCODING 20518
SWIDTH 960 0
DWIDTH 8 0
BBX 6 7 1 -1
BITMAP
A8
FC
B0
FC
FC
AC
BC
ENDCHAR
STARTCHAR 5027
ENCODING 20519
SWIDTH 960 0
DWIDTH 8 0
BBX 6 7 1 -1
BITMAP
50
7C
B8
80
FC
B4
D0
ENDCHAR
STARTCHAR 5028
ENCODING 20520
SWIDTH 960 0
DWIDTH 8 0
BBX 6 7 1 -1
BITMAP
7C
C4
BC
BC
BC
E4
FC
ENDCHAR
STARTCHAR 502A
ENCODING 20522
SWIDTH 960 0
DWIDTH 8 0
BBX 6 7 1 -1
BITMAP
6C
C4
AC
BC
A8
A8
CC
ENDCHAR
STARTCHAR 502B
ENCODING 20523
SWIDTH 960 0
DWIDTH 8 0
BBX 7 7 0 -1
BITMAP
3C
3E
40
DE
76
5E
42
ENDCHAR
STARTCHAR 502C
ENCODING 20524
SWIDTH 960 0
DWIDTH 8 0
BBX 6 7 1 -1
BITMAP
50
9C
BC
BC
BC
FC
90
ENDCHAR
STARTCHAR 502D
ENCODING 20525
SWIDTH 960 0
DWIDTH 8 0
BBX 6 7 1 -1
BITMAP
48
FC
B8
D4
FC
A8
F4
ENDCHAR
STARTCHAR 503B
ENCODING 20539
SWIDTH 960 0
DWIDTH 8 0
BBX 6 7 1 -1
BITMAP
7C
D4
E8
EC
D4
EC
90
ENDCHAR
STARTCHAR 5043
ENCODING 20547
SWIDTH 960 0
DWIDTH 8 0
BBX 7 7 0 -1
BITMAP
3E
6E
6E
EE
7E
7A
7E
ENDCHAR
STARTCHAR 5047
ENCODING 20551
SWIDTH 960 0
DWIDTH 8 0
BBX 7 7 0 -1
BITMAP
36
2A
76
6E
F4
64
6A
ENDCHAR
STARTCHAR 5048
ENCODING 20552
SWIDTH 960 0
DWIDTH 8 0
BBX 6 7 1 -1
BITMAP
78
B8
B8
BC
D4
BC
CC
ENDCHAR
STARTCHAR 5049
ENCODING 20553
SWIDTH 960 0
DWIDTH 8 0
BBX 6 7 1 -1
BITMAP
50
FC
80
B8
B8
FC
F0
ENDCHAR
STARTCHAR 504F
ENCODING 20559
SWIDTH 960 0
DWIDTH 8 0
BBX 7 7 0 -1
BITMAP
46
7E
62
FE
7E
7E
4E
ENDCHAR
STARTCHAR 5055
ENCODING 20565
SWIDTH 960 0
DWIDTH 8 0
BBX 6 7 1 -1
BITMAP
C4
AC
EC
90
BC
BC
BC
ENDCHAR
STARTCHAR 505A
ENCODING 20570
SWIDTH 960 0
DWIDTH 8 0
BBX 6 7 1 -1
BITMAP
40
EC
B4
E8
E8
F4
D4
ENDCHAR
STARTCHAR 505C
ENCODING 20572
SWIDTH 960 0
DWIDTH 8 0
BBX 6 7 1 -1
BITMAP
7C
80
B8
80
FC
90
90
ENDCHAR
STARTCHAR 5065
ENCODING 20581
SWIDTH 960 0
DWIDTH 8 0
BBX 6 7 1 -1
BITMAP
80
DC
BC
FC
DC
C0
FC
ENDCHAR
STARTCHAR 5074
ENCODING 20596
SWIDTH 960 0
DWIDTH 8 0
BBX 6 7 1 -1
BITMAP
6C
DC
EC
EC
EC
D4
DC
ENDCHAR
STARTCHAR 5075
ENCODING 20597
SWIDTH 960 0
DWIDTH 8 0
BBX 6 7 1 -1
BITMAP
50
9C
BC
BC
BC
BC
E4
ENDCHAR
STARTCHAR 5076
ENCODING 20598
SWIDTH 960 0
DWIDTH 8 0
BBX 6 7 1 -1
BITMAP
38
D4
B8
B8
FC
FC
CC
ENDCHAR
STARTCHAR 5078
ENCODING 20600
SWIDTH 960 0
DWIDTH 8 0
BBX 6 7 1 -1
BITMAP
70
B8
C4
FC
F4
F4
FC
ENDCHAR
STARTCHAR 5080
ENCODING 20608
SWIDTH 960 0
DWIDTH 8 0
BBX 6 7 1 -1
BITMAP
50
B8
B8
B8
B4
AC
CC
ENDCHAR
STARTCHAR 5085
ENCODING 20613
SWIDTH 960 0
DWIDTH 8 0
BBX 6 7 1 -1
BITMAP
58
FC
BC
BC
88
FC
88
ENDCHAR
STARTCHAR 508D
ENCODING 20621
SWIDTH 960 0
DWIDTH 8 0
BBX 6 7 1 -1
BITMAP
90
FC
FC
FC
A0
B8
D8
ENDCHAR
STARTCHAR 5091
ENCODING 20625
SWIDTH 960 0
DWIDTH 8 0
BBX 7 7 0 -1
BITMAP
50
76
5E
E8
7E
5C
6A
ENDCHAR
STARTCHAR 5098
ENCODING 20632
SWIDTH 960 0
DWIDTH 8 0
BBX 6 7 1 -1
BITMAP
20
78
EC
F8
F4
FC
20
ENDCHAR
STARTCHAR 5099
ENCODING 20633
SWIDTH 960 0
DWIDTH 8 0
BBX 6 7 1 -1
BITMAP
A8
FC
FC
FC
FC
FC
A4
ENDCHAR
STARTCHAR 50AC
ENCODING 20652
SWIDTH 960 0
DWIDTH 8 0
BBX 7 7 0 -1
BITMAP
2A
5E
50
FE
7E
58
5E
ENDCHAR
STARTCHAR 50AD
ENCODING 20653
SWIDTH 960 0
DWIDTH 8 0
BBX 6 7 1 -1
BITMAP
50
FC
FC
D0
FC
FC
E4
ENDCHAR
STARTCHAR 50B2
ENCODING 20658
SWIDTH 960 0
DWIDTH 8 0
BBX 6 7 1 -1
BITMAP
A8
EC
F4
FC
A8
DC
B4
ENDCHAR
STARTCHAR 50B3
ENCODING 20659
SWIDTH 960 0
DWIDTH 8 0
BBX 6 7 1 -1
BITMAP
90
FC
FC
FC
FC
A8
B8
ENDCHAR
STARTCHAR 50B5
ENCODING 20661
SWIDTH 960 0
DWIDTH 8 0
BBX 6 7 1 -1
BITMAP
50
BC
FC
BC
C4
BC
EC
ENDCHAR
STARTCHAR 50B7
ENCODING 20663
SWIDTH 960 0
DWIDTH 8 0
BBX 6 7 1 -1
BITMAP
A0
FC
B8
80
FC
EC
9C
ENDCHAR
STARTCHAR 50BE
ENCODING 20670
SWIDTH 960 0
DWIDTH 8 0
BBX 6 7 1 -1
BITMAP
5C
C8
FC
DC
FC
98
A4
ENDCHAR
STARTCHAR 50C5
ENCODING 20677
SWIDTH 960 0
DWIDTH 8 0
BBX 6 7 1 -1
BITMAP
28
FC
BC
D4
FC
BC
FC
ENDCHAR
STARTCHAR 50C9
ENCODING 20681
SWIDTH 960 0
DWIDTH 8 0
BBX 7 7 0 -1
BITMAP
10
7C
82
6C
6C
24
5A
ENDCHAR
STARTCHAR 50CA
ENCODING 20682
SWIDTH 960 0
DWIDTH 8 0
BBX 6 7 1 -1
BITMAP
7C
BC
BC
FC
FC
AC
B8
ENDCHAR
STARTCHAR 50CF
ENCODING 20687
SWIDTH 960 0
DWIDTH 8 0
BBX 6 7 1 -1
BITMAP
60
B8
FC
BC
F8
E8
D4
ENDCHAR
STARTCHAR 50D1
ENCODING 20689
SWIDTH 960 0
DWIDTH 8 0
BBX 6 7 1 -1
BITMAP
B8
FC
FC
80
FC
DC
CC
ENDCHAR
STARTCHAR 50D5
ENCODING 20693
SWIDTH 960 0
DWIDTH 8 0
BBX 6 7 1 -1
BITMAP
50
FC
A8
BC
FC
98
E4
ENDCHAR
STARTCHAR 50D6
ENCODING 20694
SWIDTH 960 0
DWIDTH 8 0
BBX 6 7 1 -1
BITMAP
50
FC
B8
B8
FC
B8
B8
ENDCHAR
STARTCHAR 50DA
ENCODING 20698
SWIDTH 960 0
DWIDTH 8 0
BBX 6 7 1 -1
BITMAP
90
FC
F8
FC
B8
D8
F4
ENDCHAR
STARTCHAR 50DE
ENCODING 20702
SWIDTH 960 0
DWIDTH 8 0
BBX 6 7 1 -1
BITMAP
78
D4
B8
B8
BC
B4
EC
ENDCHAR
STARTCHAR 50E5
ENCODING 20709
SWIDTH 960 0
DWIDTH 8 0
BBX 6 7 1 -1
BITMAP
50
FC
A8
FC
80
FC
EC
ENDCHAR
STARTCHAR 50E7
ENCODING 20711
SWIDTH 960 0
DWIDTH 8 0
BBX 6 7 1 -1
BITMAP
B8
C4
FC
B8
B8
B8
B8
ENDCHAR
STARTCHAR 50ED
ENCODING 20717
SWIDTH 960 0
DWIDTH 8 0
BBX 6 7 1 -1
BITMAP
6C
E8
DC
A4
FC
FC
FC
ENDCHAR
STARTCHAR 50F9
ENCODING 20729
SWIDTH 960 0
DWIDTH 8 0
BBX 6 7 1 -1
BITMAP
7C
7C
FC
BC
BC
BC
EC
ENDCHAR
STARTCHAR 50FB
ENCODING 20731
SWIDTH 960 0
DWIDTH 8 0
BBX 6 7 1 -1
BITMAP
7C
E4
E8
DC
E8
DC
A8
ENDCHAR
STARTCHAR 50FF
ENCODING 20735
SWIDTH 960 0
DWIDTH 8 0
BBX 7 7 0 -1
BITMAP
48
7E
5E
DC
7E
7E
7E
ENDCHAR
STARTCHAR 5100
ENCODING 20736
SWIDTH 960 0
DWIDTH 8 0
BBX 6 7 1 -1
BITMAP
68
FC
FC
94
FC
EC
B4
ENDCHAR
STARTCHAR 5101
ENCODING 20737
SWIDTH 960 0
DWIDTH 8 0
BBX 6 7 1 -1
BITMAP
70
BC
F8
BC
AC
DC
C4
ENDCHAR
STARTCHAR 5104
ENCODING 20740
SWIDTH 960 0
DWIDTH 8 0
BBX 6 7 1 -1
BITMAP
90
FC
80
B8
B8
BC
FC
ENDCHAR
STARTCHAR 5106
ENCODING 20742
SWIDTH 960 0
DWIDTH 8 0
BBX 6 7 1 -1
BITMAP
08
F8
CC
FC
F8
FC
AC
ENDCHAR
STARTCHAR 5109
ENCODING 20745
SWIDTH 960 0
DWIDTH 8 0
BBX 6 7 1 -1
BITMAP
B8
FC
80
EC
EC
A8
F4
ENDCHAR
STARTCHAR 5112
ENCODING 20754
SWIDTH 960 0
DWIDTH 8 0
BBX 6 7 1 -1
BITMAP
BC
FC
90
80
FC
FC
C4
ENDCHAR
STARTCHAR 511F
ENCODING 20767
SWIDTH 960 0
DWIDTH 8 0
BBX 6 7 1 -1
BITMAP
B8
FC
B8
BC
BC
BC
EC
ENDCHAR
STARTCHAR 5121
ENCODING 20769
SWIDTH 960 0
DWIDTH 8 0
BBX 7 7 0 -1
BITMAP
1C
5C
5C
C0
76
76
76
ENDCHAR
STARTCHAR 512A
ENCODING 20778
SWIDTH 960 0
DWIDTH 8 0
BBX 6 7 1 -1
BITMAP
7C
A4
B8
C4
DC
E8
FC
ENDCHAR
STARTCHAR 5132
ENCODING 20786
SWIDTH 960 0
DWIDTH 8 0
BBX 6 7 1 -1
BITMAP
64
F8
FC
EC
9C
FC
FC
ENDCHAR
STARTCHAR 5137
ENCODING 20791
SWIDTH 960 0
DWIDTH 8 0
BBX 6 7 1 -1
BITMAP
EC
F4
FC
FC
FC
F8
BC
ENDCHAR
STARTCHAR 513A
ENCODING 20794
SWIDTH 960 0
DWIDTH 8 0
BBX 6 7 1 -1
BITMAP
C8
FC
F4
EC
FC
B4
5C
ENDCHAR
STARTCHAR 513C
ENCODING 20796
SWIDTH 960 0
DWIDTH 8 0
BBX 6 7 1 -1
BITMAP
6C
EC
FC
FC
FC
FC
BC
ENDCHAR
STARTCHAR 5140
ENCODING 20800
SWIDTH 960 0
DWIDTH 8 0
BBX 6 6 1 -1
BITMAP
FC
50
50
50
D4
9C
ENDCHAR
STARTCHAR 5141
ENCODING 20801
SWIDTH 960 0
DWIDTH 8 0
BBX 6 7 1 -1
BITMAP
48
58
E4
50
50
54
9C
ENDCHAR
STARTCHAR 5143
ENCODING 20803
SWIDTH 960 0
DWIDTH 8 0
BBX 6 7 1 -1
BITMAP
F8
00
FC
50
50
54
9C
ENDCHAR
STARTCHAR 5144
ENCODING 20804
SWIDTH 960 0
DWIDTH 8 0
BBX 6 7 1 -1
BITMAP
F8
88
88
F8
50
54
9C
ENDCHAR
STARTCHAR 5145
ENCODING 20805
SWIDTH 960 0
DWIDTH 8 0
BBX 6 7 1 -1
BITMAP
20
FC
58
E4
50
54
9C
ENDCHAR
STARTCHAR 5146
ENCODING 20806
SWIDTH 960 0
DWIDTH 8 0
BBX 6 7 1 -1
BITMAP
50
D4
58
58
D4
54
9C
ENDCHAR
STARTCHAR 5147
ENCODING 20807
SWIDTH 960 0
DWIDTH 8 0
BBX 6 7 1 -1
BITMAP
D8
B8
F8
F8
50
54
9C
ENDCHAR
STARTCHAR 5148
ENCODING 20808
SWIDTH 960 0
DWIDTH 8 0
BBX 6 7 1 -1
BITMAP
60
78
A0
FC
50
50
9C
ENDCHAR
STARTCHAR 5149
ENCODING 20809
SWIDTH 960 0
DWIDTH 8 0
BBX 6 7 1 -1
BITMAP
A8
68
20
FC
50
54
9C
ENDCHAR
STARTCHAR 514B
ENCODING 20811
SWIDTH 960 0
DWIDTH 8 0
BBX 6 7 1 -1
BITMAP
20
FC
F8
88
F8
54
9C
ENDCHAR
STARTCHAR 514C
ENCODING 20812
SWIDTH 960 0
DWIDTH 8 0
BBX 7 7 0 -1
BITMAP
18
44
BE
44
3C
28
4E
ENDCHAR
STARTCHAR 514D
ENCODING 20813
SWIDTH 960 0
DWIDTH 8 0
BBX 6 7 1 -1
BITMAP
40
70
F8
A4
F8
24
DC
ENDCHAR
STARTCHAR 514E
ENCODING 20814
SWIDTH 960 0
DWIDTH 8 0
BBX 6 7 1 -1
BITMAP
18
E0
F8
A4
F8
5C
9C
ENDCHAR
STARTCHAR 5152
ENCODING 20818
SWIDTH 960 0
DWIDTH 8 0
BBX 6 7 1 -1
BITMAP
F8
88
D8
88
F8
54
9C
ENDCHAR
STARTCHAR 515C
ENCODING 20828
SWIDTH 960 0
DWIDTH 8 0
BBX 6 7 1 -1
BITMAP
A0
BC
B4
BC
50
54
9C
ENDCHAR
STARTCHAR 5162
ENCODING 20834
SWIDTH 960 0
DWIDTH 8 0
BBX 7 7 0 -1
BITMAP
24
7E
6E
92
6E
7C
B6
ENDCHAR
STARTCHAR 5165
ENCODING 20837
SWIDTH 960 0
DWIDTH 8 0
BBX 6 7 1 -1
BITMAP
60
20
20
30
50
C8
84
ENDCHAR
STARTCHAR 5167
ENCODING 20839
SWIDTH 960 0
DWIDTH 8 0
BBX 6 7 1 -1
BITMAP
60
FC
A4
D4
CC
84
8C
ENDCHAR
STARTCHAR 5168
ENCODING 20840
SWIDTH 960 0
DWIDTH 8 0
BBX 6 7 1 -1
BITMAP
60
30
C8
74
78
20
FC
ENDCHAR
STARTCHAR 5169
ENCODING 20841
SWIDTH 960 0
DWIDTH 8 0
BBX 6 7 1 -1
BITMAP
FC
FC
A4
F4
BC
A4
2C
ENDCHAR
STARTCHAR 516A
ENCODING 20842
SWIDTH 960 0
DWIDTH 8 0
BBX 6 7 1 -1
BITMAP
60
58
FC
E0
B8
F8
EC
ENDCHAR
STARTCHAR 516B
ENCODING 20843
SWIDTH 960 0
DWIDTH 8 0
BBX 7 7 0 -1
BITMAP
18
28
24
24
44
42
82
ENDCHAR
STARTCHAR 516C
ENCODING 20844
SWIDTH 960 0
DWIDTH 8 0
BBX 6 7 1 -1
BITMAP
70
48
A8
A4
50
48
F4
ENDCHAR
STARTCHAR 516D
ENCODING 20845
SWIDTH 960 0
DWIDTH 8 0
BBX 7 7 0 -1
BITMAP
10
7E
00
28
24
44
82
ENDCHAR
STARTCHAR 516E
ENCODING 20846
SWIDTH 960 0
DWIDTH 8 0
BBX 7 7 0 -1
BITMAP
18
44
7C
A2
3C
04
08
ENDCHAR
STARTCHAR 5171
ENCODING 20849
SWIDTH 960 0
DWIDTH 8 0
BBX 6 7 1 -1
BITMAP
50
50
FC
FC
00
48
84
ENDCHAR
STARTCHAR 5175
ENCODING 20853
SWIDTH 960 0
DWIDTH 8 0
BBX 6 7 1 -1
BITMAP
78
40
7C
50
FC
48
84
ENDCHAR
STARTCHAR 5176
ENCODING 20854
SWIDTH 960 0
DWIDTH 8 0
BBX 6 7 1 -1
BITMAP
48
FC
78
48
FC
58
84
ENDCHAR
STARTCHAR 5177
ENCODING 20855
SWIDTH 960 0
DWIDTH 8 0
BBX 6 7 1 -1
BITMAP
78
78
78
78
FC
58
84
ENDCHAR
STARTCHAR 5178
ENCODING 20856
SWIDTH 960 0
DWIDTH 8 0
BBX 6 7 1 -1
BITMAP
50
F8
D8
F8
FC
48
84
ENDCHAR
STARTCHAR 517C
ENCODING 20860
SWIDTH 960 0
DWIDTH 8 0
BBX 6 7 1 -1
BITMAP
70
F8
FC
FC
F8
58
B4
ENDCHAR
STARTCHAR 5180
ENCODING 20864
SWIDTH 960 0
DWIDTH 8 0
BBX 6 7 1 -1
BITMAP
D4
DC
F8
F8
FC
FC
8C
ENDCHAR
STARTCHAR 5186
ENCODING 20870
SWIDTH 960 0
DWIDTH 8 0
BBX 5 7 1 -1
BITMAP
F8
A8
A8
F8
88
88
88
ENDCHAR
STARTCHAR 518A
ENCODING 20874
SWIDTH 960 0
DWIDTH 8 0
BBX 7 7 0 -1
BITMAP
7C
5C
5C
FE
5C
5C
44
ENDCHAR
STARTCHAR 518D
ENCODING 20877
SWIDTH 960 0
DWIDTH 8 0
BBX 6 7 1 -1
BITMAP
FC
F8
A8
F8
FC
88
88
ENDCHAR
STARTCHAR 5192
ENCODING 20882
SWIDTH 960 0
DWIDTH 8 0
BBX 6 7 1 -1
BITMAP
FC
FC
FC
F8
F8
F8
F8
ENDCHAR
STARTCHAR 5195
ENCODING 20885
SWIDTH 960 0
DWIDTH 8 0
BBX 6 7 1 -1
BITMAP
F8
88
F8
78
A8
FC
DC
ENDCHAR
STARTCHAR 5197
ENCODING 20887
SWIDTH 960 0
DWIDTH 8 0
BBX 6 7 1 -1
BITMAP
FC
84
70
50
50
94
9C
ENDCHAR
STARTCHAR 51A0
ENCODING 20896
SWIDTH 960 0
DWIDTH 8 0
BBX 7 7 0 -1
BITMAP
7E
62
0E
7C
64
66
9E
ENDCHAR
STARTCHAR 51A5
ENCODING 20901
SWIDTH 960 0
DWIDTH 8 0
BBX 6 7 1 -1
BITMAP
FC
FC
78
78
FC
58
84
ENDCHAR
STARTCHAR 51AA
ENCODING 20906
SWIDTH 960 0
DWIDTH 8 0
BBX 6 7 1 -1
BITMAP
FC
FC
F8
F8
FC
FC
28
ENDCHAR
STARTCHAR 51AC
ENCODING 20908
SWIDTH 960 0
DWIDTH 8 0
BBX 7 7 0 -1
BITMAP
20
3C
68
B8
5E
30
0C
ENDCHAR
STARTCHAR 51B6
ENCODING 20918
SWIDTH 960 0
DWIDTH 8 0
BBX 6 7 1 -1
BITMAP
98
A8
3C
00
B8
C4
38
ENDCHAR
STARTCHAR 51B7
ENCODING 20919
SWIDTH 960 0
DWIDTH 8 0
BBX 6 7 1 -1
BITMAP
90
A8
7C
00
F8
A8
A0
ENDCHAR
STARTCHAR 51BD
ENCODING 20925
SWIDTH 960 0
DWIDTH 8 0
BBX 7 7 0 -1
BITMAP
BA
66
36
2A
56
52
A6
ENDCHAR
STARTCHAR 51C4
ENCODING 20932
SWIDTH 960 0
DWIDTH 8 0
BBX 7 7 0 -1
BITMAP
88
7E
3C
3E
7E
54
3E
ENDCHAR
STARTCHAR 51C6
ENCODING 20934
SWIDTH 960 0
DWIDTH 8 0
BBX 6 7 1 -1
BITMAP
A8
BC
50
7C
BC
B0
3C
ENDCHAR
STARTCHAR 51C9
ENCODING 20937
SWIDTH 960 0
DWIDTH 8 0
BBX 6 7 1 -1
BITMAP
FC
80
38
44
B8
B8
F4
ENDCHAR
STARTCHAR 51CB
ENCODING 20939
SWIDTH 960 0
DWIDTH 8 0
BBX 6 7 1 -1
BITMAP
FC
FC
7C
54
FC
FC
4C
ENDCHAR
STARTCHAR 51CC
ENCODING 20940
SWIDTH 960 0
DWIDTH 8 0
BBX 7 7 0 -1
BITMAP
88
7E
3E
30
7C
58
A6
ENDCHAR
STARTCHAR 51CD
ENCODING 20941
SWIDTH 960 0
DWIDTH 8 0
BBX 7 7 0 -1
BITMAP
88
7E
3E
3E
7E
5C
2A
ENDCHAR
STARTCHAR 51DC
ENCODING 20956
SWIDTH 960 0
DWIDTH 8 0
BBX 7 7 0 -1
BITMAP
BE
7E
36
3E
58
7E
2A
ENDCHAR
STARTCHAR 51DD
ENCODING 20957
SWIDTH 960 0
DWIDTH 8 0
BBX 7 7 0 -1
BITMAP
BE
74
24
3E
7E
7C
AE
ENDCHAR
STARTCHAR 51DE
ENCODING 20958
SWIDTH 960 0
DWIDTH 8 0
BBX 7 7 0 -1
BITMAP
7E
3A
4E
7A
BE
6C
AA
ENDCHAR
STARTCHAR 51E1
ENCODING 20961
SWIDTH 960 0
DWIDTH 8 0
BBX 7 7 0 -1
BITMAP
38
48
58
58
48
4A
86
ENDCHAR
STARTCHAR 51F0
ENCODING 20976
SWIDTH 960 0
DWIDTH 8 0
BBX 7 7 0 -1
BITMAP
7C
7C
7C
7C
7C
BE
3A
ENDCHAR
STARTCHAR 51F1
ENCODING 20977
SWIDTH 960 0
DWIDTH 8 0
BBX 7 7 0 -1
BITMAP
1C
7C
FC
6C
6C
6E
52
ENDCHAR
STARTCHAR 51F6
ENCODING 20982
SWIDTH 960 0
DWIDTH 8 0
BBX 6 7 1 -1
BITMAP
08
D4
B4
A4
DC
FC
84
ENDCHAR
STARTCHAR 51F8
ENCODING 20984
SWIDTH 960 0
DWIDTH 8 0
BBX 6 7 1 -1
BITMAP
70
50
50
8C
84
FC
84
ENDCHAR
STARTCHAR 51F9
ENCODING 20985
SWIDTH 960 0
DWIDTH 8 0
BBX 6 7 1 -1
BITMAP
DC
D4
D4
B4
84
FC
84
ENDCHAR
STARTCHAR 51FA
ENCODING 20986
SWIDTH 960 0
DWIDTH 8 0
BBX 6 7 1 -1
BITMAP
20
A4
A4
F8
A4
A4
FC
ENDCHAR
STARTCHAR 51FD
ENCODING 20989
SWIDTH 960 0
DWIDTH 8 0
BBX 6 7 1 -1
BITMAP
FC
28
F4
94
EC
A4
FC
ENDCHAR
STARTCHAR 5200
ENCODING 20992
SWIDTH 960 0
DWIDTH 8 0
BBX 5 7 1 -1
BITMAP
F8
28
28
48
48
C8
98
ENDCHAR
STARTCHAR 5203
ENCODING 20995
SWIDTH 960 0
DWIDTH 8 0
BBX 6 7 1 -1
BITMAP
FC
64
A4
A4
24
44
98
ENDCHAR
STARTCHAR 5206
ENCODING 20998
SWIDTH 960 0
DWIDTH 8 0
BBX 7 7 0 -1
BITMAP
38
44
82
3C
14
24
48
ENDCHAR
STARTCHAR 5207
ENCODING 20999
SWIDTH 960 0
DWIDTH 8 0
BBX 7 7 0 -1
BITMAP
5E
4A
FA
5A
6A
12
24
ENDCHAR
STARTCHAR 5208
ENCODING 21000
SWIDTH 960 0
DWIDTH 8 0
BBX 7 7 0 -1
BITMAP
0A
2A
6A
2A
3A
4A
86
ENDCHAR
STARTCHAR 520A
ENCODING 21002
SWIDTH 960 0
DWIDTH 8 0
BBX 7 7 0 -1
BITMAP
72
2A
2A
FA
22
22
26
ENDCHAR
STARTCHAR 520E
ENCODING 21006
SWIDTH 960 0
DWIDTH 8 0
BBX 6 7 1 -1
BITMAP
84
EC
AC
EC
EC
A4
EC
ENDCHAR
STARTCHAR 5211
ENCODING 21009
SWIDTH 960 0
DWIDTH 8 0
BBX 7 7 0 -1
BITMAP
72
56
56
FA
56
52
96
ENDCHAR
STARTCHAR 5217
ENCODING 21015
SWIDTH 960 0
DWIDTH 8 0
BBX 7 7 0 -1
BITMAP
72
42
7A
7A
A2
22
46
ENDCHAR
STARTCHAR 521D
ENCODING 21021
SWIDTH 960 0
DWIDTH 8 0
BBX 7 7 0 -1
BITMAP
40
7E
2A
5A
EA
52
54
ENDCHAR
STARTCHAR 5224
ENCODING 21028
SWIDTH 960 0
DWIDTH 8 0
BBX 7 7 0 -1
BITMAP
62
BA
2A
7A
FA
42
46
ENDCHAR
STARTCHAR 5225
ENCODING 21029
SWIDTH 960 0
DWIDTH 8 0
BBX 7 7 0 -1
BITMAP
7A
5A
7A
4A
7A
52
B6
ENDCHAR
STARTCHAR 5229
ENCODING 21033
SWIDTH 960 0
DWIDTH 8 0
BBX 7 7 0 -1
BITMAP
3A
6A
7A
2A
7A
A2
26
ENDCHAR
STARTCHAR 522A
ENCODING 21034
SWIDTH 960 0
DWIDTH 8 0
BBX 7 7 0 -1
BITMAP
76
56
56
FE
56
4A
16
ENDCHAR
STARTCHAR 522E
ENCODING 21038
SWIDTH 960 0
DWIDTH 8 0
BBX 7 7 0 -1
BITMAP
12
62
F6
26
72
52
76
ENDCHAR
STARTCHAR 5230
ENCODING 21040
SWIDTH 960 0
DWIDTH 8 0
BBX 6 7 1 -1
BITMAP
E4
A4
EC
4C
E4
64
CC
ENDCHAR
STARTCHAR 5236
ENCODING 21046
SWIDTH 960 0
DWIDTH 8 0
BBX 6 7 1 -1
BITMAP
C4
E4
EC
4C
E4
E4
CC
ENDCHAR
STARTCHAR 5237
ENCODING 21047
SWIDTH 960 0
DWIDTH 8 0
BBX 7 7 0 -1
BITMAP
72
52
76
76
6A
92
06
ENDCHAR
STARTCHAR 5238
ENCODING 21048
SWIDTH 960 0
DWIDTH 8 0
BBX 7 7 0 -1
BITMAP
34
7C
1A
FE
7E
24
48
ENDCHAR
STARTCHAR 5239
ENCODING 21049
SWIDTH 960 0
DWIDTH 8 0
BBX 7 7 0 -1
BITMAP
12
26
76
76
76
B2
26
ENDCHAR
STARTCHAR 523A
ENCODING 21050
SWIDTH 960 0
DWIDTH 8 0
BBX 7 7 0 -1
BITMAP
22
7A
76
6A
76
B2
26
ENDCHAR
STARTCHAR 523B
ENCODING 21051
SWIDTH 960 0
DWIDTH 8 0
BBX 6 7 1 -1
BITMAP
44
E4
54
D4
A4
44
AC
ENDCHAR
STARTCHAR 5243
ENCODING 21059
SWIDTH 960 0
DWIDTH 8 0
BBX 7 7 0 -1
BITMAP
56
76
76
66
7A
B2
26
ENDCHAR
STARTCHAR 5247
ENCODING 21063
SWIDTH 960 0
DWIDTH 8 0
BBX 7 7 0 -1
BITMAP
7A
5A
7A
7A
7A
52
96
ENDCHAR
STARTCHAR 524A
ENCODING 21066
SWIDTH 960 0
DWIDTH 8 0
BBX 7 7 0 -1
BITMAP
72
BA
7A
7A
5A
72
56
ENDCHAR
STARTCHAR 524B
ENCODING 21067
SWIDTH 960 0
DWIDTH 8 0
BBX 7 7 0 -1
BITMAP
20
F2
7A
52
72
66
5E
ENDCHAR
STARTCHAR 524C
ENCODING 21068
SWIDTH 960 0
DWIDTH 8 0
BBX 7 7 0 -1
BITMAP
22
7A
7A
7A
72
B2
26
ENDCHAR
STARTCHAR 524D
ENCODING 21069
SWIDTH 960 0
DWIDTH 8 0
BBX 6 7 1 -1
BITMAP
50
FC
D4
B4
D4
D4
C8
ENDCHAR
STARTCHAR 5254
ENCODING 21076
SWIDTH 960 0
DWIDTH 8 0
BBX 6 7 1 -1
BITMAP
EC
EC
AC
EC
EC
E4
AC
ENDCHAR
STARTCHAR 5256
ENCODING 21078
SWIDTH 960 0
DWIDTH 8 0
BBX 7 7 0 -1
BITMAP
72
52
F6
06
72
52
76
ENDCHAR
STARTCHAR 525B
ENCODING 21083
SWIDTH 960 0
DWIDTH 8 0
BBX 6 7 1 -1
BITMAP
F4
BC
BC
FC
FC
F4
3C
ENDCHAR
STARTCHAR 525D
ENCODING 21085
SWIDTH 960 0
DWIDTH 8 0
BBX 7 7 0 -1
BITMAP
42
72
66
FA
62
7A
66
ENDCHAR
STARTCHAR 5261
ENCODING 21089
SWIDTH 960 0
DWIDTH 8 0
BBX 6 7 1 -1
BITMAP
E4
AC
AC
4C
E4
A4
AC
ENDCHAR
STARTCHAR 5269
ENCODING 21097
SWIDTH 960 0
DWIDTH 8 0
BBX 7 7 0 -1
BITMAP
66
FE
7E
7E
36
6A
A6
ENDCHAR
STARTCHAR 526A
ENCODING 21098
SWIDTH 960 0
DWIDTH 8 0
BBX 6 7 1 -1
BITMAP
FC
00
F4
F8
00
FC
C8
ENDCHAR
STARTCHAR 526F
ENCODING 21103
SWIDTH 960 0
DWIDTH 8 0
BBX 6 7 1 -1
BITMAP
E4
EC
EC
0C
EC
E4
EC
ENDCHAR
STARTCHAR 5272
ENCODING 21106
SWIDTH 960 0
DWIDTH 8 0
BBX 6 7 1 -1
BITMAP
44
E4
EC
EC
04
E4
EC
ENDCHAR
STARTCHAR 5275
ENCODING 21109
SWIDTH 960 0
DWIDTH 8 0
BBX 6 7 1 -1
BITMAP
6C
F4
EC
EC
EC
94
6C
ENDCHAR
STARTCHAR 527D
ENCODING 21117
SWIDTH 960 0
DWIDTH 8 0
BBX 7 7 0 -1
BITMAP
7A
76
76
06
76
FA
AE
ENDCHAR
STARTCHAR 527F
ENCODING 21119
SWIDTH 960 0
DWIDTH 8 0
BBX 7 7 0 -1
BITMAP
76
76
76
76
FA
72
AE
ENDCHAR
STARTCHAR 5283
ENCODING 21123
SWIDTH 960 0
DWIDTH 8 0
BBX 7 7 0 -1
BITMAP
72
FE
7E
FE
76
6A
7E
ENDCHAR
STARTCHAR 5287
ENCODING 21127
SWIDTH 960 0
DWIDTH 8 0
BBX 7 7 0 -1
BITMAP
32
7E
76
7E
6E
B2
7E
ENDCHAR
STARTCHAR 5288
ENCODING 21128
SWIDTH 960 0
DWIDTH 8 0
BBX 6 7 1 -1
BITMAP
C8
DC
FC
E8
FC
24
C8
ENDCHAR
STARTCHAR 5289
ENCODING 21129
SWIDTH 960 0
DWIDTH 8 0
BBX 7 7 0 -1
BITMAP
3A
5E
FE
36
7E
72
7E
ENDCHAR
STARTCHAR 528D
ENCODING 21133
SWIDTH 960 0
DWIDTH 8 0
BBX 7 7 0 -1
BITMAP
32
FE
06
5E
5E
52
AE
ENDCHAR
STARTCHAR 5291
ENCODING 21137
SWIDTH 960 0
DWIDTH 8 0
BBX 7 7 0 -1
BITMAP
FE
3E
7E
7E
76
76
86
ENDCHAR
STARTCHAR 5292
ENCODING 21138
SWIDTH 960 0
DWIDTH 8 0
BBX 7 7 0 -1
BITMAP
7E
F6
0E
7E
76
5A
BE
ENDCHAR
STARTCHAR 529B
ENCODING 21147
SWIDTH 960 0
DWIDTH 8 0
BBX 6 7 1 -1
BITMAP
20
20
FC
24
24
48
98
ENDCHAR
STARTCHAR 529F
ENCODING 21151
SWIDTH 960 0
DWIDTH 8 0
BBX 6 7 1 -1
BITMAP
10
D0
BC
94
74
A4
28
ENDCHAR
STARTCHAR 52A0
ENCODING 21152
SWIDTH 960 0
DWIDTH 8 0
BBX 7 7 0 -1
BITMAP
40
76
5A
5A
5A
56
BA
ENDCHAR
STARTCHAR 52A3
ENCODING 21155
SWIDTH 960 0
DWIDTH 8 0
BBX 6 7 1 -1
BITMAP
68
A4
30
E0
F8
24
C8
ENDCHAR
STARTCHAR 52A4
ENCODING 21156
SWIDTH 960 0
DWIDTH 8 0
BBX 7 7 0 -1
BITMAP
18
6E
7A
6A
6A
AA
34
ENDCHAR
STARTCHAR 52A9
ENCODING 21161
SWIDTH 960 0
DWIDTH 8 0
BBX 7 7 0 -1
BITMAP
68
68
6E
6A
6A
FA
16
ENDCHAR
STARTCHAR 52AA
ENCODING 21162
SWIDTH 960 0
DWIDTH 8 0
BBX 7 7 0 -1
BITMAP
4E
EA
34
5A
7C
24
4C
ENDCHAR
STARTCHAR 52AB
ENCODING 21163
SWIDTH 960 0
DWIDTH 8 0
BBX 6 7 1 -1
BITMAP
48
E8
5C
EC
94
F4
2C
ENDCHAR
STARTCHAR 52BE
ENCODING 21182
SWIDTH 960 0
DWIDTH 8 0
BBX 7 7 0 -1
BITMAP
24
74
4E
36
66
5A
8E
ENDCHAR
STARTCHAR 52C1
ENCODING 21185
SWIDTH 960 0
DWIDTH 8 0
BBX 7 7 0 -1
BITMAP
74
74
DE
76
7A
3A
4E
ENDCHAR
STARTCHAR 52C3
ENCODING 21187
SWIDTH 960 0
DWIDTH 8 0
BBX 6 7 1 -1
BITMAP
48
E8
FC
D4
F4
54
AC
ENDCHAR
STARTCHAR 52C5
ENCODING 21189
SWIDTH 960 0
DWIDTH 8 0
BBX 7 7 0 -1
BITMAP
20
F4
7E
B6
7A
BA
34
ENDCHAR
STARTCHAR 52C7
ENCODING 21191
SWIDTH 960 0
DWIDTH 8 0
BBX 6 7 1 -1
BITMAP
F8
F8
A4
F8
20
FC
C8
ENDCHAR
STARTCHAR 52C9
ENCODING 21193
SWIDTH 960 0
DWIDTH 8 0
BBX 6 7 1 -1
BITMAP
80
C8
FC
F4
D4
DC
BC
ENDCHAR
STARTCHAR 52CD
ENCODING 21197
SWIDTH 960 0
DWIDTH 8 0
BBX 7 7 0 -1
BITMAP
74
0E
76
56
7A
BA
6E
ENDCHAR
STARTCHAR 52D2
ENCODING 21202
SWIDTH 960 0
DWIDTH 8 0
BBX 7 7 0 -1
BITMAP
68
F8
6E
7A
7A
FA
16
ENDCHAR
STARTCHAR 52D5
ENCODING 21205
SWIDTH 960 0
DWIDTH 8 0
BBX 7 7 0 -1
BITMAP
F0
F4
7E
76
7A
7A
CE
ENDCHAR
STARTCHAR 52D6
ENCODING 21206
SWIDTH 960 0
DWIDTH 8 0
BBX 6 7 1 -1
BITMAP
E8
E8
FC
EC
F4
F4
EC
ENDCHAR
STARTCHAR 52D8
ENCODING 21208
SWIDTH 960 0
DWIDTH 8 0
BBX 7 7 0 -1
BITMAP
50
74
5E
76
FA
7A
0E
ENDCHAR
STARTCHAR 52D9
ENCODING 21209
SWIDTH 960 0
DWIDTH 8 0
BBX 7 7 0 -1
BITMAP
68
4E
E4
5A
5E
4A
56
ENDCHAR
STARTCHAR 52DB
ENCODING 21211
SWIDTH 960 0
DWIDTH 8 0
BBX 6 7 1 -1
BITMAP
E8
E8
FC
EC
F4
F4
AC
ENDCHAR
STARTCHAR 52DD
ENCODING 21213
SWIDTH 960 0
DWIDTH 8 0
BBX 7 7 0 -1
BITMAP
5A
6E
4C
5E
BE
AC
54
ENDCHAR
STARTCHAR 52DE
ENCODING 21214
SWIDTH 960 0
DWIDTH 8 0
BBX 6 7 1 -1
BITMAP
9C
C8
D4
FC
F8
48
98
ENDCHAR
STARTCHAR 52DF
ENCODING 21215
SWIDTH 960 0
DWIDTH 8 0
BBX 7 7 0 -1
BITMAP
7E
7C
7C
7C
FE
7E
68
ENDCHAR
STARTCHAR 52E2
ENCODING 21218
SWIDTH 960 0
DWIDTH 8 0
BBX 7 7 0 -1
BITMAP
20
FC
7C
7E
10
7C
6C
ENDCHAR
STARTCHAR 52E3
ENCODING 21219
SWIDTH 960 0
DWIDTH 8 0
BBX 7 7 0 -1
BITMAP
24
74
FE
76
5A
7A
56
ENDCHAR
STARTCHAR 52E4
ENCODING 21220
SWIDTH 960 0
DWIDTH 8 0
BBX 7 7 0 -1
BITMAP
44
F4
7E
76
7A
3A
CE
ENDCHAR
STARTCHAR 52F3
ENCODING 21235
SWIDTH 960 0
DWIDTH 8 0
BBX 7 7 0 -1
BITMAP
74
F4
7E
76
76
4A
8E
ENDCHAR
STARTCHAR 52F5
ENCODING 21237
SWIDTH 960 0
DWIDTH 8 0
BBX 7 7 0 -1
BITMAP
74
74
BE
F6
96
76
DE
ENDCHAR
STARTCHAR 52F8
ENCODING 21240
SWIDTH 960 0
DWIDTH 8 0
BBX 7 7 0 -1
BITMAP
F0
74
BE
46
7A
7A
76
ENDCHAR
STARTCHAR 52FA
ENCODING 21242
SWIDTH 960 0
DWIDTH 8 0
BBX 6 7 1 -1
BITMAP
40
7C
84
84
F4
04
18
ENDCHAR
STARTCHAR 52FB
ENCODING 21243
SWIDTH 960 0
DWIDTH 8 0
BBX 7 7 0 -1
BITMAP
20
3E
42
BA
3A
02
0C
ENDCHAR
STARTCHAR 52FE
ENCODING 21246
SWIDTH 960 0
DWIDTH 8 0
BBX 6 7 1 -1
BITMAP
40
7C
C4
C4
B4
D4
18
ENDCHAR
STARTCHAR 52FF
ENCODING 21247
SWIDTH 960 0
DWIDTH 8 0
BBX 6 7 1 -1
BITMAP
40
7C
B4
D4
54
A4
48
ENDCHAR
STARTCHAR 5305
ENCODING 21253
SWIDTH 960 0
DWIDTH 8 0
BBX 6 7 1 -1
BITMAP
40
F8
E4
98
E8
84
FC
ENDCHAR
STARTCHAR 5308
ENCODING 21256
SWIDTH 960 0
DWIDTH 8 0
BBX 6 7 1 -1
BITMAP
40
FC
D4
AC
D4
F4
18
ENDCHAR
STARTCHAR 530D
ENCODING 21261
SWIDTH 960 0
DWIDTH 8 0
BBX 6 7 1 -1
BITMAP
40
FC
FC
F4
F4
F4
BC
ENDCHAR
STARTCHAR 530F
ENCODING 21263
SWIDTH 960 0
DWIDTH 8 0
BBX 7 7 0 -1
BITMAP
08
EE
BE
6E
FE
6A
6E
ENDCHAR
STARTCHAR 5310
ENCODING 21264
SWIDTH 960 0
DWIDTH 8 0
BBX 7 7 0 -1
BITMAP
20
7E
7A
BA
7A
7A
04
ENDCHAR
STARTCHAR 5315
ENCODING 21269
SWIDTH 960 0
DWIDTH 8 0
BBX 5 7 2 -1
BITMAP
80
90
E0
80
80
88
F0
ENDCHAR
STARTCHAR 5316
ENCODING 21270
SWIDTH 960 0
DWIDTH 8 0
BBX 7 7 0 -1
BITMAP
28
2A
4C
C8
48
4A
4E
ENDCHAR
STARTCHAR 5317
ENCODING 21271
SWIDTH 960 0
DWIDTH 8 0
BBX 6 7 1 -1
BITMAP
50
54
D8
50
50
D4
5C
ENDCHAR
STARTCHAR 5319
ENCODING 21273
SWIDTH 960 0
DWIDTH 8 0
BBX 7 7 0 -1
BITMAP
78
7A
7C
78
6A
7E
BE
ENDCHAR
STARTCHAR 5320
ENCODING 21280
SWIDTH 960 0
DWIDTH 8 0
BBX 6 7 1 -1
BITMAP
FC
F8
C0
FC
D0
90
FC
ENDCHAR
STARTCHAR 5321
ENCODING 21281
SWIDTH 960 0
DWIDTH 8 0
BBX 6 7 1 -1
BITMAP
FC
F8
90
F8
F8
80
FC
ENDCHAR
STARTCHAR 5323
ENCODING 21283
SWIDTH 960 0
DWIDTH 8 0
BBX 6 7 1 -1
BITMAP
FC
F8
D4
F8
F8
FC
80
ENDCHAR
STARTCHAR 532A
ENCODING 21290
SWIDTH 960 0
DWIDTH 8 0
BBX 6 7 1 -1
BITMAP
FC
EC
B0
EC
B0
D0
FC
ENDCHAR
STARTCHAR 532F
ENCODING 21295
SWIDTH 960 0
DWIDTH 8 0
BBX 6 7 1 -1
BITMAP
FC
FC
A8
B8
F0
BC
FC
ENDCHAR
STARTCHAR 5339
ENCODING 21305
SWIDTH 960 0
DWIDTH 8 0
BBX 6 7 1 -1
BITMAP
FC
B0
D0
D4
D8
FC
80
ENDCHAR
STARTCHAR 533F
ENCODING 21311
SWIDTH 960 0
DWIDTH 8 0
BBX 6 7 1 -1
BITMAP
FC
FC
A0
FC
B8
B8
FC
ENDCHAR
STARTCHAR 5340
ENCODING 21312
SWIDTH 960 0
DWIDTH 8 0
BBX 6 7 1 -1
BITMAP
FC
B8
B8
F8
F8
B0
FC
ENDCHAR
STARTCHAR 5341
ENCODING 21313
SWIDTH 960 0
DWIDTH 8 0
BBX 6 7 1 -1
BITMAP
20
20
20
FC
20
20
20
ENDCHAR
STARTCHAR 5343
ENCODING 21315
SWIDTH 960 0
DWIDTH 8 0
BBX 6 7 1 -1
BITMAP
18
E0
20
FC
20
20
20
ENDCHAR
STARTCHAR 5344
ENCODING 21316
SWIDTH 960 0
DWIDTH 8 0
BBX 6 7 1 -1
BITMAP
48
48
FC
48
48
48
48
ENDCHAR
STARTCHAR 5347
ENCODING 21319
SWIDTH 960 0
DWIDTH 8 0
BBX 6 7 1 -1
BITMAP
30
D0
50
FC
50
50
90
ENDCHAR
STARTCHAR 5348
ENCODING 21320
SWIDTH 960 0
DWIDTH 8 0
BBX 6 7 1 -1
BITMAP
40
FC
A0
20
FC
20
20
ENDCHAR
STARTCHAR 5349
ENCODING 21321
SWIDTH 960 0
DWIDTH 8 0
BBX 6 7 1 -1
BITMAP
20
FC
68
48
FC
48
88
ENDCHAR
STARTCHAR 534A
ENCODING 21322
SWIDTH 960 0
DWIDTH 8 0
BBX 6 7 1 -1
BITMAP
68
A8
A4
78
FC
20
20
ENDCHAR
STARTCHAR 534D
ENCODING 21325
SWIDTH 960 0
DWIDTH 8 0
BBX 6 7 1 -1
BITMAP
E4
24
24
FC
A0
A0
BC
ENDCHAR
STARTCHAR 5351
ENCODING 21329
SWIDTH 960 0
DWIDTH 8 0
BBX 6 7 1 -1
BITMAP
20
F8
F8
F8
DC
F0
10
ENDCHAR
STARTCHAR 5352
ENCODING 21330
SWIDTH 960 0
DWIDTH 8 0
BBX 6 7 1 -1
BITMAP
FC
48
50
A8
FC
20
20
ENDCHAR
STARTCHAR 5353
ENCODING 21331
SWIDTH 960 0
DWIDTH 8 0
BBX 6 7 1 -1
BITMAP
20
3C
F8
F8
F8
FC
20
ENDCHAR
STARTCHAR 5354
ENCODING 21332
SWIDTH 960 0
DWIDTH 8 0
BBX 7 7 0 -1
BITMAP
48
5E
F6
44
76
6E
7A
ENDCHAR
STARTCHAR 5357
ENCODING 21335
SWIDTH 960 0
DWIDTH 8 0
BBX 6 7 1 -1
BITMAP
20
FC
FC
D4
FC
A4
A8
ENDCHAR
STARTCHAR 535A
ENCODING 21338
SWIDTH 960 0
DWIDTH 8 0
BBX 7 7 0 -1
BITMAP
4C
7E
FE
5E
44
7E
44
ENDCHAR
STARTCHAR 535C
ENCODING 21340
SWIDTH 960 0
DWIDTH 8 0
BBX 3 7 3 -1
BITMAP
80
80
80
E0
A0
80
80
ENDCHAR
STARTCHAR 535E
ENCODING 21342
SWIDTH 960 0
DWIDTH 8 0
BBX 6 7 1 -1
BITMAP
20
FC
20
30
28
20
20
ENDCHAR
STARTCHAR 5360
ENCODING 21344
SWIDTH 960 0
DWIDTH 8 0
BBX 6 7 1 -1
BITMAP
20
3C
20
20
F8
F8
88
ENDCHAR
STARTCHAR 5366
ENCODING 21350
SWIDTH 960 0
DWIDTH 8 0
BBX 6 7 1 -1
BITMAP
48
E8
E8
4C
E8
70
C8
ENDCHAR
STARTCHAR 5368
ENCODING 21352
SWIDTH 960 0
DWIDTH 8 0
BBX 6 7 1 -1
BITMAP
38
20
78
FC
84
F4
8C
ENDCHAR
STARTCHAR 536F
ENCODING 21359
SWIDTH 960 0
DWIDTH 8 0
BBX 6 7 1 -1
BITMAP
3C
D4
B4
B4
D4
5C
90
ENDCHAR
STARTCHAR 5370
ENCODING 21360
SWIDTH 960 0
DWIDTH 8 0
BBX 6 7 1 -1
BITMAP
5C
94
94
D4
94
DC
90
ENDCHAR
STARTCHAR 5371
ENCODING 21361
SWIDTH 960 0
DWIDTH 8 0
BBX 7 7 0 -1
BITMAP
20
78
7E
5C
6C
62
9E
ENDCHAR
STARTCHAR 5374
ENCODING 21364
SWIDTH 960 0
DWIDTH 8 0
BBX 6 7 1 -1
BITMAP
5C
F4
54
F4
74
FC
90
ENDCHAR
STARTCHAR 5375
ENCODING 21365
SWIDTH 960 0
DWIDTH 8 0
BBX 7 7 0 -1
BITMAP
1E
6A
5A
6E
EA
2E
48
ENDCHAR
STARTCHAR 5377
ENCODING 21367
SWIDTH 960 0
DWIDTH 8 0
BBX 6 7 1 -1
BITMAP
68
F8
B4
FC
F4
50
78
ENDCHAR
STARTCHAR 537D
ENCODING 21373
SWIDTH 960 0
DWIDTH 8 0
BBX 6 7 1 -1
BITMAP
40
FC
F4
F4
B4
FC
F0
ENDCHAR
STARTCHAR 537F
ENCODING 21375
SWIDTH 960 0
DWIDTH 8 0
BBX 7 7 0 -1
BITMAP
76
5E
5E
5E
DE
5E
84
ENDCHAR
STARTCHAR 5384
ENCODING 21380
SWIDTH 960 0
DWIDTH 8 0
BBX 6 7 1 -1
BITMAP
FC
80
F8
C8
D8
C4
78
ENDCHAR
STARTCHAR 5393
ENCODING 21395
SWIDTH 960 0
DWIDTH 8 0
BBX 6 7 1 -1
BITMAP
FC
F8
FC
80
90
F8
7C
ENDCHAR
STARTCHAR 5398
ENCODING 21400
SWIDTH 960 0
DWIDTH 8 0
BBX 6 7 1 -1
BITMAP
FC
F8
F8
D4
F8
90
7C
ENDCHAR
STARTCHAR 539A
ENCODING 21402
SWIDTH 960 0
DWIDTH 8 0
BBX 7 7 0 -1
BITMAP
7E
7C
7C
40
7C
7E
90
ENDCHAR
STARTCHAR 539F
ENCODING 21407
SWIDTH 960 0
DWIDTH 8 0
BBX 6 7 1 -1
BITMAP
FC
F8
C4
F8
F8
D8
74
ENDCHAR
STARTCHAR 53A0
ENCODING 21408
SWIDTH 960 0
DWIDTH 8 0
BBX 7 7 0 -1
BITMAP
7E
76
76
6E
76
B2
4E
ENDCHAR
STARTCHAR 53A5
ENCODING 21413
SWIDTH 960 0
DWIDTH 8 0
BBX 7 7 0 -1
BITMAP
7E
74
76
6E
74
AA
2A
ENDCHAR
STARTCHAR 53A6
ENCODING 21414
SWIDTH 960 0
DWIDTH 8 0
BBX 7 7 0 -1
BITMAP
7E
7E
7C
7C
7C
B8
36
ENDCHAR
STARTCHAR 53AD
ENCODING 21421
SWIDTH 960 0
DWIDTH 8 0
BBX 7 7 0 -1
BITMAP
7E
76
74
7E
74
B6
1A
ENDCHAR
STARTCHAR 53BB
ENCODING 21435
SWIDTH 960 0
DWIDTH 8 0
BBX 6 7 1 -1
BITMAP
20
F8
20
FC
28
5C
E4
ENDCHAR
STARTCHAR 53C3
ENCODING 21443
SWIDTH 960 0
DWIDTH 8 0
BBX 7 8 0 -1
BITMAP
08
2C
74
54
EE
7A
6C
70
ENDCHAR
STARTCHAR 53C8
ENCODING 21448
SWIDTH 960 0
DWIDTH 8 0
BBX 6 7 1 -1
BITMAP
F8
48
48
30
30
58
84
ENDCHAR
STARTCHAR 53C9
ENCODING 21449
SWIDTH 960 0
DWIDTH 8 0
BBX 6 7 1 -1
BITMAP
F8
28
50
30
30
D8
84
ENDCHAR
STARTCHAR 53CA
ENCODING 21450
SWIDTH 960 0
DWIDTH 8 0
BBX 7 7 0 -1
BITMAP
78
28
2C
34
54
5C
A2
ENDCHAR
STARTCHAR 53CB
ENCODING 21451
SWIDTH 960 0
DWIDTH 8 0
BBX 6 7 1 -1
BITMAP
40
FC
40
78
A8
B8
44
ENDCHAR
STARTCHAR 53CD
ENCODING 21453
SWIDTH 960 0
DWIDTH 8 0
BBX 7 7 0 -1
BITMAP
7E
40
7C
54
58
5C
A2
ENDCHAR
STARTCHAR 53D4
ENCODING 21460
SWIDTH 960 0
DWIDTH 8 0
BBX 7 7 0 -1
BITMAP
20
3E
2A
74
74
AA
6A
ENDCHAR
STARTCHAR 53D6
ENCODING 21462
SWIDTH 960 0
DWIDTH 8 0
BBX 7 7 0 -1
BITMAP
F0
5E
6A
64
54
EA
12
ENDCHAR
STARTCHAR 53D7
ENCODING 21463
SWIDTH 960 0
DWIDTH 8 0
BBX 6 7 1 -1
BITMAP
F8
A8
FC
84
F4
50
EC
ENDCHAR
STARTCHAR 53DB
ENCODING 21467
SWIDTH 960 0
DWIDTH 8 0
BBX 7 7 0 -1
BITMAP
7E
50
7E
5A
F4
5C
6A
ENDCHAR
STARTCHAR 53E1
ENCODING 21473
SWIDTH 960 0
DWIDTH 8 0
BBX 7 7 0 -1
BITMAP
30
7E
7A
B4
74
76
7A
ENDCHAR
STARTCHAR 53E2
ENCODING 21474
SWIDTH 960 0
DWIDTH 8 0
BBX 6 7 1 -1
BITMAP
98
FC
FC
FC
FC
B8
F4
ENDCHAR
STARTCHAR 53E3
ENCODING 21475
SWIDTH 960 0
DWIDTH 8 0
BBX 5 6 1 -1
BITMAP
F8
88
88
88
F8
88
ENDCHAR
STARTCHAR 53E4
ENCODING 21476
SWIDTH 960 0
DWIDTH 8 0
BBX 6 7 1 -1
BITMAP
20
FC
20
20
F8
88
F8
ENDCHAR
STARTCHAR 53E5
ENCODING 21477
SWIDTH 960 0
DWIDTH 8 0
BBX 6 7 1 -1
BITMAP
40
7C
84
F4
74
54
08
ENDCHAR
STARTCHAR 53E9
ENCODING 21481
SWIDTH 960 0
DWIDTH 8 0
BBX 6 7 1 -1
BITMAP
DC
A4
A4
A4
D4
AC
10
ENDCHAR
STARTCHAR 53EA
ENCODING 21482
SWIDTH 960 0
DWIDTH 8 0
BBX 6 7 1 -1
BITMAP
F8
88
88
F8
48
88
84
ENDCHAR
STARTCHAR 53EB
ENCODING 21483
SWIDTH 960 0
DWIDTH 8 0
BBX 6 7 1 -1
BITMAP
08
D8
D8
D8
D4
28
08
ENDCHAR
STARTCHAR 53EC
ENCODING 21484
SWIDTH 960 0
DWIDTH 8 0
BBX 5 7 1 -1
BITMAP
F8
28
58
80
F8
F8
88
ENDCHAR
STARTCHAR 53ED
ENCODING 21485
SWIDTH 960 0
DWIDTH 8 0
BBX 6 7 1 -1
BITMAP
B0
A8
A8
A8
48
44
84
ENDCHAR
STARTCHAR 53EF
ENCODING 21487
SWIDTH 960 0
DWIDTH 8 0
BBX 6 7 1 -1
BITMAP
FC
08
E8
A8
E8
08
18
ENDCHAR
STARTCHAR 53F0
ENCODING 21488
SWIDTH 960 0
DWIDTH 8 0
BBX 6 7 1 -1
BITMAP
48
5C
E4
00
F8
88
F8
ENDCHAR
STARTCHAR 53F1
ENCODING 21489
SWIDTH 960 0
DWIDTH 8 0
BBX 6 7 1 -1
BITMAP
10
D4
D8
D0
E0
D4
1C
ENDCHAR
STARTCHAR 53F2
ENCODING 21490
SWIDTH 960 0
DWIDTH 8 0
BBX 6 7 1 -1
BITMAP
20
F8
A4
F8
60
70
8C
ENDCHAR
STARTCHAR 53F3
ENCODING 21491
SWIDTH 960 0
DWIDTH 8 0
BBX 7 7 0 -1
BITMAP
10
7E
20
3C
62
BC
22
ENDCHAR
STARTCHAR 53F8
ENCODING 21496
SWIDTH 960 0
DWIDTH 8 0
BBX 6 7 1 -1
BITMAP
FC
F4
04
F4
F4
94
0C
ENDCHAR
STARTCHAR 5403
ENCODING 21507
SWIDTH 960 0
DWIDTH 8 0
BBX 6 7 1 -1
BITMAP
20
BC
A0
F8
90
A4
3C
ENDCHAR
STARTCHAR 5404
ENCODING 21508
SWIDTH 960 0
DWIDTH 8 0
BBX 7 7 0 -1
BITMAP
20
7C
68
58
BE
44
3C
ENDCHAR
STARTCHAR 5408
ENCODING 21512
SWIDTH 960 0
DWIDTH 8 0
BBX 6 7 1 -1
BITMAP
30
48
FC
00
78
88
78
ENDCHAR
STARTCHAR 5409
ENCODING 21513
SWIDTH 960 0
DWIDTH 8 0
BBX 6 7 1 -1
BITMAP
20
FC
FC
00
F8
88
F8
ENDCHAR
STARTCHAR 540A
ENCODING 21514
SWIDTH 960 0
DWIDTH 8 0
BBX 5 7 1 -1
BITMAP
78
88
78
F8
A8
A8
20
ENDCHAR
STARTCHAR 540C
ENCODING 21516
SWIDTH 960 0
DWIDTH 8 0
BBX 6 7 1 -1
BITMAP
FC
F4
84
F4
F4
C4
8C
ENDCHAR
STARTCHAR 540D
ENCODING 21517
SWIDTH 960 0
DWIDTH 8 0
BBX 6 7 1 -1
BITMAP
20
78
B0
60
FC
44
7C
ENDCHAR
STARTCHAR 540E
ENCODING 21518
SWIDTH 960 0
DWIDTH 8 0
BBX 7 7 0 -1
BITMAP
04
78
7E
40
5C
5C
A2
ENDCHAR
STARTCHAR 540F
ENCODING 21519
SWIDTH 960 0
DWIDTH 8 0
BBX 6 7 1 -1
BITMAP
20
FC
F8
A4
F8
20
DC
ENDCHAR
STARTCHAR 5410
ENCODING 21520
SWIDTH 960 0
DWIDTH 8 0
BBX 6 7 1 -1
BITMAP
10
D0
FC
D0
D0
D0
7C
ENDCHAR
STARTCHAR 5411
ENCODING 21521
SWIDTH 960 0
DWIDTH 8 0
BBX 6 7 1 -1
BITMAP
20
FC
84
F4
F4
D4
8C
ENDCHAR
STARTCHAR 541B
ENCODING 21531
SWIDTH 960 0
DWIDTH 8 0
BBX 6 7 1 -1
BITMAP
F8
FC
28
F8
78
C4
78
ENDCHAR
STARTCHAR 541D
ENCODING 21533
SWIDTH 960 0
DWIDTH 8 0
BBX 6 7 1 -1
BITMAP
20
FC
30
CC
78
88
78
ENDCHAR
STARTCHAR 541F
ENCODING 21535
SWIDTH 960 0
DWIDTH 8 0
BBX 6 7 1 -1
BITMAP
18
E4
FC
C0
F8
C8
08
ENDCHAR
STARTCHAR 5420
ENCODING 21536
SWIDTH 960 0
DWIDTH 8 0
BBX 6 7 1 -1
BITMAP
18
D0
FC
D0
E8
A8
44
ENDCHAR
STARTCHAR 5426
ENCODING 21542
SWIDTH 960 0
DWIDTH 8 0
BBX 6 7 1 -1
BITMAP
FC
68
A4
20
F8
88
F8
ENDCHAR
STARTCHAR 5429
ENCODING 21545
SWIDTH 960 0
DWIDTH 8 0
BBX 6 7 1 -1
BITMAP
D8
EC
E4
F8
D4
64
48
ENDCHAR
STARTCHAR 542B
ENCODING 21547
SWIDTH 960 0
DWIDTH 8 0
BBX 7 7 0 -1
BITMAP
18
7C
82
7C
7C
44
7C
ENDCHAR
STARTCHAR 5433
ENCODING 21555
SWIDTH 960 0
DWIDTH 8 0
BBX 7 7 0 -1
BITMAP
7C
7C
40
7C
FE
28
46
ENDCHAR
STARTCHAR 5438
ENCODING 21560
SWIDTH 960 0
DWIDTH 8 0
BBX 6 7 1 -1
BITMAP
B8
A8
AC
B4
B8
D8
64
ENDCHAR
STARTCHAR 5439
ENCODING 21561
SWIDTH 960 0
DWIDTH 8 0
BBX 6 6 1 0
BITMAP
DC
F4
D0
D0
A8
44
ENDCHAR
STARTCHAR 543B
ENCODING 21563
SWIDTH 960 0
DWIDTH 8 0
BBX 6 7 1 -1
BITMAP
10
DC
FC
DC
F4
D4
28
ENDCHAR
STARTCHAR 543C
ENCODING 21564
SWIDTH 960 0
DWIDTH 8 0
BBX 6 7 1 -1
BITMAP
78
98
A8
B8
A8
2C
6C
ENDCHAR
STARTCHAR 543E
ENCODING 21566
SWIDTH 960 0
DWIDTH 8 0
BBX 6 7 1 -1
BITMAP
FC
F8
FC
00
F8
88
F8
ENDCHAR
STARTCHAR 5442
ENCODING 21570
SWIDTH 960 0
DWIDTH 8 0
BBX 5 7 1 -1
BITMAP
78
88
78
20
F8
F8
88
ENDCHAR
STARTCHAR 5448
ENCODING 21576
SWIDTH 960 0
DWIDTH 8 0
BBX 6 7 1 -1
BITMAP
F8
F8
00
F8
FC
20
FC
ENDCHAR
STARTCHAR 544A
ENCODING 21578
SWIDTH 960 0
DWIDTH 8 0
BBX 6 7 1 -1
BITMAP
20
78
FC
20
F8
88
F8
ENDCHAR
STARTCHAR 5451
ENCODING 21585
SWIDTH 960 0
DWIDTH 8 0
BBX 6 7 1 -1
BITMAP
F8
20
FC
48
FC
88
78
ENDCHAR
STARTCHAR 5468
ENCODING 21608
SWIDTH 960 0
DWIDTH 8 0
BBX 6 7 0 -1
BITMAP
7C
7C
7C
44
7C
7C
84
ENDCHAR
STARTCHAR 546A
ENCODING 21610
SWIDTH 960 0
DWIDTH 8 0
BBX 6 7 1 -1
BITMAP
B8
A4
A4
B8
A8
2C
4C
ENDCHAR
STARTCHAR 5471
ENCODING 21617
SWIDTH 960 0
DWIDTH 8 0
BBX 6 7 1 -1
BITMAP
08
B8
B8
B8
B4
5C
64
ENDCHAR
STARTCHAR 5473
ENCODING 21619
SWIDTH 960 0
DWIDTH 8 0
BBX 6 7 1 -1
BITMAP
10
FC
D0
FC
D8
34
50
ENDCHAR
STARTCHAR 5475
ENCODING 21621
SWIDTH 960 0
DWIDTH 8 0
BBX 6 7 1 -1
BITMAP
FC
C4
F4
F4
F4
84
08
ENDCHAR
STARTCHAR 547B
ENCODING 21627
SWIDTH 960 0
DWIDTH 8 0
BBX 6 7 1 -1
BITMAP
10
FC
F4
FC
FC
50
10
ENDCHAR
STARTCHAR 547C
ENCODING 21628
SWIDTH 960 0
DWIDTH 8 0
BBX 6 7 1 -1
BITMAP
0C
B4
B8
90
BC
90
10
ENDCHAR
STARTCHAR 547D
ENCODING 21629
SWIDTH 960 0
DWIDTH 8 0
BBX 6 7 1 -1
BITMAP
20
58
F4
DC
B4
DC
10
ENDCHAR
STARTCHAR 5480
ENCODING 21632
SWIDTH 960 0
DWIDTH 8 0
BBX 6 7 1 -1
BITMAP
F8
E4
F8
E4
F8
64
7C
ENDCHAR
STARTCHAR 5486
ENCODING 21638
SWIDTH 960 0
DWIDTH 8 0
BBX 6 7 1 -1
BITMAP
20
BC
F4
AC
BC
24
3C
ENDCHAR
STARTCHAR 548C
ENCODING 21644
SWIDTH 960 0
DWIDTH 8 0
BBX 7 7 0 -1
BITMAP
30
4E
72
2A
4A
AE
2A
ENDCHAR
STARTCHAR 548E
ENCODING 21646
SWIDTH 960 0
DWIDTH 8 0
BBX 7 7 0 -1
BITMAP
24
7C
2A
5E
BC
44
3C
ENDCHAR
STARTCHAR 5490
ENCODING 21648
SWIDTH 960 0
DWIDTH 8 0
BBX 6 7 1 -1
BITMAP
D4
E4
FC
E4
E4
E4
28
ENDCHAR
STARTCHAR 54A4
ENCODING 21668
SWIDTH 960 0
DWIDTH 8 0
BBX 6 7 1 -1
BITMAP
10
BC
88
B0
BC
14
1C
ENDCHAR
STARTCHAR 54A8
ENCODING 21672
SWIDTH 960 0
DWIDTH 8 0
BBX 6 7 1 -1
BITMAP
20
BC
D4
68
FC
88
F8
ENDCHAR
STARTCHAR 54AB
ENCODING 21675
SWIDTH 960 0
DWIDTH 8 0
BBX 7 7 0 -1
BITMAP
7E
5A
5E
7A
6A
50
8E
ENDCHAR
STARTCHAR 54AC
ENCODING 21676
SWIDTH 960 0
DWIDTH 8 0
BBX 6 7 1 -1
BITMAP
3C
80
A8
CC
90
28
44
ENDCHAR
STARTCHAR 54B3
ENCODING 21683
SWIDTH 960 0
DWIDTH 8 0
BBX 6 7 1 -1
BITMAP
10
BC
98
94
A8
18
64
ENDCHAR
STARTCHAR 54B8
ENCODING 21688
SWIDTH 960 0
DWIDTH 8 0
BBX 7 7 0 -1
BITMAP
0C
7E
7A
7C
74
7C
96
ENDCHAR
STARTCHAR 54BD
ENCODING 21693
SWIDTH 960 0
DWIDTH 8 0
BBX 6 7 1 -1
BITMAP
BC
A4
BC
B4
BC
24
3C
ENDCHAR
STARTCHAR 54C0
ENCODING 21696
SWIDTH 960 0
DWIDTH 8 0
BBX 6 7 1 -1
BITMAP
FC
00
F8
F8
50
C8
F4
ENDCHAR
STARTCHAR 54C1
ENCODING 21697
SWIDTH 960 0
DWIDTH 8 0
BBX 6 7 1 -1
BITMAP
78
88
78
00
DC
B4
DC
ENDCHAR
STARTCHAR 54C4
ENCODING 21700
SWIDTH 960 0
DWIDTH 8 0
BBX 6 7 1 -1
BITMAP
28
A8
BC
A8
BC
28
44
ENDCHAR
STARTCHAR 54C8
ENCODING 21704
SWIDTH 960 0
DWIDTH 8 0
BBX 6 7 1 -1
BITMAP
10
A8
FC
80
BC
24
3C
ENDCHAR
STARTCHAR 54C9
ENCODING 21705
SWIDTH 960 0
DWIDTH 8 0
BBX 7 7 0 -1
BITMAP
28
7A
FE
0C
74
7C
1E
ENDCHAR
STARTCHAR 54E1
ENCODING 21729
SWIDTH 960 0
DWIDTH 8 0
BBX 6 7 1 -1
BITMAP
F8
F8
F8
F8
F8
F8
CC
ENDCHAR
STARTCHAR 54E5
ENCODING 21733
SWIDTH 960 0
DWIDTH 8 0
BBX 6 7 1 -1
BITMAP
FC
E8
F8
FC
E8
E8
18
ENDCHAR
STARTCHAR 54E8
ENCODING 21736
SWIDTH 960 0
DWIDTH 8 0
BBX 6 7 1 -1
BITMAP
18
F4
BC
A4
BC
7C
2C
ENDCHAR
STARTCHAR 54ED
ENCODING 21741
SWIDTH 960 0
DWIDTH 8 0
BBX 6 7 1 -1
BITMAP
DC
DC
28
FC
30
48
84
ENDCHAR
ENDFONT
